<svg clip-rule="evenodd" fill-rule="evenodd" stroke-linejoin="round" stroke-miterlimit="1.41421" viewBox="0 0 619 318" xmlns="http://www.w3.org/2000/svg"><path d="m609.8 58.772c0 18.099-14.834 32.771-33.134 32.771h-116.647c-11.5 0-20.823 9.222-20.823 20.594 0 11.375 9.323 20.597 20.823 20.597h27.39c14.261 0 25.824 11.434 25.824 25.539 0 14.106-11.563 25.539-25.824 25.539h-66.417c-13.86 0-25.093 11.113-25.093 24.82 0 13.708 11.234 24.82 25.093 24.82h170.128c15.398 0 27.88 12.345 27.88 27.573 0 15.338-12.654 27.727-28.16 27.572l-129.678-1.285c-14.164-.141-25.431 11.715-24.411 25.688l-257.594-1.492c0-32.536-26.668-58.91-59.566-58.91h-89.815c-16.446 0-29.776-13.186-29.776-29.452 0-16.336 13.445-29.552 29.963-29.449l88.617.551v-7.838c0-18.661 15.296-33.789 34.165-33.789 17.053 0 30.876-13.673 30.876-30.54 0-16.865-13.823-30.538-30.876-30.538h-110.839c-18.3 0-33.136-14.672-33.136-32.77 0-18.101 14.835-32.773 33.136-32.773h534.76c18.3 0 33.134 14.672 33.134 32.772" fill="#f2f2f2"/><path d="m446.847 272.27 42.917 42.882c.543.543 1.279.848 2.047.848s1.504-.305 2.047-.848l71.195-71.136c.542-.542.848-1.278.848-2.045s-.306-1.503-.848-2.045l-42.917-42.881c-1.124-1.121-2.97-1.121-4.094 0l-71.195 71.135c-1.121 1.122-1.121 2.968 0 4.09" fill="#fff"/><path d="m474.6 300.414 10.232 10.09 75.568-74.538-10.232-10.092z" fill="#4178da"/><path d="m468 279.024 5.208 5.102 50.892-49.853-5.21-5.102z" fill="#f2f2f2"/><path d="m502.904 308.306-3.174-3.187 62.456-62.725c.435-.439.435-1.158 0-1.597l-41.784-41.962c-.21-.212-.496-.332-.795-.332s-.585.12-.795.332l-16.838 16.911-3.174-3.187 16.839-16.911c1.051-1.054 2.48-1.648 3.968-1.648 1.489 0 2.918.594 3.969 1.648l41.785 41.962c2.185 2.199 2.185 5.773 0 7.97z" fill="#454bd8"/><path d="m494.92 311.036v-111.866c0-3.237-2.569-5.86-5.738-5.86h-52.205c-3.171 0-5.739 2.623-5.739 5.859v111.866c0 3.237 2.57 5.86 5.74 5.86h52.204c3.17 0 5.739-2.623 5.739-5.86" fill="#f2f2f2"/><path d="m488.057 318v-4.527c1.937 0 3.514-1.611 3.514-3.591v-111.762c0-1.982-1.577-3.593-3.514-3.593h-52.114c-1.937 0-3.514 1.611-3.514 3.591v7.66h-4.429v-7.66c0-4.476 3.565-8.118 7.943-8.118h52.114c4.38 0 7.943 3.642 7.943 8.12v111.762c0 4.476-3.563 8.118-7.943 8.118" fill="#454bd8"/><path d="m481.964 254.123c-.231-11.881-9.84-21.32-21.462-21.084s-20.856 10.06-20.625 21.942c.233 11.882 9.842 21.321 21.463 21.084 11.622-.236 20.857-10.06 20.624-21.942" fill="#fff"/><path d="m461.465 234.28c-.13 0-.258 0-.388.003-10.637.217-19.12 9.237-18.907 20.112.213 10.874 9.051 19.52 19.675 19.326 5.153-.105 9.957-2.255 13.528-6.054 3.572-3.798 5.482-8.792 5.379-14.058-.21-10.74-8.824-19.329-19.287-19.329m-.012 43.996c-12.875 0-23.477-10.572-23.734-23.79-.262-13.384 10.177-24.488 23.268-24.753 6.388-.178 12.354 2.273 16.928 6.765 4.574 4.493 7.162 10.537 7.286 17.02.129 6.482-2.222 12.627-6.617 17.303-4.395 4.675-10.308 7.32-16.649 7.45-.16.003-.323.005-.482.005" fill="#454bd8"/><path d="m467.935 288.638c-.065-3.351-2.775-6.015-6.053-5.947-3.278.066-5.882 2.838-5.817 6.189.066 3.35 2.775 6.013 6.055 5.946 3.276-.068 5.882-2.837 5.815-6.188m0-69.518c-.065-3.35-2.775-6.013-6.053-5.946-3.278.068-5.882 2.837-5.817 6.188.066 3.351 2.775 6.015 6.055 5.947 3.276-.066 5.882-2.838 5.815-6.189" fill="#fff"/><path d="m466.778 263.931c-3.613 0-6.555-2.89-6.555-6.441v-4.485c0-1.042-.862-1.89-1.922-1.89s-1.922.848-1.922 1.89v10.893h-4.633v-10.893c0-3.553 2.94-6.442 6.555-6.442 3.614 0 6.555 2.89 6.555 6.442v4.485c0 1.041.862 1.888 1.922 1.888s1.922-.847 1.922-1.888v-11.214h4.633v11.214c0 3.55-2.941 6.441-6.555 6.441" fill="#454bd8"/><path d="m447.429 256.207h29.142v-4.414h-29.141zm-6.398-40.939c0 .002-.003.002-.004.002.001 0 .003 0 .004-.002zm45.255 10.042h-4.468v-10.182c-5.876-.973-10.46-5.685-11.407-11.713h-16.821c-.947 6.042-5.524 10.742-11.407 11.713v8.374h-4.468v-9.554c0-1.723 1.278-3.12 2.971-3.252 4.596-.366 8.205-4.055 8.582-8.775.145-1.764 1.528-3.093 3.218-3.093h19.027c1.695 0 3.078 1.33 3.22 3.096.374 4.678 3.955 8.366 8.51 8.765 1.735.152 3.044 1.593 3.044 3.353v11.268zm-14.773 83.862h-19.027c-1.69 0-3.074-1.328-3.218-3.09-.378-4.72-3.988-8.411-8.584-8.776-1.694-.138-2.97-1.536-2.97-3.252v-9.557h4.468v8.376c5.88.97 10.46 5.668 11.405 11.712h16.825c.947-6.03 5.532-10.74 11.406-11.712v-10.183h4.468v11.269c0 1.758-1.309 3.2-3.043 3.351-4.557.401-8.138 4.088-8.513 8.769-.14 1.762-1.522 3.093-3.217 3.093" fill="#454bd8"/><path d="m228.726 43.906v4.46c0 1.185-.991 2.144-2.214 2.144-1.224 0-2.214-.959-2.214-2.144v-4.46h-3.379c-1.191 0-2.156-.985-2.156-2.2 0-1.218.965-2.203 2.156-2.203h3.379v-3.358c0-1.184.99-2.145 2.214-2.145 1.223 0 2.214.96 2.214 2.145v3.358h4.485c1.192 0 2.157.985 2.157 2.203 0 1.215-.965 2.2-2.157 2.2zm263.467 91.643v3.359c0 1.185-.991 2.144-2.214 2.144-1.224 0-2.214-.96-2.214-2.144v-3.36h-3.379c-1.191 0-2.156-.984-2.156-2.2 0-1.217.965-2.202 2.156-2.202h3.379v-4.46c0-1.184.99-2.144 2.214-2.144 1.223 0 2.214.96 2.214 2.145v4.459h4.485c1.192 0 2.157.985 2.157 2.202 0 1.216-.965 2.2-2.157 2.2h-4.485zm-447.23 75.948v3.359c0 1.185-.99 2.144-2.214 2.144-1.223 0-2.214-.96-2.214-2.144v-3.36h-3.379c-1.191 0-2.156-.984-2.156-2.2 0-1.217.965-2.202 2.156-2.202h3.379v-4.46c0-1.184.99-2.144 2.214-2.144 1.223 0 2.214.96 2.214 2.145v4.459h4.486c1.191 0 2.156.985 2.156 2.202 0 1.216-.965 2.2-2.156 2.2h-4.486z" fill="#4cccd6"/><path d="m396.088 46.392-2.881-2.865c-.412-.41-.644-.968-.644-1.549s.232-1.139.644-1.549c.857-.849 2.259-.849 3.116 0l2.881 2.865 2.882-2.865c.857-.849 2.259-.849 3.116 0 .858.855.86 2.242 0 3.098l-2.881 2.865 2.88 2.864c.861.856.86 2.243 0 3.1-.43.426-.994.64-1.558.64-.583.001-1.144-.229-1.558-.64l-2.88-2.865-2.881 2.864c-.43.427-.994.641-1.558.641-.583.001-1.144-.229-1.558-.64-.413-.41-.646-.968-.646-1.55s.233-1.14.646-1.55z" fill="#38d2de"/><path d="m180.222 99.226-2.881-2.865c-.412-.41-.644-.968-.644-1.549s.232-1.139.644-1.549c.857-.849 2.259-.849 3.116 0l2.882 2.864 2.881-2.864c.857-.85 2.26-.85 3.117 0 .412.41.644.968.644 1.549s-.232 1.139-.644 1.549l-2.882 2.865 2.88 2.863c.86.856.86 2.243 0 3.1-.43.427-.993.64-1.558.64-.583.001-1.144-.229-1.558-.64l-2.88-2.864-2.881 2.864c-.43.427-.994.64-1.558.64-.583.001-1.144-.229-1.558-.64-.413-.41-.645-.968-.645-1.55s.232-1.14.645-1.55zm414.019 103.465-2.88-2.864c-.412-.41-.644-.968-.644-1.549 0-.582.232-1.14.644-1.55.857-.849 2.258-.849 3.115 0l2.882 2.865 2.882-2.865c.857-.85 2.259-.85 3.116 0 .86.855.858 2.242 0 3.099l-2.881 2.864 2.88 2.863c.86.857.86 2.244 0 3.1-.431.427-.994.641-1.558.641-.583.001-1.144-.229-1.558-.64l-2.881-2.865-2.88 2.864c-.431.427-.994.641-1.559.641-.583.001-1.144-.229-1.558-.64-.413-.41-.645-.968-.645-1.55s.232-1.14.645-1.55z" fill="#4cccd6"/><path d="m429.413 50.134h66.357v-4.418h-66.357zm-411.413 93.881h47.556v-4.418h-47.556zm392.612-93.881h12.165v-4.418h-12.165zm136.031 114.866h66.357v-4.418h-66.357zm-18.801 0h12.165v-4.418h-12.165z" fill="#454bd8"/><path d="m558 207.262c-.001 2.419-1.992 4.41-4.411 4.41-.001 0-.003 0-.004 0-2.421.002-4.415-1.989-4.417-4.41.002-2.42 1.993-4.41 4.413-4.41h.004.004c2.419 0 4.41 1.991 4.411 4.41m-109.294-202.852c-.001 2.419-1.992 4.41-4.411 4.41-.002 0-.003 0-.005 0-.001 0-.003 0-.004 0-2.42 0-4.411-1.99-4.412-4.41.002-2.42 1.993-4.41 4.413-4.41h.003.004c2.42 0 4.411 1.99 4.412 4.41m89.422 74.967c-.002 2.421-1.994 4.411-4.415 4.41-.001 0-.003 0-.004 0-2.42 0-4.411-1.99-4.413-4.41.002-2.42 1.993-4.41 4.413-4.41h.004c2.421-.001 4.413 1.989 4.415 4.41m-410.681 25.357c-.001 2.42-1.992 4.41-4.412 4.41-.001 0-.003 0-.004 0s-.002 0-.003 0c-2.42 0-4.411-1.99-4.413-4.41.002-2.42 1.993-4.41 4.413-4.41h.003.004c2.42 0 4.411 1.99 4.412 4.41m354.378 58.981c-.002 1.513-1.247 2.757-2.76 2.756-.001 0-.001 0-.002 0-1.512 0-2.757-1.244-2.758-2.756.001-1.512 1.246-2.756 2.758-2.756h.002c1.513-.001 2.758 1.243 2.76 2.756m-417.305-65.045c-.002 1.513-1.248 2.757-2.761 2.756-1.513.001-2.758-1.243-2.759-2.756.001-1.513 1.246-2.757 2.759-2.756 1.513-.001 2.758 1.243 2.76 2.756m14.353 167.575c-.002 1.512-1.246 2.755-2.758 2.755-.001 0-.003 0-.004 0-1.512 0-2.756-1.243-2.758-2.755.001-1.513 1.245-2.757 2.758-2.757h.004c1.513 0 2.757 1.244 2.758 2.757m230.732-214.98c-.002 1.513-1.247 2.756-2.76 2.755-1.513.001-2.758-1.242-2.76-2.755.001-1.513 1.245-2.757 2.758-2.757h.004c1.513 0 2.757 1.244 2.758 2.757" fill="#efcc8d"/><path d="m249.882 315.76h-96.98c-3.2 0-5.794-2.64-5.794-5.897v-67.726c0-3.258 2.594-5.897 5.794-5.897h96.981c3.2 0 5.793 2.64 5.793 5.897v67.726c0 3.256-2.593 5.897-5.794 5.897" fill="#fff"/><path d="m181.451 318h-28.101c-4.052 0-7.35-3.32-7.35-7.401v-51.959h4.563v51.959c0 1.547 1.251 2.805 2.787 2.805h28.101zm69.266-1.12h-11.658v-4.869h11.658c1.498 0 2.72-1.332 2.72-2.971h4.455c0 4.323-3.218 7.84-7.175 7.84m-47.109-78.4h32.127v-4.48h-32.127z" fill="#454bd8"/><path d="m152.647 282.16h4.431v-14.56h-4.43z" fill="#454bd8"/><path d="m161.51 241.84h79.765v66.08h-79.765z" fill="#f2f2f2"/><path d="m246.26 275.457c-.295.001-.537.244-.537.539v.003c0 .3.24.544.536.544.295-.002.537-.245.537-.54 0-.001 0-.003 0-.004.001-.296-.241-.54-.537-.542m0 5.583c-2.749 0-4.984-2.26-4.984-5.04s2.235-5.04 4.984-5.04 4.986 2.26 4.986 5.04-2.237 5.04-4.986 5.04m-73.606 2.24-8.928-8.448 8.827-8.352 3.26 3.085-5.568 5.267 5.668 5.363zm57.479 0-3.26-3.085 5.67-5.363-5.569-5.267 3.26-3.085 8.826 8.352z" fill="#454bd8"/><path d="m183.667 262h38.774v26.88h-38.774z" fill="#4178da"/><path d="m185.919 286.496h33.162v-22.112h-33.162zm-4.468 4.624h42.098v-31.36h-42.098z" fill="#454bd8"/><path d="m259 310.63h-2.372c.033-.253.076-.5.076-.762v-67.665c0-3.254-2.62-5.892-5.855-5.892h-14.548v-2.311h-1.674v81.76h4.593v-1.648h18.88c.556-1.043.9-2.217.9-3.482" fill="#4178da" fill-opacity=".298039"/><path d="m410.892 311.804v-232.534c0-5.563-4.581-10.074-10.232-10.074h-151.212c-5.651 0-10.233 4.51-10.233 10.075v232.533z" fill="#fff"/><path d="m239.215 95.542v-17.799c0-4.719 3.852-8.547 8.604-8.547h154.47c4.752 0 8.603 3.828 8.603 8.547v17.8h-171.677z" fill="#f2f2f2"/><path d="m241.533 314h-4.533v-236.256c0-5.924 4.85-10.744 10.809-10.744h153.381c5.961 0 10.81 4.82 10.81 10.744v117.232h-4.533v-117.232c0-3.44-2.816-6.24-6.276-6.24h-153.381c-3.46 0-6.276 2.8-6.276 6.24v236.256z" fill="#454bd8"/><path d="m239.215 97.738h171.677v-4.391h-171.677zm21.045-12.076h7.753v-4.39h-7.754zm15.506 0h7.753v-4.39h-7.753zm15.506 0h7.753v-4.39h-7.753z" fill="#454bd8"/><path d="m262.475 165.8h126.265v-49.4h-126.265zm-1.108 143.809h126.266v-35.129h-126.266z" fill="#4cccd6"/><path d="m262.475 250.329h38.766v-49.4h-38.766zm46.519 0h38.765v-49.4h-38.765zm44.303 0h38.766v-49.4h-38.766z" fill="#f2f2f2"/><path d="m299.025 178.974h53.165v4.39h-53.165z" fill="#454bd8"/><path d="m413.778 314.484v-111.317c-1.011-.743-2.004-1.51-2.98-2.299-1.443-1.163-3.523-1.152-4.954.026-3.302 2.689-8.83 7.19-16.29 8.105l.274 2.258c-1.995.24-4.887.398-8.593.473l-.047-2.272c-1.642.034-3.445.05-5.406.05v2.274c-3.878 0-7.945-.065-11.64-.147l.05-2.276-4.08-.102c-1.115-.078-2.18.398-2.954 1.184-.774.782-1.195 1.864-1.155 2.88l.05 38.122c.026 14.107 6.033 27.561 16.52 36.997l29.213 26.252h11.756z" fill="#4178da" fill-opacity=".298039"/><path d="m415.778 315.5c-.581.385-1.337.393-1.926.02l-32.967-29.178c-10.131-8.968-15.926-21.748-15.943-35.166l-.052-37.976c-.038-.993.78-1.808 1.789-1.779 4.639.128 10.473.25 15.914.25 6.506 0 11.284-.175 14.207-.522 8.074-.976 13.928-5.581 17.651-8.566.616-.499 1.503-.503 2.124-.01 3.807 2.996 9.654 7.512 17.85 8.689 2.69.385 6.969.58 12.72.58 5.478 0 11.428-.17 15.95-.338 1.008-.037 1.832.773 1.793 1.77l-.047 38.326c-.015 13.586-5.953 26.512-16.303 35.489l-32.76 28.41z" fill="#fff"/><path d="m415.114 310.02c-.509.34-1.174.347-1.69.017l-28.938-25.779c-8.894-7.922-13.98-19.213-13.995-31.069l-.046-33.55c-.001-.017-.001-.035-.001-.052 0-.835.687-1.522 1.522-1.522.017 0 .034 0 .051.001 4.072.113 9.192.222 13.97.222 5.708 0 9.905-.155 12.468-.463 7.088-.86 12.226-4.93 15.494-7.567.541-.439 1.321-.443 1.866-.008 3.34 2.647 8.473 6.637 15.669 7.676 2.36.342 6.115.514 11.164.514 4.806 0 10.03-.152 13.997-.3.022-.001.045-.001.067-.001.828 0 1.51.681 1.51 1.51 0 .018 0 .037-.001.055l-.04 33.859c-.014 12.005-5.226 23.425-14.312 31.356z" fill="#4178da"/><path d="m366.151 213.17v.036zm95.254.153v.013zm-95.826.416h.003zm48.112 104.261c-.76 0-1.521-.212-2.19-.634l-.292-.22-32.918-29.147c-10.583-9.37-16.662-22.787-16.681-36.81l-.052-37.934c-.039-1.018.388-2.093 1.171-2.871.784-.777 1.898-1.19 2.981-1.171 1.287.034 2.675.071 4.118.103l-.103 4.526c-1.241-.026-2.44-.058-3.574-.087l.053 37.43c.017 12.741 5.541 24.931 15.156 33.445l32.34 28.635 32.161-27.904c9.836-8.534 15.484-20.836 15.498-33.753l.046-37.766c-4.148.151-10.004.319-15.417.319-5.855 0-10.24-.203-13.032-.605-8.64-1.241-14.771-5.883-18.544-8.849-3.76 3.009-9.861 7.71-18.415 8.743l-.558-4.493c7.535-.913 13.118-5.39 16.453-8.067 1.453-1.175 3.544-1.183 5.006-.02 3.371 2.654 9.014 7.099 16.72 8.205 2.572.37 6.735.557 12.37.557 5.604 0 11.705-.183 15.837-.337 1.116-.043 2.202.377 3 1.159.789.778 1.215 1.853 1.172 2.96l-.044 38.2c-.016 14.216-6.234 27.756-17.058 37.146l-32.95 28.562c-.668.443-1.452.679-2.254.678z" fill="#454bd8"/><path d="m381.556 214.336v-4.364c1.985 0 3.807-.016 5.463-.047l.092 4.362c-1.684.034-3.538.05-5.555.05" fill="#454bd8"/><path d="m441.556 256.795c0 14.92-12.188 27.018-27.224 27.018-15.033 0-27.22-12.097-27.22-27.018 0-14.922 12.187-27.02 27.22-27.02 15.036 0 27.224 12.098 27.224 27.02" fill="#fefeff"/><path d="m410.186 269.477-13.076-12.887 3.257-3.21 9.818 9.678 19.224-18.946 3.257 3.21z" fill="#454bd8"/><path d="m317.86 162.763c-2.186 0-3.975 1.808-3.975 4.018v-4.217c0-2.209-1.788-4.017-3.974-4.017s-3.973 1.808-3.973 4.017v-4.216c0-2.208-1.79-4.017-3.975-4.017s-3.974 1.809-3.974 4.017v-12.766c0-2.21-1.789-4.019-3.974-4.019-2.186 0-3.975 1.809-3.975 4.019v25.291h-5.603c-1.483 0-2.687 1.217-2.687 2.715v17.887c0 1.436.826 2.74 2.117 3.343l3.259 1.522c1.292.608 2.119 1.914 2.116 3.342v7.743h26.442v-8.737c0-.872.346-1.705.962-2.314l4.045-4c.732-.726 1.143-1.716 1.142-2.747v-22.846c0-2.21-1.788-4.018-3.973-4.018" fill="#fff"/><g fill="#454bd8"><path d="m292.539 176.69h-4.289v-32.215c0-3.42 2.674-6.205 5.958-6.205 3.286 0 5.959 2.784 5.959 6.205v26.374h-4.29v-26.374c0-.96-.748-1.739-1.67-1.739-.92 0-1.668.78-1.668 1.74z"/><path d="m308.833 164.615h-4.288v-6.88c0-.956-.765-1.764-1.67-1.764-.921 0-1.67.79-1.67 1.764v6.88h-4.288v-6.88c0-3.47 2.672-6.292 5.958-6.292 3.285 0 5.958 2.823 5.958 6.292z"/><path d="m315.333 171.201h-4.289v-9.328c0-.934-.748-1.694-1.67-1.694-.92 0-1.668.76-1.668 1.694v9.328h-4.29v-9.328c0-3.331 2.673-6.04 5.958-6.04 3.286 0 5.96 2.709 5.96 6.04v9.328z"/><path d="m318.098 207.425h-4.289v-8.789c0-1.48.574-2.921 1.573-3.954l3.879-4.023c.286-.296.45-.712.45-1.138v-22.981c0-.976-.748-1.77-1.669-1.77s-1.67.794-1.67 1.77v3.808h-4.289v-3.808c0-3.482 2.674-6.315 5.96-6.315 3.283 0 5.957 2.833 5.957 6.315v22.982c0 1.643-.635 3.241-1.743 4.387l-3.878 4.022c-.182.19-.282.443-.28.706v8.79zm-26.598 0h-4.452v-7.665c0-.547-.318-1.047-.814-1.278l-3.25-1.508c-2.069-.967-3.398-3.054-3.4-5.338v-17.706c0-2.714 2.2-4.923 4.903-4.923h5.582v4.472h-5.582c-.247.001-.45.204-.451.451v17.707c0 .549.319 1.05.813 1.279l3.249 1.507c2.071.966 3.401 3.053 3.402 5.338v7.665z"/></g><path d="m286.083 199.741h34.667v115.259h-34.667z" fill="#4178da"/><path d="m298 199.741h21.667v115.259h-21.667z" fill="#4cccd6"/><g fill="#454bd8"><path d="m321.833 315h-4.425v-112.957h-29.066v112.957h-4.425v-117.454h37.916z"/><path d="m291.5 134.977h4.333v-5.488h-4.333zm10.64 2.195-4.14-2.246 6.694-10.926 4.14 2.245zm1.383 5.488-2.273-4.31 5.31-3.373 2.273 4.31zm-.098 5.49-.008-4.368 12.991-.023.009 4.365zm4.38 7.683-6.555-3.368 2.112-4.316 6.555 3.37zm-25.506 0-2.716-4.21 4.87-3.474 2.714 4.211zm-10.271-7.683-.028-4.318 12.973-.073.027 4.317zm13.018-5.49-5.463-3.272 2.121-4.411 5.463 3.274z"/><path d="m287.406 137.172-6.74-10.891 4.095-2.281 6.739 10.892z"/></g><path d="m197.412 252.25-30.129-5.461c-7.337 3.229-15.267 4.898-23.283 4.898-31.557 0-57.139-25.093-57.139-56.045 0-30.955 25.582-56.048 57.139-56.048 31.555 0 57.139 25.093 57.139 56.048 0 10.928-3.24 21.094-8.756 29.716l5.03 26.892z" fill="#4cccd6"/><path d="m168.08 243.802 27.53 5.014-4.585-24.634.472-.742c5.493-8.626 8.396-18.525 8.396-28.626 0-29.772-24.575-53.995-54.783-53.995-30.209 0-54.784 24.223-54.784 53.995s24.575 53.993 54.784 53.993c7.708 0 15.216-1.587 22.321-4.719l.65-.286zm33.228 10.636-32.666-5.95c-7.435 3.191-15.442 4.833-23.532 4.828-32.73 0-59.358-26.245-59.358-58.502 0-32.258 26.628-58.501 59.358-58.501 32.729 0 59.357 26.243 59.357 58.501 0 10.657-2.98 21.103-8.625 30.27l5.466 29.353z" fill="#454bd8"/><path d="m144.556 240.219c23.897 0 43.269-19.587 43.269-43.75s-19.372-43.75-43.269-43.75c-23.898 0-43.271 19.587-43.271 43.75s19.373 43.75 43.271 43.75" fill="#fff"/><path d="m170.586 191.001c0-.001 0-.001 0-.002 0-8.332-6.856-15.188-15.188-15.188-.002 0-.004 0-.006 0-4.249 0-8.077 1.745-10.837 4.567-2.846-2.923-6.757-4.572-10.837-4.567-.002 0-.004 0-.006 0-8.332 0-15.188 6.856-15.188 15.188v.004c0 4.087 1.622 7.791 4.255 10.521l21.714 21.603 22.267-22.072c.241-.281.871-1.076.871-1.076 1.918-2.599 2.954-5.745 2.955-8.976" fill="#f0004c"/><g fill="#454bd8"><path d="m142.336 123.187h4.438v9.844h-4.438z"/><path d="m142.336 135.219h4.438v-14.219h-4.438zm19.397 3.281-3.864-1.237 1.683-7.513 3.864 1.236zm14.416 5.469-3.857-2.145 7.24-12.074 3.855 2.146zm12.838 10.937-3.381-3.333 5.495-5.417 3.38 3.333zm8.778 12.032-2.174-3.804 12.25-7.134 2.174 3.803zm6.203 15.312-.61-4.506 7.155-.963.611 4.506zm16.032 15.313-14.423-.002v-4.373h14.423zm-9.15 16.406-7.492-1.665 1.383-3.804 7.493 1.665zm-3.012 20.781-12.247-7.136 2.177-3.802 12.247 7.136zm-79.391 26.25-3.863-1.24 1.685-7.51 3.862 1.239zm-19.98 0-3.854-2.145 7.243-12.074 3.852 2.147zm-11.696-16.406-3.253-3.21 5.623-5.54 3.253 3.21zm-17.721-9.844-2.174-3.804 12.25-7.133 2.173 3.803zm-.93-20.781-1.244-3.802 7.631-1.667 1.245 3.802zm4.3-16.406-14.42-.008.003-4.368 14.42.006zm2.106-16.407-7.65-1.648 1.224-3.82 7.652 1.648zm4.597-14.218-12.247-7.14 2.176-3.798 12.247 7.139zm10.097-12.032-5.702-5.345 3.174-3.405 5.702 5.347zm12.629-10.937-7.236-12.076 3.86-2.143 7.235 12.077zm14.844-6.563-1-7.04 4.549-.616.999 7.04z"/><path d="m63 318h8.865v-5h-8.865zm515.27 0h17.73v-5h-17.73zm-501.973 0h497.54v-5h-497.539z"/></g></svg>