<svg clip-rule="evenodd" fill-rule="evenodd" stroke-linecap="round" stroke-linejoin="round" stroke-miterlimit="1.5" viewBox="0 0 1128 404" xmlns="http://www.w3.org/2000/svg"><path d="m677.936 259.78h-217.513c-1.059-.003-1.929-.874-1.931-1.933v-155.257c0-1.063.869-1.932 1.93-1.932h217.513c1.063 0 1.933.87 1.933 1.932v155.257c0 1.063-.87 1.932-1.933 1.932" fill="#38d2de"/><path d="m469.242 242.304h198.674v-129.126h-198.674zm206.757 26.31h-216.079c-5.166.001-9.616-3.779-10.452-8.877l-1.539-9.388h100.149l3.832 5.501h27.673l4.142-5.5h105.503l-1.338 8.164c-.951 5.8-6.014 10.1-11.891 10.1" fill="#fff"/><path d="m686.41 258.271c-.817 5.086-5.259 8.859-10.41 8.843h-216.08c-4.439.015-8.268-3.237-8.972-7.62l-1.254-7.645h97.601l3.832 5.501h29.204l4.141-5.5h102.991l-1.054 6.421zm-5.043-9.422v-142.689c-.005-3.838-3.162-6.995-7-7h-25.62v3h25.62c2.193.003 3.997 1.807 4 4v142.69h-95.39l-4.142 5.501h-26.142l-3.832-5.5h-88.87v-142.691c.002-2.194 1.806-3.999 4-4.002h25.225v-3h-25.225c-3.859 0-7 3.14-7 7.001v142.69h-10.828l1.824 11.13c.937 5.83 6.029 10.154 11.933 10.135h216.08c6.616.02 12.32-4.825 13.37-11.357l1.624-9.908z" fill="#454bdb"/><path d="m651.544 100.877h-165.91l6.594 141.427h152.722z" fill="#4178da"/><path d="m643.782 242.304v-165.606c0-4.991-4.014-9.037-8.964-9.037h-132.478c-4.952 0-8.964 4.045-8.964 9.038v165.606h150.407z" fill="#f2f2f2"/><path d="m493.375 97.49v-22.293-.001c0-4.134 3.402-7.536 7.536-7.536h.001 135.332.001c4.135 0 7.537 3.402 7.537 7.537v22.293z" fill="#f2f2f2"/><path d="m636.244 66.16h-100.82v3h100.82c3.311.003 6.035 2.727 6.038 6.038v21.199h-147.407v-21.2c.004-3.31 2.727-6.032 6.037-6.036h19.973v-3h-19.973c-4.983 0-9.037 4.054-9.037 9.037v167.106h3v-142.907h147.407v142.907h3v-167.106c0-4.983-4.055-9.037-9.038-9.037" fill="#454bdb"/><path d="m522.384 69.161h10.331v-3h-10.331zm-18.329 10.697h3.82v-3h-3.82zm9.537 0h3.82v-3h-3.82zm9.537 0h3.82v-3h-3.82z" fill="#454bdb"/><path d="m497.897 242.304h140.924v-133.648h-140.924zm43.329-152.656h79.927v-5.469h-79.927zm-22.493 0h18.098v-5.469h-18.098zm-14.678 0h11.447v-5.469h-11.447z" fill="#fff"/><path d="m507.13 117.549h42.51v57.217h-42.51z" fill="#4178da"/><path d="m559.934 117.549h70.474v84.555h-70.474z" fill="#f2f2f2"/><path d="m559.934 229.868h70.474v-13.882h-70.474zm-35.088-37.859h-14.867c-1.124-.042-2.026-.979-2.026-2.103 0-1.125.902-2.062 2.026-2.104h14.867c1.154 0 2.104.95 2.104 2.104 0 1.153-.95 2.103-2.104 2.103" fill="#4178da"/><path d="m545.944 192.009h-14.868c-1.137-.025-2.058-.967-2.058-2.104 0-1.136.921-2.078 2.058-2.103h14.868c.015 0 .031-.001.046-.001 1.154 0 2.104.95 2.104 2.105 0 1.154-.95 2.104-2.104 2.104-.015 0-.031-.001-.046-.001" fill="#a7a9ac"/><path d="m405.411 270.114v-3h321.714v3zm-14.559 0v-3h8.319v3zm342.275 0v-3h8.003v3z" fill="#454bdb"/><path d="m64.685 145.446c9.49.188 17.03 8.036 16.84 17.526-.188 9.49-8.035 17.03-17.525 16.841s-17.03-8.037-16.84-17.526c.188-9.49 8.036-17.03 17.525-16.84" fill="#fff"/><path d="m53.834 92.914c.123 2.471 2.255 4.405 4.727 4.286l18.124-.882c2.39-.115 4.293-2.113 4.293-4.505 0-2.475-2.036-4.511-4.511-4.511-.072 0-.145.002-.217.005l-18.128.883c-2.471.122-4.406 2.253-4.288 4.724" fill="#d2e9f7"/><path d="m90.294 101.396c.242-1.269-.171-2.579-1.098-3.479l-9.14-8.939c-.717-.696-1.678-1.085-2.678-1.085-1.039 0-2.036.421-2.76 1.168-1.468 1.516-1.431 3.971.082 5.442l9.135 8.944c.033.031.07.052.105.083-.285 2.31-.84 7.86.179 9.453 1.013 1.588 7.353 5.246 7.353 5.246z" fill="#fff"/><path d="m84.825 102.317.11.09.59.523-.096.783c-.648 5.25-.382 7.936-.046 8.461.277.435 1.751 1.603 4.39 3.27l-.989-14.136.035-.188c.15-.775-.102-1.576-.668-2.127l-9.143-8.943c-.028-.024-.068-.05-.106-.079l-.284-.236c-.595-.627-1.434-.967-2.298-.93l-18.125.883c-.881.042-1.699.469-2.237 1.168-.549.709-.754 1.626-.559 2.501.297 1.407 1.74 2.416 3.316 2.333l18.425-.896zm6.066 16.988c-.356 0-.712-.095-1.032-.287-3.943-2.364-6.3-4.123-7.005-5.228-.896-1.402-1.06-4.66-.492-9.686l-6.384-6.25-17.117.832c-3.072.14-5.799-1.877-6.397-4.71-.372-1.735.038-3.548 1.12-4.954 1.074-1.394 2.709-2.246 4.467-2.33l18.126-.884c1.672-.092 3.305.558 4.508 1.751.143.106.283.214.413.34l9.147 8.945c1.232 1.2 1.813 2.923 1.558 4.624l1.095 15.672c.004.05.006.1.006.15 0 1.104-.909 2.014-2.013 2.015z" fill="#454bdb"/><path d="m26.053 117.768 14.31 8.855 15.813 1.171s1.106-5.774-3.352-7.353l-8.74-1.645s-.635-9.449-.65-10.173c-.066-1.874 13.13-9.423 15.017-9.24 1.114.11 15.903 1.335 15.903 1.335l3.012 11.232s.007 5.452-.953 7.621c-3.23 7.26 4.232 6.892 4.232 6.892l4.867-15.615-3.692-16.847-22.295-7.666-33.472 6.98v24.453z" fill="#fff"/><path d="m40.84 125.155 13.966 1.034c-.004-1.404-.366-3.519-2.382-4.297l-9.76-1.836-.077-1.159c-.064-.97-.637-9.507-.652-10.245-.034-.956.673-1.757 1.369-2.412 3.872-3.64 13.577-8.504 15.293-8.35 1.09.108 15.733 1.322 15.88 1.333l1.053.087 3.337 12.442v.196c0 .591-.024 5.84-1.081 8.23-.525 1.178-1.017 2.771-.393 3.683.439.642 1.398.923 2.169 1.037l4.4-14.117-3.427-15.635-21.108-7.258-31.874 6.647v22.397zm16.558 4.234-17.511-1.297-15.334-9.488v-26.509l35.069-7.312 23.483 8.074 3.958 18.06-5.298 16.993-1.047.052c-.404.021-4.066.125-5.8-2.405-1.13-1.65-1.088-3.869.125-6.595.584-1.32.81-4.793.823-6.817l-2.688-10.019c-4.935-.406-9.869-.821-14.803-1.243-1.933.243-12.044 6.03-13.43 7.96.06 1.165.336 5.362.558 8.694l7.823 1.49c4.487 1.59 4.79 6.615 4.324 9.05z" fill="#454bdb"/><path d="m23.528 123.253h-21.528v-34.07h21.528c2.57 0 4.684 2.114 4.685 4.684v24.7c0 2.57-2.115 4.685-4.685 4.686" fill="#4178da"/><path d="m25.162 124.753h-23.162v-3h23.162c.855 0 1.551-.695 1.551-1.551v-27.97c0-.854-.696-1.55-1.55-1.55h-23.163v-3h23.162c2.495.002 4.548 2.055 4.551 4.55v27.97c-.003 2.495-2.055 4.547-4.55 4.55m52.127 24.403c-3.57-3.435-8.366-5.311-13.319-5.209-4.956.085-9.678 2.152-13.103 5.735-3.444 3.565-5.321 8.365-5.209 13.321.039 1.961.38 3.885 1.014 5.722l2.836-.978c-.533-1.547-.82-3.168-.85-4.804-.094-4.16 1.481-8.189 4.372-11.182 2.875-3.008 6.839-4.743 10.999-4.814 4.195-.098 8.16 1.468 11.181 4.372 3.008 2.875 4.743 6.839 4.814 11 .173 8.647-6.722 15.823-15.371 15.995-2.953.056-5.864-.72-8.398-2.238l-1.549 2.568c2.906 1.752 6.237 2.677 9.63 2.674.126 0 .252-.002.378-.004 4.956-.085 9.677-2.152 13.101-5.736 3.445-3.564 5.322-8.364 5.209-13.319-.085-4.956-2.151-9.678-5.735-13.103" fill="#454bdb"/><path d="m48.19 172.032c.742 1.271 1.63 2.451 2.648 3.514l2.166-2.077c-.854-.892-1.6-1.882-2.222-2.949zm20.33-31.208h3v-17.213h-3zm-9.05-5.179h3v-17.213h-3zm-9.049 8.349h3v-10.992h-3zm27.147 2.326h3v-10.991h-3zm38.315 215.014c-29.548 0-53.587-24.04-53.587-53.587v-106.434h3v106.434c0 27.894 22.693 50.587 50.587 50.587s50.587-22.693 50.587-50.587v-217.222c0-29.79 24.235-54.025 54.025-54.025s54.026 24.235 54.026 54.025v140.7c0 28.136 22.889 51.026 51.024 51.026 28.136 0 51.025-22.89 51.025-51.025v-13.906c0-14.244 11.588-25.832 25.833-25.832h35.196v3h-35.196c-12.59 0-22.833 10.242-22.833 22.832v13.905c0 29.79-24.235 54.025-54.025 54.025s-54.024-24.235-54.024-54.025v-140.7c0-28.135-22.89-51.025-51.026-51.025-28.135 0-51.025 22.89-51.025 51.025v217.222c0 29.548-24.04 53.587-53.587 53.587" fill="#454bdb"/><path d="m325.545 297.758c-36.686 0-66.531-29.847-66.531-66.532v-70.667h28.013v70.667c0 21.239 17.28 38.518 38.518 38.518 21.239 0 38.519-17.28 38.519-38.518h28.013c0 36.685-29.846 66.532-66.532 66.532" fill="#f2f2f2"/><path d="m115.883 377.343c-38.375 0-69.596-31.221-69.596-69.596h35.018c0 19.067 15.512 34.578 34.578 34.578s34.578-15.511 34.578-34.578h35.018c0 38.375-31.221 69.596-69.596 69.596" fill="#efcc8d"/><path d="m271.521 177.918h3v-7.003h-3zm0 14.007h3v-7.003h-3zm0 14.006h3v-7.003h-3zm0 14.007h3v-7.003h-3zm.07 14.079c-.047-.93-.07-1.861-.07-2.792v-4.284h3v4.284c0 .871.022 1.759.066 2.642zm105.724 12.701-2.875-.86c.393-1.313.732-2.642 1.018-3.983l2.934.623c-.302 1.421-.661 2.828-1.077 4.22zm-103.094 1.419c-.751-2.281-1.348-4.611-1.787-6.972l2.949-.549c.413 2.221.98 4.436 1.687 6.583zm97.18 11.666-2.545-1.59c1.202-1.922 2.273-3.922 3.206-5.988l2.734 1.235c-.989 2.188-2.123 4.307-3.395 6.343zm-90.902 1.257c-1.328-2.002-2.521-4.09-3.572-6.251l2.699-1.31c.992 2.04 2.119 4.012 3.373 5.903zm81.752 9.807-2.039-2.201c1.664-1.542 3.224-3.192 4.67-4.94l2.312 1.912c-1.531 1.85-3.182 3.597-4.943 5.229zm-72.299 1.003c-1.805-1.583-3.504-3.284-5.085-5.091l2.258-1.974c1.495 1.707 3.1 3.313 4.806 4.809zm60.562 7.277-1.389-2.66c2.011-1.05 3.95-2.233 5.804-3.541l1.73 2.451c-1.963 1.385-4.016 2.637-6.145 3.75zm-48.61.67c-2.157-1.053-4.241-2.247-6.24-3.575l1.662-2.498c1.887 1.255 3.856 2.383 5.893 3.376zm35.095 4.216-.633-2.932c2.218-.479 4.401-1.107 6.535-1.878l1.02 2.821c-2.26.817-4.573 1.482-6.922 1.989zm-21.456.293c-2.361-.442-4.69-1.042-6.97-1.796l.942-2.848c2.153.712 4.351 1.278 6.579 1.695zm10.002.925c-.953-.001-1.906-.026-2.858-.075l.156-2.997c2.23.116 4.54.088 6.801-.09l.236 2.99c-1.442.114-2.888.172-4.335.172zm-157.853 36.234-2.9-.766c.242-.916.461-1.849.65-2.776l2.94.602c-.202.986-.433 1.967-.69 2.94zm-102.542 3.562c-.774-2.276-1.394-4.601-1.856-6.96l2.943-.578c.436 2.227 1.022 4.423 1.753 6.571zm97.03 9.701-2.59-1.514c1.143-1.957 2.154-3.988 3.025-6.08l2.77 1.152c-.924 2.216-1.994 4.368-3.205 6.442zm-90.604 3.152c-1.353-1.986-2.572-4.06-3.648-6.208l2.684-1.342c1.015 2.028 2.165 3.986 3.442 5.861l-2.478 1.69zm81.766 8.167-2.097-2.144c1.621-1.587 3.135-3.279 4.532-5.066l2.363 1.848c-1.479 1.892-3.082 3.683-4.798 5.362zm-72.163 2.515c-1.829-1.557-3.552-3.234-5.158-5.019l2.231-2.006c1.517 1.686 3.144 3.27 4.871 4.74zm60.643 6.067-1.453-2.625c1.984-1.1 3.891-2.331 5.71-3.686l1.793 2.406c-1.927 1.435-3.948 2.74-6.05 3.905zm-48.559 1.691c-2.175-1.016-4.28-2.176-6.3-3.472l1.62-2.526c1.907 1.226 3.894 2.321 5.948 3.28zm35.162 3.52-.699-2.919c2.2-.527 4.383-1.21 6.487-2.029l1.088 2.795c-2.241.872-4.538 1.591-6.876 2.152zm-21.448.737c-2.369-.397-4.709-.952-7.004-1.664l.89-2.865c2.165.672 4.372 1.196 6.608 1.57l-.494 2.96zm8.905.738c-.583 0-1.164-.009-1.743-.028l.094-2.998c2.256.07 4.56-.006 6.794-.233l.303 2.984c-1.81.184-3.629.275-5.448.275zm819.1-7.005c-14.638 0-28.396-5.702-38.739-16.06-10.345-10.354-16.032-24.12-16.016-38.756l.156-172.375c.016-13.818-5.353-26.811-15.118-36.587-9.764-9.776-22.752-15.16-36.568-15.16-28.5 0-51.688 23.187-51.688 51.687v24.848c0 24.24-19.72 43.963-43.962 43.963h-33.699v-3h33.7c22.586 0 40.961-18.376 40.961-40.963v-24.848c0-30.154 24.533-54.686 54.688-54.686 14.62 0 28.36 5.696 38.69 16.039 10.332 10.343 16.013 24.09 15.996 38.71l-.156 172.375c-.016 13.835 5.36 26.846 15.138 36.634 9.778 9.789 22.782 15.18 36.617 15.18 28.537 0 51.754-23.217 51.754-51.755v-220.754c0-29.79 24.235-54.024 54.025-54.024s54.026 24.235 54.026 54.024v114.167h-3v-114.167c0-28.135-22.89-51.024-51.026-51.024-28.135 0-51.025 22.889-51.025 51.024v220.754c0 30.193-24.563 54.755-54.754 54.755" fill="#454bdb"/><path d="m975.688 63.611h-17.509c0-35.627 28.986-64.61 64.613-64.61v17.506c-25.974 0-47.105 21.131-47.105 47.104" fill="#454bdb"/><path d="m301.697 73.862h-17.507c0-25.973-21.13-47.103-47.103-47.103v-17.507c35.627 0 64.611 28.984 64.611 64.61" fill="#efcc8d"/><path d="m789.517 151.927h-28.014v-24.848c0-37.05 30.144-67.193 67.195-67.193 17.962 0 34.845 6.999 47.539 19.707 12.694 12.709 19.675 29.6 19.654 47.563l-28.014-.032c.012-10.473-4.057-20.323-11.46-27.733-7.401-7.41-17.246-11.491-27.72-11.491-21.604 0-39.18 17.576-39.18 39.179z" fill="#f2f2f2"/><path d="m934.982 370.34v-35.018c19.71 0 35.745-16.035 35.745-35.746v-112.202h35.018v112.202c0 39.019-31.744 70.764-70.763 70.764" fill="#efcc8d"/><path d="m833.043 75.573c-2.261-.188-4.532-.229-6.799-.123l-.142-2.996c2.397-.113 4.799-.069 7.191.13l-.25 2.99zm-20.152 2.281-.916-2.857c2.286-.733 4.618-1.314 6.981-1.739l.531 2.953c-2.232.402-4.436.951-6.596 1.643zm33.408.612c-2.132-.773-4.314-1.402-6.53-1.885l.638-2.932c2.346.512 4.655 1.179 6.913 1.996zm-45.671 5.204-1.631-2.518c2.016-1.305 4.115-2.477 6.284-3.507l1.285 2.711c-2.05.973-4.034 2.08-5.938 3.314zm57.702 1.054c-1.858-1.301-3.798-2.479-5.809-3.527l1.384-2.66c2.128 1.108 4.181 2.354 6.146 3.73zm-68.03 7.754-2.229-2.009c1.608-1.782 3.331-3.457 5.157-5.015l1.947 2.281c-1.726 1.474-3.355 3.058-4.875 4.743zm78.029 1.421c-1.458-1.739-3.027-3.381-4.699-4.915l2.027-2.21c1.769 1.622 3.429 3.358 4.971 5.197zm-85.718 9.754-2.673-1.36c1.09-2.138 2.318-4.203 3.678-6.18l2.471 1.701c-1.285 1.869-2.446 3.82-3.476 5.84zm93 1.7c-.955-2.058-2.045-4.052-3.262-5.967l2.531-1.609c1.288 2.027 2.441 4.136 3.452 6.315zm-97.506 11.094-2.938-.613c.492-2.35 1.139-4.665 1.936-6.93l2.83.996c-.754 2.139-1.364 4.327-1.828 6.547zm101.539 1.863c-.382-2.236-.912-4.443-1.586-6.609l2.865-.89c.713 2.292 1.273 4.628 1.678 6.994zm-102.634 11.757h-3v-2.988c0-1.376.052-2.763.152-4.122l2.992.222c-.096 1.298-.144 2.599-.144 3.9zm-3 12.426h3v-5.423h-3zm212.726 63.645h3v-7.003h-3zm0 14.007h3v-7.003h-3zm0 14.007h3v-7.003h-3zm0 14.007h3v-7.003h-3zm0 14.007h3v-7.004h-3zm0 14.007h3v-7.004h-3zm0 14.006h3v-7.003h-3zm2.798 14.126-2.988-.255c.126-1.488.19-2.981.19-4.474v-2.394h3v2.394c0 1.578-.068 3.156-.202 4.729zm-3.095 14.026-2.818-1.027c.777-2.133 1.412-4.316 1.901-6.533l2.93.647c-.518 2.346-1.19 4.656-2.013 6.913zm-6.653 12.728-2.453-1.726c1.305-1.857 2.488-3.796 3.541-5.807l2.658 1.391c-1.113 2.127-2.365 4.179-3.746 6.142zm-9.724 10.562-1.924-2.303c1.742-1.455 3.386-3.022 4.924-4.691l2.207 2.033c-1.627 1.764-3.366 3.421-5.207 4.961zm-12.125 7.68-1.259-2.723c2.058-.953 4.052-2.04 5.968-3.253l1.605 2.535c-2.027 1.283-4.137 2.433-6.314 3.441zm-13.712 4.253-.504-2.957c2.236-.381 4.445-.909 6.612-1.58l.889 2.866c-2.293.71-4.631 1.268-6.997 1.671z" fill="#454bdb"/><path d="m153.548 279.795c.137.559 0-2.3 0-2.3 0-19.852-16.09-35.945-35.943-35.945-19.852 0-35.947 16.093-35.947 35.946v2.299c1.128-9.845 19.18-20.786 23.695-.401l1.388.473c-.305-13.757 21.456-16.513 21.992-.473l1.686.278c-1.167-10.92 18.33-19.443 23.129.123" fill="#38d2de"/><path d="m141.576 266.38c-4.157 0-7.879 1.903-10.342 4.884-.252-16.07-5.025-24.05-8.828-27.872 14.47 2.028 26.086 13.074 28.957 27.26-2.45-2.621-5.926-4.271-9.787-4.271m-23.825 0c-4.009 0-7.602 1.778-10.06 4.577.397-18.947 7.433-25.475 10.286-27.345 2.9 1.86 9.995 8.398 10.261 27.842-2.459-3.087-6.243-5.074-10.487-5.074m-23.82 0c-4.062 0-7.7 1.822-10.162 4.685 2.78-14.65 14.857-26.04 29.844-27.778-3.86 3.822-8.779 11.943-8.934 28.518-2.448-3.285-6.348-5.425-10.749-5.425m23.674-26.331c-20.648 0-37.446 16.798-37.446 37.446v2.299h3.361c0-5.742 4.671-10.414 10.411-10.414 5.742 0 10.413 4.672 10.413 10.414h3.002c0-5.102 3.69-9.352 8.538-10.237v12.635h3v-12.748c5.211.567 9.282 4.99 9.282 10.35h3c0-5.742 4.671-10.414 10.411-10.414 5.741 0 10.412 4.672 10.412 10.414h3.06v-2.3c0-20.647-16.797-37.445-37.444-37.445" fill="#454bdb"/><path d="m131.08 296.264-5.255-4.704v-6.163h5.254z" fill="#f2f2f2"/><path d="m99.132 326.564v-25.759l18.46-15.409 17.613 14.145v27.023z" fill="#f2f2f2"/><path d="m97.632 326.927h3v-23.769h-3zm36.073 0h3v-23.769h-3z" fill="#454bdb"/><path d="m127.325 289.207v-2.311h2.254v6.204l-4.848-3.893zm3.265 4.704h1.99v-7.921c0-1.154-.94-2.094-2.095-2.094h-4.066c-1.155 0-2.094.94-2.094 2.094v2.89l-5.395-4.331c-.774-.628-1.891-.632-2.67-.01l-22.879 18.12 1.863 2.353 22.341-17.697 22.03 17.69 1.878-2.34z" fill="#454bdb"/><path d="m116.905 296.87c-7.286.147-13.075 6.17-12.93 13.457.146 7.285 6.17 13.074 13.456 12.93 7.286-.146 13.076-6.17 12.93-13.456-.145-7.286-6.17-13.076-13.456-12.93" fill="#fff"/><path d="m127.765 299.882c-2.693-2.818-6.406-4.444-10.303-4.511-3.896-.084-7.669 1.392-10.475 4.097-2.818 2.693-4.443 6.406-4.511 10.303-.088 3.897 1.388 7.672 4.097 10.475 2.764 2.893 6.599 4.526 10.6 4.514 2.675 0 5.288-.725 7.573-2.104l-1.548-2.568c-1.884 1.145-4.058 1.724-6.262 1.669-3.102-.053-6.057-1.347-8.2-3.59-2.156-2.23-3.331-5.235-3.26-8.336.053-3.102 1.347-6.057 3.59-8.2 2.252-2.165 5.244-3.346 8.337-3.26 3.101.053 6.056 1.347 8.199 3.589 2.156 2.231 3.33 5.235 3.26 8.337-.023 1.219-.237 2.427-.634 3.58l2.836.98c.498-1.442.766-2.955.798-4.5.088-3.897-1.388-7.672-4.097-10.475" fill="#454bdb"/><path d="m125.621 318.146 2.168 2.074c.8-.836 1.5-1.765 2.082-2.76l-2.592-1.513c-.464.796-1.021 1.534-1.658 2.2" fill="#454bdb"/><path d="m932.212 321.988h-7.646v-84.665c0-2.097 1.726-3.823 3.823-3.823s3.823 1.726 3.823 3.823z" fill="#fff"/><path d="m964.393 275.72c0 7.087-5.746 12.833-12.833 12.833-7.088 0-12.834-5.745-12.834-12.832h25.667zm-71.927 0c0 7.087 5.745 12.833 12.833 12.833s12.833-5.745 12.833-12.832h-25.666z" fill="#38d2de"/><path d="m960.136 283.128 2.27 1.963c.823-.952 1.517-2.008 2.065-3.14l-2.701-1.306c-.433.896-.983 1.731-1.634 2.483" fill="#454bdb"/><path d="m944.753 274.22 7.048-18.138 6.499 18.139h-13.547zm16.733 0-8.027-22.404 1.258-3.237-2.797-1.085-.018.044-2.802 1.004 1.157 3.232-8.723 22.447h-4.308v1.5c0 7.902 6.43 14.332 14.334 14.332 2.912.006 5.757-.881 8.149-2.541l-1.71-2.466c-1.067.741-2.255 1.291-3.51 1.625-.956.255-1.941.383-2.93.382-5.741 0-10.498-4.29-11.235-9.832h2.725l.468.181.07-.181h15.788l.052.144.403-.144h2.965c-.114.862-.328 1.708-.637 2.52l2.805 1.067c.617-1.625.93-3.335.93-5.087v-1.5h-4.407zm-56.187 12.833c-5.74 0-10.498-4.29-11.234-9.832h2.963l.404.144.052-.144h15.788l.07.181.468-.181h2.723c-.736 5.543-5.494 9.832-11.234 9.832zm-.242-30.97 7.049 18.137h-13.547zm10.267 18.137-8.722-22.446 1.157-3.232-2.804-1.005-.017-.043-2.797 1.085 1.258 3.238-8.028 22.404h-4.405v1.5c0 7.902 6.43 14.332 14.333 14.332s14.333-6.43 14.333-14.332v-1.5h-4.308z" fill="#454bdb"/><path d="m954.963 250.574c0 1.85-1.523 3.373-3.373 3.373s-3.373-1.523-3.373-3.373 1.523-3.373 3.373-3.373 3.373 1.523 3.373 3.373m-46.291 0c0 1.85-1.523 3.373-3.373 3.373s-3.373-1.523-3.373-3.373 1.523-3.373 3.373-3.373 3.373 1.523 3.373 3.373" fill="#f2f2f2"/><path d="m951.59 252.447c-1.027-.001-1.872-.846-1.873-1.873 0-1.033.84-1.873 1.873-1.873s1.873.84 1.873 1.873-.84 1.873-1.873 1.873zm-25.524-3.373v-12.073c0-1.104.897-2 2-2h.646c1.103 0 2 .896 2 2v12.073zm-20.767 3.373c-1.027-.001-1.872-.846-1.873-1.873 0-1.033.84-1.873 1.873-1.873s1.873.84 1.873 1.873-.84 1.873-1.873 1.873zm46.29-6.746c-2.16 0-3.974 1.423-4.611 3.373h-13.266v-12.073c-.003-2.742-2.258-4.997-5-5h-.645c-2.742.003-4.998 2.258-5.001 5v12.073h-13.156c-.637-1.95-2.452-3.373-4.612-3.373-2.672.003-4.87 2.201-4.873 4.873.004 2.672 2.201 4.869 4.873 4.873 2.16 0 3.975-1.423 4.612-3.373h13.155v69.914h3v-69.914h4.646v69.914h3v-69.914h13.266c.637 1.95 2.452 3.373 4.612 3.373 2.672-.004 4.869-2.201 4.873-4.873-.003-2.672-2.201-4.87-4.873-4.873z" fill="#454bdb"/><path d="m936.464 250.1c0 4.405-3.625 8.03-8.03 8.03-4.406 0-8.031-3.625-8.031-8.031 0-4.405 3.625-8.03 8.03-8.03s8.03 3.625 8.03 8.03" fill="#f2f2f2"/><path d="m928.434 243.57c-3.581.004-6.526 2.949-6.53 6.53.004 3.581 2.949 6.526 6.53 6.53 3.6 0 6.53-2.93 6.53-6.53s-2.93-6.53-6.53-6.53m0 16.06c-5.255 0-9.53-4.276-9.53-9.53 0-5.256 4.275-9.53 9.53-9.53s9.53 4.274 9.53 9.53c0 5.254-4.275 9.53-9.53 9.53" fill="#454bdb"/><path d="m1065.81 76.63.615 8.328c.001.019.002.038.002.057 0 .432-.356.788-.788.788-.118 0-.235-.027-.341-.078l-15.48-7.477c-.23-.112-.377-.347-.377-.603 0-.221.109-.428.292-.553l7.07-4.81c3.677-2.5 8.68-.084 9.007 4.349" fill="#e2ebef"/><path d="m1051.77 77.523 13.072 6.313-.524-7.095c-.103-1.524-1.024-2.878-2.403-3.533-1.372-.672-3.005-.552-4.263.314zm13.872 9.778c-.338 0-.678-.075-.991-.225l-15.482-7.478c-.696-.337-1.162-1.021-1.22-1.792-.057-.772.304-1.518.943-1.954l7.072-4.81c2.141-1.474 4.92-1.68 7.255-.537 2.347 1.117 3.914 3.421 4.09 6.015l.616 8.327c.004.055.006.109.006.164 0 1.256-1.033 2.289-2.289 2.29z" fill="#454bdb"/><path d="m1013.39 76.63-.615 8.328c-.001.019-.002.039-.002.058 0 .432.355.787.787.787.118 0 .235-.026.342-.078l15.48-7.477c.23-.112.377-.347.377-.603 0-.221-.109-.428-.292-.553l-7.072-4.81c-3.675-2.5-8.678-.084-9.005 4.349" fill="#e2ebef"/><path d="m1019.15 72.775c-.632 0-1.267.144-1.865.432-1.38.656-2.301 2.01-2.404 3.534l-.524 7.096 13.072-6.314-5.883-4c-.705-.485-1.54-.746-2.396-.748m-5.594 14.526c-.46.001-.91-.137-1.29-.396-.673-.46-1.051-1.246-.992-2.059l.615-8.326c.176-2.594 1.743-4.898 4.091-6.015 2.334-1.143 5.113-.937 7.254.537l7.072 4.81c.639.437.999 1.182.944 1.954-.059.771-.524 1.455-1.22 1.793l-15.48 7.476c-.31.149-.65.226-.994.226" fill="#454bdb"/><path d="m1039.64 43.003c-7.121.142-12.78 6.03-12.637 13.15.142 7.122 6.03 12.78 13.152 12.638 7.12-.142 12.779-6.03 12.636-13.151-.141-7.121-6.03-12.78-13.151-12.637" fill="#fff"/><path d="m1054.01 51.701-2.836.98c.386 1.118.594 2.292.617 3.49.069 3.022-1.075 5.949-3.176 8.122-2.089 2.186-4.968 3.446-7.991 3.498-3.02.075-5.927-1.067-8.123-3.176-2.185-2.089-3.446-4.968-3.498-7.99-.069-3.022 1.075-5.95 3.176-8.124 2.088-2.186 4.968-3.447 7.991-3.498 2.141-.073 4.266.518 6.102 1.626l1.549-2.569c-2.323-1.402-4.998-2.116-7.711-2.057-3.818.066-7.456 1.659-10.094 4.42-2.653 2.746-4.099 6.444-4.013 10.261.066 3.818 1.659 7.455 4.419 10.094 2.746 2.654 6.445 4.1 10.263 4.013 3.818-.066 7.455-1.659 10.094-4.419 2.653-2.747 4.099-6.444 4.012-10.262-.029-1.501-.292-2.989-.781-4.409" fill="#454bdb"/><path d="m1052.66 48.68c-.571-.979-1.255-1.887-2.039-2.706l-2.168 2.073c.62.649 1.162 1.369 1.615 2.144l2.592-1.51z" fill="#454bdb"/><path d="m1035.14 119.938h-7.564l-.783-11.11h8.347zm10.42 0h7.563l.784-11.11h-8.348z" fill="#e2ebef"/><path d="m1028.98 118.438h4.666v-8.11h-5.237l.57 8.11zm7.666 3h-10.463l-.993-14.11h11.456zm10.42-3h4.665l.572-8.11h-5.237zm7.462 3h-10.463v-14.11h11.457z" fill="#454bdb"/><path d="m1063.57 94.281c0 11.623-10.35 21.046-23.119 21.046s-23.119-9.423-23.119-21.046c0-11.624 10.35-21.047 23.12-21.047 12.767 0 23.118 9.423 23.118 21.047" fill="#e2ebef"/><path d="m1040.45 74.734c-11.92 0-21.619 8.77-21.619 19.547s9.698 19.546 21.62 19.546c11.92 0 21.618-8.769 21.618-19.546 0-10.778-9.698-19.547-21.619-19.547m0 42.093c-13.575 0-24.619-10.114-24.619-22.546 0-12.433 11.044-22.547 24.62-22.547 13.574 0 24.618 10.114 24.618 22.547 0 12.432-11.044 22.546-24.619 22.546" fill="#454bdb"/><path d="m1040.21 111.954c-2.97 0-5.762-1.156-7.861-3.257l2.12-2.121c1.518 1.527 3.587 2.384 5.74 2.378 2.154.006 4.223-.851 5.742-2.378l2.12 2.12c-2.079 2.092-4.912 3.266-7.861 3.258" fill="#454bdb"/><path d="m1040.21 93.677c-2.904.003-5.293 2.392-5.296 5.296.003 2.904 2.392 5.293 5.296 5.296 2.904-.003 5.293-2.392 5.296-5.296-.003-2.904-2.392-5.293-5.296-5.296m0 13.592c-4.574 0-8.296-3.722-8.296-8.296s3.722-8.296 8.296-8.296 8.296 3.722 8.296 8.296-3.722 8.296-8.296 8.296m-2.692-17.742h-3c0-.95-.774-1.724-1.725-1.724-.95 0-1.723.774-1.723 1.724h-3c.003-2.59 2.134-4.721 4.724-4.724 2.59.003 4.721 2.134 4.724 4.724m14.832 0h-3c0-.95-.772-1.724-1.723-1.724s-1.724.774-1.724 1.724h-3c.003-2.59 2.134-4.721 4.724-4.724 2.59.003 4.72 2.134 4.723 4.724" fill="#454bdb"/><path d="m1036.58 100.795h2.087v-3h-2.087zm5.5 0h2.087v-3h-2.087z" fill="#454bdb"/><path d="m1111.12 206.555h-34.095l-5.68 9.844 22.727 25.85 22.731-25.85z" fill="#38d2de"/><path d="m1108.03 214.898 3.085-5.343 3.085 5.343zm-1.879 3h7.33l-14.658 16.67zm-24.426 0 7.07 16.081-14.14-16.08h7.07zm-1.619-3h-6.17l3.084-5.343zm2.598-1.5-3.086-5.343h6.17zm11.364 0-3.085-5.343h6.17l-3.085 5.342zm2.597 1.5 3.086-5.344 3.086 5.344zm-1.098 3h7.307l-7.307 16.623zm-10.266-3 3.084-5.343 3.086 5.343zm7.266 3v17.211l-7.565-17.21h7.565zm19.414-12.843h-3.109v2.385l-3.44 5.956-3.593-6.225v-2.116h-25.685l-6.652 11.526 24.565 27.94 24.567-27.94z" fill="#454bdb"/><path d="m1103.32 205.055h3.703v3h-3.703z" fill="#454bdb"/><path d="m1102.72 244.983 8.33-8.89c1.998-2.613 6.246.09 3.995 2.552l-6.638 9.212 3.222-.015 7.676-8.199s.734-5.135.925-5.854l.183-6.559c-.505-1.118-.002-2.455 1.115-2.962.291-.132.606-.2.925-.2.877 0 1.676.515 2.038 1.314l.05 7.396c.265.585.199 9.417.199 9.417l-9.223 19.07h-14.017l-.022-13.657c.11-.835.667-2.012 1.242-2.625" fill="#fff"/><path d="m1118.64 330.287v-66.564c0-.898-.728-1.626-1.625-1.626h-18.75c-.897 0-1.626.728-1.626 1.626v66.564h22.002z" fill="#4178da"/><path d="m1084.91 244.983-8.329-8.89c-1.998-2.613-6.247.09-3.995 2.552l6.637 9.212-3.22-.015-7.678-8.199s-.733-5.135-.925-5.854l-.182-6.559c.505-1.118.002-2.454-1.115-2.962-.291-.132-.606-.201-.926-.201-.876 0-1.676.516-2.037 1.315l-.05 7.396c-.265.585-.2 9.417-.2 9.417l9.223 19.07h14.017l.023-13.657c-.11-.835-.667-2.012-1.243-2.625" fill="#fff"/><path d="m1068.99 330.287v-66.564c0-.898.728-1.626 1.626-1.626h18.75c.897 0 1.625.728 1.625 1.626v66.564h-22z" fill="#4178da"/><path d="m1123.24 241.846-8.665 17.918h-11.579l-.02-12.042c.1-.529.495-1.35.836-1.713l8.331-8.891.097-.114c.288-.376.66-.53 1.092-.463.426.069.761.338.838.559.046.133-.033.313-.234.534l-8.469 11.737 6.814-.032 8.797-9.397.047-.512c.224-2.425.52-5.203.625-5.645l.053-.203-.128-6.582c.024-.232.042-.46.058-.678.026-.339.064-.85.175-.988.295-.131.643-.056.857.185l.288 7.608.058.13c.111.87.152 4.91.13 8.59m2.794-9.25-.298-7.865-.12-.268c-.407-.905-1.161-1.609-2.09-1.956-.927-.351-1.958-.317-2.86.096-1.724.783-1.845 2.415-1.926 3.495-.016.21-.03.43-.058.655l-.012.103.126 6.407c-.185 1.005-.459 3.764-.612 5.379l-5.605 5.988 3.635-5.046c.91-1.037 1.197-2.299.787-3.474-.454-1.3-1.708-2.294-3.197-2.532-1.49-.246-2.943.334-3.897 1.537l-8.284 8.841c-.795.849-1.483 2.3-1.635 3.454l-.013.1.022 13.085h-1.734c-1.715.002-3.125 1.412-3.127 3.127v66.563h3v-66.563c0-.07.057-.127.127-.127h18.75c.07 0 .125.058.125.127v66.563h3v-66.563c-.004-1.536-1.14-2.852-2.658-3.08l8.754-18.1.003-.337c.051-6.823-.074-8.871-.203-9.608m-61.521.659.059-.13.287-7.607c.08-.091.181-.161.295-.203.195-.069.409-.059.596.027.077.127.116.638.14.976.017.22.034.448.06.68l-.126 6.372.047.406c.108.45.403 3.227.627 5.653l.047.512 8.798 9.397 6.815.03-8.361-11.601-.11-.136c-.201-.22-.28-.4-.233-.533.078-.221.412-.49.838-.56.44-.07.804.088 1.092.464l8.426 9.005.002.002c.34.363.737 1.183.836 1.712l-.021 12.042h-11.58l-8.664-17.918c-.023-3.68.019-7.72.13-8.59m24.847 27.34h-1.735l.023-12.986-.013-.2c-.153-1.154-.842-2.607-1.638-3.455l-8.281-8.84c-.954-1.201-2.403-1.781-3.898-1.537-1.488.239-2.743 1.233-3.197 2.532-.41 1.177-.122 2.438.788 3.476l3.636 5.045-5.607-5.99c-.153-1.614-.427-4.371-.612-5.377l.127-6.408-.012-.104c-.027-.225-.043-.445-.06-.657-.08-1.078-.201-2.708-1.924-3.492-.902-.413-1.933-.447-2.86-.095-.929.346-1.682 1.051-2.09 1.955l-.12.269-.298 7.865c-.13.737-.255 2.785-.204 9.608l.003.338 8.754 18.1c-1.518.228-2.654 1.544-2.657 3.079v66.564h3v-66.564c0-.07.056-.126.126-.126h18.749c.069 0 .126.056.126.126v66.564h3v-66.564c-.002-1.714-1.412-3.124-3.126-3.126m-872.067-117.949h3v-7.003h-3zm0 14.007h3v-7.003h-3zm0 14.007h3v-7.003h-3zm0 14.007h3v-7.003h-3zm0 14.007h3v-7.004h-3zm0 14.006h3v-7.004h-3zm0 14.006h3v-7.003h-3zm0 14.007h3v-7.003h-3zm0 14.007h3v-7.003h-3zm0 14.007h3v-7.003h-3zm.433 14.14c-.241-2.364-.381-4.737-.421-7.113l3-.049c.038 2.291.173 4.599.405 6.858zm2.653 13.992c-.642-2.289-1.185-4.604-1.628-6.939l2.947-.558c.427 2.25.951 4.481 1.57 6.686zm5.023 13.334c-1.027-2.145-1.961-4.334-2.8-6.56l2.807-1.057c.809 2.145 1.709 4.254 2.698 6.322zm7.231 12.275c-1.377-1.938-2.671-3.933-3.879-5.981l2.584-1.524c1.164 1.975 2.412 3.899 3.74 5.767zm9.216 10.863c-1.686-1.675-3.3-3.421-4.838-5.233l2.287-1.942c1.483 1.748 3.04 3.431 4.666 5.046zm10.922 9.138c-1.946-1.365-3.833-2.812-5.656-4.336l1.926-2.301c1.758 1.47 3.577 2.865 5.453 4.18zm12.32 7.144c-2.151-1.012-4.257-2.115-6.313-3.307l1.506-2.595c1.981 1.148 4.01 2.212 6.082 3.187zm13.36 4.926c-2.293-.627-4.557-1.353-6.787-2.175l1.037-2.814c2.149.792 4.332 1.491 6.541 2.095zm14.01 2.561c-2.366-.226-4.722-.553-7.06-.979l.539-2.951c2.254.411 4.525.726 6.806.944zm14.135.377-7.02-.005.031-3 6.989.005zm7.002 0h7.004v-3h-7.004zm14.007 0h7.003v-3h-7.003zm14.007 0h7.003v-3h-7.003zm14.007 0h7.003v-3h-7.003zm14.007 0h7.003v-3h-7.003zm14.006 0h7.004v-3h-7.004z" fill="#454bdb"/><path d="m300.435 364.713c-49.844 0-90.394-40.55-90.394-90.394h17.508c0 40.19 32.697 72.886 72.886 72.886zm526.762-141.265h3v-7.003h-3zm0 14.007h3v-7.003h-3zm0 14.007h3v-7.003h-3zm0 14.007h3v-7.003h-3zm0 14.006h3v-7.004h-3zm2.799 14.114-2.992-.227c.129-1.683.193-3.399.193-5.1v-1.784h3v1.784c0 1.776-.067 3.568-.201 5.327zm-2.551 14.058-2.881-.84c.639-2.19 1.162-4.412 1.568-6.657l2.953.533c-.426 2.348-.973 4.673-1.64 6.964zm-5.4 13.229-2.645-1.416c1.078-2.012 2.05-4.078 2.912-6.191l2.777 1.133c-.902 2.209-1.918 4.37-3.044 6.474zm-8.006 11.831-2.299-1.928c1.467-1.749 2.843-3.573 4.123-5.463l2.485 1.682c-1.338 1.975-2.776 3.881-4.309 5.709zm-10.259 9.946-1.855-2.357c1.793-1.414 3.513-2.918 5.153-4.506l2.088 2.154c-1.714 1.66-3.512 3.232-5.386 4.709zm-12.077 7.638-1.332-2.688c2.045-1.014 4.037-2.134 5.966-3.354l1.603 2.535c-2.017 1.276-4.099 2.446-6.237 3.507zm-13.394 4.984-.748-2.904c2.21-.57 4.389-1.255 6.528-2.051l1.047 2.813c-2.237.831-4.516 1.546-6.827 2.142zm-14.13 2.113-.135-2.997c2.28-.103 4.553-.323 6.81-.66l.444 2.967c-2.36.352-4.736.582-7.119.69zm-70.099.071h7.004v-3h-7.004zm14.007 0h7.003v-3h-7.003zm14.007 0h7.003v-3h-7.003zm14.007 0h7.003v-3h-7.003zm14.006 0h7.003v-3h-7.003z" fill="#454bdb"/><path d="m501.342 357.459h7.003v-3h-7.003zm14.007 0h7.003v-3h-7.003zm14.006 0h7.003v-3h-7.003zm14.007 0h7.003v-3h-7.003zm14.006 0h7.004v-3h-7.004zm14.007 0h7.004v-3h-7.004z" fill="#454bdb"/><path d="m761 364.713v-17.508c32.501 0 58.943-26.442 58.943-58.943h17.508c0 42.155-34.296 76.45-76.451 76.45" fill="#f2f2f2"/><path d="m842.294 133.966v31.918h-4.104v15.634.001c0 .328-.269.597-.597.597-.177 0-.345-.078-.458-.214l-13.415-16.018h-40.172v-31.918z" fill="#38d2de"/><path d="m837.583 183.618c-.618-.001-1.204-.278-1.598-.754l-12.965-15.48h-40.972v-34.918h16.593v3h-13.593v28.918h39.372l12.27 14.65v-14.65h4.104v-7.917h3v10.917h-4.104v14.133c.006.882-.55 1.675-1.38 1.972-.24.087-.485.129-.727.129" fill="#454bdb"/><path d="m790.726 142.748h11.032v-3h-11.032zm0 8.48h15.829v-3h-15.829zm-.001 8.481h25.182v-3h-25.182z" fill="#454bdb"/><path d="m852.66 155.057-13.69-2.529c-3.327 1.494-6.933 2.267-10.58 2.268-14.339 0-25.963-11.625-25.963-25.964 0-14.338 11.624-25.963 25.962-25.963 14.34 0 25.964 11.625 25.964 25.963.001 4.872-1.379 9.646-3.978 13.767z" fill="#4178da"/><path d="m828.39 104.37c-13.49 0-24.463 10.974-24.463 24.463s10.974 24.464 24.463 24.464c3.442 0 6.796-.72 9.968-2.138l.426-.19 12.008 2.218-1.998-10.891.31-.494c2.446-3.884 3.746-8.38 3.75-12.97 0-13.488-10.975-24.462-24.464-24.462zm26.139 52.558-15.38-2.841c-3.399 1.46-7.061 2.212-10.76 2.21-15.143 0-27.462-12.321-27.462-27.464 0-15.144 12.319-27.463 27.463-27.463s27.464 12.319 27.464 27.463c0 4.946-1.347 9.795-3.9 14.06z" fill="#454bdb"/><path d="m828.39 149.008c10.813 0 19.579-8.974 19.579-20.044s-8.766-20.044-19.58-20.044c-10.812 0-19.577 8.975-19.577 20.044 0 11.07 8.765 20.044 19.578 20.044" fill="#fff"/><path d="m815.907 127.9c-.927.032-1.672.803-1.672 1.73s.745 1.698 1.672 1.73c.927-.032 1.672-.803 1.672-1.73s-.745-1.698-1.672-1.73m0 6.46c-2.594-.003-4.728-2.138-4.73-4.732.003-2.593 2.137-4.726 4.73-4.729 2.594.003 4.727 2.136 4.73 4.73-.003 2.594-2.136 4.727-4.73 4.73m12.985-6.459c-.927.032-1.672.803-1.672 1.73s.745 1.698 1.672 1.73c.927-.032 1.672-.803 1.672-1.73s-.745-1.698-1.672-1.73m0 6.46c-2.594-.003-4.728-2.138-4.73-4.732.003-2.593 2.137-4.726 4.73-4.729 2.593.003 4.726 2.137 4.729 4.73-.003 2.594-2.136 4.727-4.73 4.73m12.985-6.459c-.927.032-1.672.803-1.672 1.73s.745 1.698 1.672 1.73c.927-.032 1.672-.803 1.672-1.73s-.745-1.698-1.672-1.73m0 6.46c-2.594-.003-4.728-2.138-4.73-4.732.003-2.593 2.137-4.726 4.73-4.729 2.593.003 4.726 2.137 4.729 4.73-.003 2.593-2.136 4.726-4.729 4.73" fill="#454bdb"/><path d="m444.908 168.905-2.498-13.519c1.476-3.285 2.239-6.845 2.24-10.446 0-14.159-11.478-25.638-25.637-25.638s-25.637 11.48-25.637 25.638 11.478 25.637 25.637 25.637c5 0 9.65-1.453 13.593-3.929z" fill="#4178da"/><path d="m419.014 120.802c-13.31 0-24.138 10.829-24.138 24.138s10.828 24.137 24.138 24.137c4.516 0 8.94-1.28 12.795-3.7l.494-.31 10.734 1.97-2.186-11.838.19-.425c1.392-3.091 2.111-6.444 2.11-9.834 0-13.31-10.828-24.138-24.137-24.138m0 51.275c-14.964 0-27.138-12.173-27.138-27.137s12.174-27.138 27.138-27.138c14.963 0 27.137 12.174 27.137 27.138 0 3.666-.734 7.238-2.182 10.626l2.81 15.208-13.878-2.547c-4.195 2.516-8.995 3.847-13.887 3.85" fill="#454bdb"/><path d="m398.377 144.94c0-11.202 9.297-20.283 20.766-20.283 11.467 0 20.764 9.081 20.764 20.283 0 11.201-9.297 20.282-20.764 20.282-11.469 0-20.766-9.08-20.766-20.282" fill="#fff"/><path d="m430.959 142.931v-.001c0-4.057-3.339-7.396-7.396-7.396-.001 0-.002 0-.003 0-2.069 0-3.933.85-5.277 2.224-1.386-1.423-3.291-2.226-5.277-2.224-.001 0-.002 0-.003 0-4.057 0-7.396 3.339-7.396 7.396v.002c0 1.99.79 3.794 2.072 5.123l10.574 10.52 10.843-10.748c.117-.137.424-.524.424-.524.934-1.266 1.439-2.798 1.439-4.371" fill="#eb074f"/><path d="m218.371 67.133c-11.509.229-20.653 9.745-20.424 21.254.23 11.509 9.746 20.653 21.255 20.424 11.51-.23 20.652-9.746 20.423-21.255-.23-11.51-9.745-20.653-21.254-20.423" fill="#fff"/><path d="m217.536 83.82h-.027c-.72 0-1.306-.587-1.306-1.307 0-.719.586-1.305 1.306-1.305h.027zm2.725 2.5c.72 0 1.305.585 1.305 1.305s-.586 1.305-1.305 1.305h-.225v-2.61zm3.932-5.112v-2.5h-4.157v-2.977h-2.5v2.977h-.027c-2.087.002-3.803 1.718-3.806 3.805.002 2.087 1.719 3.804 3.806 3.806h.027v2.611h-4.156v2.5h4.156v2.977h2.5v-2.977h.225c2.086-.003 3.802-1.719 3.805-3.805-.002-2.087-1.718-3.803-3.805-3.806h-.225v-2.61h4.157z" fill="#454bdb"/><path d="m228.123 88.168c0 5.16-4.17 9.33-9.318 9.33-.002 0-.004 0-.006 0-5.115 0-9.324-4.209-9.324-9.324 0-.002 0-.004 0-.006l-18.612.217v1.378c-.004 1.611 1.315 2.942 2.926 2.953l4.534.014c.518 2.321 1.433 4.535 2.703 6.546l-3.232 3.22c-.552.55-.863 1.299-.863 2.078 0 .777.308 1.522.856 2.072l2.388 2.408c.551.559 1.303.874 2.088.874.776 0 1.522-.309 2.071-.857l3.226-3.198c2.011 1.279 4.226 2.206 6.549 2.74l-.018 4.534v.014c0 1.607 1.321 2.931 2.928 2.935l3.402.013c1.623 0 2.943-1.303 2.943-2.92l.014-4.55c2.323-.524 4.54-1.439 6.557-2.706l3.208 3.23c1.141 1.145 3.008 1.145 4.168 0l2.396-2.4c.555-.548.867-1.295.867-2.075 0-.778-.311-1.525-.864-2.072l-3.191-3.226c1.274-2.013 2.196-4.229 2.725-6.552l4.539.014c1.611-.001 2.939-1.324 2.944-2.935v-1.923z" fill="#4178da"/><path d="m207.352 103.967 1.01.639c1.868 1.188 3.925 2.049 6.082 2.546l1.17.266-.023 5.736c-.002.787.642 1.437 1.429 1.442l3.407.014c.79 0 1.438-.638 1.438-1.421l.017-5.75 1.168-.263c2.158-.485 4.217-1.336 6.089-2.515l1.017-.636 4.05 4.082c.557.558 1.478.553 2.05-.011l2.39-2.392c.279-.277.43-.636.43-1.02.001-.376-.15-.737-.418-1l-4.042-4.086.635-1.008c1.183-1.869 2.039-3.926 2.53-6.083l.266-1.173 5.742.018c.788 0 1.435-.647 1.438-1.441v-.403l-15.705.147c-.727 5.27-5.256 9.344-10.717 9.344-5.457 0-9.985-4.057-10.724-9.314l-15.714.182c.049.75.672 1.342 1.435 1.349l5.722.018.263 1.166c.481 2.153 1.329 4.208 2.507 6.074l.644 1.016-4.085 4.07c-.272.269-.42.627-.421 1.009s.15.749.42 1.02l2.389 2.409c.269.275.638.43 1.022.43h.003c.378.001.741-.149 1.008-.417zm13.069 13.643-3.407-.014c-1.174.002-2.301-.468-3.127-1.303-.836-.834-1.303-1.97-1.296-3.151l.014-3.367c-1.678-.483-3.294-1.161-4.815-2.018l-2.4 2.38c-.827.829-1.952 1.294-3.123 1.29h-.01c-1.182 0-2.316-.475-3.147-1.316l-2.388-2.41c-.831-.832-1.296-1.964-1.29-3.14-.001-1.175.47-2.303 1.306-3.128l2.402-2.395c-.849-1.52-1.515-3.135-1.984-4.812l-3.371-.01c-2.456-.02-4.436-2.022-4.421-4.462v-2.851l21.61-.252v1.517c0 4.319 3.514 7.83 7.83 7.83 4.313 0 7.819-3.511 7.819-7.83v-1.486l21.604-.201v3.436c-.011 2.448-2.004 4.435-4.443 4.435l-3.375-.01c-.48 1.678-1.153 3.295-2.007 4.817l2.375 2.403c.834.822 1.303 1.947 1.299 3.118.004 1.184-.47 2.32-1.314 3.15l-2.39 2.393c-1.75 1.73-4.568 1.725-6.291 0l-2.387-2.405c-1.524.848-3.142 1.516-4.82 1.99l-.01 3.386c0 2.432-1.992 4.416-4.443 4.416zm-1.641-51.981c-.146 0-.293 0-.439.004-1.854.036-3.696.302-5.485.792l.795 2.892c1.549-.423 3.145-.653 4.75-.684 9.444-.214 17.818 6.686 19.441 15.994l2.955-.516c-1.849-10.608-11.27-18.482-22.017-18.482m-22.127 19.263 2.973.41c.407-2.921 1.476-5.71 3.127-8.154l-2.485-1.682c-1.907 2.826-3.143 6.05-3.615 9.426m6.207-12.592 2.14 2.105c1.656-1.688 3.609-3.057 5.76-4.04l-1.246-2.727c-2.485 1.133-4.741 2.714-6.654 4.663m13.884-8.48h3v-2.964h-3zm13.617-4.814-2.818-1.027-2.407 6.6 2.82 1.029zm6.957 8.403-2.297-1.93-2.26 2.69 2.297 1.929zm8.965 5.836-1.496-2.6-6.09 3.505 1.496 2.6zm-4.057 8.559.516 2.954 3.476-.606-.515-2.956zm-51.031 3.191 3.456.653.557-2.947-3.456-.653zm7.235-10.055-6.063-3.55-1.516 2.59 6.063 3.55zm5.691-6.182-2.114-2.553-2.31 1.914 2.113 2.553zm2.281-9.473 2.357 6.619 2.827-1.006-2.358-6.62z" fill="#454bdb"/><path d="m1041.33 62.282v1.868h-2.276v-1.793c-3.201-.452-5.607-3.221-5.607-6.455s2.406-6.003 5.607-6.455v-1.803h2.277v1.879c1.236.26 2.369.875 3.26 1.769.482.48.885 1.033 1.195 1.639l-2.027 1.036c-.202-.394-.464-.753-.778-1.065-.463-.465-1.028-.815-1.65-1.024v8.048c.622-.208 1.187-.559 1.65-1.023.567-.564.962-1.277 1.138-2.057l2.22.503c-.271 1.199-.877 2.296-1.748 3.164-.891.894-2.024 1.509-3.26 1.769zm-2.276-10.522c-1.936.428-3.326 2.159-3.326 4.142s1.39 3.714 3.326 4.142z" fill="#454bd8"/><path d="m66.244 171.078v2.471h-3.011v-2.372c-4.236-.598-7.419-4.262-7.419-8.54 0-4.279 3.183-7.943 7.419-8.541v-2.385h3.013v2.486c1.634.344 3.133 1.157 4.313 2.34.637.636 1.17 1.368 1.581 2.169l-2.682 1.37c-.267-.52-.615-.996-1.029-1.409-.613-.614-1.36-1.078-2.183-1.354v10.648c.822-.276 1.57-.74 2.183-1.354.749-.746 1.271-1.69 1.505-2.721l2.937.665c-.359 1.586-1.161 3.038-2.312 4.186-1.18 1.183-2.679 1.997-4.313 2.341zm-3.011-13.921c-2.562.566-4.401 2.856-4.401 5.48 0 2.623 1.839 4.913 4.401 5.48z" fill="#454bd8"/><path d="m461.048 385.405h-55.222c-.599 0-1.092-.493-1.092-1.092 0-.001 0-.001 0-.001v-36.598c0-.604.49-1.093 1.092-1.093h55.222c.604 0 1.093.489 1.093 1.093v36.598c0 .604-.489 1.093-1.093 1.093" fill="#fff"/><path d="m429.326 367.969 9.132-5.27c.267-.154.433-.44.433-.748 0-.309-.166-.594-.433-.748l-9.132-5.27c-.131-.076-.28-.116-.432-.116-.473 0-.862.389-.863.862v10.544c0 .473.39.862.863.862.152 0 .302-.04.433-.116m-6.846 13.843v-2h32.672v-3h-32.672v-2h-3v2h-8.343v3h8.343v2z" fill="#454bdb"/><path d="m460.641 363.32v20.585h-54.407v-35.784h41.443v-3h-41.85c-1.422.001-2.591 1.171-2.593 2.593v36.598c.002 1.422 1.171 2.591 2.593 2.593h55.221c1.422-.002 2.591-1.171 2.593-2.593v-20.992z" fill="#454bdb"/><path d="m449.318 363.001 2.259-12.22c-1.335-2.97-2.025-6.189-2.026-9.445 0-12.8 10.377-23.177 23.177-23.177s23.177 10.377 23.177 23.177-10.377 23.177-23.177 23.177c-4.52 0-8.723-1.314-12.29-3.552z" fill="#fff"/><path d="m472.728 316.659c-3.421 0-6.732.687-9.843 2.042l1.197 2.75c2.727-1.188 5.671-1.799 8.646-1.792 11.952 0 21.677 9.725 21.677 21.677s-9.725 21.677-21.677 21.677c-4.067-.003-8.051-1.156-11.491-3.323l-.494-.31-9.554 1.753 1.947-10.539-.19-.426c-1.25-2.777-1.896-5.787-1.895-8.832.003-4.966 1.709-9.783 4.83-13.644l-2.33-1.888c-3.554 4.395-5.496 9.879-5.5 15.532 0 3.317.66 6.552 1.967 9.623l-2.571 13.91 12.699-2.329c3.804 2.27 8.152 3.47 12.582 3.473 13.606 0 24.677-11.07 24.677-24.677s-11.071-24.677-24.677-24.677" fill="#454bdb"/><path d="m461.915 322.544-1.498-2.6c-1.904 1.099-3.654 2.447-5.203 4.008l2.13 2.113c1.361-1.371 2.898-2.555 4.571-3.52" fill="#454bdb"/><path d="m454.719 341.336c0 9.652 8.011 17.478 17.893 17.478 9.88 0 17.891-7.826 17.891-17.478s-8.011-17.478-17.891-17.478c-9.882 0-17.893 7.826-17.893 17.478" fill="#38d2de"/><path d="m478.608 345.39c-1.188 0-2.264.449-3.105 1.166l-6.04-4.137c.096-.377.163-.766.163-1.174 0-.362-.048-.712-.124-1.052l6.112-3.983c.825.66 1.857 1.074 2.994 1.074 2.641-.004 4.812-2.176 4.816-4.816-.003-2.641-2.175-4.813-4.816-4.815-2.641.002-4.812 2.174-4.815 4.815 0 .428.074.835.178 1.23l-6.022 3.925c-.868-.765-1.984-1.189-3.14-1.193-2.64.003-4.811 2.175-4.814 4.815.001 2.641 2.174 4.814 4.815 4.817 1.158 0 2.208-.428 3.04-1.111l6.078 4.163c-.087.357-.132.722-.135 1.09.001 2.641 2.174 4.814 4.815 4.817 2.641-.002 4.814-2.175 4.816-4.816-.003-2.641-2.175-4.813-4.816-4.815" fill="#454bdb"/><path d="m464.81 339.43c-.974.032-1.757.842-1.757 1.816s.783 1.783 1.757 1.816c.973-.033 1.756-.842 1.756-1.816s-.783-1.784-1.756-1.816m13.798-5.147c.973-.033 1.756-.842 1.756-1.816s-.783-1.784-1.756-1.816c-.974.032-1.757.842-1.757 1.816s.783 1.783 1.757 1.816m0 14.107c-.973.032-1.756.841-1.756 1.815 0 .973.783 1.782 1.756 1.815.996-.001 1.815-.82 1.816-1.816 0-1-.814-1.814-1.816-1.814" fill="#fff"/><path d="m545.67 197.938c-13.388-.267-24.025-11.337-23.76-24.726.269-13.388 11.339-24.026 24.728-23.759 13.388.266 24.026 11.338 23.759 24.726-.267 13.39-11.337 24.027-24.726 23.76" fill="#fff"/><path d="m546.18 199.443c-.18 0-.358-.002-.54-.005-6.875-.138-13.286-2.943-18.051-7.902s-7.314-11.478-7.178-18.354c.28-14.019 11.777-25.234 25.737-25.234 5.235-.009 10.349 1.585 14.651 4.567l-1.71 2.467c-3.671-2.545-8.015-3.947-12.481-4.029-12.527-.252-22.947 9.75-23.197 22.29-.137 6.032 2.148 11.875 6.34 16.214 4.169 4.362 9.917 6.878 15.95 6.981 3.559.086 7.087-.677 10.292-2.226l1.299 2.705c-3.465 1.671-7.265 2.534-11.112 2.526" fill="#454bdb"/><path d="m557.987 162.518h-25.069l-4.178 7.237 16.712 19.008 16.713-19.008z" fill="#fff"/><path d="m537.097 169.755-4.179-7.237-3.819 7.288zm8.227-.224-4.049-7.013-4.042 7.001z" fill="#38d2de"/><path d="m553.874 169.755-4.339-6.99-3.691 7.041z" fill="#e2e2e2"/><path d="m545.452 169.755v17.741l8.165-17.741z" fill="#38d2de"/><path d="m529.099 169.755v.176l15.973 17.966-8.345-18.142z" fill="#e2e2e2"/><path d="m561.502 169.755v.176l-15.972 17.966 8.344-18.142z" fill="#fff"/><path d="m540.093 163.2h-5.993l2.997 5.19zm-1.815 5.873h5.994l-2.997-5.19zm10.172-5.872h-5.994l2.997 5.189 2.997-5.19zm-1.816 5.872h5.994l-2.997-5.19zm10.171-5.872h-1.235v-1.365h2.812l4.618 8.001-17.549 19.959-17.546-19.958 4.619-8.003h18.836v1.365h-.548l2.997 5.188 2.996-5.188zm1.182.681-2.998 5.191h5.994zm-25.069.001-2.996 5.19h5.994zm13.217 6.555v14.644l6.437-14.644zm-1.365 0h-6.627l6.627 15.078v-15.079zm2.7 14.997 13.187-14.997h-6.595zm-4.417-.433-6.401-14.565h-6.403l12.804 14.564zm8.97-21.801v-1.365h2.723v1.365z" fill="#454bdb"/><path d="m577.394 199.84c-13.389-.267-24.027-11.337-23.76-24.727.268-13.387 11.337-24.026 24.727-23.758 13.388.266 24.025 11.338 23.76 24.726-.267 13.389-11.338 24.027-24.726 23.759" fill="#454bdb"/><path d="m578.392 149.854c-6.888-.114-13.396 2.413-18.354 7.177-4.96 4.765-7.765 11.177-7.903 18.052-.137 6.876 2.412 13.394 7.177 18.354 4.766 4.96 11.177 7.765 18.053 7.902 4.851.103 9.633-1.172 13.789-3.677l-1.55-2.569c-3.669 2.216-7.895 3.342-12.18 3.246-6.032-.103-11.779-2.619-15.948-6.98-4.194-4.339-6.479-10.183-6.341-16.216.104-6.033 2.62-11.78 6.982-15.949 4.38-4.21 10.139-6.466 16.214-6.34 12.54.25 22.54 10.655 22.29 23.196-.045 2.372-.461 4.723-1.233 6.967l2.836.977c.874-2.539 1.346-5.199 1.397-7.883.282-14.195-11.036-25.974-25.23-26.257" fill="#454bdb"/><path d="m594.317 191.318 2.168 2.074c1.402-1.465 2.626-3.089 3.647-4.84l-2.589-1.51c-.905 1.547-1.987 2.982-3.226 4.276m-7.942-58.558-4.826-4.075.732 8.66c-1.677-1.075-3.442-2.008-5.275-2.787-4.383-1.855-9.096-2.806-13.856-2.797-9.439-.011-18.503 3.744-25.17 10.426l2.122 2.12c2.969-2.977 6.488-5.349 10.361-6.985 4.013-1.699 8.329-2.57 12.687-2.561 4.403 0 8.671.86 12.688 2.56 1.393.594 2.742 1.285 4.038 2.068l-7.929.666 4.826 4.076 10.487-.884-.885-10.486zm-.175 72.563c-6.104 6.121-14.406 9.559-23.05 9.547-4.4 0-8.669-.86-12.687-2.56-1.393-.594-2.743-1.285-4.039-2.068l7.93-.666-4.828-4.076-10.485.884.885 10.485 4.826 4.077-.733-8.66c1.677 1.075 3.442 2.008 5.276 2.787 4.383 1.854 9.096 2.806 13.855 2.797 9.439.011 18.504-3.743 25.17-10.426l-2.12-2.12z" fill="#454bdb"/><path d="m672.384 352.183c0 21.105-17.109 38.215-38.215 38.215-21.105 0-38.215-17.11-38.215-38.215s17.11-38.215 38.215-38.215c21.106 0 38.215 17.11 38.215 38.215" fill="#f2f2f2"/><path d="m628.72 367.954h-5.248v-7.285h5.05l1.921 4.725c.09.222.136.46.136.7 0 1.02-.839 1.86-1.859 1.86" fill="#fff"/><path d="m624.972 366.454h3.748c.158 0 .25-.086.299-.159.068-.098.081-.226.034-.336l-1.541-3.79h-2.54zm3.748 3h-6.748v-10.285h7.56l2.3 5.661c.164.403.248.833.248 1.268 0 1.841-1.515 3.356-3.356 3.356-.001 0-.003 0-.004 0z" fill="#454bdb"/><path d="m627.975 381.643h-6.256c-.795 0-1.496-.541-1.695-1.311l-4.815-18.456h9.878l4.583 17.572c.037.145.057.294.057.443 0 .961-.791 1.752-1.752 1.752" fill="#b7ced8"/><path d="m617.151 363.376 4.324 16.577c.03.112.13.19.244.19h6.256c.078.001.152-.035.199-.098.049-.061.066-.143.045-.219l-4.291-16.45zm10.824 19.767h-6.256c-1.48 0-2.773-1-3.146-2.433l-5.305-20.334h12.979l4.875 18.692c.258.974.046 2.015-.573 2.81-.613.8-1.567 1.268-2.574 1.265z" fill="#454bdb"/><path d="m661.883 370.014-29.808-7.665v-21.134l29.808-7.664c.175-.045.355-.068.536-.068 1.18 0 2.151.971 2.151 2.151v32.297c0 1.18-.971 2.151-2.151 2.151-.181 0-.361-.023-.536-.068m-45.194-18.232c0 3.701-3.045 6.746-6.746 6.747-.001 0-.001 0-.001 0-3.702 0-6.748-3.046-6.748-6.748s3.046-6.748 6.748-6.748c3.701 0 6.748 3.046 6.748 6.748v.001" fill="#fff"/><path d="m609.943 346.534c-2.878.003-5.245 2.37-5.248 5.248.003 2.878 2.37 5.244 5.248 5.247 2.877-.003 5.244-2.37 5.247-5.247-.003-2.878-2.37-5.245-5.247-5.248m0 13.495c-4.548 0-8.248-3.699-8.248-8.247s3.7-8.248 8.248-8.248 8.247 3.7 8.247 8.248-3.7 8.247-8.247 8.247m52.842 11.657c-.276 0-.554-.034-.829-.104l-31.38-8.07v-23.46l14.387-3.7.746 2.906-12.134 3.12v18.808l29.13 7.488c.086.027.181.008.251-.05.072-.055.114-.14.113-.231v-33.221c.001-.09-.041-.176-.113-.23-.071-.058-.165-.078-.253-.054l-6.005 1.545-.746-2.906 6.005-1.545c.985-.255 2.035-.037 2.838.589.805.621 1.276 1.583 1.274 2.6v33.221c.003 1.018-.469 1.981-1.275 2.602-.574.448-1.281.691-2.009.692" fill="#454bdb"/><path d="m648.695 338.491-.746-2.906 4.167-1.072.746 2.907z" fill="#454bdb"/><path d="m609.732 341.215h23.135v21.134h-23.135z" fill="#e2ebef"/><path d="m609.732 353.663h23.135v8.686h-23.135z" fill="#38d2de"/><g fill="#454bdb"><path d="m612.099 360.413c0 .64.52 1.16 1.159 1.16h15.816c.636-.001 1.159-.524 1.159-1.16v-18.976h-18.134zm21.134-21.976v21.976c-.003 2.281-1.879 4.158-4.16 4.16h-15.815c-2.282-.002-4.158-1.879-4.16-4.16v-21.976z"/><path d="m367.499 186.636 9.303-9.304 2.121 2.12-9.304 9.305zm16.161-15.574 2.784-2.783 2.121 2.12-2.784 2.784zm3.299 4.171 3.808-.997.76 2.901-3.808.999zm-.064 8.157.807-2.89 3.79 1.06-.806 2.889zm-3.365 4.121 2.154-2.088 2.74 2.827-2.155 2.088zm-4.983 1.859 2.914-.715.939 3.822-2.915.715zm-14.75-12.89.898-2.863 3.756 1.178-.898 2.864zm3.278-6.591 2.22-2.018 2.648 2.914-2.219 2.017zm6.156-4.034 2.936-.623.817 3.85-2.936.624zm6.114 3.358 1.237-3.737 2.848.943-1.237 3.737z"/><path d="m371.135 179.833v-3h8.169v8.17h-3v-5.17z"/><path d="m888.344 200.362h3.832v19.888h7.288v-26.916h-11.12zm24.815 13.705c-1.98 0-2.639-1.842-2.639-7.294s.66-7.257 2.639-7.257c1.947 0 2.607 1.805 2.607 7.257s-.66 7.294-2.607 7.294m0-21c-6.534 0-10.115 4.875-10.115 13.706 0 8.83 3.581 13.744 10.115 13.744 6.471 0 10.083-4.914 10.083-13.744 0-8.831-3.612-13.706-10.083-13.706m55.581.268-15.299 26.914h6.567l15.297-26.914zm5.214 22.537c-1.224 0-2.01-1.459-2.01-3.724 0-2.227.786-3.687 2.011-3.687s2.01 1.46 2.01 3.687c0 2.265-.785 3.724-2.011 3.724m0-11.941c-3.893 0-6.439 3.226-6.439 8.217 0 5.03 2.546 8.293 6.44 8.293 3.895 0 6.408-3.263 6.408-8.293 0-4.991-2.513-8.217-6.408-8.217m-21.141-2.534c0-2.227.785-3.686 2.011-3.686 1.225 0 2.01 1.459 2.01 3.686 0 2.265-.785 3.724-2.011 3.724-1.225 0-2.01-1.459-2.01-3.724m8.419 0c0-4.991-2.513-8.216-6.408-8.216-3.897 0-6.44 3.225-6.44 8.216 0 5.03 2.544 8.294 6.44 8.294 3.895 0 6.408-3.264 6.408-8.294"/><path d="m936.224 214.067c-1.973 0-2.631-1.842-2.631-7.294s.658-7.257 2.631-7.257c1.941 0 2.599 1.805 2.599 7.257s-.658 7.294-2.599 7.294m0-21c-6.513 0-10.082 4.875-10.082 13.706 0 8.83 3.569 13.744 10.082 13.744 6.45 0 10.05-4.914 10.05-13.744 0-8.831-3.6-13.706-10.05-13.706"/></g><path d="m295.684 208.993h59.605v40.58h-59.605z" fill="#fff"/><path d="m295.684 194.091-2.042 10.951 2.042 4.802 1.771-.006 4.102-.845h8.872l44.383.494 2.913-3.521-2.436-10.158-2.307-1.01z" fill="#eb074f" stroke="#000" stroke-width=".75"/><path d="m295.684 188.547h57.968v5.544h-57.968z" fill="#fff"/><path d="m295.3 186.996c18.949-.385 37.936-.015 56.9-.177 1.232.154 2.85-.339 3.713.84.362 2.688-.124 5.461.593 8.111.739 2.927 1.872 5.746 2.465 8.719.608 2.45-1.579 4.475-1.356 6.917-.031 12.633.046 25.273-.023 37.905.308 1.41-.863 2.496-2.249 2.219-19.796.046-39.592-.016-59.388.023-1.102 0-3.05.092-2.973-1.518-.177-12.863-.008-25.75-.062-38.621.162-2.172-1.479-3.967-1.479-6.101.609-4.706 3.266-9.02 3.004-13.857.247-1.456-.531-3.443.855-4.46m2.234 2.927v3.081h55.459c0-1.024 0-2.056 0-3.081-18.486 0-36.973 0-55.459 0m-.393 6.163c-.847 3.096-2.003 6.115-2.573 9.274-.4 2.788 4.121 4.305 5.362 1.686.878-1.193.862-3.966 2.934-3.173 1.079 1.664 1.317 4.637 3.898 4.537 2.626.115 2.873-2.927 3.951-4.622 1.834-.5 2.042 1.649 2.696 2.804.624 2.411 4.591 2.403 5.23 0 .709-1.14.809-3.497 2.704-2.727.686 1.148 1.071 2.45 1.756 3.597 1.263 1.564 4.244 1.14 4.784-.878.685-1.147.847-3.427 2.711-2.75.678 1.164 1.048 2.488 1.756 3.636 1.256 1.541 4.221 1.14 4.768-.87.67-1.156.855-3.443 2.727-2.766.678 1.179 1.055 2.519 1.779 3.682 1.287 1.479 4.175 1.086 4.73-.901.708-1.132.839-3.404 2.703-2.781 1.048 1.502 1.125 4.052 3.243 4.499 1.964.554 4.244-1.471 3.582-3.497-.655-2.958-1.672-5.831-2.496-8.75-18.748 0-37.496 0-56.245 0m-1.148 15.42v36.958h6.163c.061-10.291-.116-20.582.077-30.865-.085-1.594 1.871-1.486 2.965-1.502 13.38.023 26.767.023 40.154.008 1.071.008 3.035-.085 2.943 1.494.192 10.283.015 20.574.077 30.865h6.162c0-12.317 0-24.641 0-36.958-2.226.093-4.352-.554-6.162-1.841-1.456.778-2.889 1.872-4.622 1.811-1.733.061-3.173-1.033-4.621-1.811-1.449.778-2.881 1.864-4.607 1.811-1.74.069-3.181-1.033-4.637-1.811-1.455.778-2.896 1.88-4.637 1.811-1.725.053-3.166-1.025-4.606-1.811-1.448.778-2.881 1.872-4.614 1.811-1.733.061-3.181-1.025-4.629-1.811-1.464.786-2.912 1.888-4.653 1.811-1.725.046-3.15-1.033-4.59-1.811-1.811 1.287-3.936 1.934-6.163 1.841m9.244 7.688v29.27h18.486c0-9.759 0-19.511 0-29.27-6.162 0-12.324 0-18.486 0m21.567 0v29.27h18.487c0-9.759 0-19.511 0-29.27-6.162 0-12.325 0-18.487 0z" fill="#454bdb" fill-rule="nonzero"/><path d="m320.004 233.611c1.879-.754 3.142 2.072 1.286 2.912-1.849.732-2.981-2.018-1.286-2.912z" fill="#454bdb" fill-rule="nonzero"/><path d="m332.297 233.581c1.887-.724 3.181 2.079 1.317 2.942-1.848.739-2.934-1.956-1.317-2.942z" fill="#454bdb" fill-rule="nonzero"/><path d="m592.779 176.649c-1.217-.181-2.052-.696-2.874-1.585 2.508.177 2.489-.537 2.489-.537s.114-.317-.567-.633c-.301-.14-.596-.344-.854-.509.244.032 3.791.331 4.198-1.054-2.053-.28-4.38-.554-6.059-1.303-.62-.276-1.443-.592-1.874-1.18.55.041 1.487.073 2.293-.13.891-.223 1.757-.546 2.245-1.328.279-.448.284-.924.284-.924s-.592.321-1.219.479c-1.412.356-2.894.215-3.466.154-.617-.066-2.713-.31-2.648-.787.06-.433 1.895-.283 2.26-.249.5.045.997.107 1.497.14-1.104-.703-2.409-1.111-3.657-1.456-1.899-.524-3.942-.642-5.843-.094-.818.235-1.99.797-2.59 1.831-1.342 2.314.37 5.112 2 6.765 1.933 1.961 3.652 2.858 5.277 3.545s4.993 1.664 7.475.482c1.656-.789 1.633-1.627 1.633-1.627z" fill="#fff"/><path d="m588.129 185.648c-.157-.203-.347-.016-.634.015-.043.005.145-.195.106-.381-.052-.244-.228-.293-.439-.288-.398.011-1.052.38-1.477.345-.58-.048-1.713-.539-1.903-.698-.197-.166.339.018 1.356-.731.311-.229.938-.766.938-.766s.17.717 1.337 1.006c1.167.29 2.025-1.336 1.002-2.285-.464-.43-1.219-.415-1.15-.482.212-.203.401-1.203.37-1.216-.116-.05-.886-.019-2.647-.502-2.302-.629-4.483-1.864-6.274-3.421-1.555-1.352-2.802-3.427-3.26-4.705-.163-.455-.228-1.207-.225-1.708.004-.859.539-2.315 1.767-3.127.137-.091-1.425-.524-2.592-.624-2.447-.208-3.672.485-3.76.394-1.517-1.56-2.159-4.341-2.678-4.179-.551.171-.45 6.25-.543 6.364-.092.114-.508.534-.718.836-.498.719-1.199 1.748-1.387 3.861-.192 2.143.197 6.536 7.911 10.009 3.048 1.371 5.645 1.655 5.645 1.655s1.179.487 1.842.689c.691.211 2.073.849 2.073.849s1.52 1.005 2.342.741c.311-.1.102-.383-.192-.473-.143-.043.319-.101.335-.371.021-.333-.661-.088-.661-.088s.1-.448.239-.391c.971.395 1.524.819 2.709.989.189.027.542.004.581-.346.024-.21-.301-.333-.301-.333-.013.019.563-.282.288-.638z" fill="#fff"/><path d="m581.494 185.111c-.202-.068.289-.031.524-.069.1-.016.826.378 2.04.668.228.054-.675.084-.7.077-1.025-.284-1.468-.541-1.864-.676z" fill="#2554c1"/><path d="m125.415 311.084c-.676-.101-1.141-.388-1.598-.882 1.395.099 1.384-.298 1.384-.298s.064-.177-.315-.353c-.167-.078-.332-.191-.475-.283.136.018 2.109.184 2.335-.586-1.142-.156-2.436-.308-3.37-.725-.345-.153-.803-.329-1.042-.656.305.023.826.04 1.275-.072.495-.125.977-.304 1.248-.739.156-.249.159-.514.159-.514s-.33.179-.678.266c-.786.198-1.61.12-1.928.086-.344-.037-1.51-.172-1.473-.438.033-.241 1.054-.157 1.257-.139.278.026.555.06.833.079-.615-.391-1.341-.619-2.035-.81-1.056-.292-2.193-.357-3.25-.053-.455.131-1.107.444-1.441 1.019-.746 1.287.206 2.843 1.113 3.763 1.075 1.09 2.031 1.59 2.935 1.972s2.777.925 4.158.268c.921-.439.908-.905.908-.905z" fill="#454bdb"/><path d="m122.829 316.09c-.088-.114-.193-.009-.353.008-.023.002.081-.109.059-.212-.029-.136-.127-.163-.244-.16-.221.006-.585.211-.821.192-.323-.027-.953-.3-1.059-.389-.11-.092.189.01.754-.406.173-.128.522-.427.522-.427s.095.399.744.56 1.126-.743.557-1.271c-.258-.239-.678-.231-.639-.268.118-.113.222-.669.205-.676-.064-.028-.493-.011-1.472-.279-1.28-.351-2.494-1.037-3.49-1.904-.865-.751-1.558-1.906-1.813-2.617-.091-.253-.127-.671-.126-.95.003-.477.3-1.287.983-1.739.076-.05-.792-.292-1.441-.347-1.361-.116-2.043.27-2.092.219-.844-.867-1.201-2.414-1.49-2.325-.306.096-.25 3.477-.301 3.541-.052.063-.283.297-.4.465-.277.399-.667.972-.772 2.147-.106 1.192.11 3.636 4.401 5.567 1.695.763 3.14.921 3.14.921s.656.271 1.025.383c.384.118 1.153.473 1.153.473s.845.559 1.302.412c.174-.056.057-.213-.106-.263-.08-.024.177-.057.186-.207.011-.185-.368-.049-.368-.049s.056-.249.133-.217c.54.22.848.456 1.507.55.105.015.301.002.323-.193.014-.116-.167-.184-.167-.184-.007.01.313-.158.16-.355z" fill="#454bdb"/><path d="m119.138 315.791c-.112-.038.161-.017.292-.038.056-.01.459.21 1.135.371.126.03-.376.046-.39.043-.57-.158-.816-.301-1.037-.376z" fill="#454bdb"/></svg>