<svg clip-rule="evenodd" fill-rule="evenodd" stroke-linejoin="round" stroke-miterlimit="1.41421" viewBox="0 0 1036 212" xmlns="http://www.w3.org/2000/svg" xmlns:xlink="http://www.w3.org/1999/xlink"><clipPath id="a"><path clip-rule="evenodd" d="m863.867 132.907h51.28v77.707h-51.28z"/></clipPath><path d="m1020.94 158.244c7.648 0 13.849 6.2 13.849 13.849 0 7.652-6.207 13.854-13.86 13.848l-81.644-.06v25.41h-256.171v-43.616h-97.567c-8.129 0-14.719-6.591-14.719-14.72 0-8.094 6.536-14.67 14.63-14.72l118.859-.725c4.92-.087 8.92-4.158 8.92-9.079 0-4.942-4.034-9.022-8.976-9.079h-156.731c-7.821 0-14.161-6.34-14.161-14.162s6.34-14.162 14.162-14.162h112.921c4.433 0 8.08-3.647 8.08-8.08s-3.647-8.08-8.08-8.08h-67.092c-5.993 0-10.85-4.855-10.85-10.847 0-5.991 4.857-10.848 10.85-10.848h336.846c9.274 0 16.794 7.519 16.794 16.794s-7.52 16.794-16.793 16.794h-48.808c-5.582 0-10.106 4.524-10.106 10.106s4.524 10.106 10.106 10.106h95.104c7.9 0 14.303 6.404 14.303 14.303 0 7.9-6.404 14.303-14.303 14.303h-6.18c-6.26 0-11.332 5.074-11.332 11.333 0 6.258 5.072 11.332 11.332 11.332zm-521.29-52.376c6.91 0 12.513 5.602 12.513 12.512s-5.603 12.512-12.513 12.512h-49.16c-.032 0-.063 0-.095 0-4.95 0-9.024 4.073-9.024 9.024 0 4.95 4.074 9.024 9.024 9.024.032 0 .063-.001.095-.001h6.296c6.503 0 11.774 5.272 11.774 11.774 0 6.503-5.27 11.774-11.774 11.774h-334.956c-9.856 0-17.846-7.99-17.846-17.846s7.99-17.846 17.846-17.846h2.875c5.701 0 10.323-4.622 10.323-10.323 0-5.702-4.622-10.324-10.323-10.324h-41.429c-7.197 0-13.032-5.835-13.032-13.032 0-7.2 5.835-13.034 13.032-13.034h86.576c4.597-.071 8.34-3.872 8.34-8.469s-3.743-8.398-8.34-8.469h-49.9c-5.659 0-10.247-4.588-10.247-10.247 0-5.66 4.588-10.247 10.247-10.247h421.989c8.547 0 15.477 6.929 15.477 15.477s-6.93 15.477-15.477 15.477h-79.093c-6.148 0-11.132 4.984-11.132 11.132s4.984 11.132 11.132 11.132h36.803zm-447.619-2.153c0 6.767-5.486 12.253-12.254 12.253h-25.524c-6.767 0-12.253-5.486-12.253-12.253 0-6.768 5.486-12.253 12.253-12.253h25.525c6.768 0 12.254 5.485 12.254 12.253zm483.986-69.4c-8.647 0-15.657-7.01-15.657-15.658 0-8.647 7.01-15.657 15.658-15.657h93.645c8.646 0 15.656 7.01 15.656 15.657s-7.01 15.657-15.656 15.657h-93.645zm-437.715 132.958c7.878 0 14.265 6.387 14.265 14.266 0 7.878-6.387 14.265-14.265 14.265h-52.507c-7.878 0-14.264-6.387-14.264-14.265 0-7.88 6.386-14.266 14.264-14.266z" fill="#f2f2f2"/><path d="m577.542 125.506c-1.736.461-2.109.834-2.57 2.57-.461-1.736-.834-2.109-2.571-2.57 1.737-.46 2.11-.834 2.571-2.57.461 1.736.834 2.11 2.57 2.57zm250.272 16.375c-2.301.61-2.796 1.105-3.407 3.408-.612-2.303-1.106-2.798-3.409-3.408 2.303-.611 2.797-1.106 3.409-3.409.61 2.303 1.106 2.798 3.407 3.409zm75.536-111.137c-2.598.69-3.156 1.248-3.845 3.845-.69-2.597-1.248-3.156-3.845-3.845 2.597-.689 3.156-1.248 3.845-3.845.689 2.597 1.247 3.156 3.845 3.845zm-134.9 22.096c-3.577.949-4.346 1.718-5.295 5.294-.949-3.577-1.719-4.346-5.295-5.294 3.576-.95 4.346-1.718 5.295-5.295.95 3.577 1.718 4.346 5.295 5.295zm37.888-28.718c-1.876.498-2.28.901-2.777 2.778-.498-1.877-.902-2.28-2.78-2.778 1.878-.498 2.282-.9 2.78-2.778.497 1.877.9 2.28 2.777 2.778zm82.5 46.167c-1.876.498-2.28.9-2.777 2.778-.498-1.877-.902-2.28-2.78-2.778 1.878-.498 2.282-.901 2.78-2.778.498 1.877.9 2.28 2.777 2.778zm32.54-2.778c-1.876.498-2.28.9-2.777 2.778-.498-1.877-.902-2.28-2.78-2.778 1.878-.498 2.282-.901 2.78-2.778.498 1.877.9 2.28 2.777 2.778zm-376.828 15.363c-1.876.498-2.28.9-2.777 2.777-.498-1.876-.902-2.28-2.78-2.777 1.878-.498 2.282-.902 2.78-2.778.497 1.876.9 2.28 2.777 2.778zm76.294-61.53c-2.311.612-2.808 1.108-3.42 3.42-.613-2.312-1.11-2.808-3.42-3.42 2.31-.614 2.807-1.11 3.42-3.42.612 2.31 1.109 2.806 3.42 3.42zm369.259 107.273c-1.994.53-2.423.958-2.95 2.95-.53-1.992-.958-2.42-2.95-2.95 1.992-.529 2.42-.958 2.95-2.95.528 1.992.957 2.421 2.95 2.95zm-815.81-72.687c-2.198.583-2.671 1.056-3.254 3.254-.584-2.198-1.057-2.671-3.254-3.254 2.197-.583 2.67-1.056 3.254-3.254.583 2.198 1.056 2.67 3.254 3.254zm260.963-25.186c-2.198.583-2.671 1.056-3.254 3.254-.583-2.198-1.057-2.671-3.254-3.254 2.197-.583 2.67-1.056 3.254-3.254.583 2.198 1.056 2.67 3.254 3.254zm-147.486 71.78c-2.034.54-2.471.977-3.01 3.01-.54-2.033-.977-2.47-3.012-3.01 2.035-.54 2.471-.977 3.012-3.01.538 2.033.976 2.47 3.01 3.01zm17.26-25.524c-2.932.777-3.562 1.408-4.34 4.338-.777-2.93-1.407-3.56-4.338-4.338 2.931-.777 3.561-1.408 4.338-4.339.778 2.931 1.408 3.562 4.34 4.34zm-141.513 8.85c-1.781.472-2.164.855-2.637 2.636-.472-1.78-.855-2.164-2.636-2.636 1.78-.473 2.164-.856 2.636-2.637.473 1.781.856 2.164 2.637 2.637zm279.23 46.43c-1.78.473-2.164.856-2.637 2.637-.472-1.781-.855-2.164-2.636-2.636 1.781-.473 2.164-.856 2.636-2.637.473 1.78.856 2.164 2.636 2.637zm42.019-67.078c-1.781.472-2.164.855-2.637 2.636-.472-1.78-.855-2.164-2.635-2.636 1.78-.473 2.163-.855 2.635-2.637.473 1.782.856 2.164 2.637 2.637zm28.415 98.202c-1.78.472-2.164.855-2.637 2.636-.471-1.781-.855-2.164-2.635-2.636 1.78-.474 2.164-.856 2.635-2.637.473 1.78.857 2.163 2.637 2.637zm-241.66-107.4c-3.354.89-4.075 1.61-4.965 4.963-.89-3.353-1.61-4.074-4.964-4.963 3.353-.89 4.075-1.61 4.964-4.964.89 3.353 1.61 4.074 4.964 4.964zm-135.914-15.698c-2.665.707-3.238 1.28-3.945 3.945-.707-2.665-1.28-3.238-3.946-3.945 2.665-.707 3.24-1.28 3.946-3.945.707 2.665 1.28 3.238 3.945 3.945zm251.74 18.878c-2.768.734-3.363 1.33-4.098 4.1-.735-2.77-1.33-3.366-4.1-4.1 2.77-.735 3.365-1.33 4.1-4.1.735 2.77 1.33 3.365 4.099 4.1z" fill="#4cccd6"/><path d="m705.401 62.077v.038c0 .792-.651 1.443-1.443 1.443-.791 0-1.443-.651-1.443-1.443 0-.013.001-.025.001-.038.02-.777.665-1.405 1.442-1.405.778 0 1.423.628 1.443 1.405zm96.047 26.49c0 1.024-.842 1.866-1.866 1.866s-1.866-.842-1.866-1.866.842-1.866 1.866-1.866 1.866.842 1.866 1.866zm-69.403-14.831v.048c0 1.282-1.054 2.337-2.337 2.337-1.282 0-2.337-1.055-2.337-2.337 0-.016.001-.032.001-.048.026-1.264 1.073-2.289 2.336-2.289 1.264 0 2.311 1.025 2.337 2.289zm9.153 21.422c.001.016.001.032.001.048 0 .625-.515 1.14-1.14 1.14s-1.14-.515-1.14-1.14c0-.016 0-.032.001-.048.025-.607.532-1.092 1.139-1.092s1.114.485 1.139 1.092zm231.622-23.759c0 1.081-.889 1.97-1.97 1.97s-1.97-.889-1.97-1.97.889-1.97 1.97-1.97 1.97.889 1.97 1.97zm-281.214-62.679c0 1.081-.889 1.97-1.97 1.97s-1.97-.89-1.97-1.97c0-.001 0-.001 0-.001 0-1.081.889-1.97 1.97-1.97s1.97.89 1.97 1.971zm-61.965 54.8c0 .731-.602 1.333-1.333 1.333s-1.333-.602-1.333-1.333c0-.001 0-.001 0-.001 0-.731.602-1.333 1.333-1.333s1.333.602 1.333 1.334zm-81.334 60.896c0 .731-.602 1.332-1.333 1.332-.73 0-1.332-.601-1.332-1.332s.602-1.333 1.332-1.333c.731 0 1.333.602 1.333 1.333zm57.83-73.891v.042c0 .962-.791 1.754-1.754 1.754-.962 0-1.754-.792-1.754-1.754 0-.014.001-.028.001-.042 0-.962.792-1.754 1.754-1.754s1.754.792 1.754 1.754zm117.594-9.982c0 .962-.792 1.753-1.754 1.753-.961 0-1.753-.791-1.753-1.753s.791-1.753 1.753-1.753 1.753.791 1.753 1.753zm236.421 103.933c0 .777-.639 1.416-1.416 1.416s-1.416-.639-1.416-1.416.639-1.416 1.416-1.416 1.416.639 1.416 1.416zm-21.132-38.286c0 1.072-.883 1.955-1.955 1.955s-1.955-.883-1.955-1.955.883-1.955 1.955-1.955 1.955.883 1.955 1.955zm-342.853-28.872v.05c0 1.399-1.151 2.55-2.55 2.55-1.398 0-2.55-1.151-2.55-2.55 0-.016.001-.033.001-.05.027-1.38 1.17-2.5 2.549-2.5 1.38 0 2.523 1.12 2.55 2.5zm-481.867 7.116c0 .69-.568 1.258-1.258 1.258s-1.258-.568-1.258-1.258.568-1.258 1.258-1.258 1.258.568 1.258 1.258zm246.937 27.3c0 .791-.651 1.441-1.442 1.441-.79 0-1.441-.65-1.441-1.441s.651-1.442 1.441-1.442c.791 0 1.442.651 1.442 1.442zm-79.9-32.065c0 .69-.568 1.257-1.258 1.257-.689 0-1.257-.567-1.257-1.257s.568-1.258 1.257-1.258c.69 0 1.258.568 1.258 1.258zm155.177-15.942c0 .69-.568 1.257-1.258 1.257-.689 0-1.257-.568-1.257-1.257 0-.001 0-.001 0-.001 0-.69.568-1.258 1.257-1.258.69 0 1.258.568 1.258 1.258zm-333.982 95.916v.001c0 .69-.567 1.257-1.257 1.257-.689 0-1.256-.567-1.257-1.256v-.001c0-.69.567-1.257 1.257-1.257.689 0 1.256.567 1.257 1.256zm65.646-35.722v.001c0 .657-.541 1.199-1.199 1.199s-1.199-.541-1.199-1.199.541-1.199 1.199-1.199 1.199.541 1.199 1.199zm-81.34 14.915c0 .961-.79 1.751-1.75 1.751s-1.75-.79-1.75-1.75.79-1.75 1.75-1.75 1.75.79 1.75 1.75zm-21.575 19.55c0 .961-.79 1.751-1.751 1.751s-1.751-.79-1.751-1.751.79-1.751 1.751-1.751 1.751.79 1.751 1.751zm312.035-52.72c0 .961-.79 1.751-1.751 1.751s-1.751-.79-1.751-1.751.79-1.751 1.751-1.751 1.751.79 1.751 1.751z" fill="#efcc8d"/><path d="m648.516 50.342h30.681v28.041h-30.681z" fill="#fff"/><path d="m649.456 77.443h28.802v-26.16h-28.802zm-1.88 1.88h32.563v-29.921h-32.563z" fill="#454bdb"/><path d="m683.875 140.482-3.92-60.386h-32.193l-3.923 60.419z" fill="#fff"/><path d="m679.954 80.096h-30.648l-1.605.926-1.294 19.934 33.641-19.422zm-36.115 60.418 38.592-22.28-1.201-18.495-36.097 20.84z" fill="#4178da"/><path d="m648.606 81.585-1.148 17.679 31.572-18.227h-29.473l-.95.548zm-3.25 21.064 1.438-22.19 2.26-1.303h31.781l.188 2.9-35.668 20.593zm.248 18.745-.94-1.628 36.096-20.84.94 1.628z" fill="#454bdb"/><path d="m645.538 132.34-1.877-.115 3.215-53.07h33.96l1.826 28.13-1.877.122-1.71-26.37h-30.43z" fill="#454bdb"/><path d="m683.286 83.42h-38.858c-.323 0-.588-.265-.589-.588v-8.898c0-.325.263-.588.59-.588h38.857c.325 0 .59.263.59.588v8.898c-.001.323-.267.588-.59.588" fill="#f2f2f2"/><path d="m644.779 82.48h38.155v-8.194h-38.155zm38.507 1.88h-38.858c-.838-.001-1.528-.69-1.529-1.528v-8.898c.001-.839.69-1.528 1.529-1.529h38.858c.839.001 1.528.69 1.529 1.529v8.898c-.001.838-.691 1.527-1.529 1.528z" fill="#454bdb"/><path d="m663.615 30.842-22.935 18.905c-.067.065-.104.155-.104.248 0 .19.156.347.347.347h45.87c.31 0 .464-.377.242-.595l-22.936-18.905c-.134-.13-.349-.13-.483 0" fill="#f2f2f2"/><path d="m663.501 31.568c.017.017.035.031.055.044zm-20.924 17.834h42.566l-21.286-17.541zm44.215 1.88h-45.869c-.526 0-.993-.314-1.193-.801-.198-.483-.082-1.041.292-1.406l22.974-18.941c.503-.447 1.274-.432 1.759.035l22.878 18.853c.434.422.549.974.349 1.461-.196.483-.669.8-1.19.799zm-22.936 7.792c-1.647.002-3.001 1.356-3.003 3.003.001 1.647 1.356 3.002 3.003 3.004 1.647-.002 3.003-1.357 3.005-3.004-.003-1.647-1.358-3.001-3.005-3.003m0 7.888c-2.678-.003-4.881-2.207-4.884-4.885.004-2.678 2.206-4.88 4.884-4.883 2.678.003 4.881 2.205 4.885 4.883-.003 2.679-2.206 4.882-4.885 4.885m-45.962 13.871-.939-1.628 21.767-12.567.94 1.628zm20.829-23.211-21.768-12.567.94-1.628 21.767 12.567zm72.212 23.211-21.77-12.567.94-1.628 21.769 12.567zm-20.829-23.211-.94-1.628 21.768-12.567.94 1.628z" fill="#454bdb"/><path d="m991.884 210.614h-91.504c-.544 0-.992-.448-.992-.992v-.001-15.019c0-.548.444-.992.992-.992h91.504c.548 0 .992.444.992.992v15.02c0 .544-.448.992-.992.992" fill="#4178da"/><path d="m986.213 194.55h-7.79v5.815h-1.881v-5.814h-7.933v5.814h-1.881v-5.814h-7.933v5.814h-1.881v-5.814h-7.933v5.814h-1.881v-5.814h-7.932v5.814h-1.881v-5.814h-7.652v-1.881h62.19c1.098 0 1.99.893 1.99 1.99v14.904c-.002 1.091-.899 1.988-1.99 1.99h-91.387c-1.091-.002-1.988-.899-1.99-1.99h1.88c0 .06.05.11.11.11h91.387c.06 0 .11-.05.11-.11v-14.904c0-.06-.05-.11-.11-.11h-3.731v5.814h-1.881z" fill="#454bdb"/><path d="m555.906 210.614h-39.714c-.762-.001-1.389-.628-1.39-1.39v-49.107c0-.767.622-1.39 1.39-1.39h39.714.001c.763 0 1.39.627 1.39 1.39v49.106.001c0 .763-.627 1.39-1.39 1.39" fill="#fff"/><path d="m515.741 210.614h-1.88v-50.414c.002-1.323 1.089-2.411 2.412-2.413h39.551c1.323.002 2.411 1.09 2.413 2.413v5.146h-1.88v-5.146c-.001-.292-.241-.532-.533-.532h-39.55-.001c-.292 0-.532.24-.532.532v50.415z" fill="#454bdb"/><path d="m522.85 166.802h26.399v8.926h-26.399z" fill="#38d2de"/><path d="m540.61 166.802h-12.625l-5.136 5.136v3.79h8.833zm-6.609 8.926h6.033l8.926-8.926h-6.033z" fill="#454bd8" fill-opacity=".298039"/><path d="m522.849 185.906v-1.88h3.972v1.88zm7.477 0v-1.88h3.972v1.88zm7.474 0v-1.88h3.973v1.88zm7.476 0v-1.88h3.973v1.88zm-22.427 7.06v-1.881h3.972v1.881zm7.477 0v-1.881h3.972v1.881zm7.474 0v-1.881h3.973v1.881zm7.476 0v-1.881h3.973v1.881zm-22.427 7.061v-1.881h3.972v1.881zm7.477 0v-1.881h3.972v1.881zm7.474 0v-1.881h3.973v1.881zm7.476 0v-1.881h3.973v1.881z" fill="#454bdb"/><path d="m898.88 132.906 16.267 16.267v56.788c0 2.553-2.101 4.654-4.654 4.654h-48.564c-2.553-.001-4.653-2.101-4.653-4.654v-68.401-.001c0-2.553 2.1-4.653 4.653-4.653z" fill="#fff"/><path d="m898.88 149.173v-16.267l16.267 16.267z" fill="#38d2de"/><g clip-path="url(#a)"><path d="m915.147 150.113h-14.642c-1.407-.002-2.564-1.159-2.565-2.566v-14.64h1.88v14.64c0 .378.306.686.684.686h14.642v1.88zm-51.28 43.845v-1.88h43.146v1.88zm0 9.228v-1.88h43.146v1.88zm0 9.227v-1.88h43.146v1.88zm0 9.228v-1.88h43.146v1.88z" fill="#454bdb"/></g><path d="m910.493 211.555h-48.563c-3.068-.003-5.591-2.526-5.594-5.594h1.881c.002 2.036 1.677 3.711 3.713 3.713h48.564c2.036-.002 3.711-1.677 3.713-3.713v-56.398l-15.716-15.717h-31.253v-1.88h32.031l16.82 16.818v57.177c-.003 3.068-2.527 5.591-5.595 5.594" fill="#454bdb"/><path d="m670.102 210.614h-93.118c-1.315-.001-2.397-1.083-2.398-2.398v-65.67c0-1.316 1.082-2.398 2.398-2.398h93.118c1.315 0 2.397 1.082 2.397 2.397v.001 65.67c0 1.315-1.082 2.397-2.397 2.398" fill="#fff"/><path d="m575.528 171.266h-1.88v-26.566c.003-3.011 2.479-5.488 5.49-5.492h7.813v1.88h-7.814c-1.98.002-3.608 1.632-3.609 3.612zm92.422 40.289h-88.813c-3.011-.004-5.487-2.481-5.49-5.492h1.881c.002 1.98 1.63 3.608 3.61 3.61h88.812c1.98-.002 3.608-1.63 3.61-3.61v-61.363c-.002-1.98-1.63-3.609-3.61-3.611h-22.476v-1.881h22.476c3.011.004 5.487 2.481 5.49 5.492v61.363c-.003 3.011-2.479 5.488-5.49 5.492m-86.696-27.127h1.881v-18.094h-1.881z" fill="#454bdb"/><path d="m587.265 146.175h71.607v58.413h-71.607z" fill="#4178da"/><path d="m663.47 173.778c-.859.03-1.548.745-1.548 1.604s.689 1.574 1.548 1.604c.884 0 1.604-.72 1.604-1.604 0-.885-.72-1.604-1.604-1.604m0 5.088c-1.911-.002-3.482-1.573-3.484-3.484.002-1.911 1.573-3.482 3.484-3.484 1.91.002 3.482 1.574 3.484 3.484-.002 1.91-1.574 3.482-3.484 3.484" fill="#454bdb"/><path d="m589.014 130.517h11.229v74.071h-11.229z" fill="#38d2de"/><path d="m589.014 130.517h5.615v74.071h-5.615z" fill="#38d2de"/><path d="m601.184 204.588h-1.881v-73.13h-9.35v73.13h-1.88v-75.011h13.11z" fill="#454bdb"/><path d="m603.613 119.286h11.229v85.301h-11.229z" fill="#4178da"/><path d="m603.613 119.286h5.615v85.301h-5.615z" fill="#4178da"/><path d="m615.782 204.588h-1.88v-84.361h-9.349v84.36h-1.88v-86.24h13.11z" fill="#454bdb"/><path d="m618.781 110.417h11.23v94.171h-11.23z" fill="#f2f2f2"/><path d="m618.781 110.417h5.615v94.171h-5.615z" fill="#f2f2f2"/><path d="m630.95 204.588h-1.88v-93.23h-9.349v93.23h-1.88v-95.111h13.11z" fill="#454bdb"/><path d="m797.473 205.343h-129.56c-.687-.002-1.251-.566-1.253-1.253v-92.42c0-.69.564-1.254 1.253-1.254h129.56c.689 0 1.254.564 1.254 1.254v92.42c0 .69-.565 1.253-1.254 1.253" fill="#38d2de"/><path d="m677.674 111.357h2.485v-1.88h-2.485zm-10.074 20.366h-1.881v-18.024c.003-2.315 1.908-4.22 4.223-4.222h6.569v1.88h-6.57c-1.284.002-2.339 1.058-2.341 2.342zm130.186 35.833h1.881v-18.544h-1.881zm1.881-29.141h-1.881v-24.717c-.002-1.283-1.058-2.339-2.341-2.34h-114.167v-1.88h114.167c2.314.003 4.218 1.906 4.222 4.22z" fill="#454bdb"/><path d="m673.074 194.918h118.522v-77.032h-118.522zm122.958 15.978h-128.906c-3.082 0-5.736-2.254-6.235-5.295l-.919-5.601h59.747l2.286 3.282h16.508l2.472-3.282h62.94l-.799 4.871c-.568 3.46-3.588 6.025-7.094 6.025" fill="#fff"/><path d="m668 211.881h128.906v-1.881h-128.906zm71.368-7.941h-17.468l-2.286-3.28h-43.329v-1.882h44.31l2.287 3.281h15.55l2.47-3.28h16.958v1.88h-16.02z" fill="#454bdb"/><path d="m869.388 210.615v-63.4h-4.58l-.131-4.928 1.945-9.381h-4.693c-2.553 0-4.653 2.1-4.653 4.653v.001 68.4h-.941c0 1.94.994 3.65 2.498 4.655z" fill="#454bd8" fill-opacity=".298039"/><path d="m848.564 121.604c1.356-.388 2.297-1.636 2.297-3.046 0-.297-.042-.592-.124-.877-.388-1.357-1.638-2.299-3.049-2.299-.295 0-.589.042-.873.123l-11.042 3.183c-1.357.388-2.299 1.637-2.299 3.048 0 .296.041.591.123.876.391 1.356 1.641 2.297 3.052 2.297.298 0 .595-.042.881-.125zm3.338 6.822c1.356-.388 2.297-1.637 2.297-3.047 0-.298-.043-.596-.126-.883-.389-1.354-1.637-2.294-3.047-2.294-.296 0-.592.042-.877.124l-11.04 3.18c-1.673.485-2.653 2.257-2.174 3.932.486 1.671 2.259 2.648 3.931 2.165zm1.768 6.686c1.356-.39 2.297-1.639 2.297-3.05 0-1.741-1.433-3.174-3.174-3.174-.297 0-.592.042-.877.124l-11.038 3.186c-1.358.388-2.301 1.638-2.301 3.051 0 .295.042.59.123.874.484 1.672 2.256 2.65 3.929 2.169l11.042-3.18z" fill="#fff"/><g fill="#454bdb"><path d="m836.66 125.846c-1.829-.002-3.45-1.217-3.965-2.972-.306-1.049-.178-2.178.356-3.132.526-.956 1.414-1.662 2.464-1.958l1.838-.53.522 1.807-1.84.53c-.571.161-1.054.544-1.34 1.063-.289.516-.359 1.128-.194 1.696.344 1.176 1.591 1.865 2.77 1.53l2.087-.602.52 1.807-2.088.602c-.368.105-.748.158-1.13.159"/><path d="m839.986 132.668c-1.825-.002-3.442-1.216-3.954-2.968-.621-2.17.648-4.467 2.815-5.097l.522 1.806c-1.178.342-1.868 1.591-1.53 2.77.344 1.174 1.59 1.859 2.765 1.52l.524 1.806c-.371.108-.756.163-1.142.163"/><path d="m841.755 139.355c-1.827-.002-3.446-1.216-3.958-2.97-.305-1.05-.175-2.18.358-3.134.527-.955 1.415-1.66 2.465-1.957l.516 1.81c-.569.16-1.051.542-1.337 1.06-.29.518-.36 1.13-.195 1.7.345 1.173 1.59 1.859 2.766 1.524l.518 1.807c-.377.11-.758.16-1.133.16"/><path d="m845.719 102.662h1.881v9.55h-1.881z"/></g><path d="m846.66 98.306c-9.672 0-17.513-7.84-17.513-17.512 0-9.67 7.841-17.51 17.512-17.51s17.512 7.84 17.512 17.51c0 9.672-7.84 17.512-17.512 17.512m0-40.562c-12.73 0-23.05 10.32-23.05 23.05s10.32 23.051 23.05 23.051 23.05-10.32 23.05-23.05-10.32-23.05-23.05-23.05" fill="#38d2de"/><path d="m846.66 104.785c-13.23 0-23.99-10.763-23.99-23.99 0-13.229 10.76-23.99 23.99-23.99 5.566.003 10.963 1.94 15.26 5.478l-1.198 1.45c-3.96-3.261-8.933-5.046-14.063-5.049-12.19 0-22.109 9.92-22.109 22.11 0 12.192 9.918 22.11 22.11 22.11 12.19 0 22.108-9.918 22.108-22.11 0-3.95-1.052-7.827-3.047-11.21l1.62-.955c2.168 3.687 3.31 7.888 3.308 12.165 0 13.228-10.76 23.991-23.99 23.991" fill="#454bdb"/><path d="m842.106 109.399v27.86.001c0 1.461 1.202 2.663 2.663 2.663h3.78c1.46 0 2.662-1.202 2.662-2.662v-.001l.001-27.861h-9.107z" fill="#38d2de"/><path d="m843.047 110.339v26.92c0 .95.772 1.724 1.723 1.724h3.779c.95 0 1.723-.773 1.723-1.723v-26.921zm1.723 30.525c-1.976-.002-3.602-1.628-3.604-3.604v-28.801l10.986-.002v28.803c-.002 1.976-1.627 3.601-3.603 3.603h-3.78z" fill="#454bdb"/><path d="m841.884 116.893h9.55v-1.88h-9.55zm9.55 4.775h-9.55v-1.88h9.55z" fill="#454bdb"/><path d="m861.428 149.746-.2-7.544 3.5-16.878-8.686-11.683-7.188 1.74-4.322 24.513.574 9.941z" fill="#fff"/><path d="m844.196 150.781-.604-18.377 1.88-.062.542 16.548 14.45-.079-.18-6.693.022-.108 3.291-15.864c.079-.382-.009-.78-.242-1.092l-7.697-10.353-6.134 1.485-.442-1.827 7.343-1.778 8.44 11.352c.553.743.761 1.689.572 2.596l-3.267 15.757.222 8.394z" fill="#454bdb"/><path d="m854.71 136.274c.784 2.269-.273 4.844-2.354 5.754-2.09.917-4.417-.174-5.2-2.441l-7.273-20.937c-.793-2.27.263-4.842 2.347-5.758 2.086-.916 4.41.183 5.203 2.445z" fill="#fff"/><path d="m857.618 141.185c-.019 4.474-.844 8.081-4.639 8.065h-4.435c-3.802-.013-4.69-3.646-4.67-8.12l.015-3.683c.017-4.473 3.11-8.078 6.911-8.062 3.794.013 6.852 3.645 6.833 8.116z" fill="#fff"/><path d="m846.268 139.895-7.273-20.937c-.948-2.71.334-5.818 2.856-6.927 1.187-.531 2.546-.538 3.738-.018 1.257.547 2.25 1.644 2.732 3.012l4.96 14.275-1.777.618-4.96-14.273c-.31-.886-.916-1.564-1.705-1.908-.712-.308-1.522-.302-2.23.015-1.646.723-2.471 2.781-1.838 4.587l7.274 20.94z" fill="#454bdb"/><path d="m844.196 150.781-.604-18.377 1.88-.062.542 16.548 15.408-.084.011 1.88z" fill="#454bdb"/><path d="m842.018 148.156h23.923v62.458h-23.923z" fill="#f2f2f2"/><g fill="#454bdb"><path d="m866.882 210.614h-1.882v-61.518h-22.042v21.704h-1.881v-23.584h25.804z"/><path d="m874.802 67.51h-3.761v-9.228h-8.677v-3.76h12.438zm-153.301 115.196-18.104-18.104-15.746 17.025h-15.158v-3.76h13.515l17.283-18.689 17.609 17.61 34.974-53.015 29.14 33.47 46.666-55.876 2.885 2.41-49.491 59.26-28.786-33.062z"/><path d="m841.054 96.372-2.871-2.428 31.707-37.504 2.87 2.428z"/></g><path d="m798.727 149.01v-3.586l-13.712 15.919-29.14-34.53-34.974 51.739-17.61-18.252-17.283 18.06-13.514-.493v3.76l15.158.553 15.746-16.452 18.102 18.765 34.789-51.463 28.785 34.109 14.592-16.941v-1.187z" fill="#454bd8" fill-opacity=".298039"/><path d="m842.988 180.976-.97-.559v-8.338l4.581 2.645c.451.26.773.68.908 1.182.135.5.064 1.033-.197 1.48l-1.663 2.878c-.346.602-.99.974-1.684.974-.343 0-.679-.09-.975-.262zm12.266 29.638h-13.235v-27.698c8.062 6.551 13.235 16.525 13.235 27.698z" fill="#454bd8" fill-opacity=".298039"/><path d="m851.807 210.614c0-19.198-15.563-34.76-34.762-34.76-19.197 0-34.76 15.562-34.76 34.76z" fill="#38d2de"/><path d="m852.747 210.614h-1.88c0-18.649-15.173-33.82-33.82-33.82-10.857 0-21.127 5.267-27.475 14.091l-1.526-1.098c6.7-9.314 17.542-14.874 29-14.874 19.684 0 35.701 16.015 35.701 35.701" fill="#454bdb"/><path d="m846.477 210.614c0-16.254-13.177-29.43-29.432-29.43-16.254 0-29.43 13.176-29.43 29.43z" fill="#f2f2f2"/><path d="m833.065 210.614c0-8.848-7.172-16.02-16.02-16.02-8.847 0-16.02 7.172-16.02 16.02z" fill="#fff"/><path d="m820.698 210.614c0-2.004-1.649-3.653-3.653-3.653s-3.653 1.649-3.653 3.653z" fill="#454bd8"/><path d="m847.417 210.614h-1.881c0-15.71-12.781-28.49-28.49-28.49-15.71 0-28.491 12.78-28.491 28.49h-1.881c0-16.747 13.625-30.37 30.372-30.37 16.746 0 30.371 13.623 30.371 30.37" fill="#454bdb"/><path d="m817.916 186.372-1.881-.024.07-5.63 1.88.022zm10.688 3.582-1.616-.96 2.772-4.665 1.616.96zm9.24 9.66-.92-1.64 5.153-2.887.919 1.64-5.151 2.888zm-41.674.08-5.074-3.024.963-1.615 5.074 3.024zm9.217-9.712-2.647-4.738 1.64-.917 2.649 4.737z" fill="#454bdb"/><path d="m817.361 208.127 13.163-12.477.52.514-12.347 13.286z" fill="#454bd8"/><path d="m816.105 169.403h1.88v6.451h-1.88z" fill="#454bdb"/><path d="m823.004 172.13h-12.066c-.552 0-1.006-.454-1.006-1.006v-4.94c0-.555.45-1.006 1.006-1.006h12.066c.556 0 1.007.45 1.007 1.006v4.94c0 .556-.451 1.007-1.007 1.007" fill="#f2f2f2"/><path d="m810.938 166.117c-.036.001-.065.03-.065.066v.001 4.94c0 .036.028.066.064.066h12.066c.037-.001.066-.03.067-.067v-4.939c-.001-.037-.03-.066-.067-.067h-12.066zm12.066 6.954h-12.066c-1.067-.002-1.945-.881-1.946-1.948v-4.939c0-1.074.873-1.947 1.946-1.947h12.066c1.068.001 1.946.879 1.948 1.947v4.94c-.002 1.068-.88 1.946-1.948 1.947zm13.571 7.866-1.629-.94 2.478-4.29 1.63.94z" fill="#454bdb"/><path d="m840.951 180.163-7.62-4.402c-.312-.179-.504-.512-.504-.871 0-.177.046-.351.135-.504l1.664-2.881c.179-.311.512-.503.871-.503.177 0 .351.046.504.135l7.621 4.4c.481.279.646.895.368 1.376l-1.664 2.882c-.276.478-.897.644-1.375.368" fill="#f2f2f2"/><path d="m841.42 179.348c.01.006.022.01.034.01.024 0 .046-.013.058-.034l1.664-2.88c.016-.028.004-.076-.024-.092l-7.622-4.402c-.01-.006-.021-.009-.033-.009-.024 0-.046.013-.057.034l-1.665 2.88c-.018.032-.006.074.026.092l7.62 4.401zm.03 1.89c-.34 0-.674-.09-.968-.26l-.001-.002-7.622-4.4c-.924-.535-1.245-1.735-.712-2.66l1.665-2.882c.535-.924 1.735-1.245 2.66-.712l7.62 4.402c.45.26.772.68.907 1.182.136.498.066 1.031-.194 1.477l-1.664 2.881c-.349.603-.995.974-1.691.973zm-44.464-.301-2.479-4.29 1.628-.94 2.48 4.29z" fill="#454bdb"/><path d="m792.61 180.163 7.62-4.402c.482-.278.647-.894.368-1.375l-1.665-2.881c-.179-.311-.512-.503-.871-.503-.176 0-.35.047-.503.135l-7.622 4.4c-.478.277-.644.898-.368 1.376l1.665 2.882c.277.48.894.646 1.375.368" fill="#f2f2f2"/><path d="m798.063 171.942c-.012 0-.023.003-.033.009l-7.621 4.402c-.03.016-.041.064-.025.09l1.665 2.882c.018.031.059.042.09.024l7.62-4.402c.021-.012.034-.034.034-.058 0-.011-.003-.023-.009-.033l-1.664-2.881c-.012-.02-.034-.033-.058-.033m-5.953 9.296c-.696.001-1.341-.371-1.69-.973l-1.665-2.881c-.259-.447-.329-.979-.194-1.478.137-.502.458-.922.909-1.182l7.619-4.401c.452-.26.974-.33 1.478-.195.503.134.923.456 1.184.907l1.664 2.88c.533.925.212 2.125-.712 2.66l-7.622 4.403c-.306.176-.641.26-.97.26" fill="#454bdb"/><path d="m659.013 209.362v-2.457h3.963l3.925-6.27h2.988v-1.879h-2.568v-3.41h2.568v-1.88h-2.568v-3.41h2.568v-1.882h-2.568v-3.41h2.568v-1.88h-2.568v-5.656c2.322-1.416 4.391-3.21 6.12-5.31v-27.22c-.003-3.01-2.48-5.487-5.49-5.49h-22.476v.94h-7.358c-.418.421-.825.856-1.208 1.311l-.728-.613c-3.682 4.376-5.703 9.916-5.704 15.635 0 8.453 4.47 16.352 11.702 20.746v5.657h-2.568v1.88h2.568v3.41h-2.568v1.881h2.568v3.41h-2.568v1.88h2.568v3.411h-2.568v1.88h2.94l3.309 6.268h4.289v2.457c0 1.21.984 2.193 2.194 2.193h4.476c1.21 0 2.194-.984 2.194-2.193" fill="#454bd8" fill-opacity=".298039"/><path d="m659.325 210.614h-4.477c-.686-.002-1.25-.567-1.252-1.253v-8.188c0-.69.563-1.254 1.252-1.254h4.477c.69 0 1.254.564 1.254 1.254v8.188c0 .69-.565 1.253-1.254 1.253" fill="#38d2de"/><path d="m654.85 200.86c-.171.002-.312.142-.314.313v8.187c0 .171.143.314.314.314h4.476c.17 0 .313-.143.313-.314v-8.187c-.002-.171-.142-.311-.313-.313zm4.476 10.695h-4.476c-1.204-.001-2.193-.991-2.194-2.195v-8.187c0-1.209.983-2.193 2.194-2.193h4.476c1.21 0 2.194.984 2.194 2.193v8.187c0 1.21-.984 2.195-2.194 2.195z" fill="#454bdb"/><path d="m680.59 156.482c0-12.887-10.446-23.334-23.333-23.334-12.888 0-23.334 10.447-23.334 23.334 0 8.647 4.715 16.178 11.703 20.208v23.006l3.307 6.269h16.029l3.925-6.27v-23.005c6.988-4.03 11.703-11.561 11.703-20.208" fill="#fff"/><path d="m645.626 184.77v16.656l3.307 4.538h16.029l3.925-4.538v-16.656z" fill="#4178da"/><path d="m668.887 199.696-3.925 6.269h-16.03l-3.306-6.269z" fill="#38d2de"/><path d="m665.482 206.904h-17.117l-3.68-6.976v-22.702c-7.232-4.393-11.703-12.29-11.703-20.744.001-5.72 2.023-11.26 5.706-15.636l1.437 1.212c-3.397 4.037-5.262 9.148-5.262 14.424 0 7.965 4.304 15.397 11.232 19.393l.471.272v23.316l2.934 5.561h14.941l3.506-5.599v-23.278l.471-.271c6.927-3.996 11.231-11.428 11.231-19.393 0-12.348-10.045-22.394-22.394-22.394-2.882-.005-5.739.549-8.41 1.632l-.706-1.742c2.896-1.174 5.992-1.775 9.116-1.77 13.385 0 24.275 10.889 24.275 24.274 0 8.453-4.47 16.35-11.702 20.744v22.74z" fill="#454bdb"/><path d="m642.394 139.73-1.335-1.323c1.427-1.443 2.122-1.84 3.647-2.714l.45-.258.939 1.628-.455.262c-1.454.832-1.997 1.144-3.246 2.404m-.276 45.036h30.278v-1.88h-30.278zm0 5.291h30.278v-1.881h-30.278zm0 5.29h30.278v-1.88h-30.278zm0 5.29h30.278v-1.881h-30.278z" fill="#454bdb"/><path d="m657.56 140v15.999l.008.007 11.288 11.32c3.001-2.986 4.693-7.047 4.7-11.28l.002-.047c0-8.836-7.162-15.999-15.998-15.999" fill="#38d2de"/><path d="m646.6 145.502c-2.941 2.926-4.598 6.908-4.6 11.057l15.658.039v-15.669c-4.145-.005-8.126 1.641-11.057 4.573" fill="#f2f2f2"/><path d="m657.666 157.334h-.008l-15.162-.037-.001.03c0 8.374 6.789 15.163 15.163 15.163 4.18 0 7.964-1.692 10.707-4.427z" fill="#4178da"/><path d="m657.77 141.124c-8.39 0-15.214 6.824-15.214 15.213s6.824 15.213 15.213 15.213c8.39 0 15.213-6.824 15.213-15.213 0-8.39-6.824-15.213-15.213-15.213m0 32.307c-9.426 0-17.094-7.67-17.094-17.094 0-9.425 7.668-17.093 17.094-17.093 9.425 0 17.094 7.668 17.094 17.093s-7.669 17.094-17.094 17.094" fill="#454bdb"/><path d="m667.706 167.996-10.32-10.153h-15.757v-1.88h16.525l10.871 10.692z" fill="#454bdb"/><path d="m656.191 139.877h1.88v16.72h-1.88z" fill="#454bdb"/><path d="m582.84 189.687c0-6.91-3.231-13.071-8.253-17.082v33.459h-.94c0 .444.067.87.168 1.284 5.458-3.98 9.025-10.404 9.025-17.661" fill="#454bd8" fill-opacity=".298039"/><path d="m579.393 189.687c0 11.558-9.37 20.927-20.927 20.927-11.558 0-20.927-9.369-20.927-20.927s9.369-20.927 20.927-20.927 20.927 9.37 20.927 20.927" fill="#4178da"/><path d="m573.692 189.687c0 8.41-6.817 15.227-15.227 15.227s-15.227-6.817-15.227-15.227 6.817-15.227 15.227-15.227 15.227 6.817 15.227 15.227" fill="#fff"/><path d="m558.466 169.7c-11.021 0-19.987 8.966-19.987 19.987s8.966 19.987 19.987 19.987c11.02 0 19.986-8.966 19.986-19.987 0-11.02-8.965-19.987-19.986-19.987m0 41.854c-12.06 0-21.868-9.81-21.868-21.867 0-12.058 9.809-21.867 21.868-21.867 12.057 0 21.867 9.81 21.867 21.867s-9.81 21.867-21.867 21.867" fill="#454bdb"/><path d="m553.028 180.269c1.099-1.64 3.163-2.79 5.437-2.79 2.275 0 4.339 1.15 5.438 2.79 1.97.132 3.998 1.344 5.135 3.314 1.138 1.97 1.173 4.332.303 6.104.87 1.772.835 4.134-.303 6.104-1.137 1.97-3.165 3.182-5.135 3.314-1.099 1.64-3.163 2.79-5.438 2.79-2.274 0-4.338-1.15-5.437-2.79-1.97-.132-3.998-1.344-5.135-3.314-1.138-1.97-1.173-4.332-.303-6.104-.87-1.772-.835-4.134.303-6.104 1.137-1.97 3.165-3.182 5.135-3.314z" fill="#1d53d3"/><path d="m565.676 190.625c-.622-.093-1.049-.356-1.47-.811 1.283.091 1.273-.275 1.273-.275s.058-.162-.29-.324c-.154-.071-.305-.175-.437-.26.125.017 1.939.17 2.147-.539-1.05-.143-2.24-.283-3.099-.666-.317-.141-.738-.303-.958-.604.281.021.76.038 1.173-.066.455-.114.898-.279 1.148-.679.143-.229.145-.473.145-.473s-.303.164-.623.245c-.722.182-1.48.11-1.773.079-.315-.034-1.388-.158-1.354-.403.03-.221.969-.144 1.156-.127.255.023.51.055.766.072-.565-.36-1.233-.569-1.871-.745-.972-.268-2.016-.328-2.988-.048-.419.12-1.018.408-1.325.936-.687 1.184.189 2.615 1.023 3.46.989 1.003 1.868 1.462 2.699 1.813.831.352 2.553.851 3.823.247.847-.403.835-.832.835-.832z" fill="#fff"/><path d="m563.298 195.227c-.081-.104-.178-.008-.325.008-.021.002.075-.1.055-.195-.027-.125-.117-.15-.225-.147-.203.005-.538.194-.755.176-.297-.024-.876-.276-.973-.357-.101-.084.173.009.693-.374.159-.117.48-.392.48-.392s.087.367.684.515 1.035-.683.512-1.169c-.237-.22-.624-.212-.588-.246.108-.104.205-.615.189-.622-.059-.026-.453-.01-1.354-.257-1.177-.322-2.292-.953-3.209-1.749-.795-.692-1.432-1.753-1.667-2.407-.083-.233-.116-.617-.115-.874.002-.439.276-1.183.904-1.599.07-.046-.729-.268-1.326-.319-1.251-.106-1.878.248-1.923.202-.776-.798-1.104-2.22-1.37-2.138-.281.088-.23 3.197-.277 3.255-.047.059-.26.274-.367.428-.255.367-.613.894-.71 1.975-.098 1.095.101 3.342 4.046 5.118 1.559.702 2.887.847 2.887.847s.603.249.942.352c.354.108 1.061.435 1.061.435s.777.514 1.197.378c.16-.051.053-.195-.098-.241-.073-.022.163-.052.172-.19.01-.17-.338-.045-.338-.045s.05-.229.122-.2c.496.202.779.419 1.385.506.097.014.277.002.298-.177.012-.107-.155-.17-.155-.17-.006.009.288-.145.148-.327z" fill="#fff"/><path d="m559.904 194.953c-.103-.035.148-.016.268-.036.052-.008.423.194 1.044.342.116.028-.346.043-.358.039-.524-.145-.751-.276-.954-.345z" fill="#2554c1"/><path d="m925.831 210.614h-4.697c-.351-.001-.639-.289-.64-.64v-67.657c0-.093.02-.184.06-.268l2.347-5.088c.104-.227.332-.373.582-.373.249 0 .477.146.581.373l2.35 5.088c.038.084.058.176.058.268v67.656c0 .351-.289.64-.64.641" fill="#fff"/><path d="m920.493 144.476h5.979v59.662h-5.979z" fill="#38d2de"/><path d="m921.435 209.674h4.097v-67.291l-2.05-4.439-2.047 4.439zm5.977 1.881h-7.858v-69.585l2.729-5.913c.213-.469.685-.771 1.2-.768.52 0 .98.294 1.199.766l2.73 5.915z" fill="#454bdb"/><path d="m920.288 143.536h6.184v1.881h-6.184z" fill="#454bdb"/><path d="m767.132 186.793c-5.956 4.046-7.504 12.154-3.458 18.11 4.046 5.955 12.153 7.503 18.109 3.457 5.955-4.046 7.504-12.154 3.458-18.11-4.046-5.955-12.154-7.503-18.11-3.457" fill="#fff"/><path d="m767.66 187.57c-5.518 3.749-6.957 11.287-3.209 16.804 3.748 5.516 11.285 6.957 16.805 3.209 2.659-1.796 4.49-4.585 5.083-7.738.61-3.15-.066-6.417-1.876-9.066-1.795-2.659-4.583-4.492-7.737-5.084-3.15-.611-6.417.065-9.066 1.875m6.82 23.979c-4.479 0-8.883-2.143-11.585-6.118-4.33-6.375-2.667-15.085 3.708-19.416 3.061-2.092 6.836-2.873 10.476-2.168 3.644.685 6.865 2.803 8.94 5.876 2.092 3.061 2.873 6.836 2.166 10.475-.685 3.644-2.801 6.865-5.874 8.94-2.309 1.573-5.039 2.413-7.832 2.411" fill="#454bdb"/><path d="m781.75 196.349s0 0 0-.001c0-2.332-1.92-4.252-4.253-4.252h-.001c-1.19 0-2.261.489-3.034 1.279-.797-.818-1.892-1.28-3.034-1.279-.001 0-.001 0-.002 0-2.332 0-4.252 1.92-4.252 4.252v.001c0 1.145.454 2.182 1.191 2.946l6.08 6.048 6.233-6.179c.068-.079.244-.302.244-.302.537-.727.827-1.608.828-2.513" fill="#454bdb"/><path d="m346.6 40.306h-23.506l-3.917 6.786 15.669 17.822 15.67-17.822z" fill="#4178da"/><path d="m327.012 47.091-3.918-6.786-3.581 6.834zm7.714-.21-3.797-6.575-3.79 6.564zm8.017.21-4.069-6.555-3.46 6.603z" fill="#f2f2f2"/><path d="m334.846 47.091v16.635l7.656-16.634z" fill="#f2f2f2"/><path d="m319.513 47.091v.165l14.977 16.846-7.825-17.01zm30.382 0v.165l-14.978 16.846 7.826-17.01z" fill="#38d2de"/><path d="m329.3 41.247h-4.577l2.29 3.963zm-.66 4.904h4.579l-2.29-3.964-2.288 3.964zm8.495-4.904h-4.577l2.289 3.962zm-.66 4.904h4.579l-2.29-3.964-2.29 3.964zm8.579-5.05v-1.735h2.089l4.525 7.84-16.822 19.132-16.82-19.132 4.525-7.84h17.653v1.552l2.478 4.291 2.372-4.107zm1.546 1.085-2.29 3.965h4.58zm-23.507 0-2.289 3.965h4.58l-2.29-3.965zm12.693 5.845v12.001l5.276-12.001zm-1.881 0h-5.452l5.452 12.404zm3.892 12.103 10.643-12.103h-5.324l-5.32 12.103zm-6.256-.402-5.143-11.701h-5.145l10.288 11.7zm9.684-18.486v-1.881h2.553v1.881z" fill="#454bdb"/><path d="m340.81 66.799 5.743-6.129c1.378-1.801 4.307.062 2.754 1.759l-4.576 6.351 2.222-.009 5.292-5.653s.505-3.541.637-4.037l.126-4.522c-.086-.196-.131-.407-.131-.621 0-.847.697-1.543 1.543-1.543.599 0 1.146.348 1.399.891l.036 5.098c.182.404.136 6.493.136 6.493l-6.358 13.147h-9.664l-.015-9.416c.076-.575.46-1.386.856-1.809" fill="#fff"/><path d="m340.908 77.083h8.136l6.01-12.425c.015-2.57-.014-5.393-.092-5.97l-.038-.085-.2-5.258c-.172-.217-.471-.291-.724-.178-.084.04-.124.084-.174.76-.012.151-.023.308-.04.47l.088 4.53-.034.127c-.073.3-.278 2.223-.434 3.908l-.028.32-6.016 6.426-4.474.021 5.726-7.934c.247-.27.196-.415.18-.462-.062-.176-.31-.393-.652-.447-.23-.035-.566-.006-.84.354l-.063.072-5.743 6.13c-.25.268-.533.851-.602 1.236zm9.314 1.88h-11.19l-.019-10.416.01-.062c.1-.765.573-1.767 1.102-2.329l5.714-6.098c.636-.805 1.607-1.189 2.6-1.029.992.16 1.828.82 2.13 1.684.272.78.08 1.617-.528 2.307l-3.368 4.673 4.891-5.226c.095-1 .295-3.042.425-3.74l-.087-4.42.008-.065c.02-.157.03-.309.041-.455.057-.766.135-1.814 1.271-2.33 1.241-.563 2.725-.007 3.29 1.233l.075.17.205 5.412c.086.487.175 1.877.14 6.611l-.003.212z" fill="#454bdb"/><path d="m351.787 208.782v-129.064c0-.619-.502-1.12-1.12-1.12h-12.928c-.619 0-1.12.501-1.12 1.12v129.064z" fill="#f2f2f2"/><path d="m328.53 66.799-5.743-6.129c-1.378-1.801-4.307.062-2.754 1.759l4.575 6.351-2.22-.009-5.293-5.653s-.505-3.541-.637-4.037l-.126-4.522c.079-.189.12-.391.12-.596 0-.847-.697-1.544-1.544-1.544-.59 0-1.13.337-1.388.867l-.035 5.098c-.182.404-.137 6.493-.137 6.493l6.36 13.147h9.662l.016-9.416c-.076-.575-.46-1.386-.857-1.809" fill="#fff"/><path d="m320.296 77.083h8.137l.013-8.404c-.07-.386-.351-.97-.602-1.237l-5.804-6.202c-.188-.271-.517-.41-.842-.354-.34.054-.59.271-.651.447-.018.047-.067.192.18.462l.068.085 5.655 7.85-4.472-.022-6.016-6.426-.03-.32c-.154-1.684-.36-3.607-.433-3.91l-.031-.257.088-4.399c-.018-.16-.03-.318-.041-.469-.051-.676-.09-.72-.176-.76-.252-.113-.552-.04-.723.177l-.237 5.344c-.078.577-.107 3.4-.091 5.97zm10.014 1.88h-11.192l-6.707-13.868-.002-.212c-.036-4.734.054-6.124.14-6.61l.205-5.414.076-.169c.564-1.239 2.047-1.797 3.287-1.235 1.138.518 1.216 1.566 1.273 2.332.01.146.02.298.04.455l.008.065-.087 4.42c.13.7.33 2.74.424 3.74l4.89 5.224-3.365-4.67c-.608-.692-.801-1.529-.528-2.308.3-.864 1.136-1.525 2.128-1.684.995-.158 1.965.225 2.602 1.03l5.714 6.097c.526.561 1 1.562 1.102 2.328l.009.125z" fill="#454bdb"/><path d="m317.554 208.782v-129.064c0-.619.502-1.12 1.12-1.12h12.927c.619 0 1.12.501 1.12 1.12v129.064z" fill="#f2f2f2"/><path d="m337.559 179.953h-1.881v-100.234c0-1.137.925-2.062 2.062-2.062h12.926c1.137 0 2.062.925 2.062 2.062v63.884h-1.881v-63.884c0-.1-.081-.182-.181-.182h-12.926c-.1 0-.181.082-.181.182zm-3.897 0h-1.88v-100.234c0-.1-.082-.182-.182-.182h-12.925c-.1 0-.18.082-.18.182v32.548h-1.882v-32.548c0-1.137.925-2.062 2.062-2.062h12.925c1.137 0 2.062.925 2.062 2.062z" fill="#454bdb"/><path d="m336.804 208.782h14.983v-64.326h-9.174c-1.679.002-3.061 1.383-3.063 3.062v35.827h.94v18.855h-3.872v6.271c.058.108.122.21.186.312" fill="#454bd8" fill-opacity=".298039"/><path d="m427.138 206.776h-82.888c-.687-.002-1.251-.566-1.254-1.253v-58.873c0-.689.565-1.253 1.254-1.253h82.887c.689 0 1.253.564 1.253 1.253v58.873c0 .689-.564 1.253-1.253 1.253" fill="#38d2de"/><path d="m384.715 146.338h8.404v-1.881h-8.404zm-40.777 37.008h-1.88v-35.827c.002-1.679 1.383-3.06 3.062-3.062h36.2v1.88h-36.2c-.652 0-1.182.53-1.182 1.182zm83.512 21.308h1.881v-12.017h-1.881zm1.881-43.861h-1.88v-13.273c0-.652-.53-1.182-1.182-1.182h-28.926v-1.88h28.926c1.679.002 3.06 1.383 3.062 3.062v13.274z" fill="#454bdb"/><path d="m347.144 200.035h76.636v-49.809h-76.636zm79.754 10.149h-83.35c-1.993 0-3.71-1.457-4.032-3.424l-.594-3.62h38.632l1.48 2.121h10.673l1.597-2.122h40.698l-.517 3.15c-.367 2.237-2.32 3.895-4.587 3.895" fill="#fff"/><path d="m340.03 204.08.414 2.529c.245 1.516 1.569 2.64 3.105 2.635h83.35c1.81.006 3.371-1.32 3.658-3.107l.337-2.057h-39.12l-1.598 2.12h-11.634l-1.479-2.12zm86.868 7.045h-83.348c-2.454.007-4.57-1.79-4.96-4.212l-.772-4.714h40.228l1.478 2.122h9.715l1.6-2.122h42.271l-.697 4.242c-.432 2.694-2.785 4.693-5.514 4.684zm-13.333-14.408h-61.78l.048-41.024 1.88.002-.045 39.141h59.897zm-54.342-37.869v-1.881h16.324v1.881zm0 6.793v-1.881h8.163v1.881z" fill="#454bdb"/><path d="m414.072 164.82h-3.952v-1.882h7.309v7.64h-1.881v-4.541l-21.118 17.672-10.935-11.318-13.398 11.31-6.291-6.29-5.507 5.956h-5.526v-1.881h4.704l6.276-6.786 6.45 6.45 13.423-11.33 10.939 11.324 19.507-16.325z" fill="#454bdb"/><path d="m158.88 154.03v53.142c0 1.334-1.098 2.432-2.432 2.432h-25.66c-1.334-.001-2.431-1.098-2.431-2.432v-53.142c0-1.334 1.098-2.432 2.432-2.432h25.659.001c1.334 0 2.432 1.098 2.432 2.432" fill="#4178da"/><path d="m131.662 210.544c-2.328-.003-4.243-1.918-4.245-4.246v-51.394c.003-2.328 1.917-4.242 4.245-4.245v1.88c-1.297.001-2.364 1.068-2.365 2.365v51.394c.001 1.297 1.068 2.365 2.365 2.366z" fill="#454bdb"/><path d="m163.788 154.03v53.142c0 1.334-1.098 2.432-2.432 2.432h-.001-25.659c-1.334 0-2.432-1.098-2.432-2.432v-53.142c0-1.334 1.098-2.432 2.432-2.432h25.66c1.334 0 2.432 1.098 2.432 2.432" fill="#4178da"/><path d="m145.328 210.544h-8.759c-2.328-.003-4.243-1.918-4.245-4.246v-51.394c.003-2.328 1.917-4.242 4.245-4.245h8.76v1.88h-8.76c-1.297.002-2.363 1.068-2.364 2.365v51.394c.001 1.297 1.067 2.364 2.364 2.366h8.76v1.88z" fill="#454bdb"/><path d="m158.661 180.7c-.113 5.674-4.805 10.183-10.479 10.07s-10.183-4.805-10.07-10.48c.113-5.674 4.805-10.183 10.48-10.069 5.673.113 10.182 4.805 10.07 10.48m-7.797-16.183c-.03 1.498-1.27 2.714-2.768 2.714-1.52 0-2.77-1.25-2.77-2.769 0-.018.001-.037.001-.055.068-1.47 1.296-2.642 2.767-2.642 1.513 0 2.76 1.239 2.77 2.752m0 32.686c-.03 1.498-1.27 2.714-2.768 2.714-1.52 0-2.77-1.25-2.77-2.769 0-.018.001-.037.001-.055.068-1.47 1.296-2.642 2.767-2.642 1.513 0 2.76 1.239 2.77 2.752" fill="#fff"/><path d="m140.305 188.273c-2.071-2.14-3.2-5.023-3.133-8 .079-3.552 1.833-6.866 4.727-8.928l1.089 1.533c-2.409 1.716-3.87 4.474-3.936 7.431-.057 2.479.883 4.879 2.608 6.66zm12.913-3.661h-1.881v-5.24c-.024-.534-.47-.961-1.005-.961s-.981.427-1.005.961v2.095c-.002 1.582-1.303 2.884-2.885 2.887-1.583-.002-2.885-1.304-2.887-2.887v-5.088h1.88v5.089c.029.531.474.952 1.005.952.532 0 .977-.421 1.006-.952v-2.095c.002-1.583 1.303-2.884 2.886-2.886 1.582.002 2.884 1.304 2.886 2.886z" fill="#454bdb"/><path d="m141.277 181.436h14.218v-1.881h-14.218zm-3.967-15.042h-1.88v-4.43c0-.731.558-1.326 1.3-1.383 2.23-.165 4.025-1.951 4.2-4.181.05-.737.668-1.318 1.407-1.321h3.296v1.88h-2.877c-.4 2.817-2.629 5.047-5.446 5.448zm8.209 40.149h-3.296c-.739-.002-1.359-.583-1.408-1.321-.176-2.23-1.971-4.015-4.201-4.18-.727-.047-1.299-.657-1.3-1.385v-4.43h1.88v3.988c2.817.401 5.046 2.63 5.448 5.447h2.877z" fill="#454bdb"/><path d="m191.805 151.631v56.163c0 1.311-1.079 2.39-2.39 2.39h-39.46c-1.311 0-2.39-1.079-2.39-2.39v-56.163c0-1.311 1.079-2.39 2.39-2.39h39.46c1.311 0 2.39 1.079 2.39 2.39" fill="#fff"/><path d="m189.415 211.125h-39.46c-1.827-.002-3.329-1.504-3.331-3.331v-56.162c.002-1.827 1.504-3.329 3.331-3.331h31.939v1.88h-31.939c-.8 0-1.45.65-1.45 1.45v56.163c0 .8.65 1.45 1.45 1.45h39.46z" fill="#454bdb"/><path d="m175.254 168.227v-18.986h-11.138v18.986c0 1.666 1.371 3.037 3.037 3.037h5.064c1.666 0 3.037-1.371 3.037-3.037" fill="#4178da"/><path d="m165.057 150.182v18.045c0 1.157.939 2.098 2.097 2.098h5.063c1.15-.002 2.096-.948 2.097-2.098v-18.045zm7.16 22.023h-5.063c-2.181-.002-3.976-1.797-3.978-3.978v-19.927h13.019v19.926c-.002 2.181-1.797 3.976-3.978 3.978z" fill="#454bdb"/><path d="m169.685 162.06c1.484 0 2.705 1.221 2.705 2.705s-1.221 2.705-2.705 2.705-2.705-1.221-2.705-2.705 1.221-2.705 2.705-2.705" fill="#38d2de"/><path d="m169.685 163c-.974 0-1.766.791-1.766 1.765v.001c0 .969.798 1.767 1.767 1.767s1.767-.798 1.767-1.767-.798-1.767-1.767-1.767h-.001m0 5.413c-1.999-.003-3.643-1.648-3.646-3.647.002-1.999 1.647-3.644 3.646-3.646 1.999.002 3.644 1.647 3.646 3.646-.002 2-1.646 3.645-3.646 3.647m-18.348-12.393v-3.154h1.881v3.154zm0 7.384v-3.154h1.881v3.154zm0 7.383v-3.154h1.881v3.154zm0 7.384v-3.154h1.881v3.154zm0 7.383v-3.154h1.881v3.154zm0 7.384v-3.154h1.881v3.154zm0 7.383v-3.154h1.881v3.154zm0 7.384v-3.154h1.881v3.154zm34.353-51.685v-3.154h1.88v3.154zm0 7.384v-3.154h1.88v3.154zm0 7.383v-3.154h1.88v3.154zm0 7.384v-3.154h1.88v3.154zm0 7.383v-3.154h1.88v3.154zm0 7.384v-3.154h1.88v3.154zm0 7.383v-3.154h1.88v3.154zm0 7.384v-3.154h1.88v3.154z" fill="#454bdb"/><path d="m191.805 207.794v-56.163c0-1.311-1.079-2.39-2.39-2.39h-7.52v-.94h-1.328v61.883h8.848c1.311 0 2.39-1.079 2.39-2.39" fill="#454bd8" fill-opacity=".298039"/><path d="m264.185 210.184h-29.292v-134.9h26.813.002c1.359 0 2.478 1.119 2.478 2.478v132.422z" fill="#f2f2f2"/><path d="m265.126 111.162h-1.88v-32.272c-.002-1.462-1.205-2.665-2.667-2.667h-19.266v-1.88h19.266c2.493.003 4.544 2.054 4.547 4.547z" fill="#454bdb"/><path d="m239.059 85.774v-1.88h4.506v1.88zm8.227 0v-1.88h4.507v1.88zm8.228 0v-1.88h4.506v1.88zm-16.455 6.944v-1.88h4.506v1.88zm8.227 0v-1.88h4.507v1.88zm8.228 0v-1.88h4.506v1.88zm-16.455 6.945v-1.881h4.506v1.881zm8.227 0v-1.881h4.507v1.881zm8.228 0v-1.881h4.506v1.881zm-16.455 6.944v-1.881h4.506v1.881zm8.227 0v-1.881h4.507v1.881zm8.228 0v-1.881h4.506v1.881zm-16.455 6.944v-1.88h4.506v1.88zm8.227 0v-1.88h4.507v1.88zm8.228 0v-1.88h4.506v1.88zm-16.455 6.556v-1.88h4.506v1.88zm8.227 0v-1.88h4.507v1.88zm8.228 0v-1.88h4.506v1.88zm-16.455 6.557v-1.88h4.506v1.88zm8.227 0v-1.88h4.507v1.88zm8.228 0v-1.88h4.506v1.88zm-16.455 6.556v-1.88h4.506v1.88zm8.227 0v-1.88h4.507v1.88zm8.228 0v-1.88h4.506v1.88zm-16.455 6.556v-1.88h4.506v1.88zm8.227 0v-1.88h4.507v1.88zm8.228 0v-1.88h4.506v1.88zm-16.455 6.557v-1.88h4.506v1.88zm8.227 0v-1.88h4.507v1.88zm8.228 0v-1.88h4.506v1.88zm-16.455 6.556v-1.88h4.506v1.88zm8.227 0v-1.88h4.507v1.88zm8.228 0v-1.88h4.506v1.88z" fill="#454bdb"/><path d="m184.014 210.184h22.603v-154.278h-19.794c-1.542 0-2.81 1.268-2.81 2.81v151.468z" fill="#38d2de"/><path d="m184.954 210.184h-1.88v-150.524c.003-2.573 2.118-4.689 4.691-4.693h7.55v1.88h-7.55c-1.542.003-2.809 1.271-2.81 2.813v150.525z" fill="#454bdb"/><path d="m189.664 67.34v-1.88h7.185v1.88zm0 6.145v-1.88h7.185v1.88zm0 6.145v-1.881h7.185v1.881zm0 6.144v-1.88h7.185v1.88zm0 6.145v-1.881h7.185v1.881zm0 6.145v-1.881h7.185v1.881zm0 6.144v-1.88h7.185v1.88zm0 6.145v-1.881h7.185v1.881zm0 6.492v-1.88h7.185v1.88zm0 6.492v-1.88h7.185v1.88zm0 6.493v-1.881h7.185v1.881zm0 6.491v-1.881h7.185v1.881zm0 6.493v-1.88h7.185v1.88zm0 6.492v-1.88h7.185v1.88zm0 6.492v-1.881h7.185v1.881zm0 6.492v-1.88h7.185v1.88zm0 6.492v-1.88h7.185v1.88zm0 6.493v-1.881h7.185v1.881zm0 6.491v-1.881h7.185v1.881zm0 6.492v-1.88h7.185v1.88zm0 6.493v-1.88h7.185v1.88zm0 6.492v-1.881h7.185v1.881z" fill="#454bdb"/><path d="m207.457 36.859h21.067v12.899h-21.067z" fill="#fff"/><path d="m208.396 48.818h19.187v-11.018h-19.187zm-1.879 1.88h22.948v-14.78h-22.948z" fill="#454bdb"/><path d="m234.894 210.184h-33.445v-164.274c0-.963.78-1.744 1.744-1.744h29.957c.963 0 1.744.781 1.744 1.744z" fill="#fff"/><path d="m202.389 210.184h-1.881v-163.637c.003-1.82 1.5-3.317 3.32-3.32h28.684c1.821.002 3.319 1.499 3.322 3.32v64.615h-1.881v-64.615c0-.795-.646-1.44-1.441-1.44h-28.683c-.794 0-1.44.645-1.44 1.44zm14.841-174.166h1.881v-10.548h-1.881z" fill="#454bdb"/><path d="m208.315 195.823v-143.031h1.881v143.031zm8.915 0v-143.031h1.881v143.031zm8.915 0v-143.031h1.88v143.031z" fill="#454bdb"/><path d="m241.55 209.244h9.868v-2.894h-9.868zm22.636-95.363h-29.444c-1.187.005-2.349.338-3.359.962-1.161.103-2.091 1.032-2.194 2.193-.623 1.01-.956 2.173-.961 3.36v79.441c0 1.233.364 2.375.961 3.359.103 1.161 1.033 2.09 2.194 2.193 1.01.623 2.172.956 3.359.961h4.928v3.834h13.628v-3.834h10.888zm60.584 81.014v-11.765h2.381l-2.38 11.764zm7.952-14.942h.444l-2.213-10.931c-.21-1.023-1.116-1.765-2.16-1.768h-4.023v-4.03h.94v-42.828c-.005-1.187-.337-2.35-.96-3.36-.103-1.162-1.033-2.091-2.195-2.193-1.009-.623-2.172-.956-3.358-.961h-1.644v94.9h15.17v-3.027l-1.748-8.627h1.747z" fill="#454bd8" fill-opacity=".298039"/><path d="m295.856 209.244h9.867v-7.144h-9.867zm-1.881 1.881h13.629v-10.906h-13.629zm-49.918-1.881h9.868v-7.144h-9.868zm-1.881 1.881h13.63v-10.906h-13.63z" fill="#454bdb"/><path d="m319.834 205.41h-85.729c-1.333 0-2.43-1.097-2.43-2.43v-85.729c0-1.333 1.097-2.43 2.43-2.43h85.729c1.333 0 2.43 1.097 2.43 2.43v85.73c0 1.333-1.097 2.43-2.43 2.43" fill="#38d2de"/><path d="m312.504 197.681h-71.07c-1.113-.001-2.029-.917-2.03-2.03v-71.07c0-1.122.91-2.03 2.03-2.03h71.07c1.114 0 2.03.916 2.03 2.03v71.07c0 1.114-.916 2.03-2.03 2.03" fill="#f2f2f2"/><g fill="#1d53d3" fill-rule="nonzero"><path d="m263.517 139.472c5.533-.375 11.238-.139 16.516 1.715 1.794.718 4.259 1.784 4.162 4.087.032 4.338-.019 8.676.014 13.009.361 5.941-2.387 11.646-6.122 16.108-2.609 3.031-6.048 5.413-9.936 6.437-1.075.297-2.122-.278-3.119-.607-5.144-1.988-9.129-6.233-11.622-11.066-1.483-2.924-2.661-6.127-2.582-9.454.019-4.815-.014-9.63.01-14.445-.144-1.761 1.496-2.846 2.877-3.522 3.068-1.423 6.465-1.933 9.802-2.262m-4.773 2.572c-2.081.519-4.32 1.043-5.955 2.521-.251 3.332-.028 6.688-.102 10.024.106 3.272-.399 6.664.727 9.816 1.984 6.057 6.238 11.632 12.239 14.116.014-1.956.01-3.907.01-5.858h3.707c0 1.956-.005 3.907.014 5.862 5.992-2.488 10.237-8.054 12.22-14.102 1.136-3.156.64-6.553.742-9.824-.074-3.342.153-6.697-.102-10.029-1.631-1.483-3.87-2.007-5.95-2.526-5.761-1.186-11.79-1.186-17.55 0z"/><path d="m254.471 151.276c1.177-1.59 2.609-3.286 4.694-3.559 2.716-.51 5.209 1.413 6.428 3.693.426 1.154-1.057 2.294-2.048 1.557-1.122-1.149-1.826-2.892-3.513-3.336-2.016-.506-3.856.774-5.561 1.645z"/><path d="m269.43 151.433c1.205-2.303 3.726-4.231 6.446-3.716 2.081.282 3.509 1.974 4.681 3.554-1.687-.857-3.499-2.118-5.496-1.659-1.733.422-2.447 2.201-3.592 3.369-.991.7-2.433-.408-2.039-1.548z"/><path d="m255.37 154.589c2.169-1.835 5.454-1.784 7.642-.009-2.169 1.807-5.473 1.84-7.642.009z"/><path d="m272.053 154.589c2.169-1.835 5.455-1.784 7.647-.009-2.174 1.807-5.478 1.84-7.647.009z"/><path d="m254.554 161.559c1.859 1.53 3.703 3.077 5.552 4.616h3.698c.927-.927 1.863-1.854 2.79-2.785.621.004 1.242.009 1.863.004.918.932 1.849 1.854 2.771 2.781h3.698c1.854-1.534 3.699-3.082 5.552-4.616-1.534 2.466-3.077 4.931-4.62 7.396-2.155 0-4.31-.004-6.465.005-.626-.621-1.247-1.242-1.872-1.858-.621.616-1.242 1.237-1.868 1.853-2.159 0-4.319 0-6.478 0-1.544-2.465-3.082-4.93-4.621-7.396z"/></g><path d="m282.585 198.622h-40.237c-2.13-.003-3.881-1.754-3.884-3.884v-69.243c.002-2.13 1.754-3.882 3.884-3.884h69.243c2.13.003 3.882 1.754 3.885 3.884v40.237h-1.881v-40.237c-.001-1.099-.905-2.003-2.004-2.004h-69.243c-1.099.001-2.002.905-2.003 2.004v69.243c0 1.105.898 2.003 2.003 2.003h40.237z" fill="#454bdb"/><path d="m280.558 206.35h-43.31c-3.571-.004-6.509-2.942-6.513-6.513v-79.441c.004-3.572 2.942-6.511 6.514-6.515h79.442c3.572.005 6.509 2.943 6.513 6.515v45.335h-1.88v-45.335c-.003-2.541-2.092-4.631-4.633-4.634h-79.442c-2.541.003-4.631 2.093-4.633 4.634v79.44c.002 2.541 2.092 4.631 4.633 4.634h43.309z" fill="#454bdb"/><path d="m240.985 145.628h-3.004c-.591 0-1.077-.486-1.077-1.077v-10.166c0-.594.482-1.077 1.077-1.077h3.004c.596 0 1.078.483 1.078 1.077v10.166c0 .595-.482 1.077-1.078 1.077" fill="#38d2de"/><path d="m237.981 134.248c-.075.001-.136.062-.137.137v10.166c0 .075.062.137.137.137h3.004c.075 0 .137-.062.137-.137v-10.166c0-.075-.062-.137-.137-.137zm3.004 12.32h-3.004c-1.106-.001-2.016-.911-2.018-2.017v-10.166c.002-1.106.912-2.016 2.018-2.017h3.004c1.113 0 2.017.905 2.017 2.017v10.166c-.001 1.106-.911 2.016-2.017 2.017z" fill="#454bdb"/><path d="m240.985 183.039h-3.004c-.591 0-1.077-.486-1.077-1.077v-10.165c0-.595.482-1.078 1.077-1.078h3.004c.596 0 1.078.483 1.078 1.078v10.165c0 .595-.482 1.077-1.078 1.077" fill="#38d2de"/><path d="m237.981 171.66c-.075.001-.136.061-.137.136v10.165c0 .076.062.137.137.137h3.004c.075 0 .137-.062.137-.137v-10.165c0-.075-.062-.137-.137-.137h-3.004zm3.004 12.32h-3.004c-1.107-.001-2.017-.912-2.018-2.019v-10.165c.001-1.107.911-2.017 2.018-2.018h3.004c1.106.002 2.016.912 2.017 2.018v10.165c-.001 1.106-.911 2.016-2.017 2.018z" fill="#454bdb"/><path d="m308.758 160.116c0 4.452-3.61 8.062-8.062 8.062-4.453 0-8.063-3.61-8.063-8.062 0-4.453 3.61-8.063 8.063-8.063 4.452 0 8.062 3.61 8.062 8.063" fill="#38d2de"/><path d="m300.696 152.768c-4.052 0-7.348 3.296-7.348 7.348 0 4.051 3.296 7.347 7.348 7.347 4.051 0 7.347-3.296 7.347-7.347 0-4.053-3.296-7.348-7.347-7.348m0 16.125c-4.839 0-8.777-3.938-8.777-8.777 0-4.84 3.938-8.777 8.777-8.777s8.777 3.937 8.777 8.777c0 4.839-3.939 8.777-8.777 8.777" fill="#454bdb"/><path d="m300.696 158.466c-.905 0-1.65.745-1.65 1.65 0 .909.74 1.65 1.65 1.65s1.649-.741 1.649-1.65c0-.905-.745-1.65-1.649-1.65m0 4.729c-1.689-.002-3.078-1.391-3.08-3.079.002-1.689 1.391-3.078 3.08-3.08 1.688.002 3.077 1.391 3.079 3.08-.002 1.688-1.391 3.077-3.079 3.079" fill="#454bdb"/><path d="m337.901 208.782h13.886v-13.535h-5.25l-2.476-12.229c-.209-1.023-1.116-1.765-2.16-1.767h-5.283v15.876h3.641z" fill="#454bd8" fill-opacity=".298039"/><g fill="#fff"><path d="m303.935 210.184h-20.3l2.627-12.983c.119-.588.64-1.014 1.24-1.014h12.566c.601 0 1.12.424 1.24 1.014zm26.217 0h-20.299l2.627-12.983c.119-.588.64-1.014 1.24-1.014h12.566c.6 0 1.12.424 1.238 1.014zm26.218 0h-20.3l2.627-12.983c.119-.588.64-1.014 1.24-1.014h12.566c.601 0 1.12.424 1.24 1.014l2.626 12.983z"/><path d="m317.043 196.188h-20.299l2.627-12.983c.12-.59.638-1.014 1.239-1.014h12.567c.601 0 1.12.424 1.239 1.014zm26.217 0h-20.298l2.627-12.983c.119-.588.64-1.014 1.239-1.014h12.567c.6 0 1.119.424 1.239 1.014l2.627 12.983z"/><path d="m330.152 182.191h-20.299l2.627-12.983c.119-.588.64-1.014 1.24-1.014h12.566c.6 0 1.12.424 1.238 1.014z"/></g><path d="m284.785 209.244h18.001l-2.399-11.856c-.031-.151-.165-.26-.319-.26h-12.566c-.154 0-.287.109-.319.26zm20.3 1.88h-22.598l2.855-14.11c.21-1.022 1.116-1.764 2.16-1.767h12.566c1.044 0 1.953.744 2.16 1.768l2.856 14.11zm5.918-1.88h18l-2.4-11.856c-.031-.15-.164-.259-.318-.26h-12.565c-.154 0-.288.109-.32.26zm20.299 1.88h-22.598l2.855-14.11c.21-1.022 1.116-1.764 2.16-1.767h12.566c1.045 0 1.954.744 2.16 1.768l2.857 14.11zm5.918-1.88h18l-2.398-11.856c-.031-.151-.166-.26-.32-.26h-12.565c-.154 0-.288.109-.32.26zm20.299 1.88h-22.597l2.855-14.11c.21-1.022 1.116-1.764 2.16-1.767h12.566c1.044 0 1.953.744 2.16 1.768l2.856 14.11z" fill="#454bdb"/><path d="m297.894 195.247h18l-2.398-11.856c-.031-.151-.166-.26-.32-.26h-12.565c-.154 0-.287.109-.318.26l-2.4 11.856zm20.299 1.88h-22.597l2.855-14.109c.21-1.023 1.116-1.765 2.16-1.768h12.566c1.044 0 1.954.744 2.16 1.768l2.856 14.11zm5.918-1.88h18.001l-2.399-11.856c-.032-.151-.165-.26-.319-.26h-12.566c-.154 0-.287.109-.319.26zm20.3 1.88h-22.599l2.856-14.109c.21-1.023 1.116-1.765 2.16-1.768h12.566c1.044 0 1.953.744 2.16 1.768l2.856 14.11z" fill="#454bdb"/><path d="m311.003 181.25h18l-2.4-11.855c-.031-.151-.164-.26-.318-.261h-12.565c-.154 0-.288.109-.32.26l-2.397 11.857zm20.299 1.88h-22.598l2.855-14.108c.209-1.023 1.116-1.765 2.16-1.768h12.566c1.045 0 1.954.743 2.16 1.768l2.857 14.109z" fill="#454bdb"/><path d="m445.767 191.507c-8.375 0-15.165-6.789-15.165-15.165 0-8.375 6.79-15.164 15.165-15.164s15.164 6.79 15.164 15.165-6.79 15.164-15.164 15.164m0-35.125c-11.023 0-19.961 8.937-19.961 19.961 0 11.025 8.937 19.96 19.96 19.96 11.025 0 19.96-8.935 19.962-19.96 0-11.023-8.937-19.96-19.961-19.96" fill="#f2f2f2"/><path d="m437.275 190.644-5.67-3.44v-26.024h5.67z" fill="#fff"/><path d="m437.275 152.349h5.671v40.289h-5.671z" fill="#38d2de"/><path d="m442.946 155.885h5.671v36.753h-5.671z" fill="#fff"/><path d="m448.617 151.731h5.671v40.907h-5.671z" fill="#38d2de"/><path d="m459.959 188.765-5.671 2.765v-44.95h5.671z" fill="#fff"/><g fill="#454bdb"><path d="m432.545 186.675 3.79 2.3v-26.855h-3.79v24.556zm5.67 5.638-7.551-4.578v-27.497h7.552v32.075z"/><path d="m438.216 191.698h3.79v-38.408h-3.79zm-1.881 1.88h7.552v-42.169h-7.552z"/><path d="m443.887 191.698h3.79v-34.872h-3.79zm-1.881 1.88h7.552v-38.633h-7.552z"/><path d="m449.558 191.698h3.791v-39.027h-3.791zm-1.881 1.88h7.552v-42.788h-7.552z"/><path d="m455.228 147.52v42.158l3.79-2.773v-39.385zm-1.88 45.864v-47.744h7.551v42.218l-7.55 5.525z"/><path d="m444.84 203.981-.006-8.27h1.88l.007 8.27z"/></g><path d="m441.835 201.547.006 8.669 7.886-.004-.006-8.67z" fill="#f2f2f2"/><path d="m440.9 210.113-.005-9.506 9.765-.006.007 9.506-1.88.001-.006-7.626-6.005.004.005 7.627z" fill="#454bdb"/><path d="m441.647 208.163-.002-1.88 8.271-.007.002 1.881z" fill="#454bdb"/><path d="m460.93 176.343c0 8.375-6.788 15.165-15.163 15.164-8.375 0-15.165-6.789-15.165-15.164h-4.796c0 11.024 8.937 19.96 19.96 19.96 11.025 0 19.96-8.936 19.962-19.96h-4.797z" fill="#f2f2f2"/><path d="m426.746 176.343h-1.88c-.005-4.002 1.144-7.922 3.308-11.289l1.582 1.017c-1.969 3.063-3.015 6.63-3.01 10.272zm-.673 7.017c-.587-1.645-.963-3.358-1.12-5.098l1.873-.17c.143 1.582.485 3.14 1.018 4.637l-1.77.631zm19.694 13.884c-7.882 0-15.013-4.36-18.613-11.382l1.673-.857c3.276 6.39 9.767 10.36 16.94 10.36 10.488 0 19.02-8.534 19.02-19.022 0-3.61-1.016-7.122-2.936-10.157l1.588-1.006c2.113 3.339 3.234 7.211 3.23 11.163 0 11.524-9.378 20.901-20.902 20.901z" fill="#454bdb"/><path d="m122.473 209.76h-5.121v-102.667c0-1.404 1.156-2.56 2.56-2.56s2.56 1.156 2.56 2.56v102.667z" fill="#fff"/><path d="m123.413 209.76h-1.88v-102.883c0-.775-.63-1.405-1.404-1.405h-.433c-.774 0-1.404.63-1.404 1.405v102.883h-1.88v-102.883c.003-1.801 1.483-3.282 3.284-3.285h.433c1.801.003 3.281 1.484 3.284 3.285z" fill="#454bdb"/><path d="m101.972 115.027h35.881v1.881h-35.881z" fill="#454bdb"/><path d="m125.32 115.65v.001c0 2.95-2.428 5.378-5.378 5.378-2.951 0-5.379-2.428-5.379-5.378 0-2.951 2.428-5.379 5.379-5.379 2.95 0 5.378 2.428 5.378 5.378" fill="#38d2de"/><path d="m119.941 111.212c-2.433.003-4.435 2.005-4.437 4.438.002 2.433 2.004 4.435 4.437 4.438 2.434-.002 4.436-2.004 4.438-4.438-.003-2.434-2.004-4.435-4.438-4.438m0 10.757c-3.465-.004-6.314-2.854-6.318-6.319.004-3.465 2.853-6.314 6.318-6.318 3.465.003 6.316 2.853 6.32 6.318-.003 3.466-2.854 6.317-6.32 6.32m20.822 11.92-6.917-19.304 1.77-.634 6.916 19.305z" fill="#454bdb"/><path d="m129.984 133.915-1.753-.682 7.502-19.304 1.753.68z" fill="#454bdb"/><path d="m144.027 132.81c-.071 4.666-3.929 8.465-8.595 8.465s-8.524-3.799-8.595-8.465z" fill="#f2f2f2"/><path d="m99.116 133.89-1.77-.633 6.917-19.305 1.77.634z" fill="#454bdb"/><path d="m109.894 133.915-7.501-19.305 1.753-.681 7.5 19.304z" fill="#454bdb"/><path d="m95.852 132.81v.001c0 4.715 3.88 8.595 8.595 8.595h.001c4.715 0 8.594-3.879 8.594-8.594v-.001h-17.19z" fill="#f2f2f2"/><path d="m142.648 139.044-1.423-1.229c.44-.509.811-1.073 1.104-1.678l1.693.82c-.365.753-.827 1.454-1.374 2.087" fill="#454bdb"/><path d="m135.432 142.346c-5.258 0-9.536-4.278-9.536-9.536v-.94h19.072v.94c.002 1.156-.208 2.303-.618 3.384l-1.76-.667c.217-.573.365-1.169.44-1.777h-15.197c.465 3.78 3.696 6.715 7.599 6.715 1.555.002 3.073-.471 4.352-1.355l1.07 1.546c-.899.624-1.9 1.087-2.958 1.368-.8.214-1.63.322-2.464.322m-38.583-8.596c.465 3.78 3.694 6.716 7.599 6.716 3.902 0 7.132-2.936 7.596-6.715h-15.195zm7.599 8.597c-5.258 0-9.536-4.278-9.536-9.536v-.94h19.07v.94c0 5.258-4.277 9.536-9.534 9.536z" fill="#454bdb"/><path d="m137.712 115.968v.048c0 1.239-1.02 2.26-2.26 2.26-1.239 0-2.26-1.021-2.26-2.26 0-.016.001-.032.001-.048.026-1.222 1.038-2.212 2.259-2.212 1.222 0 2.234.99 2.26 2.212" fill="#38d2de"/><path d="m135.452 114.649c-.704.027-1.269.614-1.269 1.319s.565 1.292 1.269 1.319c.704-.027 1.269-.614 1.269-1.319s-.565-1.292-1.269-1.319m0 4.519c-1.755-.002-3.198-1.445-3.2-3.2.002-1.755 1.445-3.198 3.2-3.2 1.765 0 3.2 1.436 3.2 3.2s-1.435 3.2-3.2 3.2" fill="#454bdb"/><path d="m106.706 115.968c.001.022.001.045.001.067 0 1.24-1.02 2.26-2.26 2.26s-2.26-1.02-2.26-2.26c0-.022 0-.045.001-.067.036-1.214 1.045-2.193 2.259-2.193s2.223.979 2.259 2.193" fill="#38d2de"/><path d="m104.447 114.649c-.704.027-1.269.614-1.269 1.319s.565 1.292 1.269 1.319c.704-.027 1.269-.614 1.269-1.319s-.565-1.292-1.269-1.319m0 4.519c-1.755-.002-3.198-1.445-3.2-3.2.002-1.755 1.445-3.198 3.2-3.2 1.755.002 3.198 1.445 3.2 3.2 0 1.764-1.436 3.2-3.2 3.2" fill="#454bdb"/><path d="m94.557 168.856h1.59c.004.799.004 1.598.008 2.397h1.591c.004-.799.004-1.598.004-2.397h1.594c.004.795.004 1.586.008 2.381 2.165.128 4.79 1.015 5.342 3.388.755 2.405-.767 5.094-3.225 5.685 1.627.368 3.229 1.351 3.82 2.985.675 2.018.188 4.587-1.614 5.873-1.251.907-2.825 1.147-4.323 1.287-.004.791-.004 1.582-.008 2.373-.532 0-1.063 0-1.594 0 0-.799 0-1.598-.004-2.397-.532 0-1.063 0-1.595 0v2.397c-.531 0-1.066 0-1.598 0 0-.799 0-1.598 0-2.397-1.334 0-2.665 0-3.995 0 0-6.393 0-12.785 0-19.178h3.991c.004-.799.004-1.598.008-2.397m-2.157 3.919c-.008 2.289-.004 4.579-.004 6.868 2.565-.064 5.146.144 7.703-.128 1.674-.195 3.176-1.718 2.909-3.476.02-1.606-1.287-2.956-2.853-3.132-2.569-.288-5.17-.068-7.755-.132m-.004 8.47c0 2.553-.004 5.111.004 7.664 2.725-.06 5.462.155 8.174-.152 2.046-.228 3.544-2.314 3.125-4.331-.116-1.802-1.874-2.913-3.528-3.073-2.581-.235-5.182-.056-7.775-.108z" fill="#1d53d3" fill-rule="nonzero"/><path d="m102.215 193.235v.006c0 2.841-2.338 5.179-5.179 5.179h-.002c-2.843 0-5.182-2.339-5.182-5.182 0-.001 0-.002 0-.003l-10.343.121.001.765c-.003.895.73 1.636 1.625 1.641l2.519.007c.289 1.29.797 2.521 1.503 3.638l-1.796 1.791c-.307.305-.48.721-.48 1.154 0 .431.171.845.476 1.15l1.327 1.339c.64.646 1.676.646 2.311.01l1.792-1.778c1.118.711 2.349 1.226 3.64 1.523l-.01 2.519v.009c0 .893.734 1.628 1.627 1.629l1.89.008c.902 0 1.636-.724 1.636-1.623l.008-2.527c1.291-.292 2.523-.8 3.643-1.504l1.783 1.794c.636.632 1.678.632 2.315 0l1.333-1.333c.308-.305.482-.72.482-1.153s-.174-.849-.481-1.153l-1.773-1.791c.708-1.119 1.22-2.35 1.513-3.641l2.524.007c.895 0 1.632-.735 1.635-1.63v-1.069l-10.338.097z" fill="#38d2de"/><path d="m90.681 202.096.518.327c1.044.664 2.193 1.145 3.399 1.423l.6.138-.012 3.135v.007c0 .471.388.859.859.859l1.892.008c.474 0 .864-.384.864-.855l.01-3.143.598-.134c1.202-.27 2.347-.744 3.405-1.406l.521-.327 2.215 2.232c.34.333.892.33 1.229-.006l1.328-1.329c.169-.166.259-.382.258-.613 0-.229-.09-.442-.252-.6l-2.208-2.235.325-.516c.661-1.045 1.14-2.195 1.415-3.401l.135-.6 3.139.008c.474 0 .863-.387.864-.865v-.289l-8.849.082c-.376 2.925-2.876 5.192-5.897 5.192-3.02 0-5.521-2.259-5.904-5.177l-8.855.11c-.002.476.388.87.864.872l3.128.009.135.598c.269 1.204.743 2.353 1.401 3.396l.331.521-2.234 2.224c-.334.335-.334.885-.001 1.22l1.327 1.339c.165.166.367.243.617.258.229 0 .444-.09.605-.251zm7.253 7.434-1.892-.008c-.638 0-1.24-.25-1.694-.705-.452-.451-.704-1.066-.7-1.705l.008-1.92c-.96-.272-1.884-.659-2.752-1.152l-1.368 1.357c-.447.448-1.057.7-1.69.698h-.005c-.64 0-1.254-.257-1.703-.713l-1.327-1.339c-.45-.451-.701-1.062-.698-1.698 0-.636.254-1.246.706-1.694l1.37-1.366c-.488-.867-.869-1.79-1.134-2.75l-1.921-.005c-1.317-.01-2.395-1.097-2.393-2.414v-1.522l11.88-.139v.779c.003 2.421 1.994 4.412 4.415 4.415 2.431 0 4.409-1.979 4.409-4.415v-.761l11.876-.112v1.845c-.007 1.315-1.089 2.395-2.404 2.399l-1.925-.006c-.271.961-.656 1.885-1.147 2.754l1.354 1.369c.452.445.705 1.054.703 1.688.002.64-.254 1.255-.711 1.704l-1.327 1.329c-.947.936-2.472.935-3.405 0l-1.36-1.371c-.87.488-1.795.87-2.756 1.137l-.004 1.929c0 1.318-1.079 2.391-2.405 2.391z" fill="#454bdb"/><path d="m393.393 112.633c-5.436.108-9.755 4.603-9.646 10.038.108 5.435 4.603 9.754 10.038 9.646 5.435-.109 9.754-4.603 9.646-10.038-.108-5.436-4.603-9.755-10.038-9.646" fill="#fff"/><path d="m393.592 133.26-.22-.003c-2.86-.049-5.584-1.242-7.56-3.31-1.988-2.058-3.071-4.828-3.006-7.688.049-2.86 1.242-5.584 3.31-7.56 2.057-1.988 4.828-3.071 7.688-3.006 2.86.049 5.584 1.242 7.56 3.31 1.988 2.057 3.071 4.827 3.006 7.687-.021 1.125-.218 2.239-.585 3.302l-1.777-.613c.302-.878.464-1.798.48-2.726.055-2.361-.839-4.649-2.48-6.348-1.632-1.707-3.882-2.692-6.243-2.733-2.36-.044-4.643.849-6.346 2.483-1.707 1.632-2.691 3.881-2.732 6.242-.054 2.361.84 4.648 2.48 6.347 1.632 1.708 3.881 2.692 6.243 2.733 1.678.043 3.334-.398 4.769-1.27l.97 1.61c-1.677 1.011-3.599 1.544-5.557 1.542" fill="#454bdb"/><path d="m401.383 129.928-1.36-1.298c.485-.507.908-1.069 1.262-1.675l1.625.946c-.427.733-.94 1.414-1.527 2.027m-6.855-2.785v2.142h-1.881v-2.142h-3.002v-1.88h3.002v-1.848c-1.534-.007-2.793-1.27-2.795-2.804.002-1.534 1.261-2.796 2.795-2.803v-2.142h1.881v2.142h3.003v1.88h-3.003v1.847h.135c1.538.002 2.802 1.266 2.804 2.804-.002 1.538-1.266 2.802-2.804 2.804zm0-1.88h.135c.507 0 .924-.417.924-.924s-.417-.924-.924-.924h-.135zm-1.881-5.575c-.495.016-.894.428-.894.924 0 .495.399.907.894.923zm-3.251-9.702v-9.859h1.881v9.859zm5.183-2.966v-9.859h1.881v9.859zm5.184 4.781v-6.295h1.881v6.295zm-15.55 1.333v-6.295h1.881v6.295z" fill="#454bdb"/><path d="m399.606 82.546c-.071 1.415-1.291 2.521-2.706 2.454l-10.38-.505c-1.34-.102-2.388-1.233-2.388-2.578 0-1.418 1.167-2.585 2.585-2.585.017 0 .034.001.051.001l10.384.506c1.415.07 2.523 1.291 2.455 2.706" fill="#4178da"/><path d="m387.703 80.338c.842.869.821 2.277-.048 3.119l-5.23 5.121c-.87.84-2.277.818-3.12-.049-.841-.869-.819-2.276.048-3.119l5.235-5.119c.411-.399.961-.623 1.534-.623.596 0 1.167.242 1.581.67" fill="#4178da"/><path d="m378.05 97.045.747-10.677 3.488 1.666s.719 4.845-.024 6.007c-.58.909-4.211 3.004-4.211 3.004" fill="#4178da"/><path d="m386.646 80.271c-.44 0-.856.18-1.177.511l-.171.143-5.287 5.158c-.305.297-.442.728-.362 1.146l.022.12-.556 7.947c1.6-1.018 2.24-1.587 2.353-1.76.186-.306.329-1.832-.037-4.796l-.06-.484.433-.386 4.424-4.33 10.587.515c.896.028 1.654-.505 1.816-1.273.027-.118.04-.239.04-.36 0-.872-.693-1.6-1.564-1.643l-10.385-.507h-.077m-8.264 17.47c-.677-.002-1.233-.56-1.233-1.237 0-.03.001-.059.003-.089l.628-8.968c-.147-1 .192-2.006.92-2.71l5.231-5.119c.076-.075.16-.14.243-.202.696-.697 1.656-1.069 2.64-1.022l10.384.506c1.03.05 1.987.55 2.617 1.366.633.82.873 1.878.657 2.903-.352 1.662-1.977 2.848-3.748 2.763l-9.768-.475-3.603 3.526c.487 4.333-.103 5.253-.3 5.562-.15.24-.617.97-4.038 3.02-.191.115-.41.176-.633.176" fill="#454bdb"/><path d="m415.519 96.78-8.196 5.073-9.057.67s-.634-3.307 1.92-4.211l5.006-.942s.364-5.412.372-5.827c.038-1.073-7.52-5.397-8.602-5.292-.637.063-9.107.765-9.107.765l-1.726 6.432s-.004 3.123.546 4.366c1.85 4.157-2.424 3.947-2.424 3.947l-2.788-8.943 2.116-9.65 12.769-4.39 19.17 3.997v14.005z" fill="#fff"/><path d="m404.623 91.527v.014zm-4.187 7.694c-1.062.415-1.287 1.516-1.303 2.296l7.89-.585 7.555-4.675v-12.718l-18.169-3.788-12.025 4.135-1.949 8.89 2.494 7.999c.417-.069.899-.227 1.12-.553.261-.384.178-1.103-.234-2.027-.613-1.386-.627-4.408-.627-4.748l.033-.242 1.896-7.072.659-.054c.085-.008 8.471-.702 9.094-.764 1.545-.129 7.324 3.394 8.823 4.805.412.387.83.863.81 1.457-.008.408-.336 5.3-.374 5.856l-.049.726zm-2.936 4.302-.157-.822c-.272-1.419-.094-4.347 2.528-5.275l.14-.038 4.291-.808c.123-1.839.278-4.205.313-4.884-.847-1.099-6.606-4.394-7.637-4.508-.475.052-6.372.543-8.387.71l-1.522 5.673c.008 1.153.137 3.119.466 3.862.706 1.587.727 2.885.063 3.854-1.018 1.487-3.156 1.425-3.392 1.414l-.656-.032-3.058-9.809 2.281-10.409 13.514-4.647 20.172 4.207v15.294l-8.837 5.469z" fill="#454bdb"/><path d="m493.577 210.113v-101.007c0-15.849-12.848-28.698-28.697-28.698h-48.85c-.966 0-1.748.783-1.748 1.747v16.02c0 .965.783 1.747 1.748 1.747h13.266l30.805.15c6.19.031 11.192 5.057 11.192 11.247v98.794" fill="#4cccd6"/><path d="m472.231 210.113h-1.88v-98.794c0-5.656-4.6-10.279-10.255-10.306l-30.805-.151h-13.263c-1.474-.001-2.686-1.213-2.688-2.687v-16.02c.002-1.474 1.214-2.685 2.688-2.687h48.851c16.342 0 29.638 13.296 29.638 29.638v43.349h-1.88v-43.349c0-15.306-12.453-27.757-27.758-27.757h-48.85c-.443 0-.807.364-.808.806v16.02c0 .445.363.807.807.807h13.266l30.811.151c6.687.032 12.126 5.499 12.126 12.186z" fill="#454bdb"/><path d="m493.577 175.882c-.701-.079-1.405-.119-2.11-.119-2.991-.006-5.939.707-8.597 2.078l-3.82-2.598c-1.495-1.03-3.436-1.174-5.066-.374-1.639.78-2.733 2.389-2.856 4.2l-.442 5.969c-.002.035-.004.07-.004.105 0 .826.679 1.507 1.505 1.51.224 0 .448-.05.654-.149l2.671-1.29c-.994 2.009-1.56 4.231-1.56 6.577 0 5.203 2.734 9.821 6.945 12.751l.393 5.571h7.31v-2.528c.934.142 1.887.234 2.866.234.706-.006 1.411-.054 2.111-.144zm-12.466-11.384c.11 5.546 4.657 9.982 10.181 9.982.068 0 .136 0 .205-.002.7-.015 1.397-.101 2.08-.257v-19.836c-.814-.192-1.649-.284-2.486-.274-2.701.047-5.275 1.173-7.142 3.126-1.877 1.943-2.9 4.559-2.838 7.26" fill="#454bd8" fill-opacity=".298039"/><path d="m512.151 179.138.44 5.97c.001.014.002.028.002.042 0 .309-.255.564-.564.564-.085 0-.169-.019-.245-.056l-11.098-5.36c-.166-.08-.271-.248-.271-.432 0-.159.079-.308.211-.397l5.07-3.449c2.634-1.792 6.221-.06 6.455 3.118" fill="#4178da"/><path d="m501.813 179.798 9.795 4.729-.394-5.319c-.077-1.141-.766-2.154-1.798-2.646-1.027-.503-2.249-.412-3.191.236zm10.216 6.854c-.223 0-.446-.049-.653-.148l-11.097-5.36c-.456-.221-.761-.669-.8-1.174-.036-.505.199-.992.617-1.278l5.07-3.449c1.495-1.03 3.436-1.173 5.066-.374 1.64.779 2.734 2.389 2.857 4.2l.44 5.969c.039.535-.21 1.052-.653 1.355-.25.169-.545.26-.847.259z" fill="#454bdb"/><path d="m474.572 179.138-.44 5.97c-.001.014-.002.028-.002.042 0 .309.255.564.564.564.085 0 .169-.019.245-.056l11.098-5.36c.166-.08.271-.248.271-.432 0-.159-.079-.308-.211-.397l-5.069-3.449c-2.635-1.792-6.222-.06-6.456 3.118" fill="#4178da"/><path d="m478.705 176.24c-.473 0-.948.106-1.396.322-1.033.491-1.722 1.504-1.799 2.645l-.394 5.32 9.794-4.729-4.41-3c-.528-.363-1.154-.558-1.795-.559m-4.01 10.413c-.298 0-.594-.087-.847-.26-.443-.302-.693-.819-.654-1.354l.441-5.969c.123-1.811 1.217-3.42 2.856-4.2 1.63-.799 3.571-.655 5.067.374l5.07 3.448c.416.285.653.775.616 1.278-.038.505-.342.954-.798 1.175l-11.097 5.36c-.207.1-.43.148-.654.148" fill="#454bdb"/><path d="m493.617 155.05c-5.058.02-9.209 4.188-9.209 9.246 0 5.072 4.174 9.246 9.246 9.246.11 0 .221-.002.331-.006 4.933-.192 8.886-4.302 8.886-9.239 0-5.072-4.173-9.246-9.246-9.246-.002 0-.005 0-.008 0" fill="#fff"/><path d="m494.184 174.37c-5.523 0-10.07-4.435-10.182-9.982-.111-5.615 4.367-10.274 9.981-10.386 1.919-.043 3.812.461 5.455 1.454l-.97 1.61c-1.342-.802-2.883-1.212-4.446-1.184-4.58.09-8.231 3.89-8.14 8.469.091 4.522 3.799 8.14 8.302 8.14l.168-.002c4.578-.091 8.229-3.89 8.138-8.47-.017-.866-.169-1.724-.451-2.543l1.779-.613c.345 1.005.532 2.057.553 3.119.111 5.616-4.367 10.275-9.981 10.387l-.206.002" fill="#454bdb"/><path d="m500.98 160.116c-.329-.565-.725-1.089-1.177-1.561l1.36-1.3c.554.58 1.038 1.222 1.442 1.915z" fill="#454bdb"/><path d="m495.487 168.204v1.302h-1.587v-1.25c-2.232-.315-3.91-2.245-3.91-4.499 0-2.255 1.678-4.185 3.91-4.5v-1.257h1.587v1.31c.861.181 1.651.61 2.272 1.233.34.34.62.724.833 1.142l-1.413.723c-.141-.275-.324-.525-.542-.743-.323-.324-.717-.568-1.15-.713v5.61c.42-.141.815-.379 1.15-.714.4-.4.67-.895.793-1.434l1.548.351c-.19.835-.612 1.6-1.219 2.205-.621.623-1.411 1.052-2.272 1.234zm-1.587-7.335c-1.349.299-2.317 1.505-2.317 2.887s.968 2.588 2.317 2.887z" fill="#454bd8"/><path d="m490.166 210.184h-5.422l-.56-7.965h5.982zm7.471 0h5.422l.56-7.965h-5.982z" fill="#f2f2f2"/><path d="m485.62 209.244h3.605v-6.084h-4.033zm5.486 1.88h-7.239l-.692-9.845h7.931v9.846zm7.471-1.88h3.605l.43-6.084h-4.035zm5.358 1.88h-7.239v-9.845h7.932l-.693 9.846z" fill="#454bdb"/><path d="m510.546 191.79c0 8.334-7.421 15.089-16.573 15.089-9.154 0-16.573-6.755-16.573-15.088s7.419-15.087 16.573-15.087c9.152 0 16.573 6.754 16.573 15.087" fill="#fff"/><path d="m498.673 195.154c.001.033.001.066.001.099 0 2.672-2.199 4.872-4.872 4.872s-4.872-2.2-4.872-4.872c0-.033 0-.066.001-.099.053-2.635 2.236-4.773 4.871-4.773s4.818 2.138 4.871 4.773" fill="#4178da"/><g fill="#454bdb"><path d="m493.972 177.643c-8.62 0-15.633 6.347-15.633 14.147 0 7.802 7.013 14.148 15.633 14.148s15.634-6.346 15.634-14.148c0-7.8-7.013-14.147-15.634-14.147m0 30.176c-9.656 0-17.514-7.19-17.514-16.029 0-8.837 7.858-16.027 17.514-16.027 9.657 0 17.515 7.19 17.515 16.027 0 8.838-7.858 16.03-17.515 16.03"/><path d="m493.802 204.325c-2.079.005-4.075-.821-5.542-2.294l1.33-1.331c1.114 1.12 2.632 1.749 4.212 1.745 1.579.003 3.096-.625 4.21-1.745l1.33 1.33c-1.466 1.473-3.462 2.3-5.54 2.295"/><path d="m493.802 191.223c-2.156.003-3.929 1.776-3.932 3.932.003 2.155 1.777 3.928 3.932 3.93 2.155-.003 3.927-1.775 3.93-3.93-.002-2.155-1.775-3.929-3.93-3.932m0 9.744c-3.187-.004-5.808-2.625-5.812-5.812.004-3.187 2.625-5.809 5.812-5.813 3.187.004 5.808 2.626 5.812 5.813-.004 3.187-2.625 5.808-5.812 5.812m-2.067-12.584h-1.88c0-.755-.615-1.37-1.37-1.37-.756 0-1.37.615-1.37 1.37h-1.882c.002-1.783 1.468-3.249 3.251-3.251 1.783.002 3.249 1.468 3.251 3.251m10.633 0h-1.88c-.028-.732-.638-1.319-1.37-1.319s-1.342.587-1.37 1.319h-1.882c.002-1.783 1.469-3.249 3.252-3.251 1.782.003 3.248 1.469 3.25 3.251"/><path d="m491.198 196.325h1.496v-1.88h-1.496zm3.944 0h1.495v-1.88h-1.495z"/><path d="m481 209h548.191v2.878h-461.999v.002h-548.192v-2.88z"/></g><path d="m896.233 157.925c1.478-1.47 2.948-2.948 4.426-4.418.36.367.723.731 1.091 1.091-.847.851-1.695 1.702-2.546 2.549 2.267-.042 4.914-.224 6.593 1.618 2.104 1.984 1.524 5.083 1.586 7.671-.515-.003-1.033-.003-1.548 0-.15-2.189.608-4.867-1.145-6.6-1.416-1.505-3.644-1.091-5.49-1.137.844.851 1.695 1.698 2.546 2.542-.367.359-.731.731-1.091 1.098-1.474-1.466-2.948-2.94-4.422-4.414z" fill="#4348db" fill-rule="nonzero"/><path d="m871.813 160.188c-.027-1.617 1.412-3.052 3.033-3.017 5.312-.051 10.628-.008 15.94-.02 1.601-.147 3.246 1.025 3.389 2.67.155 2.716.015 5.443.062 8.163 3.366.023 6.731-.043 10.097.019 1.625-.035 3.065 1.412 3.034 3.033.042 3.637.042 7.278 0 10.915.031 1.624-1.416 3.071-3.041 3.037-5.308.05-10.616.007-15.925.019-1.601.147-3.261-1.021-3.4-2.677-.151-2.712-.012-5.436-.058-8.156-3.235-.011-6.469.016-9.703 0-1.01.027-2.07-.29-2.716-1.106-.871-.96-.72-2.337-.747-3.529.05-3.118-.039-6.236.035-9.351m1.493 1.606h19.414c-.081-.801.097-1.691-.313-2.418-.515-.836-1.617-.639-2.445-.693-5.03.058-10.063-.038-15.093.043-1.636-.012-1.598 1.899-1.563 3.068m.035 3.095c.043 2.074-.066 4.147.031 6.217-.046.82.693 1.513 1.497 1.49 3.347.085 6.697 0 10.044.031-.085-1.618.104-3.645 1.83-4.357 1.915-.58 3.969-.17 5.942-.286-.004-1.033-.004-2.062 0-3.095-6.449 0-12.895 0-19.344 0m13.444 5.3c-.425.728-.24 1.629-.325 2.438 6.473 0 12.942 0 19.414-.004-.104-.871.163-1.923-.491-2.631-.457-.526-1.219-.422-1.842-.468-4.913.015-9.827.011-14.74 0-.7.031-1.59-.023-2.016.665m-.29 5.533c.062 2.186-.116 4.375.074 6.553.112.859 1.056 1.235 1.826 1.18 5.184.008 10.364.008 15.545 0 .77.059 1.698-.309 1.822-1.164.197-2.182.015-4.38.077-6.569-6.449 0-12.894 0-19.344 0z" fill="#4348db" fill-rule="nonzero"/><path d="m871.797 175.722c.515.004 1.033.004 1.548 0 .151 2.197-.607 4.867 1.149 6.604 1.424 1.497 3.637 1.091 5.486 1.133-.847-.851-1.695-1.702-2.542-2.553.368-.36.731-.724 1.095-1.091 1.47 1.474 2.94 2.948 4.411 4.418-1.459 1.478-2.937 2.937-4.399 4.411-.364-.368-.735-.728-1.107-1.088.851-.847 1.699-1.698 2.546-2.545-2.252.038-4.89.224-6.573-1.59-2.14-1.981-1.552-5.099-1.614-7.699z" fill="#4348db" fill-rule="nonzero"/></svg>