<svg clip-rule="evenodd" fill-rule="evenodd" stroke-linejoin="round" stroke-miterlimit="1.41421" viewBox="0 0 482 482" xmlns="http://www.w3.org/2000/svg"><path d="m481.999 240.995c0-133.003-107.981-240.984-240.984-240.984-133.002 0-240.983 107.981-240.983 240.984 0 133.002 107.981 240.984 240.983 240.984 133.003 0 240.984-107.982 240.984-240.984z" fill="#edef39"/><path d="m172 10.04c45.72-13.68 95.52-13.36 141.05.93 43.31 13.48 82.54 39.62 111.83 74.25 22.35 26.33 38.98 57.51 48.24 90.8 12.69 45.31 11.75 94.34-2.75 139.11-18.55 58.07-60.21 108.24-113.75 137.36-25.98 14.32-54.68 23.47-84.02 27.62-38.1 4.59-77.32.82-113.43-12.37-35.58-12.83-68.03-34.2-93.88-61.8-25.85-27.48-45.14-61.11-55.67-97.34-9.46-32.05-11.67-66-7.73-99.13 5.44-39.42 20.38-77.57 43.86-109.75 30.77-42.63 75.82-74.76 126.25-89.68m36.49 23.78c-46.8 3.84-92.1 23.26-127.27 54.37-34.37 30.13-59.07 71.13-69.39 115.68-10.63 45.29-6.65 93.92 11.55 136.76 18.94 45.03 53.29 83.38 95.96 107.16 33.82 19.11 72.81 28.84 111.63 28.18 38.25-.52 76.32-11.18 109.19-30.77 30.58-17.99 56.64-43.54 75.41-73.64 19.41-31.04 30.88-66.99 33.01-103.53 2.44-39.2-5.72-79.02-23.63-113.99-21.39-42.14-56.65-77.05-99.01-98-36.13-18.02-77.24-25.72-117.45-22.22z" fill="#1c1c1c" fill-rule="nonzero"/><path d="m133.911 119.018c-1.754.716-4.795 1.793-8.639 3.391-4.89 2.032-11.097 4.554-17.322 8.284-11.047 6.619-19.712 14.028-27.111 21.463-19.816 19.913-24.928 41.564-22.593 45.939-3.54-6.632-1.277-20.29.753-25.982 10.745-30.133 35.199-47.126 47.822-56.859 15.93-12.282 23.503-24.634 24.475-27.111 4.904-12.491 12.849-20.119 24.476-22.97 8.097-1.985 17.822-1.529 25.311 1.699 15.416 5.384 33.98 21.1 21.758 54.784-4.108 10.597-13.157 19.885-19.225 25.252-1.419 1.571-3.605 3.077-7.887 7.884-5.595 6.282-11.395 15.211-8.284 14.309 13.522-8.83 30.033-12.508 50.081-11.297 13.688.827 27.805 4.29 34.643 6.402 12.962 4.002 39.586 14.274 65.143 32.383 24.411 17.297 53.845 48.81 59.119 54.223 4.28 4.393 11.479 10.606 11.296 11.673-.104.608-1.691.923-2.683 1.063.091.024.006.049-.329.067-.832.045-.422.039.329-.067-.432-.111-4.835-.178-5.222.781-.47 1.162 3.729 3.26 9.035 7.194 5.494 4.072 9.757 8.016 9.79 9.037.033 1.02.628 3.299-5.272 1.506-.942-.287-7.454-3.14-8.231-2.066s5.055 3.31 4.089 4.325c-.965 1.015-7.409.379-12.802-1.506-9.189-3.212-18.722-9.696-23.723-11.673-4.161-1.645-12.775-3.498-21.84-4.142-9.689-.688-54.171 3.544-62.131 4.519-28.137 3.444-46.921-2.441-51.964-4.519-3.75-1.546-8.485-4.295-10.543-4.895 5.589 7.771 23.657 14.32 43.303 15.062 5.116.193 17.168-.155 28.994-.753 14.726-.746 29.662-3.078 42.927-3.389 9.784-.23 24.304.232 24.476 5.648.175 5.499-18.938 9.222-29.371 10.92-52.879 8.604-45.526 34.323-45.186 42.927.302 7.652 3.992 15.152 3.766 20.71-.352 8.62-2.815 11.939-3.766 21.84-.386 4.022-.872 14.245-.753 22.593.106 7.414.803 13.297.753 12.802 1.416 14.03 7.245 12.581 22.216 12.05 9.316-.33 18.12 1.051 17.322 6.401-.153 1.023-1.754-.67-4.142-.753-9.771-.34-24.526 2.437-25.982 2.636-4.611.631-6.054-1.727-8.661 0-3.005 1.991-4.208 4.19-6.401 6.778-1.911 2.255-2.409 6.465-4.142 6.401-2.671-.098-2.252-9.292-1.506-10.92.745-1.627 1.925-1.272 2.259-2.635.312-1.276-3.609.185-6.778-.377-5.764-1.09-24.13-5.031-27.112 2.636-.665 1.711-1.372.549-2.635-.753-1.264-1.302-.458-6.799 8.66-8.284 4.008-.653 11.878-1.37 15.439-1.13 10.602.716 13.747-1.469 14.309-6.778.455-4.307 1.33-10.887 1.506-18.074.203-8.286-.352-17.263-.753-22.593-.644-8.534-4.565-14.709-4.519-21.84.034-5.192 2.263-13.636 2.636-20.71.196-3.724-.585-14.326-3.389-20.711-3.114-7.091-9.94-20.02-42.174-30.124-15.95-4.999-28.277-10.368-37.278-17.321-5.981-4.62-12.74-11.497-18.828-21.087-2.859-4.504-5.238-9.242-7.531-15.815-2.227-6.386-7.127-24.145-.376-41.42 1.194-3.035 4.586-9.096 4.142-9.038-1.464.192-10.425 11.857-11.673 25.606-1.604 17.672 6.401 34.266 6.401 34.266.342.847-20.538-8.884-27.864-30.501-10.246-30.23 8.99-57.631 9.79-58.741 6.25-8.687 13.71-15.477 16.718-18.067l-.15-.008s1.663-1.898 1.13-1.129c2.163-3.12 3.233-6.044 1.882-8.661-.96-1.86-4.592-3.188-9.037-3.013-2.065.082-8.116 1.548-10.941 2.258zm8.305-27.11c-.596-1.229-.188-2.915.377-3.765.683-1.029 1.199-1.733 3.389-2.26 3.8-.914 5.496 1.892 5.648 3.013.229 1.686-.219 2.377-.753 3.012-.68.809-2.187 1.705-4.518 1.718-.663.003-3.266.088-4.143-1.718z" fill="#25569e"/></svg>