<svg clip-rule="evenodd" fill-rule="evenodd" stroke-linejoin="round" stroke-miterlimit="1.41421" viewBox="0 0 960 540" xmlns="http://www.w3.org/2000/svg" xmlns:xlink="http://www.w3.org/1999/xlink"><clipPath id="a"><path clip-rule="evenodd" d="m497.934 180.003c0 2.134-1.751 3.866-3.91 3.866h-2.133v22.775c0 .812-1.028 1.181-1.554.558l-19.759-23.332h-55.257c-2.158 0-3.91-1.732-3.91-3.866v-38.76c0-2.136 1.752-3.868 3.91-3.868h78.703c2.159 0 3.91 1.732 3.91 3.868v38.76z"/></clipPath><path d="m933.462 329.056h-51.524c-12.86 0-23.284-10.408-23.284-23.246 0-12.839 10.425-23.246 23.284-23.246h51.524c12.86 0 23.284 10.407 23.284 23.246 0 12.838-10.424 23.246-23.284 23.246zm-584.79-211.896h468.5c15.284 0 27.67 12.38 27.648 27.64-.017 12.354-10.054 22.362-22.43 22.362h-53.81c-7.508 0-13.591 6.075-13.591 13.569v7.085c0 7.492 6.083 13.567 13.59 13.567h132.076c12.388 0 22.43 10.026 22.43 22.395 0 12.327-9.98 22.336-22.328 22.391l-159.198.933c-7.482.034-13.53 6.098-13.53 13.568v3.415c0 7.531 6.144 13.622 13.688 13.568l74.106-.878c12.476-.09 22.628 10.003 22.592 22.459l-.016 5.318c-.035 12.342-10.067 22.328-22.43 22.328h-114.294c-7.505 0-13.59 6.074-13.59 13.568v12.862c0 7.427 5.982 13.475 13.422 13.567l225.585 3.403c19.284.24 34.79 15.914 34.79 35.168 0 19.424-15.772 35.17-35.227 35.17h-805.015c-23.329 0-42.242-18.881-42.242-42.173 0-23.374 19.043-42.29 42.457-42.171l91.474.463c7.533.038 13.658-6.047 13.658-13.568v-6.266c0-7.492-6.084-13.566-13.589-13.566h-66.368c-12.388 0-22.43-10.027-22.43-22.394v-1.623c0-12.368 10.042-22.394 22.43-22.394h153.118c7.507 0 13.591-6.075 13.591-13.567 0-7.494-6.084-13.568-13.59-13.568h-91.859c-12.387 0-22.43-10.025-22.43-22.393v-4.572c0-12.367 10.043-22.393 22.43-22.393h144.264c7.505 0 13.59-6.075 13.59-13.568v-11.265c0-7.494-6.085-13.568-13.59-13.568h-3.882c-12.388 0-22.431-10.026-22.431-22.393v-.085c0-12.369 10.043-22.394 22.43-22.394h.001z" fill="#f2f2f2"/><path d="m313.355 336.526c.001.044.002.088.002.133 0 2.412-1.985 4.397-4.397 4.397s-4.397-1.985-4.397-4.397c0-.045.001-.089.002-.133-.001-.031-.001-.063-.001-.094 0-2.411 1.984-4.396 4.396-4.396s4.396 1.985 4.396 4.396c0 .031 0 .063-.001.094m63.917-156.044v.05c0 1.36-1.119 2.479-2.479 2.479-1.359 0-2.479-1.119-2.479-2.479 0-.017.001-.033.001-.05s-.001-.033-.001-.05c0-1.36 1.12-2.479 2.479-2.479 1.36 0 2.479 1.119 2.479 2.479zm62.16 66.708v.001c0 1.791-1.474 3.265-3.265 3.265s-3.264-1.473-3.265-3.264c0-1.792 1.474-3.265 3.265-3.265s3.265 1.473 3.265 3.264m302.865-44.791c-.001 2.387-1.964 4.35-4.351 4.35s-4.351-1.964-4.351-4.351 1.964-4.351 4.351-4.351h.001c2.403 0 4.35 1.949 4.35 4.352m-43.052-68.276v.001c0 1.611-1.326 2.937-2.937 2.937-1.612 0-2.938-1.326-2.938-2.937 0-1.612 1.326-2.938 2.938-2.938 1.611 0 2.937 1.326 2.937 2.937m-516.135 262.22c0 1.688-1.389 3.077-3.077 3.077-1.687 0-3.076-1.389-3.076-3.077.042-1.658 1.418-3 3.077-3s3.035 1.342 3.077 3" fill="#efcc8d"/><path d="m818.053 139.916c-4.285 1.134-5.206 2.053-6.343 6.329-1.136-4.276-2.058-5.195-6.343-6.33 4.285-1.132 5.207-2.052 6.343-6.327 1.137 4.275 2.058 5.195 6.343 6.328m-611.219 148.674c-3.023.8-3.673 1.448-4.475 4.464-.802-3.016-1.453-3.665-4.477-4.465 3.024-.8 3.675-1.448 4.477-4.464.802 3.016 1.452 3.665 4.475 4.464m731.26 25.504c-3.024.8-3.675 1.45-4.476 4.465-.803-3.016-1.453-3.665-4.476-4.465 3.023-.8 3.673-1.45 4.476-4.466.801 3.016 1.452 3.665 4.476 4.466m-486.699-196.417c-5.25 1.39-6.38 2.517-7.774 7.755-1.393-5.238-2.522-6.365-7.772-7.755 5.25-1.39 6.38-2.517 7.772-7.756 1.393 5.239 2.523 6.366 7.774 7.756m-330.169 263.815c-2.921.772-3.548 1.4-4.323 4.312-.775-2.913-1.403-3.54-4.322-4.312 2.92-.773 3.547-1.4 4.322-4.313.775 2.913 1.402 3.54 4.323 4.313m763.017-165.687c-3.548.94-4.312 1.701-5.252 5.24-.942-3.539-1.705-4.3-5.253-5.24 3.548-.94 4.31-1.7 5.253-5.239.94 3.54 1.704 4.3 5.252 5.24m-661.733-49.353c-4.282 1.133-5.203 2.052-6.34 6.326-1.136-4.274-2.057-5.193-6.34-6.326 4.283-1.133 5.204-2.053 6.34-6.326 1.137 4.273 2.058 5.193 6.34 6.326m476.245 87.034c-4.365 1.155-5.303 2.093-6.461 6.446-1.158-4.353-2.097-5.29-6.46-6.446 4.363-1.155 5.302-2.092 6.46-6.444 1.158 4.352 2.096 5.29 6.46 6.444m-398.659-149.466c-2.94.778-3.572 1.409-4.353 4.343-.78-2.934-1.413-3.565-4.353-4.344 2.94-.779 3.573-1.41 4.353-4.343.78 2.934 1.413 3.564 4.353 4.343m290.787 33.239c-4.74 1.255-5.76 2.271-7.019 7.002-1.257-4.73-2.277-5.747-7.017-7.002 4.74-1.255 5.76-2.272 7.017-7.002 1.259 4.73 2.278 5.747 7.019 7.002m-258.572 94.218c-3.043.805-3.698 1.458-4.506 4.495-.807-3.037-1.461-3.69-4.504-4.495 3.043-.806 3.697-1.458 4.504-4.495.808 3.037 1.463 3.69 4.505 4.495" fill="#38d2de"/><path d="m405.595 326v104.764c0 2.65-2.154 4.795-4.81 4.795h-50.753c-2.657 0-4.81-2.145-4.81-4.795v-104.762c.004-2.635 2.175-4.799 4.81-4.796h50.752c2.657 0 4.811 2.148 4.811 4.795" fill="#f2f2f2"/><path d="m351.76 437.414c-4.63 0-8.397-3.756-8.397-8.37v-101.321c0-4.614 3.767-8.368 8.396-8.368v3.705c-2.578 0-4.678 2.092-4.678 4.663v101.321c0 2.57 2.1 4.663 4.678 4.663v3.707z" fill="#454bd8"/><path d="m415.302 326v104.764c0 2.65-2.154 4.795-4.811 4.795h-50.753c-.003 0-.005 0-.008 0-2.632 0-4.798-2.163-4.802-4.795v-104.762c.004-2.635 2.175-4.799 4.81-4.796h50.753c2.657 0 4.81 2.148 4.81 4.795" fill="#f2f2f2"/><path d="m378.789 437.414h-17.324c-4.628 0-8.396-3.756-8.396-8.37v-101.321c0-4.614 3.768-8.368 8.396-8.368h17.324v3.705h-17.324c-2.578 0-4.677 2.092-4.677 4.663v101.321c0 2.57 2.1 4.663 4.677 4.663h17.324z" fill="#454bd8"/><path d="m405.162 378.578c-.224 11.187-9.504 20.075-20.728 19.851-11.223-.223-20.142-9.472-19.917-20.66.224-11.185 9.504-20.073 20.728-19.85 11.222.224 20.14 9.471 19.917 20.659m-15.42-31.902c-.06 3.014-2.56 5.409-5.586 5.348-3.024-.059-5.426-2.552-5.366-5.565.06-3.015 2.56-5.41 5.585-5.35 3.024.06 5.427 2.552 5.367 5.567m0 64.437c-.06 3.015-2.56 5.41-5.586 5.349-3.024-.06-5.426-2.552-5.366-5.566.06-3.015 2.56-5.41 5.585-5.35 3.024.06 5.427 2.553 5.367 5.567" fill="#fff"/><path d="m368.855 393.508c-4.114-4.262-6.314-9.862-6.198-15.775.141-6.975 3.634-13.552 9.347-17.598l2.156 3.022c-4.76 3.37-7.668 8.844-7.784 14.65-.111 4.889 1.748 9.622 5.157 13.128zm25.541-7.221h-3.72v-10.324c0-1.091-.898-1.989-1.989-1.989s-1.989.898-1.989 1.989v4.127c0 3.137-2.559 5.69-5.706 5.69-3.148 0-5.709-2.553-5.709-5.69v-10.03h3.718v10.03c.034 1.067.921 1.927 1.989 1.927s1.955-.86 1.989-1.927v-4.127c0-3.138 2.563-5.691 5.71-5.691s5.707 2.553 5.707 5.69z" fill="#454bd8"/><path d="m370.78 380.029h28.12v-3.707h-28.12zm-8.707-37.419h-.002zm.857 7.764h-3.718v-8.733c0-1.444 1.106-2.618 2.574-2.73 4.444-.344 7.938-3.809 8.304-8.24.12-1.483 1.32-2.603 2.786-2.603h6.518v3.706h-5.69c-.81 5.588-5.173 9.934-10.774 10.739zm-1.092 64.608h.006zm17.328 14.542h-6.52c-1.468 0-2.664-1.12-2.783-2.606-.37-4.427-3.863-7.894-8.31-8.238-1.463-.112-2.569-1.284-2.569-2.73v-8.733h3.72v7.862c5.6.808 9.962 5.155 10.773 10.739h5.69v3.706zm-141.759 5.431h3.64v-116.025h-3.64z" fill="#454bd8"/><path d="m258.641 303.68c0 10.86-8.665 19.663-19.355 19.663-10.688 0-19.356-8.803-19.356-19.663 0-10.859 8.668-19.663 19.356-19.663 10.69 0 19.355 8.804 19.355 19.663" fill="#fff"/><path d="m239.286 325.193c-11.676 0-21.175-9.65-21.175-21.514 0-11.86 9.5-21.51 21.175-21.51 2.22 0 4.407.348 6.507 1.035l-1.118 3.519c-1.74-.569-3.559-.859-5.389-.858-9.668 0-17.536 7.994-17.536 17.814 0 9.824 7.868 17.818 17.536 17.818 9.667 0 17.535-7.994 17.535-17.818 0-3.37-.93-6.648-2.69-9.486l3.08-1.969c2.13 3.44 3.256 7.409 3.249 11.455 0 11.864-9.5 21.514-21.174 21.514" fill="#454bd8"/><path d="m251.15 290.563c-1.015-.949-2.139-1.774-3.348-2.458l1.772-3.23c1.454.82 2.813 1.819 4.04 2.966zm-9.75 22.411h-9.864v-3.697h9.863c1.02 0 1.846-.84 1.846-1.873 0-1.035-.826-1.876-1.846-1.876h-3.945c-3.023 0-5.483-2.498-5.483-5.57s2.46-5.571 5.483-5.571h9.585v3.699h-9.585c-1.016 0-1.843.84-1.843 1.872s.827 1.873 1.843 1.873h3.945c3.024 0 5.485 2.498 5.485 5.573 0 3.072-2.461 5.57-5.485 5.57" fill="#454bd8"/><path d="m237.466 290.08h3.64v27.203h-3.64z" fill="#454bd8"/><path d="m262.047 326.006s.722 9.922-4.857 15.591c-5.58 5.667-15.346 4.933-15.346 4.933s-.723-9.922 4.855-15.59c5.58-5.668 15.348-4.934 15.348-4.934" fill="#38d2de"/><path d="m260.247 327.84c-2.836.083-8.642.731-12.26 4.407-3.617 3.675-4.256 9.569-4.338 12.45 2.836-.084 8.639-.734 12.254-4.407 3.633-3.694 4.267-9.575 4.344-12.45m-17.249 20.572c-.736 0-1.202-.032-1.289-.039l-1.563-.117-.116-1.59c-.031-.44-.714-10.837 5.383-17.033 6.093-6.192 16.334-5.506 16.767-5.47l1.565.118.116 1.59c.03.44.713 10.839-5.385 17.033-4.897 4.976-12.463 5.508-15.478 5.508" fill="#454bd8"/><path d="m237.296 346.53s.723-9.922-4.856-15.59c-5.578-5.667-15.346-4.934-15.346-4.934s-.722 9.923 4.856 15.59c5.58 5.669 15.346 4.935 15.346 4.935" fill="#38d2de"/><path d="m218.898 327.834c.082 2.881.72 8.78 4.34 12.456 3.633 3.69 9.424 4.332 12.256 4.412-.083-2.881-.722-8.78-4.34-12.455-3.637-3.69-9.425-4.333-12.256-4.413m17.246 20.577c-3.014 0-10.58-.532-15.48-5.507-6.099-6.194-5.415-16.594-5.385-17.033l.117-1.59 1.564-.118c.436-.036 10.673-.725 16.767 5.47 6.096 6.196 5.417 16.594 5.385 17.034l-.115 1.59-1.563.116c-.429.028-.86.041-1.29.038" fill="#454bd8"/><path d="m402.422 298.03c0 2.663-2.214 4.822-4.945 4.822h-70.037c-2.732 0-4.946-2.159-4.946-4.822v-34.74c0-2.664 2.214-4.821 4.946-4.821h70.038c2.73 0 4.945 2.157 4.945 4.82v34.741z" fill="#fff"/><path d="m357.327 304.67h-30.76c-3.278 0-5.942-2.596-5.942-5.788v-3.782h3.734v3.782c0 1.185.99 2.15 2.208 2.15h30.76v3.639zm-32.969-23.878h-3.732v-18.354c0-3.192 2.663-5.79 5.94-5.79h44.116v3.64h-44.115c-1.218 0-2.209.965-2.209 2.15zm-3.733 10.648h3.733v-6.278h-3.733z" fill="#454bd8"/><path d="m326.085 287.228h3.734v-10.298h-3.734zm0-15.003h3.734v-3.233h-3.734zm70.093 8.434c0 .342.636.342.636 0 0-.17-.144-.31-.318-.31-.172-.002-.315.138-.318.31zm-3.735 0c0-2.178 1.819-3.949 4.053-3.949s4.052 1.771 4.052 3.949c0 2.179-1.818 3.95-4.052 3.95s-4.053-1.771-4.053-3.95z" fill="#454bd8"/><path d="m332.95 262.907h58.797v35.506h-58.797z" fill="#38d2de"/><path d="m339.499 274.037h-3.734v-8.675h9.51v3.64h-5.775zm49.961 21.232h-9.512v-3.64h5.78v-5.036h3.732z" fill="#454bd8"/><g fill-rule="nonzero"><path d="m348.036 275.816c1.589-1.627 3.18-3.257 4.776-4.879 6.357-.011 12.714-.011 19.071 0 1.608 1.606 3.182 3.249 4.778 4.871-4.771 5.53-9.532 11.066-14.313 16.583-4.775-5.522-9.529-11.058-14.312-16.575zm3.967.705c.743.883 1.5 1.757 2.255 2.628.209.249.422.494.631.74 1.047 1.188 2.069 2.397 3.112 3.589.283.337.535.699.814 1.039l.088.012c1.213 1.421 2.446 2.826 3.661 4.248 1.154-1.386 2.374-2.721 3.513-4.12l.026-.008c1.284-1.515 2.591-3.012 3.89-4.515 1.011-1.218 2.075-2.391 3.113-3.587-.678-.721-1.371-1.431-2.079-2.124-.38-.393-.764-.787-1.156-1.171-.627-.052-1.26-.022-1.887-.013-.472-.023-.947-.009-1.421-.011-.991.032-1.996-.079-2.977.071-.943-.098-1.898-.096-2.843-.013-1.098-.12-2.207-.034-3.31-.056-.742-.002-1.484-.01-2.226.003-1.081 1.083-2.122 2.205-3.204 3.288zm5.945 8.736c.061.078.123.156.186.233l.017.002z" fill="#454bd8"/><g fill="#efcc8d"><path d="m352.003 276.521c1.082-1.083 2.123-2.205 3.204-3.288.742-.013 1.484-.005 2.226-.003-1.294.853-2.591 1.903-3.141 3.406-.318.808-.192 1.687-.034 2.513-.755-.871-1.512-1.745-2.255-2.628z"/><path d="m360.743 273.286c.945-.083 1.9-.085 2.843.013 1.61.447 3.321 1.495 3.53 3.31 1.301.014 2.604.015 3.905 0 .029-.728.002-1.457.006-2.186.708.693 1.401 1.403 2.079 2.124-1.038 1.196-2.102 2.369-3.113 3.587-.476-1.525-2.02-2.306-3.485-2.604-2.384-.61-4.914-.049-7.271-.791-.611-.186-1.356-.681-1.166-1.421.352-1.183 1.587-1.712 2.672-2.032z"/><path d="m366.563 273.228c.474.002.949-.012 1.421.011-.105.363-.199.731-.327 1.086-.35-.38-.693-.77-1.094-1.097z"/><path d="m354.889 279.889c1.932.601 3.975.644 5.972.831 1.753.18 3.531.212 5.254.612.459.086.939.436.966.935-.063.464-.584.629-.964.763-1.221.329-2.499.35-3.757.36-.378-.371-.64-.855-1.069-1.179-.793-.706-2.117-.659-2.892.043-.362.302-.356.797-.398 1.224-1.043-1.192-2.065-2.401-3.112-3.589z"/><path d="m358.903 284.529c.55.032 1.036.341 1.582.408 1.856.337 3.762.096 5.592-.28-1.139 1.399-2.359 2.734-3.513 4.12-1.215-1.422-2.448-2.827-3.661-4.248z"/></g><path d="m357.433 273.23c1.103.022 2.212-.064 3.31.056-1.085.32-2.32.849-2.672 2.032-.19.74.555 1.235 1.166 1.421 2.357.742 4.887.181 7.271.791 1.465.298 3.009 1.079 3.485 2.604-1.299 1.503-2.606 3-3.89 4.515l-.026.008c-1.83.376-3.736.617-5.592.28-.546-.067-1.032-.376-1.582-.408l-.088-.012c-.279-.34-.531-.702-.814-1.039.042-.427.036-.922.398-1.224.775-.702 2.099-.749 2.892-.043.429.324.691.808 1.069 1.179 1.258-.01 2.536-.031 3.757-.36.38-.134.901-.299.964-.763-.027-.499-.507-.849-.966-.935-1.723-.4-3.501-.432-5.254-.612-1.997-.187-4.04-.23-5.972-.831-.209-.246-.422-.491-.631-.74-.158-.826-.284-1.705.034-2.513.55-1.503 1.847-2.553 3.141-3.406z" fill="#454bd8"/><path d="m363.586 273.299c.981-.15 1.986-.039 2.977-.071.401.327.744.717 1.094 1.097.128-.355.222-.723.327-1.086.627-.009 1.26-.039 1.887.013.392.384.776.778 1.156 1.171-.004.729.023 1.458-.006 2.186-1.301.015-2.604.014-3.905 0-.209-1.815-1.92-2.863-3.53-3.31z" fill="#454bd8"/></g><path d="m400.226 323.568-10.522-8.865-14.91-1.162c-.477-.038-.944-.152-1.384-.34l-11.444-4.91s-.85-5.031 4.667-5.3h28.868c1.836.004 3.468-1.209 3.995-2.968 1.22-4.066 3.227-10.997 3.114-12.165-.097-.99-4.408-23.352-4.408-23.352l-7.703-6.383h-11.079c-6.175 0-4.615-7.605-4.615-7.605l17.006-1.582 15.926 12.371 9.534 25.755 6.947 36.506z" fill="#fff"/><path d="m400.897 321.725h21.098l-6.499-34.166-9.3-25.117-14.937-11.604-14.786 1.376c-.031 1.07.102 2.44.765 3.248.166.202.67.818 2.183.818h11.739l8.724 7.227.125.647c.722 3.75 4.329 22.499 4.429 23.521.05.52.168 1.728-3.182 12.877-.748 2.543-3.105 4.297-5.756 4.281h-28.867c-1.069.055-1.885.37-2.34.94-.314.388-.45.877-.502 1.297l10.34 4.437c.255.107.53.174.81.196l15.494 1.207zm25.54 3.686h-26.881l-10.58-8.916-14.323-1.116c-.676-.054-1.338-.217-1.962-.482l-12.368-5.308-.167-.989c-.05-.3-.449-2.994 1.272-5.139.786-.98 2.31-2.174 5.117-2.31l28.955-.002c1.04 0 1.94-.665 2.235-1.655 2.227-7.414 3.03-10.846 3.042-11.53-.108-.82-2.556-13.65-4.254-22.461l-6.683-5.537h-10.42c-2.697 0-4.227-1.185-5.035-2.181-2.288-2.813-1.481-7.153-1.381-7.64l.273-1.336 19.086-1.776 16.916 13.14 9.796 26.543 7.36 38.695z" fill="#454bd8"/><path d="m425.687 319.39v116.762h-11.778l1.716 10.494c.936 5.723 5.869 9.925 11.656 9.925h7.338v-131.707c0-2.889-2.234-5.24-5.057-5.475h-3.875z" fill="#4178da" fill-opacity=".3"/><path d="m386.028 456.57v-131.704c-.002-2.015 1.654-3.675 3.669-3.678h35.146c2.015.003 3.672 1.663 3.67 3.678v131.706" fill="#efcc8d"/><path d="m430.35 456.57h-3.675v-131.704c0-1.01-.822-1.835-1.831-1.835h-35.148c-1.01 0-1.832.824-1.832 1.835v83.572h-3.675v-83.572c0-3.044 2.47-5.52 5.507-5.52h35.148c3.036 0 5.506 2.476 5.506 5.52v131.706z" fill="#454bd8"/><path d="m248.057 496.234h83.337c3.5 0 6.336-2.811 6.336-6.28v-66.23c0-3.469-2.836-6.281-6.336-6.281h-83.337c-3.5 0-6.336 2.812-6.336 6.28v66.23c0 3.47 2.836 6.28 6.336 6.28" fill="#fff"/><path d="m241.72 470.778 33.209-20.095 23.057 13.34 19.684-20.524 20.06 22.49v11.632h-96.01z" fill="#38d2de"/><path d="m241.721 479.46h76.233v-3.674h-76.233zm.966-7.115-1.932-3.136 34.152-20.666 22.746 13.158 20.067-20.92 21.397 23.99-2.774 2.436-18.725-20.99-19.3 20.126-23.368-13.522z" fill="#454bd8"/><path d="m283.132 433.03c0 2.165 1.77 3.918 3.954 3.918 2.183 0 3.954-1.753 3.954-3.918s-1.77-3.919-3.954-3.919-3.954 1.754-3.954 3.92" fill="#38d2de"/><path d="m287.085 430.95c-1.159 0-2.1.932-2.1 2.082 0 1.146.941 2.078 2.1 2.078 1.16 0 2.101-.932 2.101-2.078 0-1.15-.941-2.083-2.101-2.083m0 7.837c-3.203 0-5.808-2.583-5.808-5.754 0-3.176 2.605-5.758 5.808-5.758 3.204 0 5.81 2.582 5.81 5.758 0 3.171-2.606 5.754-5.81 5.754m14.799-7.836h21.907v-3.676h-21.907zm8.609 6.244h21.904v-3.675h-21.904zm-31.618-17.912h41.14v-3.674h-41.14zm51.029 78.788h-80.358c-5.336 0-9.68-4.303-9.68-9.593v-35.911h3.709v35.91c0 3.264 2.679 5.92 5.971 5.92h80.358c3.292 0 5.973-2.656 5.973-5.92h3.707c0 5.291-4.342 9.595-9.68 9.595" fill="#454bd8"/><path d="m339.585 488.478h-1.855v-22.49l1.39-1.219-1.39-1.556v-39.489c0-3.468-2.837-6.28-6.337-6.28h-11.377v-1.84h-.638l-.251 79.074 2.778.012.278.473.803-.467 13.093.068.006-1.188h1.987c.945-1.48 1.513-3.221 1.513-5.098" fill="#4178da" fill-opacity=".298039"/><path d="m271.427 444.691-3.38-18.33c1.997-4.455 3.031-9.283 3.032-14.166 0-19.2-15.533-34.766-34.692-34.766-19.16 0-34.694 15.565-34.694 34.766 0 19.198 15.534 34.764 34.694 34.764 6.765 0 13.057-1.972 18.395-5.327l16.645 3.06z" fill="#4178da"/><path d="m236.386 448.806c-20.145 0-36.535-16.423-36.535-36.613 0-20.187 16.39-36.611 36.535-36.611 5.06 0 9.965 1.02 14.572 3.03l-1.47 3.385c-4.132-1.804-8.594-2.731-13.102-2.722-18.112 0-32.85 14.768-32.85 32.918 0 18.152 14.738 32.921 32.85 32.921 6.146 0 12.17-1.746 17.417-5.046l.607-.381 14.72 2.704-3-16.257.235-.525c1.894-4.219 2.872-8.792 2.87-13.416 0-7.528-2.6-14.885-7.32-20.716l2.86-2.328c5.252 6.488 8.146 14.672 8.146 23.044 0 4.96-.996 9.798-2.958 14.39l3.764 20.411-18.583-3.417c-5.66 3.416-12.147 5.224-18.758 5.229" fill="#454bd8"/><path d="m259.7 389.005c-2.062-2.083-4.393-3.883-6.93-5.35l1.844-3.198c2.82 1.632 5.41 3.632 7.702 5.947l-2.615 2.601z" fill="#454bd8"/><path d="m263.344 412.194c0 14.478-11.992 26.216-26.784 26.216-14.79 0-26.781-11.738-26.781-26.216s11.99-26.215 26.781-26.215c14.792 0 26.784 11.737 26.784 26.215" fill="#fff"/><path d="m237.283 433.575c-4.87 0-9.45-1.902-12.894-5.352-3.43-3.421-5.355-8.076-5.342-12.921h3.687c0 3.894 1.514 7.556 4.261 10.31 2.719 2.741 6.427 4.28 10.288 4.27 3.887 0 7.544-1.517 10.291-4.27 2.737-2.73 4.272-6.444 4.261-10.31h3.687c0 4.88-1.9 9.47-5.341 12.92-3.409 3.436-8.058 5.365-12.898 5.353m-8.556-25.02c-1.65.004-3.235-.653-4.398-1.824-1.171-1.168-1.828-2.756-1.824-4.41h3.686c0 .677.264 1.317.744 1.798.957.96 2.634.955 3.587 0 .477-.476.745-1.124.743-1.798h3.687c.003 1.652-.654 3.239-1.823 4.407-1.164 1.173-2.75 1.831-4.402 1.827m17.115 0c-1.651.004-3.236-.653-4.4-1.824-1.17-1.168-1.828-2.756-1.825-4.41h3.687c0 .677.263 1.317.745 1.8.95.95 2.63.957 3.585-.002.477-.476.745-1.124.743-1.798h3.687c0 1.666-.649 3.23-1.823 4.41-1.163 1.171-2.749 1.828-4.399 1.824" fill="#454bd8"/><path d="m893.007 495.971v-227.724c0-4.855-3.934-8.79-8.786-8.79h-129.866c-4.854 0-8.787 3.936-8.787 8.79v227.724h147.44z" fill="#efcc8d"/><path d="m880.967 495.971v-227.724c0-4.855-3.336-8.79-7.45-8.79h-110.107c-4.115 0-7.451 3.936-7.451 8.79v227.724z" fill="#fff"/><path d="m745.568 282.243v-15.393c0-.001 0-.002 0-.003 0-4.053 3.335-7.389 7.388-7.39h132.664c4.053.001 7.388 3.337 7.388 7.39v.003 15.393z" fill="#efcc8d"/><path d="m747.418 428.25h-3.701v-161.4c0-5.097 4.144-9.243 9.238-9.243h19.58v3.703h-19.58c-3.037.004-5.534 2.503-5.537 5.54zm147.441 2.468h-3.702v-163.868c-.003-3.037-2.501-5.535-5.538-5.539h-87.47v-3.703h87.47c5.095 0 9.24 4.146 9.24 9.242v163.87zm-115.176-169.408h10.129v-3.703h-10.129z" fill="#454bd8"/><path d="m745.567 284.496h147.44v-3.703h-147.44zm16.933-10.543h3.431v-3.702h-3.431zm9.954 0h3.435v-3.702h-3.435zm9.957 0h3.432v-3.702h-3.432z" fill="#454bd8"/><path d="m765.318 342.248h107.938v-42.59h-107.938zm.013 69.633h32.817v-42.588h-32.817z" fill="#4178da"/><path d="m802.89 411.881h32.818v-42.588h-32.817z" fill="#f2f2f2"/><path d="m840.449 411.881h32.817v-42.588h-32.816z" fill="#38d2de"/><path d="m796.351 353.872h45.895v3.703h-45.895z" fill="#454bd8"/><path d="m788.955 387.817c.356-2.381-1.457-3.661-3.936-4.515l.804-3.225-1.963-.49-.783 3.141c-.517-.129-1.047-.25-1.574-.37l.788-3.162-1.962-.489-.805 3.225c-.427-.098-.846-.193-1.253-.295l.001-.01-2.707-.676-.523 2.097s1.457.334 1.426.355c.796.198.939.724.915 1.141l-.916 3.675c.055.014.126.034.204.066-.065-.017-.135-.034-.207-.052l-1.284 5.147c-.097.242-.344.605-.9.467.02.028-1.428-.356-1.428-.356l-.974 2.247 2.555.637c.475.119.942.243 1.4.361l-.812 3.262 1.961.49.805-3.228c.536.145 1.056.28 1.565.406l-.802 3.213 1.964.489.812-3.256c3.349.633 5.867.377 6.926-2.65.854-2.439-.042-3.845-1.804-4.762 1.283-.296 2.249-1.14 2.507-2.883zm-4.485 6.291c-.608 2.438-4.713 1.12-6.044.789l1.078-4.322c1.331.332 5.599.99 4.966 3.533zm.606-6.326c-.553 2.218-3.97 1.091-5.079.815l.977-3.92c1.109.276 4.679.792 4.102 3.105z" fill="#fff" fill-rule="nonzero"/><path d="m699.669 429.356h-251.069v-135.834c0-6.991 5.701-12.66 12.732-12.66h225.607c7.03 0 12.73 5.669 12.73 12.66z" fill="#38d2de"/><path d="m450.46 382.098h-3.717v-89.166c0-7.675 6.28-13.918 13.999-13.918h13.55v3.695h-13.55c-5.67 0-10.282 4.586-10.282 10.223zm251.067-16.801h-3.717v-72.365c0-5.637-4.611-10.223-10.278-10.223h-17.32v-3.695h17.32c7.716 0 13.995 6.242 13.995 13.918z" fill="#454bd8"/><path d="m462.225 295.383h224.1v117.285h-224.1z" fill="#fff"/><path d="m536.314 496.385h75.641v-44.524h-75.64z" fill="#f2f2f2"/><path d="m536.314 474.124h75.641v-22.263h-75.64z" fill="#4178da"/><path d="m538.173 494.537h71.925v-40.827h-71.925v40.828zm-3.717 3.697h79.359v-48.22h-79.359z" fill="#454bd8"/><path d="m699.669 423.903h-251.069v28.787c0 2.72 2.22 4.927 4.955 4.927h241.16c2.736 0 4.954-2.206 4.954-4.927z" fill="#fff"/><path d="m495.678 459.466h159.393v-3.696h-159.393zm.002-33.716h159.388v-3.695h-159.388zm25.926 73.316h106.042v-3.694h-106.042z" fill="#454bd8"/><path d="m667.953 252.908h-186.524l7.412 158.54h171.699z" fill="#4178da" fill-opacity=".3"/><path d="m659.226 411.448v-185.643c0-5.596-4.513-10.132-10.078-10.132h-148.94c-5.565 0-10.077 4.537-10.077 10.132v185.643z" fill="#f2f2f2"/><path d="m490.13 249.112v-24.989c0-4.667 3.796-8.45 8.476-8.45h152.146c4.68 0 8.474 3.783 8.474 8.45v24.989z" fill="#f2f2f2"/><path d="m491.983 411.448h-3.705v-187.325c0-5.679 4.632-10.299 10.326-10.299h22.455v3.697h-22.455c-3.65 0-6.62 2.96-6.62 6.602v187.325zm169.095 0h-3.706v-187.325c0-3.641-2.97-6.602-6.62-6.602h-100.316v-3.697h100.316c5.694 0 10.326 4.62 10.326 10.299zm-131.818-193.928h11.614v-3.695h-11.614z" fill="#454bd8"/><path d="m490.13 251.416h169.095v-3.695h-169.095zm12.008-21.902h4.297v-3.695h-4.297zm10.722 0h4.295v-3.695h-4.295zm10.722 0h4.295v-3.695h-4.295z" fill="#454bd8"/><path d="m495.216 411.448h158.434v-149.82h-158.434zm48.714-171.128h89.857v-6.13h-89.857zm-25.29 0h20.346v-6.13h-20.346zm-16.502 0h12.869v-6.13h-12.87z" fill="#fff"/><path d="m505.596 271.598h47.791v64.14h-47.791z" fill="#4178da"/><path d="m564.96 271.599h79.23v94.785h-79.23z" fill="#f2f2f2"/><path d="m564.96 397.508h79.23v-15.562h-79.23zm-39.447-42.441h-16.715c-.001 0-.003 0-.004 0-1.294 0-2.359-1.064-2.361-2.358.002-1.294 1.067-2.358 2.361-2.358h.004 16.715.004c1.294 0 2.359 1.064 2.361 2.358-.002 1.294-1.067 2.358-2.361 2.358-.001 0-.003 0-.004 0" fill="#4178da"/><path d="m549.232 355.067h-16.715c-.001 0-.003 0-.004 0-1.294 0-2.359-1.064-2.36-2.358.001-1.294 1.066-2.358 2.36-2.358h.004 16.715.004c1.294 0 2.359 1.064 2.36 2.358-.001 1.294-1.066 2.358-2.36 2.358-.001 0-.003 0-.004 0" fill="#38d2de"/><g fill-rule="nonzero"><path d="m600.845 282.602c1.138-2.949 5.694-3.249 7.213-.477 1.329 1.996.28 4.462-1.416 5.844-.021 1.499-.021 2.997-.021 4.496 5.599.504 10.953 2.745 15.285 6.327 1.028-1.028 2.056-2.057 3.065-3.112-.123-2.105.681-4.55 2.956-5.116 2.949-1.035 6.109 2.119 5.081 5.068-.559 2.268-2.99 3.085-5.088 2.97-1.063 1.008-2.098 2.036-3.133 3.071 3.569 4.339 5.803 9.686 6.314 15.278 1.498 0 2.997 0 4.495-.021 1.301-1.518 3.406-2.649 5.374-1.668 2.97 1.151 3.235 5.755.422 7.24-1.995 1.287-4.427.232-5.796-1.444-1.498-.02-2.997-.02-4.495-.02-.518 5.585-2.745 10.938-6.321 15.263 1.035 1.043 2.077 2.078 3.14 3.086 2.098-.13 4.536.701 5.088 2.97 1.035 2.969-2.187 6.136-5.136 5.047-2.234-.593-3.024-3.011-2.895-5.088-1.008-1.063-2.043-2.098-3.078-3.133-4.325 3.589-9.686 5.823-15.278 6.334 0 1.498 0 2.997.021 4.495 1.519 1.308 2.649 3.42 1.655 5.388-1.158 2.949-5.735 3.222-7.227.422-1.294-1.995-.245-4.441 1.444-5.81.021-1.498.021-3.003.021-4.495-5.592-.511-10.939-2.752-15.271-6.314-1.035 1.028-2.071 2.064-3.072 3.126.034 1.914-.484 4.141-2.472 4.911-2.779 1.41-6.328-1.308-5.695-4.366.286-2.527 2.929-3.698 5.218-3.48 1.062-1.002 2.104-2.03 3.14-3.065-3.583-4.332-5.817-9.693-6.335-15.291-1.498 0-2.997 0-4.495.02-1.301 1.512-3.399 2.65-5.367 1.669-2.97-1.145-3.242-5.742-.443-7.241 1.996-1.3 4.441-.238 5.817 1.444 1.498.021 2.99.021 4.488.021.511-5.599 2.752-10.959 6.328-15.298-1.035-1.029-2.071-2.057-3.133-3.058-2.091.129-4.523-.688-5.095-2.943-1.042-2.949 2.111-6.123 5.068-5.094 2.261.558 3.092 2.99 2.962 5.087 1.008 1.063 2.037 2.098 3.072 3.134 4.332-3.569 9.693-5.797 15.285-6.308 0-1.498 0-2.996-.021-4.495-1.519-1.301-2.643-3.405-1.669-5.374m2.691-.088c-1.294.694-1.294 2.806.013 3.487 1.267.824 3.127-.232 3.059-1.751.061-1.519-1.805-2.561-3.072-1.736m-24.555 10.23c-2.254 1.28-.04 4.931 2.139 3.46 2.282-1.267.055-4.945-2.139-3.46m49.048-.007c-2.268 1.274-.055 4.945 2.132 3.467 2.275-1.267.061-4.931-2.132-3.467m-27.933 2.159c-6.593 1.192-12.58 5.258-16.17 10.912-6.089 9.174-4.788 22.368 2.997 30.16 7.697 8.323 21.353 9.964 30.794 3.691 9.488-5.816 13.881-18.492 9.93-28.92-3.739-11.054-16.088-18.22-27.551-15.843m-31.324 22.361c-2.269 1.274-.048 4.959 2.131 3.46 2.275-1.266.055-4.931-2.131-3.46m69.474.007c-2.275 1.281-.028 4.959 2.152 3.44 2.248-1.281.02-4.911-2.152-3.44m-59.244 24.507c-2.295 1.273-.055 4.972 2.139 3.453 2.24-1.267.04-4.897-2.139-3.453m49.006.02c-2.234 1.288-.027 4.918 2.146 3.447 2.295-1.254.048-4.952-2.146-3.447m-24.493 10.21c-2.288 1.267-.034 4.966 2.146 3.44 2.248-1.274.034-4.904-2.146-3.44z" fill="#4178da"/><path d="m602.01 298.731c10.237-1.539 20.699 5.987 22.565 16.156 2.248 9.795-3.991 20.474-13.54 23.471-6.845 2.364-14.869.668-20.175-4.257-5.469-4.856-7.921-12.777-6.137-19.875 1.832-8.084 9.052-14.562 17.287-15.495m-8.943 5.851c2.445 2.459 4.89 4.911 7.356 7.342.702-.286 1.41-.579 2.112-.865-.007-3.467.013-6.934-.021-10.4-3.419.504-6.675 1.845-9.447 3.923m13.575-3.923c-.034 3.473-.014 6.954-.021 10.427.545.198 1.628.607 2.173.804 2.438-2.425 4.877-4.856 7.302-7.295-2.773-2.091-6.028-3.426-9.454-3.936m-20.407 16.271c3.474.034 6.948.014 10.421.014.212-.531.641-1.601.852-2.132-2.439-2.459-4.884-4.904-7.336-7.335-2.091 2.765-3.419 6.027-3.937 9.453m25.413-2.097c.218.531.64 1.587.851 2.118 3.474-.007 6.941.013 10.408-.021-.511-3.419-1.839-6.668-3.917-9.44-2.459 2.439-4.904 4.884-7.342 7.343m-8.262-1.839c-2.575.47-4.679 2.772-4.891 5.38-.422 3.256 2.228 6.471 5.49 6.703 3.467.442 6.832-2.623 6.702-6.117.109-3.705-3.691-6.811-7.301-5.966m-17.151 8.064c.525 3.426 1.846 6.682 3.944 9.454 2.452-2.438 4.897-4.884 7.329-7.336-.211-.538-.634-1.6-.852-2.132-3.473 0-6.947-.027-10.421.014m26.257-.014c-.211.525-.633 1.581-.844 2.112 2.431 2.452 4.883 4.897 7.336 7.335 2.084-2.765 3.412-6.014 3.93-9.433-3.474-.041-6.948-.014-10.422-.014m-19.418 12.363c2.772 2.07 6.021 3.412 9.44 3.916.034-3.467.014-6.934.021-10.401-.702-.286-1.41-.572-2.112-.858-2.459 2.432-4.911 4.884-7.349 7.343m13.547-6.491c.007 3.466-.013 6.94.021 10.414 3.426-.518 6.681-1.853 9.447-3.944-2.432-2.445-4.87-4.883-7.315-7.315-.722.279-1.438.565-2.153.845z" fill="#4178da"/><g fill="#efcc8d"><path d="m603.536 282.514c1.267-.825 3.133.217 3.072 1.736.068 1.519-1.792 2.575-3.059 1.751-1.307-.681-1.307-2.793-.013-3.487z"/><path d="m578.981 292.744c2.194-1.485 4.421 2.193 2.139 3.46-2.179 1.471-4.393-2.18-2.139-3.46z"/><path d="m628.029 292.737c2.193-1.464 4.407 2.2 2.132 3.467-2.187 1.478-4.4-2.193-2.132-3.467z"/><path d="m600.096 294.896c11.463-2.377 23.812 4.789 27.551 15.843 3.951 10.428-.442 23.104-9.93 28.92-9.441 6.273-23.097 4.632-30.794-3.691-7.785-7.792-9.086-20.986-2.997-30.16 3.59-5.654 9.577-9.72 16.17-10.912m1.914 3.835c-8.235.933-15.455 7.411-17.287 15.495-1.784 7.098.668 15.019 6.137 19.875 5.306 4.925 13.33 6.621 20.175 4.257 9.549-2.997 15.788-13.676 13.54-23.471-1.866-10.169-12.328-17.695-22.565-16.156z"/><path d="m603.386 312.994c3.61-.845 7.41 2.261 7.301 5.966.13 3.494-3.235 6.559-6.702 6.117-3.262-.232-5.912-3.447-5.49-6.703.212-2.608 2.316-4.91 4.891-5.38z"/><path d="m568.772 317.257c2.186-1.471 4.406 2.194 2.131 3.46-2.179 1.499-4.4-2.186-2.131-3.46z"/><path d="m638.246 317.264c2.172-1.471 4.4 2.159 2.152 3.44-2.18 1.519-4.427-2.159-2.152-3.44z"/><path d="m579.002 341.771c2.179-1.444 4.379 2.186 2.139 3.453-2.194 1.519-4.434-2.18-2.139-3.453z"/><path d="m628.008 341.791c2.194-1.505 4.441 2.193 2.146 3.447-2.173 1.471-4.38-2.159-2.146-3.447z"/><path d="m603.515 352.001c2.18-1.464 4.394 2.166 2.146 3.44-2.18 1.526-4.434-2.173-2.146-3.44z"/></g></g><path d="m800.18 497.084v-29.707h-1.856v-6.598c5.04 2.323 10.505 3.556 16.068 3.556 21.29 0 38.608-17.345 38.608-38.668 0-21.322-17.319-38.667-38.608-38.667-5.3-.011-10.544 1.078-15.401 3.198l.748 1.719c-1.256.554-2.479 1.178-3.665 1.87l-.945-1.637c-2.98 1.722-5.717 3.832-8.14 6.277l1.32 1.314c-.869.881-1.693 1.805-2.47 2.768l-1.45-1.18c-5.552 6.853-8.61 15.496-8.61 24.338 0 4.154.688 8.217 1.995 12.139h-8.66v-1.858h-44.114v64.052h73.988c.763-.778 1.191-1.826 1.192-2.916" fill="#4178da" fill-opacity=".298039"/><path d="m796.363 497.216h-87.118c-.946-.001-1.724-.779-1.724-1.725v-.001-57.82c0-.954.771-1.726 1.724-1.726h87.118c.952 0 1.724.772 1.724 1.725v57.82c0 .954-.772 1.727-1.724 1.727" fill="#fff"/><path d="m724.595 437.793h44.433v-3.698h-44.433zm71.189 61.272h-85.962c-2.277-.005-4.147-1.879-4.147-4.156h3.694c0 .254.203.459.453.459h85.962c.251-.001.457-.207.457-.458v-.001-29.547h3.693v29.547c-.001 2.277-1.873 4.152-4.15 4.156" fill="#454bd8"/><path d="m760.722 461.343-14.404 8.329c-.207.12-.442.182-.681.182-.747 0-1.362-.614-1.362-1.362v-16.658c0-.748.615-1.362 1.362-1.362.239 0 .474.062.681.182l14.404 8.328c.421.244.681.694.681 1.18 0 .487-.26.937-.681 1.181" fill="#38d2de"/><path d="m746.121 452.675v14.977l12.953-7.488-12.953-7.49zm-.485 19.033c-.55 0-1.101-.145-1.604-.435-.997-.569-1.611-1.634-1.604-2.782v-16.657c0-1.16.6-2.2 1.604-2.78.989-.582 2.221-.582 3.21 0l14.404 8.325c.997.568 1.611 1.634 1.604 2.781.008 1.148-.606 2.215-1.604 2.784l-14.404 8.329c-.488.284-1.042.434-1.606.435zm-28.012 16.152h69.44v-3.698h-69.44z" fill="#454bd8"/><path d="m731.306 480.48h3.693v11.062h-3.693z" fill="#454bd8"/><path d="m771.777 460.124 3.58-19.411c-2.115-4.719-3.209-9.832-3.21-15.003 0-20.331 16.448-36.815 36.737-36.815 20.29 0 36.738 16.484 36.738 36.815 0 20.332-16.448 36.815-36.738 36.815-7.165 0-13.827-2.087-19.48-5.642z" fill="#4178da"/><path d="m808.885 464.384c-6.996-.005-13.86-1.922-19.846-5.544l-19.578 3.6 3.966-21.505c-2.071-4.808-3.138-9.989-3.135-15.224 0-8.84 3.054-17.485 8.601-24.344l2.884 2.344c-5.024 6.23-7.768 13.996-7.774 22 0 4.92 1.024 9.71 3.047 14.245l.237.527-3.196 17.325 15.688-2.884.61.384c5.574 3.507 11.969 5.359 18.496 5.359 19.235 0 34.881-15.68 34.881-34.956 0-19.274-15.646-34.957-34.88-34.957-4.835 0-9.517.974-13.911 2.891l-1.484-3.408c4.854-2.121 10.097-3.211 15.394-3.2 21.28 0 38.593 17.35 38.593 38.674 0 21.326-17.312 38.673-38.593 38.673" fill="#454bd8"/><path d="m784.128 401.086-2.634-2.62c2.421-2.446 5.157-4.558 8.137-6.279l1.855 3.22c-2.694 1.558-5.168 3.468-7.358 5.68" fill="#454bd8"/><path d="m780.338 425.71c0 15.333 12.698 27.763 28.361 27.763 15.664 0 28.362-12.43 28.362-27.763 0-15.332-12.698-27.76-28.362-27.76-15.663 0-28.36 12.428-28.36 27.76" fill="#f2f2f2"/><path d="m868.232 245.883v40.134.008c0 2.19 1.8 3.993 3.99 3.997h2.178v23.583c0 .843 1.047 1.224 1.586.579l20.163-24.162h56.386c2.19-.004 3.99-1.807 3.99-3.997 0-.003 0-.005 0-.008v-40.134c0-.003 0-.005 0-.008 0-2.19-1.8-3.994-3.99-3.998h-80.312c-2.191.004-3.991 1.807-3.991 3.998z" fill="#fff"/><path d="m872.222 243.742c-1.172.004-2.133.97-2.132 2.142v40.133c-.001 1.172.96 2.138 2.132 2.142h4.035v22.797l19.024-22.797h57.255c1.172-.003 2.135-.97 2.134-2.142v-40.133c.001-1.172-.962-2.139-2.134-2.142zm3.086 72.632c-.316 0-.638-.056-.952-.17-1.093-.391-1.823-1.437-1.813-2.598v-21.72h-.321c-3.222 0-5.845-2.633-5.845-5.869v-40.133c0-3.237 2.623-5.869 5.845-5.869h80.314c3.224 0 5.847 2.632 5.847 5.869v40.133c0 3.236-2.623 5.87-5.847 5.87h-55.519l-19.608 23.492c-.516.628-1.287.994-2.1.995z" fill="#454bd8"/><path d="m887.935 256.764h48.891v-3.727h-48.89zm0 10.594h48.891v-3.726h-48.89zm0 10.595h26.442v-3.726h-26.442z" fill="#454bd8"/><path d="m652.549 457.646c2.747 0 4.974-2.204 4.974-4.923v-84.576h-35.398c-5.01 0-9.088 4.036-9.088 8.997v80.502zm76.741 32.422v-55.88h-1.8v1.847h-15.507c-.963 0-1.742.77-1.742 1.723v57.16h-1.864c0 2.289 1.88 4.15 4.19 4.15h7.634c5.011 0 9.09-4.037 9.09-9" fill="#4178da" fill-opacity=".298039"/><path d="m717.508 497.22h-92.69c-2.73 0-4.942-2.19-4.942-4.892v-117.443c0-2.702 2.212-4.892 4.942-4.892h92.69c2.73 0 4.942 2.19 4.942 4.892v117.443c0 2.701-2.212 4.892-4.942 4.892" fill="#fff"/><path d="m715.227 499.066h-88.125c-5.014 0-9.093-4.036-9.093-8.996v-112.927c0-4.96 4.08-8.998 9.093-8.998h61.598v3.694h-61.6c-2.957 0-5.36 2.38-5.36 5.304v112.927c0 2.924 2.403 5.304 5.36 5.304h88.126c2.954 0 5.359-2.38 5.359-5.304v-112.927c0-2.924-2.405-5.304-5.36-5.304h-9.484v-3.694h9.485c5.01 0 9.09 4.039 9.09 8.998v112.927c0 4.96-4.08 8.996-9.09 8.996" fill="#454bd8"/><path d="m693.833 371.838h8.936v-3.693h-8.936zm-34.623 9.587h23.904v-3.693h-23.904zm11.954 103.4c-1.11 0-2.012.892-2.012 1.99s.902 1.993 2.012 1.993 2.011-.895 2.011-1.994c0-1.097-.901-1.989-2.011-1.989m0 7.676c-3.168 0-5.742-2.551-5.742-5.687 0-3.132 2.574-5.68 5.742-5.68s5.742 2.548 5.742 5.68c0 3.136-2.574 5.687-5.742 5.687" fill="#454bd8"/><path d="m627.953 388.353h86.422v90.123h-86.422z" fill="#f2f2f2"/><path d="m523.57 399.226c0-4.035-3.296-7.319-7.346-7.319h-29.661v69.442c.004 2.176 1.798 3.964 3.975 3.96h33.031v-66.083zm-76.482 93.961v-95.233c.003-2.174 1.793-3.961 3.968-3.961h.007 8.034v103.155h-8.034c-2.177.004-3.971-1.784-3.975-3.96" fill="#4178da" fill-opacity=".298039"/><path d="m514.038 497.148h-57.533c-.003 0-.005 0-.007 0-2.161 0-3.94-1.776-3.943-3.936v-95.883c.003-2.161 1.782-3.937 3.943-3.937h.007 57.533c2.163-.003 3.946 1.774 3.95 3.937v95.883c-.005 2.163-1.788 3.939-3.95 3.936" fill="#fff"/><path d="m512.134 499h-53.728c-4.25 0-7.71-3.448-7.71-7.685v-92.09c0-4.237 3.46-7.685 7.71-7.685h3.59v3.703h-3.59c-2.187-.001-3.987 1.795-3.993 3.981v92.091c.005 2.187 1.806 3.983 3.993 3.982h53.728c2.204 0 3.996-1.787 3.996-3.982v-92.09c0-2.195-1.792-3.982-3.996-3.982h-37v-3.703h37c4.252 0 7.713 3.448 7.713 7.684v92.091c0 4.237-3.461 7.685-7.713 7.685" fill="#454bd8"/><path d="m465.406 395.244h7.265v-3.704h-7.265zm10.179 7.817h19.37v-3.704h-19.37zm9.687 84.324c-.707 0-1.283.574-1.283 1.279 0 .704.579 1.283 1.283 1.283.703 0 1.283-.579 1.283-1.283 0-.705-.577-1.28-1.283-1.28m0 6.26c-2.756 0-5-2.234-5-4.98 0-2.747 2.244-4.982 5-4.982s5 2.235 5 4.982c0 2.746-2.244 4.98-5 4.98" fill="#454bd8"/><path d="m459.098 408.366h52.346v73.496h-52.346z" fill="#f2f2f2"/><path d="m487.43 472.24h-1.97c-1.801.001-3.284-1.477-3.29-3.277h3.719c0-.001 0-.003 0-.004 0-.232-.191-.423-.423-.423-.002 0-.004 0-.005 0h1.969c-.002 0-.003 0-.004 0-.232 0-.423.191-.423.423v.004h3.716c-.006 1.8-1.49 3.278-3.29 3.277" fill="#454bd8"/><path d="m492.922 469.036h-13.239l-3.024-5.715v-15.279c-5.019-3.307-8.094-8.942-8.094-14.958 0-4.224 1.504-8.327 4.23-11.55l2.842 2.387c-2.165 2.562-3.353 5.809-3.353 9.163 0 5.058 2.744 9.782 7.163 12.324l.929.535v16.46l1.549 2.929h8.939l1.884-2.999v-16.39l.928-.535c4.42-2.544 7.166-7.266 7.166-12.324 0-7.847-6.405-14.23-14.28-14.23-1.855 0-3.66.35-5.36 1.04l-1.399-3.434c2.147-.868 4.442-1.313 6.758-1.309 9.925 0 17.999 8.044 17.999 17.933 0 6.016-3.076 11.651-8.096 14.958v15.35l-3.542 5.643z" fill="#454bd8"/><path d="m477.143 422.386-2.643-2.605c1.107-1.115 1.703-1.454 2.791-2.074l.3-.171 1.854 3.212-.31.175c-.98.56-1.244.71-1.992 1.462m-1.051 30.253h20.94v-3.705h-20.94zm0 4.837h20.94v-3.705h-20.94zm0 4.836h20.94v-3.703h-20.94z" fill="#454bd8"/><path d="m191.47 440.118c0 5.334-4.424 9.66-9.883 9.66-5.46 0-9.884-4.326-9.884-9.66s4.425-9.66 9.884-9.66 9.883 4.326 9.883 9.66" fill="#38d2de"/><path d="m212.103 469.175h-1.825c2.538 0 4.616-2.029 4.616-4.51 0-2.483-2.078-4.514-4.616-4.514h-28.691s3.808-9.37 3.806-13.803c-.001-2.028.474-6.125-.804-8.078-.513-.782-4.206-.8-4.725-.024 0 0-3.506 10.628-5.828 13.733-1.318 1.764-6.377 8.172-6.377 8.172h-7.84l-4.111 29.115h10.04c1.002 0 1.961.394 2.66 1.094l4.597 4.59c.838.833 1.973 1.3 3.155 1.298h26.254c2.538 0 4.615-2.031 4.615-4.512 0-2.482-2.077-4.512-4.615-4.512h4.844c2.538 0 4.616-2.031 4.616-4.512 0-2.483-2.078-4.513-4.616-4.513h4.845c2.538 0 4.615-2.03 4.615-4.512s-2.077-4.512-4.615-4.512" fill="#fff"/><path d="m181.587 456.431h1.388c1.087-3.116 2.42-7.46 2.418-10.083 0-1.2.158-3.12.028-4.894-.014.43-.028.837-.028 1.174.003 4.433-3.806 13.803-3.806 13.803" fill="#f1f2f2"/><path d="m202.413 491.207h-26.253c-1.187 0-2.325-.633-3.154-1.756l-4.597-6.22c-.7-.947-1.659-1.48-2.661-1.48h-9.515l-.525 7.416h10.04c1.002 0 1.96.535 2.661 1.483l4.597 3.84c.83 1.125 1.967 1.757 3.154 1.757h26.253c2.539 0 4.617-2.75 4.617-6.111 0-.9-.158-1.749-.425-2.52-.73 2.11-2.333 3.591-4.192 3.591" fill="#f2f2f2"/><path d="m211.634 480.027h-7.884v-3.657h7.884c1.513 0 2.746-1.204 2.746-2.683 0-1.478-1.233-2.683-2.746-2.683h-7.884v-3.657h7.884c3.576 0 6.487 2.845 6.487 6.34s-2.91 6.34-6.487 6.34" fill="#454bd8"/><path d="m206.789 489.053h-11.137v-3.656h11.137c1.513 0 2.746-1.206 2.746-2.684 0-1.481-1.233-2.686-2.746-2.686h-11.137v-3.657h11.137c3.576 0 6.487 2.845 6.487 6.343 0 3.496-2.91 6.34-6.487 6.34" fill="#454bd8"/><path d="m201.944 498.076h-26.251c-1.682-.001-3.297-.665-4.493-1.847l-4.597-4.59c-.352-.349-.828-.545-1.324-.546h-10.039v-3.657h10.038c1.493 0 2.953.6 3.999 1.646l4.596 4.589c.484.479 1.138.749 1.819.749h26.251c1.513 0 2.746-1.206 2.746-2.684s-1.233-2.684-2.746-2.684h-4.35v-3.655h4.35c3.577 0 6.486 2.844 6.486 6.34 0 3.495-2.91 6.339-6.486 6.339m7.867-27.072h-14.158v-3.658h14.158c1.513 0 2.745-1.203 2.745-2.682 0-1.478-1.232-2.684-2.745-2.684h-31.446l1.016-2.502c1.023-2.518 3.676-9.784 3.674-13.13 0-.41.017-.898.038-1.433.059-1.557.151-4.074-.377-5.333-.467-.093-1.264-.104-1.787-.033-.892 2.625-3.708 10.646-5.85 13.509-1.322 1.77-6.406 8.211-6.406 8.211l-.563.711h-8.76v-3.656h6.922c1.348-1.711 4.745-6.029 5.786-7.424 1.759-2.351 4.608-10.337 5.558-13.216l.213-.438c.62-.928 1.928-1.399 3.88-1.399h.057c1.988.01 3.313.491 3.931 1.438 1.35 2.059 1.226 5.356 1.136 7.764-.02.488-.037.93-.037 1.3.003 3.275-1.812 8.775-2.981 11.975h25.996c3.575 0 6.486 2.844 6.486 6.34 0 3.494-2.91 6.34-6.486 6.34z" fill="#454bd8"/><path d="m137.53 455.252h25.678v38.39h-25.678z" fill="#38d2de"/><path d="m137.53 457.08h5.047v-3.655h-5.047zm21.844 38.392h-21.844v-3.657h21.844c1.082 0 1.964-.862 1.964-1.92v-30.897c0-1.057-.882-1.917-1.964-1.917h-5.635v-3.657h5.635c3.145 0 5.704 2.5 5.704 5.574v30.898c0 3.073-2.56 5.576-5.704 5.576m-15.236-38.392h5.751v-3.655h-5.751zm35.579-31.74h3.74v-2.92h-3.74zm8.811 1.52-3.518-1.252 2.045-5.482 3.518 1.253zm4.25 3.099-2.913-2.296 1.838-2.232 2.914 2.294zm2.85 4.383-1.867-3.171 5.179-2.91 1.867 3.172zm1.176 5.052-.643-3.602 2.923-.503.643 3.603zm5.211 6.171-5.878-1.03.663-3.6 5.877 1.03zm-5.878 4.957-2.428-1.385 1.885-3.158 2.428 1.385zm-2.509 6.618-3.817-4.487 2.88-2.338 3.816 4.487zm-26.961-6.835-1.666-3.276 2.599-1.265 1.667 3.277zm-5.573-4.983-.618-3.603 5.89-.966.618 3.605zm5.42-6.09-2.938-.324.42-3.632 2.936.322zm1.103-5.059-5.143-2.97 1.905-3.147 5.143 2.97zm2.97-4.273-1.896-2.12 2.816-2.404 1.895 2.118zm4.226-3.122-1.978-5.507 3.532-1.21 1.979 5.507z" fill="#454bd8"/><path d="m445.447 479.525-48.545-15.13c-1.176-.36-1.985-1.453-1.985-2.683 0-.286.044-.571.13-.844l15.298-47.998c.473-1.479 2.07-2.302 3.568-1.834l48.543 15.127c1.178.36 1.988 1.454 1.988 2.685 0 .286-.044.57-.129.843l-15.303 47.996c-.471 1.482-2.069 2.304-3.566 1.838" fill="#fff"/><path d="m443.858 468.512-40.324-12.566 11.968-37.543 40.324 12.569z" fill="#38d2de"/><g fill-rule="nonzero"><path d="m434.054 427.096c1.884.663 3.532 1.85 5.434 2.463.948.324 1.936.498 2.915.688-1.012.359-2.066.668-3.149.598-1.755-.038-3.322-.948-5.016-1.268-.1.071-.298.219-.394.291 2.818 1.093 5.658 2.125 8.492 3.173.502 2.954-.379 5.927-1.375 8.682-1.035 2.643-2.295 5.367-4.537 7.208-2.79-1.057-5.59-2.086-8.385-3.129-.07.205-.212.612-.282.818.37.41.698.859.964 1.344.853.505 1.743-.302 2.622.028.763.173 1.206.848 1.549 1.493.254.094.509.192.762.286 1.187-.658 2.628-.186 3.327.943.983-.103 1.996-.389 2.681-1.146.939-.88 1.112-2.198 1.565-3.339.491-1.199 2.134-1.66 3.194-.932.755.433 1.028 1.32 1.089 2.136l-.283.76c-.637 1.022-2.363.693-2.487-.526-.176-.906.534-1.639 1.394-1.666.136-.004-.315-.243-.857-.21-.412.025-.897.264-1.092.547-1.006 1.478-.173 3.236-.129 4.847.24 2.585-.41 5.406-2.521 7.09.203.11.609.331.813.442-.076.212-.229.64-.308.852-1-.483-1.849-1.217-2.816-1.754-1.509-.648-3.232-.293-4.76-.874-1.436-.538-2.476-1.756-3.876-2.356-1.452-.467-3.041-.218-4.481-.754-1.433-.536-2.474-1.754-3.873-2.354-1.456-.469-3.046-.217-4.487-.757-1.529-.562-2.604-1.942-4.16-2.445-1.086-.233-2.21-.229-3.289-.516.084-.217.256-.647.343-.862.214.054.646.164.863.22-.1-1.122-.153-2.289.287-3.353.941-2.42 2.884-4.3 4.981-5.761.202.078.612.237.815.315-.29.999-.589 2.077-.23 3.098.231.869.927 1.477 1.575 2.045 1.329-.537 2.969-.037 3.435 1.401.851.485 1.74-.303 2.615.019 1.093.182 1.243 1.569 2.29 1.806.524-.198 1.069-.318 1.623-.391.08-.199.238-.6.32-.801-3.335-1.237-6.662-2.485-10-3.714 2.457-2.053 3.763-5.103 4.833-8.039.841-2.506 1.531-5.188 1.08-7.845 3.327 1.251 6.658 2.48 9.987 3.722.311-.842.626-1.682.939-2.523m-9.869.152c.014 2.529-.629 5.006-1.494 7.364-.902 2.451-2.059 4.854-3.792 6.835.787.296 1.575.589 2.361.888.848.312 1.697.622 2.545.931.822.315 1.642.624 2.465.933.849.309 1.696.624 2.545.931.821.315 1.645.625 2.468.934.85.313 1.704.628 2.56.934.774.288 1.526.637 2.326.846.381-.036.563-.466.827-.697 1.652-1.995 2.694-4.413 3.531-6.841.667-2.082 1.235-4.273 1.026-6.472-.688-.545-1.637-.67-2.437-1.018-.848-.328-1.696-.647-2.547-.967-.823-.303-1.645-.606-2.47-.903-.846-.324-1.692-.642-2.537-.96-.826-.304-1.648-.607-2.47-.903-.849-.325-1.697-.644-2.546-.963-.787-.287-1.574-.583-2.361-.872m-12.409 14.767c-1.161 1.441-1.74 3.331-1.335 5.165 1.834.029 3.246 1.227 4.667 2.225 1.599 1.137 3.665.647 5.44 1.235 1.404.589 2.445 1.797 3.86 2.365 1.448.497 3.028.264 4.478.737 1.752.728 3.015 2.488 5.012 2.635 1.698.156 3.504.201 4.89 1.341 2.525-1.86 2.738-5.338 2.14-8.17-.952 1.143-2.257 1.925-3.747 2.087-.086 1.322-1.278 2.505-2.644 2.241-1.222-.151-1.917-1.351-1.909-2.496-.697.774-1.817 1.277-2.82.777-.941-.366-1.299-1.38-1.38-2.304-.698.767-1.824 1.245-2.815.74-.933-.372-1.284-1.381-1.356-2.305-.634.674-1.568 1.182-2.507.868-1.085-.261-1.633-1.362-1.654-2.404-.856.969-2.44 1.325-3.43.338-.898-.765-.768-2.033-.4-3.031-1.42-.991-2.112-2.7-1.969-4.404-1.091.444-1.782 1.49-2.521 2.36m6.233 2.122c-.957.085-1.507 1.323-.92 2.089.516.83 1.891.72 2.287-.163.506-.893-.35-2.112-1.367-1.926m4.175 1.553c-.945.086-1.491 1.297-.934 2.066.5.839 1.866.764 2.29-.106.537-.897-.322-2.149-1.356-1.96m4.16 1.558c-.944.099-1.478 1.321-.904 2.079.513.838 1.899.732 2.291-.159.51-.901-.366-2.127-1.387-1.92m4.184 1.553c-.942.094-1.479 1.299-.923 2.063.498.842 1.869.762 2.292-.111.535-.901-.334-2.153-1.369-1.952m4.184 1.554c-.961.093-1.501 1.331-.91 2.096.521.822 1.888.709 2.283-.171.511-.897-.356-2.12-1.373-1.925z" fill="#4788c7"/><g fill="#b6dcfe"><path d="m424.185 427.248c.787.289 1.574.585 2.361.872.105 2.036-.247 4.064-.868 5.999-.948 2.973-2.233 5.931-4.418 8.216-.786-.299-1.574-.592-2.361-.888 1.733-1.981 2.89-4.384 3.792-6.835.865-2.358 1.508-4.835 1.494-7.364z"/><path d="m429.092 429.083c.822.296 1.644.599 2.47.903.101 2.045-.254 4.081-.878 6.024-.949 2.96-2.23 5.917-4.414 8.189-.823-.309-1.643-.618-2.465-.933 2.365-2.589 3.743-5.899 4.676-9.236.453-1.607.616-3.281.611-4.947z"/><path d="m434.099 430.946c.825.297 1.647.6 2.47.903.112 2.042-.249 4.077-.869 6.018-.952 2.965-2.23 5.923-4.417 8.197-.823-.309-1.647-.619-2.468-.934.942-1.082 1.815-2.235 2.466-3.518 1.659-3.298 2.908-6.929 2.818-10.666z"/><path d="m439.116 432.816c.8.348 1.749.473 2.437 1.018.209 2.199-.359 4.39-1.026 6.472-.837 2.428-1.879 4.846-3.531 6.841-.264.231-.446.661-.827.697-.8-.209-1.552-.558-2.326-.846 3.314-3.906 5.241-9.058 5.273-14.182z"/><path d="m422.184 445.69c1.034-.189 1.893 1.063 1.356 1.96-.424.87-1.79.945-2.29.106-.557-.769-.011-1.98.934-2.066z"/><path d="m430.528 448.801c1.035-.201 1.904 1.051 1.369 1.952-.423.873-1.794.953-2.292.111-.556-.764-.019-1.969.923-2.063z"/><path d="m408.298 447.759c1.079.287 2.203.283 3.289.516 1.556.503 2.631 1.883 4.16 2.445 1.441.54 3.031.288 4.487.757 1.399.6 2.44 1.818 3.873 2.354 1.44.536 3.029.287 4.481.754 1.4.6 2.44 1.818 3.876 2.356 1.528.581 3.251.226 4.76.874.967.537 1.816 1.271 2.816 1.754-.636 1.735-1.289 3.464-1.931 5.198-10.582-3.938-21.165-7.875-31.747-11.813.65-1.73 1.28-3.467 1.936-5.195z"/></g><g fill="#fff"><path d="m426.546 428.12c.849.319 1.697.638 2.546.963.005 1.666-.158 3.34-.611 4.947-.933 3.337-2.311 6.647-4.676 9.236-.848-.309-1.697-.619-2.545-.931 2.185-2.285 3.47-5.243 4.418-8.216.621-1.935.973-3.963.868-5.999z"/><path d="m431.562 429.986c.845.318 1.691.636 2.537.96.09 3.737-1.159 7.368-2.818 10.666-.651 1.283-1.524 2.436-2.466 3.518-.849-.307-1.696-.622-2.545-.931 2.184-2.272 3.465-5.229 4.414-8.189.624-1.943.979-3.979.878-6.024z"/><path d="m436.569 431.849c.851.32 1.699.639 2.547.967-.032 5.124-1.959 10.276-5.273 14.182-.856-.306-1.71-.621-2.56-.934 2.187-2.274 3.465-5.232 4.417-8.197.62-1.941.981-3.976.869-6.018z"/></g><path d="m411.776 442.015c.739-.87 1.43-1.916 2.521-2.36-.143 1.704.549 3.413 1.969 4.404-.368.998-.498 2.266.4 3.031.99.987 2.574.631 3.43-.338.021 1.042.569 2.143 1.654 2.404.939.314 1.873-.194 2.507-.868.072.924.423 1.933 1.356 2.305.991.505 2.117.027 2.815-.74.081.924.439 1.938 1.38 2.304 1.003.5 2.123-.003 2.82-.777-.008 1.145.687 2.345 1.909 2.496 1.366.264 2.558-.919 2.644-2.241 1.49-.162 2.795-.944 3.747-2.087.598 2.832.385 6.31-2.14 8.17-1.386-1.14-3.192-1.185-4.89-1.341-1.997-.147-3.26-1.907-5.012-2.635-1.45-.473-3.03-.24-4.478-.737-1.415-.568-2.456-1.776-3.86-2.365-1.775-.588-3.841-.098-5.44-1.235-1.421-.998-2.833-2.196-4.667-2.225-.405-1.834.174-3.724 1.335-5.165z" fill="#98ccfd"/><g fill="#dff0fe"><path d="m418.009 444.137c1.017-.186 1.873 1.033 1.367 1.926-.396.883-1.771.993-2.287.163-.587-.766-.037-2.004.92-2.089z"/><path d="m426.344 447.248c1.021-.207 1.897 1.019 1.387 1.92-.392.891-1.778.997-2.291.159-.574-.758-.04-1.98.904-2.079z"/><path d="m434.712 450.355c1.017-.195 1.884 1.028 1.373 1.925-.395.88-1.762.993-2.283.171-.591-.765-.051-2.003.91-2.096z"/></g><path d="m427.922 430.321c.102.769.253 1.548.61 2.244.372.727 1.055 1.229 1.462 1.935.245.401.344.865.456 1.316-.712.424-.791 1.322-.676 2.061-1.024.209-2.139-.108-2.914-.801.294-.078.586-.18.82-.384-.49-.234-.941-.549-1.232-1.017.252-.039.694.203.816-.095-.329-.509-.676-1.043-.649-1.677.427.331.868.664 1.402.802-.178-.332-.398-.642-.529-.998-.171-.528-.135-1.096-.06-1.64.1-.598.276-1.181.494-1.746z" fill="#ffa726"/><path d="m437.695 433.962c-.195.573-.448 1.126-.76 1.644-.283.432-.601.863-1.038 1.153-.349.219-.756.313-1.138.461.501.238 1.054.278 1.598.302-.326.364-.752.626-1.231.731-.146.066-.4.042-.404.259.179.175.387.315.588.465-.524.164-1.069.104-1.591-.037.061.316.211.602.381.871-1.037-.08-2.096-.485-2.737-1.34.564-.484 1.117-1.227.794-2.003.41-.244.788-.557 1.25-.698.773-.267 1.624-.2 2.384-.516.717-.293 1.334-.778 1.904-1.292z" fill="#ffa726"/><path d="m429.922 438.874c.084.168.171.333.242.507.031.359.07.718.105 1.076.054.485-.189.93-.363 1.366.302-.258.614-.505.908-.773-.403.832-1.139 1.45-1.967 1.831.143-.524.249-1.069.18-1.615-.023-.406-.109-.831.049-1.221.171-.459.518-.819.846-1.171z" fill="#ffa726"/><g fill="#f4511e"><path d="m426.947 433.67c-.316-.841-.167-1.765.159-2.579.076.335.179.663.322.976-.075.544-.111 1.112.06 1.64.131.356.351.666.529.998-.534-.138-.975-.471-1.402-.802-.027.634.32 1.168.649 1.677-.122.298-.564.056-.816.095.291.468.742.783 1.232 1.017-.234.204-.526.306-.82.384.775.693 1.89 1.01 2.914.801.008.055.023.164.029.218-1.475.372-2.901-.454-3.988-1.379.28-.024.558-.056.835-.096-.492-.434-.716-1.069-.74-1.713.208.171.415.341.627.506-.391-.711-.479-1.534-.402-2.331l-.076.079.11-.295c.235.29.506.55.778.804z"/><path d="m436.935 435.606c.316-.148.616-.33.903-.53-.323.815-.788 1.629-1.588 2.055.373-.014.747-.032 1.115-.095l-.103.277.05-.204c-.455.707-1.091 1.314-1.888 1.608.266.015.533.024.8.035-.44.468-1.021.799-1.676.806.183.212.373.418.568.619-1.423-.01-3.04-.314-3.911-1.557.04-.037.119-.111.158-.149.641.855 1.7 1.26 2.737 1.34-.17-.269-.32-.555-.381-.871.522.141 1.067.201 1.591.037-.201-.15-.409-.29-.588-.465.004-.217.258-.193.404-.259.479-.105.905-.367 1.231-.731-.544-.024-1.097-.064-1.598-.302.382-.148.789-.242 1.138-.461.437-.29.755-.721 1.038-1.153z"/><path d="m431.836 434.074c.34.032.648-.107.929-.28-.137.219-.288.43-.47.614.138.624-.369 1.152-.344 1.766-.221-.534-.146-1.418-.918-1.474-.126-.001-.38-.004-.506-.006.078-.371.443-.388.749-.382.153-.15.336-.269.56-.238z"/><path d="m430.164 439.381c.293-.212.593-.415.886-.626.15.768.127 1.586-.236 2.295-.294.268-.606.515-.908.773.174-.436.417-.881.363-1.366-.035-.358-.074-.717-.105-1.076z"/></g><path d="m431.033 434.7c.772.056.697.94.918 1.474.051.073.155.221.206.294.323.776-.23 1.519-.794 2.003-.039.038-.118.112-.158.149-.05.046-.102.09-.155.135-.293.211-.593.414-.886.626-.071-.174-.158-.339-.242-.507-.328.352-.675.712-.846 1.171-.158.39-.072.815-.049 1.221-.231.181-.356.442-.451.714-.187-.73-.27-1.538.096-2.23.236-.552.765-.873 1.189-1.265-.014-.097-.042-.292-.058-.39-.006-.054-.021-.163-.029-.218-.115-.739-.036-1.637.676-2.061.58.05.829-.668.583-1.116z" fill="#f57c00"/></g><path d="m455.897 462.683-3.821-1.191 10.144-31.819c.241-.756-.183-1.563-.949-1.804l-47.374-14.764c-.766-.229-1.585.185-1.826.938l-4.76 14.932-3.819-1.193 4.76-14.93c.906-2.841 3.968-4.425 6.851-3.524l47.373 14.763c2.871.897 4.471 3.936 3.565 6.773z" fill="#454bd8"/><path d="m389.319 455.304-51.56 11.468c-2.242.499-4.467-.893-4.971-3.109l-7.613-33.468c-.507-2.216.901-4.418 3.143-4.915l51.561-11.468c2.239-.499 4.464.891 4.968 3.109l7.617 33.468c.503 2.216-.905 4.417-3.145 4.915" fill="#fff"/><path d="m383.935 412.908-24.069 26.242c-.631.684-1.626.906-2.488.554l-33.117-13.521 59.676-13.274z" fill="#4178da"/><path d="m358.218 441.849c-.551.001-1.097-.106-1.608-.314l-32.479-13.263 1.528-3.665 32.483 13.264 23.542-25.46 2.97 2.663-23.304 25.407c-.806.874-1.943 1.371-3.132 1.369" fill="#454bd8"/><path d="m330.581 462.991-7.694-33.813c-.275-1.193-.056-2.448.609-3.476.664-1.036 1.713-1.766 2.916-2.028l5.59-1.244.881 3.865-5.593 1.245c-.295.064-.508.328-.508.631 0 .046.005.092.015.137l7.694 33.811zm54.918-34.177-2.934-12.913c-.081-.347-.434-.566-.781-.485l-34.355 7.644-.881-3.866 34.357-7.643c2.507-.569 5.005 1.004 5.569 3.48l2.935 12.916-3.909.867zm-47.912-3.566-.878-3.865 6.42-1.429.876 3.867z" fill="#454bd8"/><path d="m449.902 468.137h-.543c-2.391-8.144-9.979-14.104-18.989-14.104-3.778-.002-7.48 1.076-10.667 3.106-1.999-12.835-13.184-22.672-26.722-22.672-12.153 0-22.437 7.918-25.862 18.821-1.575-.426-3.199-.645-4.831-.649-9.273 0-16.941 6.718-18.345 15.498h-3.028c-7.635 0-13.884 6.179-13.884 13.728v1.011c0 7.551 6.249 13.727 13.884 13.727h108.987c7.637 0 13.884-6.176 13.884-13.728v-1.01c0-7.549-6.247-13.728-13.884-13.728" fill="#fff"/><path d="m340.917 470.119c-6.555 0-11.884 5.269-11.884 11.747v1.011c0 6.476 5.329 11.744 11.884 11.744h108.986c6.551 0 11.879-5.268 11.879-11.744v-1.011c0-6.478-5.328-11.747-11.879-11.747h-2.049l-.42-1.429c-2.19-7.462-9.204-12.674-17.064-12.674-3.396 0-6.709.964-9.583 2.789l-2.595 1.65-.47-3.014c-1.896-12.165-12.3-20.992-24.743-20.992-11.049 0-20.671 7.003-23.947 17.426l-.571 1.823-1.864-.495c-9.907-2.644-19.174 3.857-20.672 13.243l-.271 1.673zm108.986 28.466h-108.986c-8.762 0-15.891-7.046-15.891-15.708v-1.011c0-8.663 7.129-15.71 15.891-15.71h1.384c2.503-10.176 12.551-17.103 23.509-15.188 4.281-11.125 14.976-18.482 27.169-18.482 13.485 0 24.908 8.935 28.143 21.615 2.89-1.346 6.039-2.049 9.248-2.049 9.131 0 17.332 5.74 20.449 14.13 8.335.469 14.972 7.325 14.972 15.684v1.011c0 8.662-7.127 15.708-15.888 15.708z" fill="#454bd8"/><path d="m408.931 456.047c-3.808-5.801-10.249-9.264-17.23-9.264-3.692 0-7.316.977-10.471 2.83l-2.048-3.411c3.799-2.218 8.12-3.385 12.519-3.381 8.343 0 16.043 4.138 20.59 11.07zm-34.652 6.04h-4.009c0-4.162-3.424-7.548-7.634-7.548v-3.962c6.42 0 11.643 5.163 11.643 11.509" fill="#454bd8"/><path d="m879.04 466.95h3.772v29.262h-3.772z" fill="#454bd8"/><path d="m901.054 451.732c0 10.837-8.984 19.62-20.066 19.62-11.081 0-20.066-8.783-20.066-19.62 0-10.836 8.985-19.62 20.066-19.62 11.082 0 20.066 8.784 20.066 19.62" fill="#fff"/><path d="m880.987 473.2c-12.103 0-21.95-9.631-21.95-21.468 0-11.836 9.847-21.466 21.95-21.466 2.303 0 4.57.35 6.747 1.033l-1.16 3.513c-1.808-.569-3.692-.858-5.587-.856-10.021 0-18.179 7.975-18.179 17.776 0 9.803 8.158 17.778 18.18 17.778s18.18-7.975 18.18-17.778c0-3.363-.964-6.635-2.79-9.467l3.194-1.965c2.2 3.406 3.37 7.377 3.368 11.432 0 11.837-9.848 21.468-21.953 21.468" fill="#454bd8"/><path d="m893.288 438.643c-1.057-.95-2.222-1.774-3.47-2.453l1.836-3.224c1.508.82 2.914 1.814 4.19 2.962z" fill="#454bd8"/><path d="m904.584 474.01s.749 9.902-5.035 15.557c-5.783 5.655-15.91 4.924-15.91 4.924s-.748-9.902 5.035-15.557c5.784-5.656 15.91-4.923 15.91-4.923" fill="#38d2de"/><path d="m902.72 475.84c-2.941.082-8.96.73-12.712 4.398-3.749 3.667-4.411 9.548-4.496 12.424 2.939-.085 8.953-.733 12.703-4.399 3.767-3.686 4.423-9.554 4.505-12.424m-17.883 20.529c-.446.003-.891-.01-1.336-.04l-1.622-.116-.12-1.586c-.033-.44-.74-10.815 5.581-16.997 6.316-6.178 16.933-5.497 17.383-5.459l1.621.12.122 1.584c.032.44.74 10.816-5.582 16.998-5.078 4.966-12.921 5.496-16.047 5.496" fill="#454bd8"/><path d="m878.926 494.49s.749-9.9-5.035-15.557c-5.783-5.654-15.91-4.923-15.91-4.923s-.749 9.902 5.035 15.557c5.784 5.656 15.91 4.923 15.91 4.923" fill="#38d2de"/><path d="m859.85 475.835c.087 2.874.748 8.76 4.5 12.428 3.75 3.666 9.763 4.314 12.705 4.398-.086-2.875-.749-8.756-4.499-12.423-3.768-3.684-9.77-4.325-12.705-4.403m17.877 20.532c-3.125 0-10.969-.53-16.046-5.495-6.322-6.182-5.614-16.557-5.582-16.998l.12-1.584 1.622-.12c.447-.04 11.062-.72 17.383 5.459 6.32 6.182 5.613 16.558 5.58 16.997l-.12 1.586-1.62.117c-.09.008-.573.038-1.337.038" fill="#454bd8"/><path d="m879.849 436.718c1.277-.141 2.589-.036 3.859.184 2.238.405 4.38 1.332 6.208 2.685 2.336 1.712 4.159 4.115 5.175 6.827 1.162 3.071 1.271 6.518.321 9.659-.724 2.414-2.075 4.633-3.873 6.396-2.425 2.392-5.684 3.914-9.074 4.236-.047-.011-.14-.031-.186-.041.034 0 .103.001.137.002 2.623-.481 4.883-2.487 5.7-5.022.765-2.263.363-4.878-1.058-6.801-1.364-1.9-3.652-3.094-5.993-3.107-1.604.018-3.209-.492-4.503-1.44-1.363-.987-2.381-2.442-2.829-4.064-.351-1.248-.371-2.587-.06-3.845.412-1.697 1.443-3.231 2.851-4.263.859-.636 1.857-1.084 2.903-1.303.138-.045.292-.032.422-.103m.837 5.722c-.715.132-1.312.74-1.423 1.46-.098.559.093 1.16.5 1.558.446.457 1.148.64 1.759.454.669-.185 1.196-.794 1.276-1.485.074-.54-.118-1.11-.508-1.492-.407-.419-1.03-.608-1.604-.495z" fill="#efcc8d" fill-rule="nonzero"/><path d="m880.545 457.551c.535-.152 1.137-.035 1.574.31.491.371.76 1.011.682 1.622-.066.601-.463 1.152-1.012 1.406-.593.29-1.345.207-1.859-.207-.511-.385-.776-1.062-.669-1.692.1-.676.626-1.26 1.284-1.439z" fill="#efcc8d" fill-rule="nonzero"/><path d="m879.011 436.778c.279-.019.561-.102.838-.06-.13.071-.284.058-.422.103-1.046.219-2.044.667-2.903 1.303-1.408 1.032-2.439 2.566-2.851 4.263-.311 1.258-.291 2.597.06 3.845.448 1.622 1.466 3.077 2.829 4.064 1.294.948 2.899 1.458 4.503 1.44 2.341.013 4.629 1.207 5.993 3.107 1.421 1.923 1.823 4.538 1.058 6.801-.817 2.535-3.077 4.541-5.7 5.022-.034-.001-.103-.002-.137-.002.046.01.139.03.186.041-.627.058-1.254.136-1.885.098-.89-.06-1.782-.142-2.656-.331-2.842-.58-5.498-2.019-7.552-4.065-2.479-2.45-4.067-5.784-4.381-9.257-.218-2.35.103-4.754.977-6.951 1.313-3.366 3.89-6.213 7.1-7.867 1.541-.8 3.223-1.328 4.943-1.554m1.534 20.773c-.658.179-1.184.763-1.284 1.439-.107.63.158 1.307.669 1.692.514.414 1.266.497 1.859.207.549-.254.946-.805 1.012-1.406.078-.611-.191-1.251-.682-1.622-.437-.345-1.039-.462-1.574-.31z" fill="#454bd8" fill-rule="nonzero"/><path d="m880.686 442.44c.574-.113 1.197.076 1.604.495.39.382.582.952.508 1.492-.08.691-.607 1.3-1.276 1.485-.611.186-1.313.003-1.759-.454-.407-.398-.598-.999-.5-1.558.111-.72.708-1.328 1.423-1.46z" fill="#454bd8" fill-rule="nonzero"/><path d="m497.934 180.003c0 2.134-1.751 3.866-3.91 3.866h-2.133v22.775c0 .812-1.028 1.181-1.554.558l-19.759-23.332h-55.257c-2.158 0-3.91-1.732-3.91-3.866v-38.76c0-2.136 1.752-3.868 3.91-3.868h78.703c2.159 0 3.91 1.732 3.91 3.868v38.76z" fill="#4178da"/><g clip-path="url(#a)"><path d="m469.164 162.491c-1.308-.199-2.204-.77-3.085-1.759 2.696.189 2.679-.607 2.679-.607s.124-.354-.608-.705c-.323-.155-.641-.382-.918-.565.264.035 4.078.357 4.521-1.19-2.208-.305-4.71-.603-6.515-1.432-.666-.306-1.55-.656-2.011-1.31.591.044 1.599.076 2.466-.153.96-.252 1.893-.615 2.42-1.489.302-.5.31-1.032.31-1.032s-.639.361-1.313.539c-1.521.401-3.115.249-3.73.183-.664-.071-2.918-.336-2.846-.869.065-.483 2.039-.321 2.432-.286.537.049 1.073.117 1.61.152-1.185-.78-2.588-1.232-3.929-1.612-2.042-.578-4.24-.703-6.287-.085-.88.265-2.143.896-2.792 2.051-1.452 2.586.38 5.702 2.128 7.54 2.074 2.181 3.92 3.176 5.666 3.937 1.746.76 5.366 1.839 8.04.512 1.784-.885 1.762-1.82 1.762-1.82z" fill="#fff"/><path d="m464.132 172.545c-.169-.226-.374-.017-.683.019-.045.005.157-.219.115-.426-.055-.272-.244-.325-.47-.319-.428.013-1.134.428-1.59.39-.624-.052-1.842-.596-2.046-.773-.211-.184.365.019 1.462-.82.335-.256 1.011-.858 1.011-.858s.181.8 1.436 1.119c1.254.319 2.183-1.498 1.085-2.553-.498-.478-1.31-.459-1.235-.534.229-.228.435-1.343.402-1.358-.125-.055-.954-.018-2.847-.55-2.474-.695-4.816-2.065-6.738-3.796-1.668-1.502-3.002-3.813-3.491-5.238-.174-.507-.241-1.345-.237-1.904.008-.958.588-2.584 1.912-3.494.147-.102-1.531-.58-2.786-.687-2.632-.224-3.952.553-4.047.452-1.626-1.735-2.307-4.835-2.867-4.653-.593.193-.505 6.974-.605 7.102-.1.127-.549.597-.776.935-.538.803-1.295 1.953-1.506 4.312-.213 2.39.191 7.289 8.478 11.137 3.274 1.52 6.068 1.827 6.068 1.827s1.266.54 1.979.763c.743.233 2.227.94 2.227.94s1.632 1.116 2.518.819c.335-.113.111-.428-.205-.527-.154-.048.343-.114.362-.415.023-.372-.711-.096-.711-.096s.108-.5.258-.437c1.043.437 1.637.909 2.911 1.094.203.03.583.003.627-.388.026-.234-.323-.37-.323-.37-.015.02.606-.317.312-.713z" fill="#fff"/><path d="m456.995 171.969c-.217-.076.311-.036.564-.079.108-.018.887.419 2.193.738.245.06-.727.095-.753.088-1.102-.313-1.578-.598-2.004-.747z" fill="#2554c1"/></g><path d="m415.322 139.218c-1.128 0-2.048.91-2.048 2.025v38.76c0 1.114.92 2.025 2.048 2.025h56.126l18.58 21.94v-21.94h3.996c1.13 0 2.049-.91 2.049-2.025v-38.76c0-1.116-.92-2.025-2.049-2.025zm75.674 70.143c-.807-.002-1.573-.361-2.09-.98l-19.2-22.668h-54.384c-3.183 0-5.774-2.562-5.774-5.71v-38.76c0-3.148 2.591-5.71 5.774-5.71h78.702c3.184 0 5.774 2.562 5.774 5.71v38.76c0 3.148-2.59 5.71-5.774 5.71h-.268v20.93c.004 1.147-.726 2.176-1.81 2.551-.305.11-.626.166-.95.167z" fill="#454bd8"/><g fill-rule="nonzero"><g fill="#4788c7"><path d="m516.687 287.142c3.548-3.819 8.815-6.008 14.034-5.643 5.807.329 11.278 3.79 14.198 8.801 2.043 3.461 2.88 7.781 1.671 11.669-.665 2.201-2.087 4.083-3.809 5.574-.051 1.593.322 3.501-.975 4.725-.867.958-2.219 1.002-3.414 1.005-.033 1.959.07 3.918-.047 5.874-.147 2.163-2.135 3.972-4.298 3.947-2.935.036-5.873.029-8.808.003-2.171.03-4.207-1.765-4.346-3.95-.109-1.956-.014-3.915-.044-5.874-1.198-.003-2.551-.047-3.42-1.008-1.298-1.232-.91-3.143-.976-4.74-2.135-1.784-3.713-4.265-4.167-7.032-.836-4.832 1.075-9.846 4.401-13.351m-3.494 10.738c-.223 3.567 1.564 7.01 4.364 9.159.003 1.096-.055 2.192.062 3.281.102 1.024 1.085 1.824 2.097 1.806 1.473.073 2.95 0 4.423.022v4.386h10.964v-4.386c1.747-.092 3.545.215 5.259-.187 1.904-.866 1.195-3.278 1.323-4.926 1.477-1.239 2.825-2.705 3.549-4.517 1.513-3.703.822-8.019-1.111-11.432-3.012-5.344-9.104-8.848-15.259-8.512-8 .314-15.485 7.141-15.671 15.306m8.757 15.364c.029 1.959-.088 3.922.047 5.877.121 1.594 1.612 2.902 3.202 2.873 2.945.044 5.895.04 8.844 0 1.586.025 3.077-1.276 3.198-2.869.139-1.959.018-3.922.051-5.881-.274 0-.815 0-1.089 0-.004 1.455-.007 2.913 0 4.371-.274.004-.822.011-1.096.015-.735 0-1.466-.004-2.201-.004h-6.571c-.734 0-1.465.004-2.2.004-.274-.004-.822-.011-1.093-.015.004-1.458 0-2.916-.003-4.374-.271.003-.815.003-1.089.003z"/><path d="m522.436 299.141c2.748-.753 5.792 1.367 6.037 4.206.439 2.88-2.16 5.698-5.062 5.49-2.635-.022-4.915-2.482-4.732-5.113.04-2.142 1.67-4.112 3.757-4.583m.307 1.052c-2.745.494-3.958 4.236-2.032 6.25 1.739 2.171 5.602 1.469 6.461-1.181 1.155-2.69-1.604-5.855-4.429-5.069z"/><path d="m534.504 299.137c2.759-.746 5.8 1.389 6.033 4.232.424 2.869-2.163 5.669-5.054 5.468-2.642-.011-4.934-2.486-4.744-5.121.048-2.145 1.678-4.111 3.765-4.579m.314 1.053c-2.752.486-3.98 4.239-2.043 6.256 1.739 2.171 5.606 1.459 6.458-1.187 1.151-2.687-1.597-5.837-4.415-5.069z"/><path d="m527.439 311.07c.227-1.364 1.359-2.314 2.182-3.341.833 1.024 1.948 1.981 2.185 3.341-.036 1.224-1.56 1.293-2.185.457-.618.84-2.16.767-2.182-.457z"/></g><g fill="#dff0fe"><path d="m513.193 297.88c.186-8.165 7.671-14.992 15.671-15.306 6.155-.336 12.247 3.168 15.259 8.512 1.933 3.413 2.624 7.729 1.111 11.432-.724 1.812-2.072 3.278-3.549 4.517-.128 1.648.581 4.06-1.323 4.926-1.714.402-3.512.095-5.259.187v2.185c-.727.004-1.455.008-2.178.019-.011.727-.019 1.454-.022 2.182-.728 0-1.451 0-2.175 0-.007-.731-.014-1.462-.025-2.193-.72-.004-1.444-.004-2.164 0-.011.731-.018 1.462-.022 2.193-.727 0-1.451 0-2.178 0-.004-.728-.011-1.455-.018-2.182-.728-.008-1.455-.015-2.182-.019 0-.727 0-1.458 0-2.185-1.473-.022-2.95.051-4.423-.022-1.012.018-1.995-.782-2.097-1.806-.117-1.089-.059-2.185-.062-3.281-2.8-2.149-4.587-5.592-4.364-9.159m9.243 1.261c-2.087.471-3.717 2.441-3.757 4.583-.183 2.631 2.097 5.091 4.732 5.113 2.902.208 5.501-2.61 5.062-5.49-.245-2.839-3.289-4.959-6.037-4.206m12.068-.004c-2.087.468-3.717 2.434-3.765 4.579-.19 2.635 2.102 5.11 4.744 5.121 2.891.201 5.478-2.599 5.054-5.468-.233-2.843-3.274-4.978-6.033-4.232m-7.065 11.933c.022 1.224 1.564 1.297 2.182.457.625.836 2.149.767 2.185-.457-.237-1.36-1.352-2.317-2.185-3.341-.823 1.027-1.955 1.977-2.182 3.341z"/><path d="m524.135 317.63c.735 0 1.466-.004 2.2-.004v2.204c-.734.004-1.465.004-2.2 0 0-.735 0-1.465 0-2.2z"/><path d="m528.521 317.626h2.2v2.204c-.735.004-1.466.004-2.2 0-.004-.735 0-1.469 0-2.204z"/><path d="m532.906 317.626c.735 0 1.466.004 2.201.004v2.2c-.735.004-1.47.004-2.201 0 0-.735 0-1.469 0-2.204z"/></g><g fill="#98ccfd"><path d="m522.743 300.193c2.825-.786 5.584 2.379 4.429 5.069-.859 2.65-4.722 3.352-6.461 1.181-1.926-2.014-.713-5.756 2.032-6.25z"/><path d="m534.818 300.19c2.818-.768 5.566 2.382 4.415 5.069-.852 2.646-4.719 3.358-6.458 1.187-1.937-2.017-.709-5.77 2.043-6.256z"/><path d="m521.95 313.244c.274 0 .818 0 1.089-.003.003 1.458.007 2.916.003 4.374.271.004.819.011 1.093.015v2.2c.735.004 1.466.004 2.2 0 0-.735 0-1.469 0-2.204h2.186c0 .735-.004 1.469 0 2.204.734.004 1.465.004 2.2 0 0-.735 0-1.469 0-2.204h2.185v2.204c.731.004 1.466.004 2.201 0 0-.735 0-1.465 0-2.2.274-.004.822-.011 1.096-.015-.007-1.458-.004-2.916 0-4.371h1.089c-.033 1.959.088 3.922-.051 5.881-.121 1.593-1.612 2.894-3.198 2.869-2.949.04-5.899.044-8.844 0-1.59.029-3.081-1.279-3.202-2.873-.135-1.955-.018-3.918-.047-5.877z"/><path d="m524.139 314.333c.727.004 1.454.011 2.182.019.007.727.014 1.454.018 2.182-.735 0-1.466 0-2.2 0 0-.735 0-1.466 0-2.201z"/><path d="m528.539 314.341c.72-.004 1.444-.004 2.164 0 .011.731.018 1.462.025 2.193-.738 0-1.476 0-2.211 0 .004-.731.011-1.462.022-2.193z"/><path d="m532.925 314.352c.723-.011 1.451-.015 2.178-.019v2.201c-.735 0-1.469 0-2.2 0 .003-.728.011-1.455.022-2.182z"/></g></g><path d="m656.148 411.768c-.281.115-.769.288-1.386.544-.784.326-1.779.73-2.778 1.329-1.772 1.061-3.161 2.249-4.348 3.442-3.178 3.194-3.998 6.666-3.624 7.368-.567-1.064-.204-3.254.121-4.167 1.724-4.833 5.646-7.559 7.67-9.12 2.555-1.97 3.77-3.95 3.926-4.348.786-2.003 2.06-3.227 3.925-3.684 1.299-.318 2.859-.245 4.06.273 2.472.863 5.45 3.384 3.489 8.786-.658 1.7-2.11 3.189-3.083 4.05-.228.252-.578.494-1.265 1.265-.897 1.007-1.828 2.439-1.329 2.295 2.169-1.417 4.817-2.006 8.033-1.812 2.195.132 4.459.688 5.556 1.026 2.079.642 6.349 2.29 10.448 5.194 3.915 2.774 8.636 7.829 9.482 8.697.686.704 1.841 1.701 1.811 1.872-.016.097-.271.148-.43.171.015.003.001.007-.053.01-.133.007-.067.007.053-.01-.069-.018-.775-.029-.838.125-.075.186.598.523 1.449 1.154.882.653 1.565 1.285 1.571 1.449.005.164.1.529-.846.242-.151-.046-1.195-.504-1.32-.332s.811.531.656.694-1.189.061-2.053-.242c-1.474-.515-3.003-1.555-3.805-1.872-.668-.264-2.049-.561-3.503-.664-1.554-.111-8.688.568-9.965.725-4.513.552-7.525-.392-8.334-.725-.602-.248-1.361-.689-1.691-.785.896 1.246 3.794 2.296 6.945 2.415.821.031 2.754-.024 4.65-.12 2.362-.12 4.758-.494 6.885-.544 1.569-.037 3.898.037 3.926.906.028.882-3.038 1.479-4.711 1.751-8.481 1.38-7.302 5.505-7.247 6.885.048 1.228.64 2.43.604 3.322-.057 1.382-.452 1.915-.604 3.503-.062.645-.14 2.284-.121 3.623.017 1.189.129 2.133.121 2.054.227 2.25 1.162 2.017 3.563 1.932 1.494-.053 2.906.169 2.778 1.027-.024.164-.281-.108-.664-.121-1.567-.055-3.934.391-4.167.423-.74.101-.971-.277-1.389 0-.482.319-.675.672-1.027 1.087-.307.362-.386 1.037-.664 1.027-.429-.016-.362-1.491-.242-1.752s.309-.204.362-.423c.051-.204-.578.03-1.087-.06-.924-.175-3.87-.807-4.348.423-.107.274-.22.088-.423-.121-.202-.209-.073-1.091 1.389-1.329.643-.104 1.905-.219 2.476-.181 1.701.115 2.205-.236 2.295-1.087.073-.691.214-1.746.242-2.899.033-1.329-.056-2.769-.121-3.623-.103-1.369-.732-2.359-.725-3.503.006-.833.363-2.187.423-3.322.032-.597-.094-2.297-.543-3.321-.5-1.138-1.595-3.211-6.764-4.832-2.559-.802-4.536-1.663-5.979-2.778-.96-.741-2.044-1.844-3.02-3.382-.459-.722-.84-1.482-1.208-2.536-.357-1.025-1.143-3.873-.06-6.644.191-.486.735-1.458.664-1.449-.235.031-1.672 1.902-1.872 4.107-.257 2.834 1.027 5.495 1.027 5.495.055.136-3.294-1.425-4.469-4.891-1.644-4.849 1.442-9.244 1.57-9.422 1.002-1.393 2.199-2.482 2.681-2.897l-.024-.002s.267-.304.181-.181c.347-.5.519-.969.302-1.389-.154-.298-.736-.511-1.449-.483-.331.013-1.302.248-1.755.362zm1.332-4.348c-.096-.197-.03-.467.06-.604.11-.165.193-.278.544-.362.61-.147.881.303.906.483.037.27-.035.381-.121.483-.109.13-.351.273-.725.275-.106.001-.523.015-.664-.275z" fill="#454bd8"/><path d="m80.547 495.971h-51.524c-12.86 0-23.284-10.408-23.284-23.246 0-12.839 10.425-23.246 23.284-23.246h51.524c12.86 0 23.284 10.407 23.284 23.246 0 12.838-10.424 23.246-23.284 23.246z" fill="#f2f2f2"/><g fill="#454bd8"><path d="m789.553 411.791c-.737-1.957 1.55-4.001 3.41-3.058 1.437.544 1.575 2.203 1.403 3.514.679.679 1.349 1.362 2.024 2.049.483-.111 1.089-.373 1.692-.555.475-.142.981.086 1.189.536.208.449.054.982-.361 1.253.002.001.002.001.002.001.184.155.548.465.728.624 2.355-2.391 5.693-3.657 9.04-3.468 3.364-.197 6.711 1.072 9.086 3.46.239-.209.482-.415.725-.62-.549-.41-1.722-.549-1.357-1.483.98-1.127 2.676-.012 3.862.264.679-.687 1.357-1.374 2.036-2.061-.168-1.311-.03-2.97 1.407-3.514 1.843-.93 4.11 1.064 3.423 3.011-.331 1.429-1.864 1.772-3.113 1.902-.586.851-1.168 1.709-1.747 2.564.398 1.148 1.211 2.946.75 3.569-.833 1.127-1.692-.059-1.91-.984-.72.8-1.474 1.57-2.22 2.345 1.026 4.73 2.693 9.878.599 14.561 2.203 1.705 4.482 3.31 6.903 4.684-2.852-.051-5.655-.645-8.336-1.601-.042 1.379-.021 2.761-.067 4.143-1.219-1.114-2.241-2.433-3.012-3.895-1.101 1.361-2.19 2.882-3.824 3.636-1.16.331-2.396.18-3.59.222-1.098-.063-2.321.146-3.297-.486-1.789-1.152-2.995-2.97-4.113-4.738-3.268 1.722-6.912 2.677-10.611 2.727 3.611-2.04 6.87-4.612 10.058-7.243-.009-.683-.017-1.365-.03-2.048-1.282-1.697-1.927-3.825-1.462-5.94-.528-1.311-.896-2.677-1.114-4.072-.72-.762-1.449-1.512-2.141-2.295-.234.9-.955 2.125-1.784.994-.408-.556.209-2.431.599-3.579-.578-.855-1.156-1.709-1.743-2.56-1.235-.138-2.752-.456-3.104-1.859m10.791 6.082c5.241-2.425 11.482-2.413 16.727-.004-2.07-2.396-5.207-3.708-8.366-3.506-3.158-.197-6.308 1.093-8.361 3.51m-.658 4.897c.357.804.738 1.592 1.132 2.379-1.437 2.711.829 5.907 3.694 6.225.197 1.521-.507 3.439.469 4.692 2.472.176 4.977.172 7.448.004.956-1.282.273-3.171.461-4.696 1.127-.364 2.405-.679 3.129-1.709 1.039-1.257 1.32-3.041.566-4.516.394-.783.775-1.575 1.131-2.379-6.007-.021-12.018-.021-18.03 0m2.43 9.241c-.113 1.357-.243 2.744-.004 4.097.423 1.466 1.454 2.656 2.459 3.766.57.527 1.139 1.26 1.99 1.277 1.633.055 3.322.218 4.922-.142 1.336-.871 2.333-2.183 3.196-3.502 1.097-1.621.708-3.674.603-5.5-1.37 1.298-.163 3.443-1.257 4.867-.636.905-1.843.876-2.81 1.098v1.541c-.558 0-1.119 0-1.676 0 0-.557 0-1.118 0-1.675-.557 0-1.118 0-1.676 0v1.675c-.557 0-1.118 0-1.675 0 0-.515 0-1.026 0-1.541-.968-.222-2.166-.189-2.807-1.089-1.11-1.42.122-3.582-1.265-4.872z" fill-rule="nonzero"/><path d="m803.771 424.538c.993-.13 2.09-.273 3.024.171 1.487.939 1.45 3.528-.071 4.424-1.776.959-4.366.01-4.675-2.187-.178-1.266.434-2.24 1.722-2.408z" fill-rule="nonzero"/><path d="m810.892 424.408c.778-.232 1.783-.07 2.685.204.748.206 1.339.781 1.566 1.523.226.742.058 1.548-.447 2.137-.315.444-.795.75-1.371.863-1.11.218-2.55.434-3.287-.572-.897-1.202-.698-3.692.854-4.155z" fill-rule="nonzero"/><path d="m808.199 429.657c1.332-.628 2.392.83 2.786 1.923.226.692.581 1.646.257 2.334-.156.244-.431.387-.72.373-1.076.043-2.173.189-3.232.07-.428-.061-.777-.375-.882-.795-.203-1.447.607-3.119 1.791-3.905z" fill-rule="nonzero"/></g></svg>