<svg clip-rule="evenodd" fill-rule="evenodd" stroke-linejoin="round" stroke-miterlimit="1.41421" viewBox="0 0 320 215" xmlns="http://www.w3.org/2000/svg" xmlns:xlink="http://www.w3.org/1999/xlink"><clipPath id="a"><path clip-rule="evenodd" d="m116.788 148.974h68.478v51.026h-68.478z"/></clipPath><path d="m55.12 148.718h-13.856c-3.46 0-6.263-2.7-6.263-6.031s2.804-6.032 6.263-6.032h13.856c3.459 0 6.263 2.7 6.263 6.032 0 3.33-2.804 6.03-6.263 6.03zm212.637 21.259h-13.857c-3.459 0-6.263-2.7-6.263-6.032 0-3.33 2.804-6.03 6.263-6.03h13.858c3.46 0 6.263 2.7 6.263 6.03 0 3.331-2.804 6.032-6.263 6.032zm-199.95-54.977h168.672c4.11 0 7.442 3.212 7.437 7.171-.005 3.206-2.705 5.802-6.033 5.802h-14.474c-2.019 0-3.655 1.576-3.655 3.52v1.839c0 1.944 1.636 3.52 3.655 3.52h35.524c3.332 0 6.033 2.601 6.033 5.81 0 3.198-2.684 5.795-6.005 5.81l-42.82.242c-2.012.008-3.638 1.582-3.638 3.52v.886c0 1.954 1.652 3.534 3.681 3.52l19.932-.228c3.356-.023 6.086 2.596 6.077 5.827l-.005 1.38c-.009 3.202-2.707 5.793-6.033 5.793h-30.74c-2.02 0-3.656 1.576-3.656 3.52v3.337c0 1.927 1.61 3.496 3.61 3.52l60.675.883c5.187.062 9.357 4.13 9.357 9.124 0 5.04-4.242 9.125-9.474 9.125h-216.522c-6.275 0-11.362-4.898-11.362-10.941 0-6.065 5.122-10.973 11.42-10.942l24.603.12c2.026.01 3.673-1.569 3.673-3.52v-1.625c0-1.944-1.636-3.52-3.655-3.52h-17.85c-3.333 0-6.034-2.602-6.034-5.81v-.421c0-3.21 2.701-5.81 6.033-5.81h41.184c2.02 0 3.655-1.577 3.655-3.52 0-1.945-1.636-3.52-3.655-3.52h-24.707c-3.332 0-6.033-2.602-6.033-5.81v-1.187c0-3.208 2.701-5.81 6.033-5.81h29.353c2.018 0 3.655-1.576 3.655-3.52v-2.923c0-1.944-1.637-3.52-3.655-3.52h-34.256c-3.332 0-6.033-2.601-6.033-5.81v-.022c0-3.209 2.7-5.81 6.033-5.81z" fill="#f2f2f2"/><path d="m134.836 74.348h-13.662c-3.41 0-6.174-2.671-6.174-5.965 0-3.295 2.764-5.965 6.174-5.965h13.662c3.41 0 6.174 2.67 6.174 5.965 0 3.294-2.764 5.965-6.174 5.965zm209.628 21.025h-13.662c-3.41 0-6.174-2.67-6.174-5.965 0-3.294 2.764-5.965 6.174-5.965h13.662c3.41 0 6.174 2.67 6.174 5.965 0 3.294-2.764 5.965-6.174 5.965zm-197.121-54.373h166.285c4.053 0 7.337 3.177 7.332 7.092-.005 3.17-2.666 5.739-5.948 5.739h-14.268c-1.991 0-3.604 1.559-3.604 3.481v1.819c0 1.922 1.613 3.481 3.604 3.481h35.02c3.286 0 5.948 2.573 5.948 5.746 0 3.164-2.646 5.732-5.92 5.746l-42.213.24c-1.984.008-3.588 1.564-3.588 3.48v.877c0 1.933 1.63 3.496 3.63 3.482l19.65-.225c3.308-.023 6 2.566 5.99 5.763l-.004 1.364c-.01 3.167-2.67 5.73-5.948 5.73h-30.306c-1.99 0-3.603 1.558-3.603 3.481v3.3c0 1.906 1.586 3.458 3.559 3.482l59.816.873c5.113.062 9.225 4.084 9.225 9.024 0 4.984-4.182 9.025-9.34 9.025h-213.46c-6.185 0-11.2-4.845-11.2-10.822 0-5.998 5.05-10.851 11.258-10.82l24.255.118c1.997.01 3.622-1.552 3.622-3.482v-1.607c0-1.923-1.614-3.482-3.604-3.482h-17.598c-3.285 0-5.948-2.572-5.948-5.746v-.416c0-3.174 2.663-5.747 5.948-5.747h40.6c1.991 0 3.605-1.558 3.605-3.481s-1.614-3.481-3.604-3.481h-24.357c-3.285 0-5.948-2.573-5.948-5.747v-1.173c0-3.173 2.663-5.746 5.948-5.746h28.937c1.99 0 3.603-1.559 3.603-3.482v-2.89c0-1.923-1.613-3.482-3.603-3.482h-33.771c-3.285 0-5.948-2.572-5.948-5.746v-.022c0-3.173 2.663-5.746 5.948-5.746zm46.123 94.155v41.314.006c0 1.032-.848 1.882-1.88 1.885h-19.838c-1.032-.003-1.88-.853-1.88-1.885 0-.002 0-.003 0-.005v-41.314c0-1.045.842-1.892 1.88-1.892h19.837c1.039 0 1.88.847 1.88 1.891" fill="#f2f2f2"/><path d="m172.424 179.092c-1.81 0-3.282-1.481-3.282-3.301v-39.957c0-1.82 1.472-3.3 3.282-3.3v1.461c-1.006.004-1.831.834-1.829 1.84v39.956c0 1.014.82 1.839 1.829 1.839z" fill="#454bd8"/><path d="m197.26 135.155v41.314.006c0 1.032-.848 1.882-1.88 1.885h-19.838c-1.032-.003-1.88-.853-1.88-1.885 0-.002 0-.003 0-.005v-41.314c0-1.045.842-1.892 1.88-1.892h19.837c1.039 0 1.88.847 1.88 1.891" fill="#f2f2f2"/><path d="m182.988 179.092h-6.77c-1.81 0-3.282-1.481-3.282-3.301v-39.957c0-1.82 1.472-3.3 3.281-3.3h6.771v1.461h-6.77c-1.006.004-1.831.834-1.829 1.84v39.956c0 1.014.82 1.839 1.828 1.839h6.771z" fill="#454bd8"/><path d="m193.296 155.89c-.087 4.41-3.714 7.916-8.101 7.828s-7.873-3.736-7.785-8.147c.087-4.412 3.715-7.917 8.102-7.829 4.386.088 7.871 3.735 7.784 8.147m-6.026-12.581c-.019 1.164-.982 2.11-2.146 2.11-.012 0-.025 0-.038 0-1.177-.027-2.124-1.018-2.097-2.195.019-1.164.982-2.11 2.146-2.11h.037c1.177.027 2.124 1.018 2.097 2.195m.001 25.412c-.019 1.164-.982 2.11-2.146 2.11-.012 0-.025 0-.038 0-1.159-.027-2.098-.987-2.098-2.146 0-.017.001-.033.001-.05.019-1.164.982-2.11 2.146-2.11h.037c1.177.028 2.124 1.019 2.097 2.196" fill="#fff"/><path d="m179.105 161.777c-1.602-1.668-2.475-3.908-2.422-6.22.059-2.757 1.414-5.331 3.653-6.94l.843 1.191c-1.865 1.339-2.993 3.482-3.042 5.777-.045 1.924.681 3.789 2.015 5.177zm9.983-2.847h-1.453v-4.072c0-.001 0-.002 0-.003 0-.427-.35-.778-.777-.78-.428.002-.779.355-.778.783v1.628c0 1.237-1 2.244-2.23 2.244-1.227-.004-2.234-1.017-2.232-2.244v-3.956h1.453v3.956c0 .431.35.782.778.782.428-.002.778-.354.777-.782v-1.628c-.002-1.227 1.005-2.24 2.232-2.244 1.227.005 2.232 1.017 2.23 2.244z" fill="#454bd8"/><path d="m179.858 156.461h10.99v-1.461h-10.99zm-3.403-14.756h-.001zm.335 3.062h-1.454v-3.444c0-.57.433-1.032 1.007-1.076 1.728-.134 3.114-1.522 3.245-3.25.037-.572.517-1.024 1.09-1.026h2.547v1.46h-2.225c-.304 2.185-2.028 3.919-4.211 4.236v3.1zm-.427 25.479h.002zm6.773 5.734h-2.549c-.573-.003-1.052-.455-1.088-1.027-.132-1.729-1.52-3.117-3.248-3.25-.563-.038-1.005-.512-1.003-1.076v-3.443h1.453v3.1c2.182.318 3.905 2.051 4.21 4.235h2.225zm-9.99-47.997h1.485v-43.225h-1.485z" fill="#454bd8"/><path d="m181.813 79.077c0 4.046-3.537 7.325-7.9 7.325s-7.9-3.28-7.9-7.325 3.537-7.325 7.9-7.325 7.9 3.28 7.9 7.325" fill="#fff"/><path d="m173.913 87.092c-4.766 0-8.643-3.596-8.643-8.015s3.877-8.014 8.643-8.014c.906 0 1.798.13 2.656.385l-.457 1.312c-.714-.213-1.455-.321-2.2-.32-3.945 0-7.157 2.978-7.157 6.637 0 3.66 3.212 6.637 7.158 6.637 3.945 0 7.157-2.978 7.157-6.637 0-1.256-.38-2.477-1.098-3.534l1.257-.734c.862 1.256 1.324 2.744 1.326 4.268 0 4.42-3.877 8.015-8.642 8.015" fill="#454bd8"/><path d="m178.755 74.19c-.419-.357-.877-.664-1.366-.916l.723-1.203c.591.304 1.144.674 1.65 1.105zm-3.98 8.35h-4.026v-1.378h4.026c.417 0 .754-.313.754-.698s-.337-.699-.754-.699h-1.61c-1.234 0-2.238-.93-2.238-2.075 0-1.144 1.004-2.075 2.238-2.075h3.912v1.378h-3.912c-.415 0-.753.312-.753.697s.338.698.753.698h1.61c1.234 0 2.239.93 2.239 2.076 0 1.145-1.005 2.075-2.239 2.075" fill="#454bd8"/><path d="m173.17 74.01h1.485v10.135h-1.485z" fill="#454bd8"/><path d="m183.203 87.394s.295 3.697-1.983 5.809c-2.277 2.111-6.263 1.838-6.263 1.838s-.295-3.697 1.982-5.809c2.277-2.111 6.264-1.838 6.264-1.838" fill="#38d2de"/><path d="m182.468 88.078c-1.157.03-3.527.272-5.004 1.641-1.476 1.37-1.737 3.565-1.77 4.639 1.157-.032 3.525-.274 5.001-1.642 1.483-1.376 1.742-3.567 1.773-4.638m-7.04 7.664c-.3 0-.49-.012-.526-.015l-.638-.043-.048-.593c-.012-.163-.291-4.037 2.197-6.345 2.487-2.307 6.667-2.052 6.844-2.038l.639.044.047.592c.013.164.291 4.038-2.198 6.346-1.999 1.853-5.086 2.052-6.317 2.052" fill="#454bd8"/><path d="m173.1 95.04s.295-3.696-1.982-5.808c-2.277-2.11-6.263-1.837-6.263-1.837s-.295 3.696 1.982 5.808c2.277 2.111 6.264 1.838 6.264 1.838" fill="#38d2de"/><path d="m165.591 88.075c.034 1.074.294 3.271 1.771 4.641 1.483 1.375 3.847 1.614 5.003 1.644-.034-1.074-.295-3.271-1.772-4.64-1.484-1.375-3.847-1.615-5.002-1.645m7.04 7.666c-1.231 0-4.319-.198-6.32-2.051-2.488-2.308-2.21-6.182-2.197-6.346l.048-.592.638-.044c.178-.014 4.356-.27 6.844 2.038s2.21 6.182 2.198 6.346l-.047.592-.638.043c-.175.01-.351.015-.527.014" fill="#454bd8"/><path d="m189.791 125.297c0 1.033-.8 1.87-1.787 1.87h-25.315c-.988 0-1.788-.837-1.788-1.87v-13.47c0-1.033.8-1.87 1.788-1.87h25.315c.987 0 1.787.837 1.787 1.87z" fill="#fff"/><path d="m173.492 127.872h-11.118c-1.185 0-2.148-1.007-2.148-2.244v-1.467h1.35v1.467c0 .46.357.833.798.833h11.118zm-11.917-9.259h-1.349v-7.116c0-1.239.963-2.246 2.148-2.246h15.945v1.412h-15.945c-.44 0-.799.374-.799.834zm-1.349 4.129h1.35v-2.434h-1.35z" fill="#454bd8"/><path d="m162.2 121.109h1.349v-3.993h-1.35zm0-5.818h1.349v-1.253h-1.35zm25.334 3.271c0 .132.23.132.23 0 .001-.064-.051-.118-.115-.12-.064.002-.116.056-.115.12zm-1.35 0c0-.845.658-1.531 1.465-1.531.808 0 1.465.686 1.465 1.53 0 .845-.657 1.533-1.465 1.533-.807 0-1.465-.688-1.465-1.532z" fill="#454bd8"/><path d="m164.68 111.678h21.253v13.768h-21.253z" fill="#38d2de"/><path d="m167.048 115.994h-1.35v-3.364h3.438v1.411h-2.088zm18.058 8.233h-3.438v-1.412h2.089v-1.952h1.35z" fill="#454bd8"/><path d="m191.09 134.533-4.208-3.42-5.965-.447c-.19-.015-.377-.059-.553-.132l-4.577-1.893s-.34-1.94 1.866-2.044h11.547c.737 0 1.387-.463 1.598-1.145.488-1.568 1.291-4.242 1.246-4.692-.039-.382-1.763-9.008-1.763-9.008l-3.081-2.462h-4.432c-2.47 0-1.846-2.933-1.846-2.933l6.802-.61 6.37 4.772 3.814 9.934 2.78 14.08z" fill="#fff"/><path d="m191.359 133.823h8.44l-2.6-13.179-3.72-9.688-5.976-4.476-5.914.531c-.012.413.041.941.306 1.253.067.078.268.316.874.316h4.695l3.49 2.787.05.25c.288 1.446 1.731 8.678 1.771 9.072.02.2.067.666-1.273 4.967-.305.988-1.23 1.651-2.302 1.651h-11.547c-.427.021-.754.143-.936.362-.112.145-.182.319-.2.501l4.136 1.711c.101.042.211.067.323.076l6.198.465 4.185 3.4zm10.216 1.421h-10.753l-4.232-3.439-5.729-.43c-.27-.021-.535-.083-.785-.186l-4.947-2.047-.067-.382c-.02-.116-.18-1.155.51-1.982.314-.378.923-.839 2.046-.891l11.582-.001c.405.008.77-.253.894-.638.89-2.86 1.212-4.184 1.217-4.448-.044-.316-1.023-5.265-1.702-8.663l-2.673-2.137h-4.167c-1.08 0-1.691-.457-2.015-.841-.915-1.085-.592-2.759-.552-2.947l.11-.515 7.633-.685 6.767 5.068 3.918 10.238 2.945 14.925z" fill="#454bd8"/><path d="m201.275 132.922v45.037h-4.711l.686 4.047c.374 2.208 2.348 3.829 4.662 3.829h2.936v-50.802c0-1.114-.894-2.02-2.023-2.111z" fill="#4178da" fill-opacity=".3"/><path d="m185.411 185.834v-50.8c0-.784.657-1.42 1.468-1.42h14.058c.81 0 1.468.636 1.468 1.42v50.8" fill="#efcc8d"/><path d="m203.14 185.834h-1.47v-50.8c-.007-.395-.337-.714-.732-.708h-14.06c-.395-.006-.725.313-.732.708v32.235h-1.47v-32.235c0-1.174.987-2.13 2.202-2.13h14.06c1.214 0 2.202.956 2.202 2.13z" fill="#454bd8"/><path d="m84.534 181.863c0 1.645 1.316 2.98 2.938 2.98 1.623 0 2.938-1.335 2.938-2.98 0-1.646-1.316-2.98-2.938-2.98s-2.938 1.334-2.938 2.98" fill="#38d2de"/><path d="m78.401 190.828h.542c-.754 0-1.372-.626-1.372-1.392s.618-1.393 1.373-1.393h8.528s-1.132-2.89-1.132-4.259c0-.625-.14-1.889.239-2.492.153-.241 1.252-.247 1.406-.008 0 0 1.042 3.28 1.731 4.238.392.545 1.896 2.521 1.896 2.521h2.331l1.222 8.984h-2.985c-.298 0-.583.122-.791.337l-1.366 1.417c-.247.256-.585.4-.938.4h-7.804c-.755 0-1.372-.626-1.372-1.392s.618-1.392 1.372-1.392h-1.44c-.755 0-1.372-.627-1.372-1.392 0-.766.617-1.393 1.372-1.393h-1.44c-.754 0-1.372-.626-1.372-1.392s.618-1.392 1.372-1.392" fill="#fff"/><path d="m87.472 186.896h-.413c-.323-.962-.719-2.302-.719-3.112 0-.369-.047-.962-.008-1.509.004.133.008.258.008.362 0 1.368 1.132 4.259 1.132 4.259" fill="#f1f2f2"/><path d="m81.281 197.625h7.804c.353 0 .691-.195.938-.541l1.366-1.919c.208-.293.493-.457.792-.457h2.827l.156 2.288h-2.983c-.299 0-.584.165-.792.458l-1.366 1.185c-.247.347-.585.542-.938.542h-7.804c-.754 0-1.372-.849-1.372-1.886 0-.278.047-.539.126-.777.217.651.693 1.108 1.246 1.108" fill="#f2f2f2"/><path d="m78.54 194.176h2.344v-1.128h-2.344c-.45-.004-.819-.377-.816-.828 0-.456.366-.827.816-.827h2.344v-1.129h-2.344c-1.062 0-1.928.877-1.928 1.956s.866 1.956 1.928 1.956" fill="#454bd8"/><path d="m79.98 196.961h3.311v-1.128h-3.311c-.45-.005-.818-.378-.816-.828 0-.458.366-.829.816-.829h3.311v-1.128h-3.311c-1.063 0-1.928.877-1.928 1.958 0 1.077.865 1.955 1.928 1.955" fill="#454bd8"/><path d="m81.421 199.745h7.803c.5 0 .986-.208 1.336-.57l1.365-1.416c.104-.107.246-.168.395-.169h2.984v-1.127h-2.984c-.444 0-.878.184-1.189.507l-1.367 1.416c-.141.147-.336.23-.54.231h-7.803c-.451-.004-.82-.377-.817-.828 0-.455.367-.828.817-.828h1.293v-1.128h-1.293c-1.064 0-1.928.877-1.928 1.956s.864 1.956 1.928 1.956m-2.339-8.352h4.209v-1.13h-4.209c-.45-.004-.818-.377-.815-.827 0-.456.365-.829.815-.829h9.348l-.302-.772c-.304-.776-1.093-3.018-1.092-4.05 0-.127-.005-.278-.011-.443-.018-.479-.045-1.257.112-1.645.175-.029.354-.032.531-.01.265.81 1.102 3.285 1.739 4.168.629.849 1.264 1.694 1.904 2.534l.168.219h2.603v-1.128h-2.057c-.579-.759-1.153-1.523-1.72-2.291-.523-.725-1.369-3.189-1.652-4.078l-.064-.135c-.184-.286-.572-.431-1.153-.431h-.017c-.591.002-.984.151-1.169.444-.4.635-.364 1.652-.337 2.395.006.15.011.287.011.401 0 1.011.538 2.707.886 3.695h-7.727c-1.063 0-1.929.878-1.929 1.956s.866 1.957 1.928 1.957z" fill="#454bd8"/><path d="m92.935 186.532h7.633v11.845h-7.633z" fill="#38d2de"/><path d="m100.568 187.096h-1.5v-1.128h1.5zm-6.493 11.845h6.493v-1.128h-6.493c-.322-.002-.586-.269-.585-.592v-9.533c0-.326.264-.592.585-.592h1.675v-1.128h-1.675c-.935 0-1.696.771-1.696 1.72v9.533c0 .949.761 1.72 1.696 1.72m4.529-11.845h-1.71v-1.128h1.71zm-10.576-9.793h-1.112v-.901h1.112zm-2.62.469 1.046-.386-.608-1.692-1.045.387zm-1.262.956.865-.708-.546-.689-.866.708zm-.848 1.352.555-.978-1.539-.898-.555.979zm-.35 1.559.192-1.111-.869-.155-.191 1.111zm-1.548 1.904 1.746-.317-.196-1.111-1.747.317zm1.746 1.529.723-.426-.561-.975-.721.427zm.747 2.043 1.134-1.385-.856-.721-1.134 1.384zm8.014-2.109.495-1.011-.772-.39-.496 1.011zm1.656-1.538.184-1.111-1.75-.298-.184 1.112zm-1.611-1.879.874-.1-.125-1.121-.873.1zm-.327-1.561 1.528-.916-.566-.971-1.528.916zm-.883-1.318.564-.655-.837-.741-.564.654zm-1.256-.963.588-1.699-1.051-.374-.587 1.699z" fill="#454bd8"/><path d="m101.216 197.496h30.53c1.281 0 2.32-1.07 2.32-2.392v-25.23c0-1.322-1.039-2.393-2.32-2.393h-30.53c-1.282 0-2.321 1.07-2.321 2.392v25.23c0 1.322 1.039 2.393 2.32 2.393" fill="#fff"/><path d="m98.895 187.799 12.165-7.656 8.447 5.082 7.21-7.818 7.35 8.567v4.432h-35.172z" fill="#38d2de"/><path d="m98.895 191.106h27.927v-1.4h-27.927zm.353-2.71-.707-1.195 12.511-7.873 8.333 5.013 7.351-7.97 7.839 9.14-1.017.927-6.86-7.996-7.07 7.667-8.56-5.151z" fill="#454bd8"/><path d="m114.065 173.419c0 .824.649 1.492 1.449 1.492s1.448-.668 1.448-1.492c0-.825-.648-1.493-1.448-1.493s-1.449.668-1.449 1.493" fill="#38d2de"/><path d="m115.513 172.626c-.428.006-.776.364-.77.793 0 .437.346.792.77.792.425 0 .77-.355.77-.792.006-.429-.341-.787-.77-.793m0 2.985c-1.173 0-2.127-.984-2.127-2.192 0-1.21.954-2.193 2.127-2.193 1.174 0 2.128.983 2.128 2.193 0 1.208-.954 2.192-2.128 2.192m5.422-2.985h8.025v-1.4h-8.025zm3.153 2.379h8.025v-1.4h-8.025zm-11.582-6.824h15.071v-1.4h-15.071zm18.693 30.015h-29.437c-1.956 0-3.547-1.64-3.547-3.655v-13.68h1.359v13.68c0 1.243.981 2.255 2.188 2.255h29.436c1.207 0 2.189-1.012 2.189-2.255h1.358c0 2.016-1.591 3.655-3.547 3.655" fill="#454bd8"/><path d="m134.746 194.542h-.68v-8.568l.51-.464-.51-.593v-15.044c0-1.32-1.039-2.392-2.321-2.392h-4.168v-.7h-.234l-.092 30.122 1.018.005.102.18.294-.178 4.797.026.002-.452h.728c.361-.584.553-1.256.554-1.942" fill="#4178da" fill-opacity=".298039"/><path d="m111.049 177.767-1.038-5.518c.613-1.339.931-2.794.932-4.266 0-5.78-4.774-10.466-10.661-10.466-5.888 0-10.662 4.686-10.662 10.466 0 5.781 4.774 10.467 10.662 10.467 2.079 0 4.013-.594 5.653-1.604l5.115.921z" fill="#4178da"/><path d="m100.281 179.006c-6.19 0-11.227-4.944-11.227-11.023 0-6.077 5.037-11.023 11.227-11.023 1.556 0 3.062.308 4.479.912l-.452 1.02c-1.273-.544-2.642-.823-4.026-.82-5.566 0-10.095 4.447-10.095 9.91 0 5.466 4.529 9.912 10.095 9.912 1.888 0 3.739-.525 5.352-1.518l.186-.116 4.524.815-.922-4.894.072-.159c.581-1.267.882-2.645.882-4.039 0-2.266-.799-4.482-2.249-6.237l.878-.701c1.614 1.952 2.499 4.405 2.504 6.937 0 1.494-.306 2.951-.91 4.333l1.157 6.146-5.71-1.03c-1.746 1.031-3.737 1.575-5.765 1.575" fill="#454bd8"/><path d="m107.446 161.001c-.636-.628-1.352-1.169-2.13-1.61l.567-.962c.868.491 1.664 1.094 2.366 1.79l-.803.783z" fill="#454bd8"/><path d="m108.565 167.983c0 4.359-3.684 7.893-8.23 7.893-4.545 0-8.23-3.534-8.23-7.893s3.685-7.892 8.23-7.892c4.546 0 8.23 3.534 8.23 7.892" fill="#fff"/><path d="m100.557 174.42c-1.481.007-2.906-.573-3.963-1.611-1.05-1.021-1.642-2.425-1.641-3.89h1.134c0 1.172.464 2.275 1.309 3.104.842.828 1.979 1.29 3.161 1.286 1.182.005 2.32-.458 3.163-1.286.838-.815 1.31-1.936 1.309-3.104h1.133c0 1.469-.584 2.851-1.642 3.89-1.056 1.038-2.482 1.618-3.963 1.611m-2.63-7.532c-.51 0-.991-.196-1.351-.55-.358-.348-.56-.827-.56-1.327h1.132c0 .203.082.396.229.541.294.289.81.288 1.103 0 .146-.142.228-.337.228-.541h1.133c0 .5-.203.978-.561 1.327-.36.354-.847.552-1.352.55m5.259 0c-.51 0-.991-.196-1.352-.55-.358-.348-.56-.827-.56-1.327h1.132c0 .203.081.396.23.542.292.286.808.288 1.101 0 .146-.143.229-.338.228-.542h1.133c0 .502-.199.973-.56 1.327s-.841.55-1.352.55" fill="#454bd8"/><path d="m309.253 150.99v-85.756c.004-1.812-1.483-3.306-3.295-3.31h-48.7c-1.812.004-3.299 1.498-3.295 3.31v85.754h55.29z" fill="#efcc8d"/><path d="m304.738 150.99v-85.756c0-1.828-1.251-3.31-2.794-3.31h-41.29c-1.543 0-2.794 1.483-2.794 3.31v85.754h46.878z" fill="#fff"/><path d="m253.963 70.506v-5.797c0-.002 0-.005 0-.007 0-1.521 1.249-2.773 2.77-2.777h49.75c1.53 0 2.77 1.247 2.77 2.784v5.797z" fill="#efcc8d"/><path d="m254.657 125.488h-1.388v-60.78c0-1.918 1.554-3.48 3.464-3.48h7.343v1.395h-7.343c-1.141.004-2.077.945-2.076 2.086zm55.29.929h-1.388v-61.708c0-1.15-.932-2.086-2.077-2.086h-32.801v-1.394h32.801c1.904.006 3.467 1.576 3.465 3.48zm-43.191-63.794h3.798v-1.393h-3.798z" fill="#454bd8"/><path d="m253.963 71.354h55.29v-1.394h-55.29zm6.349-3.97h1.287v-1.394h-1.287zm3.733 0h1.288v-1.394h-1.288zm3.735 0h1.286v-1.394h-1.287z" fill="#454bd8"/><path d="m261.37 93.102h40.476v-16.038h-40.477zm.004 26.222h12.307v-16.038h-12.307z" fill="#4178da"/><path d="m275.459 119.324h12.306v-16.038h-12.305z" fill="#f2f2f2"/><path d="m289.543 103.286h12.307v16.038h-12.307z" fill="#38d2de"/><path d="m273.007 97.48h17.21v1.393h-17.21z" fill="#454bd8"/><path d="m303.135 172.83h-93.17v-52.245c0-2.689 2.116-4.869 4.725-4.869h83.72c2.61 0 4.725 2.18 4.725 4.87z" fill="#38d2de"/><path d="m210.655 154.653h-1.38v-34.295c0-2.951 2.33-5.353 5.196-5.353h5.028v1.422h-5.028c-2.105 0-3.816 1.763-3.816 3.931zm93.169-6.462h-1.379v-27.832c0-2.169-1.711-3.933-3.814-3.933h-6.428v-1.42h6.428c2.863 0 5.193 2.4 5.193 5.353z" fill="#454bd8"/><path d="m215.02 166.41h83.163v-45.109h-83.162z" fill="#fff"/><path d="m242.515 181.485h28.07v17.125h-28.07z" fill="#f2f2f2"/><path d="m242.515 181.485h28.07v8.563h-28.07z" fill="#4178da"/><path d="m243.205 197.899h26.69v-15.703h-26.69zm-1.38 1.422h29.45v-18.547h-29.45z" fill="#454bd8"/><path d="m303.135 170.732h-93.17v11.072c0 1.046.824 1.895 1.839 1.895h89.492c1.016 0 1.839-.849 1.839-1.895z" fill="#fff"/><path d="m227.435 184.41h59.15v-1.422h-59.15zm.001-12.967h59.148v-1.422h-59.148zm9.621 28.197h39.352v-1.42h-39.352z" fill="#454bd8"/><path d="m290.982 106.84h-70.819l2.814 58.955h65.19z" fill="#4178da" fill-opacity=".3"/><path d="m287.669 165.795v-69.033c0-2.081-1.714-3.768-3.827-3.768h-56.549c-2.113 0-3.826 1.687-3.826 3.768v69.033z" fill="#f2f2f2"/><path d="m223.467 105.428v-9.292c0-1.735 1.44-3.142 3.217-3.142h57.767c1.777 0 3.218 1.407 3.218 3.142v9.292z" fill="#f2f2f2"/><path d="m224.17 165.795h-1.407v-69.659c0-2.111 1.76-3.83 3.92-3.83h8.527v1.375h-8.526c-1.386 0-2.514 1.101-2.514 2.455zm64.202 0h-1.407v-69.659c0-1.354-1.128-2.455-2.514-2.455h-38.088v-1.374h38.088c2.162 0 3.92 1.718 3.92 3.83v69.658zm-50.049-72.115h4.41v-1.373h-4.41z" fill="#454bd8"/><path d="m223.467 106.285h64.201v-1.374h-64.201zm4.559-8.145h1.63v-1.373h-1.63zm4.071 0h1.63v-1.373h-1.63zm4.07 0h1.631v-1.373h-1.63z" fill="#454bd8"/><path d="m225.398 165.795h60.153v-55.712h-60.153zm18.495-63.635h34.117v-2.28h-34.117zm-9.602 0h7.725v-2.28h-7.725zm-6.265 0h4.886v-2.28h-4.886z" fill="#fff"/><path d="m229.338 113.791h18.146v23.85h-18.146z" fill="#4178da"/><path d="m251.878 113.79h30.082v35.247h-30.082z" fill="#f2f2f2"/><path d="m251.878 160.61h30.082v-5.786h-30.082zm-14.978-15.781h-6.346c-.486.005-.891-.391-.897-.877 0-.484.402-.877.897-.877h6.347c.495 0 .897.393.897.877-.006.486-.411.882-.897.877" fill="#4178da"/><path d="m245.906 144.829h-6.346c-.003 0-.007 0-.01 0-.483 0-.882-.394-.887-.877 0-.484.401-.877.897-.877h6.346c.496 0 .898.393.898.877-.005.483-.404.877-.887.877-.004 0-.007 0-.011 0" fill="#38d2de"/><g fill-rule="nonzero"><g fill="#4788c7"><path d="m233.218 119.634c1.425-1.533 3.539-2.412 5.635-2.266 2.332.132 4.529 1.522 5.701 3.534.82 1.39 1.156 3.124.671 4.686-.267.883-.838 1.639-1.529 2.237-.021.64.129 1.406-.392 1.898-.348.384-.891.402-1.371.403-.013.787.028 1.573-.019 2.359-.059.868-.857 1.595-1.726 1.584-1.178.015-2.358.012-3.536.002-.872.012-1.689-.709-1.745-1.586-.044-.786-.006-1.572-.018-2.359-.481-.001-1.024-.019-1.373-.405-.521-.494-.366-1.262-.392-1.903-.857-.716-1.491-1.712-1.673-2.823-.336-1.94.432-3.954 1.767-5.361m-1.403 4.311c-.089 1.433.628 2.815 1.752 3.678.002.44-.022.88.025 1.318.041.411.436.732.843.725.591.029 1.184 0 1.775.008v1.761h4.402v-1.761c.702-.036 1.424.087 2.112-.074.765-.348.48-1.317.531-1.979.593-.497 1.135-1.085 1.425-1.813.608-1.487.33-3.22-.446-4.59-1.209-2.146-3.655-3.553-6.126-3.418-3.213.126-6.218 2.867-6.293 6.145m3.516 6.17c.012.786-.035 1.574.019 2.359.049.64.647 1.165 1.286 1.154 1.182.017 2.367.016 3.551 0 .637.01 1.235-.512 1.284-1.152.056-.787.007-1.575.02-2.361-.11 0-.327 0-.437 0-.001.584-.003 1.169 0 1.755-.11.001-.33.004-.44.006-.295 0-.589-.002-.883-.002h-2.639c-.295 0-.588.002-.883.002-.11-.002-.331-.005-.439-.006.001-.586 0-1.171-.002-1.757-.108.002-.327.002-.437.002z"/><path d="m235.526 124.452c1.104-.303 2.326.549 2.425 1.689.176 1.156-.868 2.288-2.033 2.204-1.058-.009-1.974-.997-1.9-2.053.016-.86.67-1.651 1.508-1.84m.124.422c-1.102.198-1.59 1.701-.816 2.51.698.871 2.249.59 2.594-.474.464-1.08-.644-2.351-1.778-2.036z"/><path d="m240.372 124.45c1.108-.299 2.329.558 2.423 1.7.17 1.152-.869 2.276-2.03 2.195-1.061-.005-1.981-.998-1.905-2.056.019-.861.674-1.651 1.512-1.839m.126.423c-1.105.195-1.598 1.702-.82 2.512.698.872 2.251.586 2.593-.477.462-1.078-.642-2.343-1.773-2.035z"/><path d="m237.535 129.241c.091-.547.546-.928.876-1.341.335.411.782.796.878 1.341-.015.492-.627.52-.878.184-.248.337-.867.308-.876-.184z"/></g><g fill="#dff0fe"><path d="m231.815 123.945c.075-3.278 3.08-6.019 6.293-6.145 2.471-.135 4.917 1.272 6.126 3.418.776 1.37 1.054 3.103.446 4.59-.29.728-.832 1.316-1.425 1.813-.051.662.234 1.631-.531 1.979-.688.161-1.41.038-2.112.074v.878c-.292.001-.584.003-.874.007-.005.292-.007.584-.009.876-.292 0-.583 0-.873 0-.003-.293-.006-.587-.01-.88-.289-.002-.58-.002-.869 0-.004.293-.007.587-.009.88-.292 0-.582 0-.874 0-.002-.292-.005-.584-.008-.876-.292-.003-.584-.006-.876-.007 0-.292 0-.586 0-.878-.591-.008-1.184.021-1.775-.008-.407.007-.802-.314-.843-.725-.047-.438-.023-.878-.025-1.318-1.124-.863-1.841-2.245-1.752-3.678m3.711.507c-.838.189-1.492.98-1.508 1.84-.074 1.056.842 2.044 1.9 2.053 1.165.084 2.209-1.048 2.033-2.204-.099-1.14-1.321-1.992-2.425-1.689m4.846-.002c-.838.188-1.493.978-1.512 1.839-.076 1.058.844 2.051 1.905 2.056 1.161.081 2.2-1.043 2.03-2.195-.094-1.142-1.315-1.999-2.423-1.7m-2.837 4.791c.009.492.628.521.876.184.251.336.863.308.878-.184-.096-.545-.543-.93-.878-1.341-.33.413-.785.794-.876 1.341z"/><path d="m236.209 131.876c.295 0 .588-.002.883-.002v.885c-.295.001-.588.001-.883 0 0-.295 0-.588 0-.883z"/><path d="m237.97 131.874h.883v.885c-.295.001-.588.001-.883 0-.002-.295 0-.59 0-.885z"/><path d="m239.731 131.874c.294 0 .588.002.883.002v.883c-.295.001-.59.001-.883 0 0-.295 0-.59 0-.885z"/></g><g fill="#98ccfd"><path d="m235.65 124.874c1.134-.315 2.242.956 1.778 2.036-.345 1.064-1.896 1.345-2.594.474-.774-.809-.286-2.312.816-2.51z"/><path d="m240.498 124.873c1.131-.308 2.235.957 1.773 2.035-.342 1.063-1.895 1.349-2.593.477-.778-.81-.285-2.317.82-2.512z"/><path d="m235.331 130.115c.11 0 .329 0 .437-.002.002.586.003 1.171.002 1.757.108.001.329.004.439.006v.883c.295.001.588.001.883 0 0-.295 0-.59 0-.885h.878c0 .295-.002.59 0 .885.295.001.588.001.883 0 0-.295 0-.59 0-.885h.878v.885c.293.001.588.001.883 0 0-.295 0-.588 0-.883.11-.002.33-.005.44-.006-.003-.586-.001-1.171 0-1.755h.437c-.013.786.036 1.574-.02 2.361-.049.64-.647 1.162-1.284 1.152-1.184.016-2.369.017-3.551 0-.639.011-1.237-.514-1.286-1.154-.054-.785-.007-1.573-.019-2.359z"/><path d="m236.21 130.552c.292.001.584.004.876.007.003.292.006.584.008.876-.295 0-.589 0-.884 0 0-.295 0-.588 0-.883z"/><path d="m237.977 130.555c.289-.002.58-.002.869 0 .004.293.007.587.01.88-.297 0-.593 0-.888 0 .002-.293.005-.587.009-.88z"/><path d="m239.738 130.559c.29-.004.582-.006.874-.007v.883c-.295 0-.589 0-.883 0 .002-.292.004-.584.009-.876z"/></g></g><path d="m330.367 197.89v-11.304h-.725v-2.511c1.973.889 4.113 1.351 6.277 1.353 8.316 0 15.081-6.6 15.081-14.714s-6.765-14.714-15.081-14.714c-2.092 0-4.116.41-6.016 1.217l.292.654c-.494.21-.97.451-1.432.712l-.369-.623c-1.161.652-2.23 1.455-3.18 2.388l.516.5c-.34.335-.66.687-.965 1.054l-.567-.45c-2.165 2.601-3.355 5.878-3.362 9.262 0 1.58.268 3.127.779 4.62h-3.383v-.708h-17.232v24.374h28.902c.286-.287.465-.677.465-1.11" fill="#4178da" fill-opacity=".298039"/><path d="m324.66 198.861h-32.096c-.351 0-.635-.316-.635-.706v-23.654c0-.39.284-.706.635-.706h32.096c.35 0 .635.316.635.706v23.654c0 .39-.284.706-.635.706" fill="#fff"/><path d="m298.22 174.552h16.37v-1.513h-16.37zm26.227 25.066h-31.67c-.843 0-1.528-.763-1.528-1.7h1.36c0 .103.076.187.168.187h31.67c.093 0 .168-.084.168-.188v-12.087h1.36v12.087c0 .938-.685 1.7-1.528 1.7" fill="#454bd8"/><path d="m311.53 184.186-5.308 3.407c-.334.215-.752-.054-.752-.483v-6.814c0-.43.418-.698.752-.483l5.307 3.407c.335.215.335.751 0 .966" fill="#38d2de"/><path d="m306.15 180.64v6.127l4.772-3.064zm-.179 7.786c-.21-.001-.415-.063-.59-.178-.371-.237-.592-.663-.592-1.138v-6.814c0-.475.221-.9.591-1.138s.813-.238 1.183 0l5.307 3.406c.37.238.59.663.59 1.138 0 .476-.22.901-.59 1.139l-5.307 3.407c-.176.115-.382.177-.592.178zm-10.32 6.608h25.583v-1.513h-25.584z" fill="#454bd8"/><path d="m300.692 192.015h1.36v4.525h-1.36z" fill="#454bd8"/><path d="m280.945 144.237-1.359-7.466c.804-1.818 1.22-3.783 1.22-5.77 0-7.82-6.247-14.16-13.952-14.16s-13.951 6.34-13.951 14.16 6.246 14.159 13.951 14.159c2.721 0 5.251-.802 7.397-2.17z" fill="#4178da"/><path d="m266.854 145.875c2.66-.003 5.269-.741 7.536-2.132l7.435 1.384-1.506-8.27c.787-1.852 1.192-3.844 1.19-5.856 0-3.4-1.16-6.725-3.266-9.363l-1.095.901c1.911 2.405 2.952 5.389 2.952 8.462.001 1.887-.393 3.753-1.157 5.479l-.09.203 1.214 6.663-5.958-1.11-.231.148c-2.097 1.342-4.534 2.058-7.024 2.061-7.304 0-13.246-6.03-13.246-13.444 0-7.413 5.941-13.445 13.246-13.445 1.835 0 3.613.374 5.282 1.112l.564-1.31c-1.841-.816-3.833-1.236-5.846-1.232-8.081 0-14.656 6.673-14.656 14.875s6.575 14.874 14.656 14.874" fill="#454bd8"/><path d="m276.255 121.53 1-1.008c-.918-.94-1.957-1.752-3.09-2.415l-.704 1.239c1.024.6 1.964 1.334 2.794 2.184" fill="#454bd8"/><path d="m256.306 131.001c0 5.897 4.822 10.677 10.77 10.677s10.77-4.78 10.77-10.677-4.822-10.678-10.77-10.678-10.77 4.78-10.77 10.678" fill="#f2f2f2"/><path d="m272.3 129.597c.225-1.504-.921-2.313-2.487-2.852l.508-2.038-1.241-.309-.495 1.984c-.326-.082-.661-.158-.994-.234l.498-1.997-1.239-.31-.509 2.038c-.27-.062-.535-.122-.792-.186l.001-.006-1.711-.428-.33 1.325s.921.211.901.224c.503.126.593.458.578.722l-.578 2.321c.034.009.079.022.129.042-.042-.011-.086-.022-.131-.033l-.812 3.252c-.061.153-.217.382-.568.295.012.018-.902-.225-.902-.225l-.616 1.42 1.614.402c.3.075.595.154.885.228l-.513 2.061 1.239.31.508-2.04c.339.092.667.177.989.257l-.506 2.03 1.24.309.513-2.057c2.116.4 3.707.238 4.376-1.675.54-1.54-.027-2.429-1.14-3.008.811-.187 1.422-.721 1.585-1.822zm-2.835 3.975c-.383 1.54-2.977.708-3.818.499l.681-2.731c.841.21 3.538.625 3.137 2.232zm.384-3.997c-.35 1.402-2.509.689-3.209.515l.617-2.477c.7.175 2.956.501 2.592 1.962z" fill="#454bd8" fill-rule="nonzero"/><g clip-path="url(#a)" fill-rule="nonzero"><path d="m147.734 151.087c1.004-2.604 5.027-2.868 6.368-.421 1.173 1.762.246 3.939-1.251 5.159-.018 1.323-.018 2.646-.018 3.969 4.943.445 9.669 2.424 13.494 5.587.908-.908 1.816-1.816 2.706-2.749-.108-1.858.601-4.016 2.61-4.516 2.603-.914 5.394 1.871 4.486 4.474-.494 2.003-2.64 2.724-4.492 2.622-.938.89-1.852 1.798-2.766 2.712 3.15 3.831 5.123 8.551 5.574 13.488 1.323 0 2.646 0 3.969-.018 1.148-1.341 3.006-2.339 4.744-1.473 2.622 1.016 2.856 5.081.373 6.392-1.762 1.136-3.909.204-5.117-1.275-1.323-.018-2.646-.018-3.969-.018-.457 4.931-2.424 9.657-5.58 13.476.914.92 1.834 1.834 2.772 2.724 1.852-.115 4.004.619 4.492 2.621.914 2.622-1.931 5.418-4.534 4.456-1.973-.523-2.67-2.658-2.556-4.492-.89-.938-1.804-1.852-2.718-2.766-3.819 3.169-8.551 5.142-13.488 5.593 0 1.322 0 2.645.018 3.968 1.341 1.155 2.339 3.019 1.461 4.757-1.022 2.604-5.063 2.844-6.38.373-1.142-1.762-.216-3.921 1.275-5.13.018-1.323.018-2.652.018-3.968-4.937-.451-9.657-2.43-13.482-5.575-.914.908-1.828 1.822-2.712 2.76.031 1.69-.426 3.656-2.182 4.336-2.454 1.245-5.587-1.155-5.027-3.855.252-2.231 2.585-3.265 4.606-3.072.938-.884 1.858-1.792 2.772-2.706-3.163-3.825-5.136-8.557-5.593-13.5-1.322 0-2.645 0-3.968.018-1.149 1.335-3.001 2.339-4.739 1.473-2.622-1.01-2.862-5.069-.391-6.392 1.762-1.148 3.921-.21 5.136 1.275 1.323.018 2.64.018 3.962.018.451-4.943 2.43-9.675 5.587-13.506-.914-.908-1.828-1.816-2.766-2.7-1.846.114-3.993-.607-4.498-2.598-.92-2.603 1.864-5.406 4.474-4.498 1.996.494 2.73 2.64 2.615 4.492.89.938 1.798 1.852 2.712 2.767 3.825-3.151 8.557-5.118 13.494-5.569 0-1.323 0-2.646-.018-3.969-1.341-1.148-2.333-3.006-1.473-4.744m2.375-.078c-1.142.613-1.142 2.477.012 3.079 1.119.727 2.76-.205 2.7-1.546.054-1.341-1.593-2.261-2.712-1.533m-21.678 9.032c-1.99 1.13-.036 4.353 1.888 3.054 2.015-1.118.049-4.365-1.888-3.054m43.302-.006c-2.003 1.124-.048 4.365 1.882 3.06 2.008-1.118.054-4.353-1.882-3.06m-24.661 1.906c-5.82 1.052-11.106 4.642-14.275 9.633-5.376 8.1-4.227 19.748 2.646 26.627 6.795 7.348 18.851 8.797 27.186 3.259 8.376-5.135 12.255-16.326 8.767-25.532-3.301-9.76-14.203-16.086-24.324-13.987m-27.655 19.742c-2.002 1.124-.042 4.377 1.883 3.054 2.008-1.118.048-4.353-1.883-3.054m61.336.006c-2.009 1.13-.024 4.377 1.9 3.036 1.984-1.13.018-4.335-1.9-3.036m-52.304 21.635c-2.026 1.125-.048 4.39 1.889 3.049 1.978-1.118.036-4.324-1.889-3.049m43.266.018c-1.973 1.137-.024 4.342 1.894 3.043 2.026-1.106.042-4.372-1.894-3.043m-21.624 9.014c-2.02 1.119-.03 4.384 1.894 3.037 1.985-1.125.03-4.33-1.894-3.037z" fill="#4178da"/><path d="m148.762 165.326c9.038-1.359 18.274 5.286 19.922 14.264 1.985 8.647-3.524 18.076-11.954 20.722-6.044 2.086-13.127.589-17.812-3.759-4.828-4.287-6.993-11.281-5.418-17.546 1.618-7.138 7.992-12.857 15.262-13.681m-7.895 5.166c2.159 2.171 4.317 4.335 6.494 6.482.619-.252 1.245-.511 1.864-.764-.006-3.06.012-6.121-.018-9.182-3.019.445-5.893 1.63-8.34 3.464m11.984-3.464c-.03 3.067-.012 6.14-.018 9.206.481.175 1.437.536 1.918.71 2.153-2.141 4.306-4.287 6.447-6.44-2.448-1.846-5.322-3.025-8.347-3.476m-18.016 14.366c3.067.03 6.134.012 9.201.012.186-.469.565-1.413.751-1.882-2.152-2.171-4.311-4.33-6.476-6.477-1.846 2.442-3.019 5.322-3.476 8.347m22.436-1.852c.192.469.565 1.401.752 1.87 3.066-.006 6.127.012 9.188-.018-.451-3.019-1.624-5.887-3.458-8.335-2.171 2.153-4.329 4.312-6.482 6.483m-7.294-1.624c-2.273.415-4.131 2.448-4.318 4.751-.373 2.874 1.967 5.712 4.847 5.917 3.061.391 6.031-2.315 5.917-5.4.096-3.271-3.259-6.013-6.446-5.268m-15.142 7.12c.463 3.025 1.63 5.899 3.482 8.346 2.165-2.152 4.324-4.311 6.47-6.476-.186-.475-.559-1.413-.751-1.882-3.067 0-6.134-.024-9.201.012m23.182-.012c-.187.463-.56 1.395-.746 1.864 2.147 2.165 4.311 4.324 6.476 6.476 1.84-2.441 3.013-5.309 3.47-8.328-3.067-.036-6.134-.012-9.2-.012m-17.144 10.914c2.447 1.828 5.315 3.013 8.334 3.458.03-3.061.012-6.122.018-9.183-.619-.252-1.245-.505-1.864-.757-2.171 2.146-4.335 4.311-6.488 6.482m11.96-5.731c.006 3.061-.012 6.128.018 9.195 3.025-.457 5.899-1.636 8.341-3.482-2.147-2.159-4.3-4.312-6.459-6.458-.637.246-1.268.499-1.9.745z" fill="#4178da"/><g fill="#efcc8d"><path d="m150.109 151.009c1.119-.728 2.766.192 2.712 1.533.06 1.341-1.581 2.273-2.7 1.546-1.154-.602-1.154-2.466-.012-3.079z"/><path d="m128.431 160.041c1.937-1.311 3.903 1.936 1.888 3.054-1.924 1.299-3.878-1.924-1.888-3.054z"/><path d="m171.733 160.035c1.936-1.293 3.89 1.942 1.882 3.06-1.93 1.305-3.885-1.936-1.882-3.06z"/><path d="m147.072 161.941c10.121-2.099 21.023 4.227 24.324 13.987 3.488 9.206-.391 20.397-8.767 25.532-8.335 5.538-20.391 4.089-27.186-3.259-6.873-6.879-8.022-18.527-2.646-26.627 3.169-4.991 8.455-8.581 14.275-9.633m1.69 3.385c-7.27.824-13.644 6.543-15.262 13.681-1.575 6.265.59 13.259 5.418 17.546 4.685 4.348 11.768 5.845 17.812 3.759 8.43-2.646 13.939-12.075 11.954-20.722-1.648-8.978-10.884-15.623-19.922-14.264z"/><path d="m149.977 177.918c3.187-.745 6.542 1.997 6.446 5.268.114 3.085-2.856 5.791-5.917 5.4-2.88-.205-5.22-3.043-4.847-5.917.187-2.303 2.045-4.336 4.318-4.751z"/><path d="m119.417 181.683c1.931-1.299 3.891 1.936 1.883 3.054-1.925 1.323-3.885-1.93-1.883-3.054z"/><path d="m180.753 181.689c1.918-1.299 3.884 1.906 1.9 3.036-1.924 1.341-3.909-1.906-1.9-3.036z"/><path d="m128.449 203.324c1.925-1.275 3.867 1.931 1.889 3.049-1.937 1.341-3.915-1.924-1.889-3.049z"/><path d="m171.715 203.342c1.936-1.329 3.92 1.937 1.894 3.043-1.918 1.299-3.867-1.906-1.894-3.043z"/><path d="m150.091 212.356c1.924-1.293 3.879 1.912 1.894 3.037-1.924 1.347-3.914-1.918-1.894-3.037z"/></g></g><path d="m296.84 111.216v15.115c0 .834.672 1.509 1.502 1.509h.82v8.881c0 .318.393.461.596.218l7.588-9.1h21.22c.83 0 1.503-.674 1.503-1.508v-15.115c0-.834-.673-1.509-1.502-1.509h-30.225c-.83 0-1.502.675-1.502 1.509" fill="#fff"/><path d="m298.342 110.41c-.441.001-.804.365-.803.806v15.115c0 .445.36.807.803.807h1.518v8.586l7.16-8.586h21.547c.441-.002.804-.366.803-.807v-15.115c.001-.441-.362-.805-.803-.807h-30.225zm1.161 27.354c-.119 0-.24-.021-.358-.064-.411-.147-.686-.541-.683-.978v-8.18h-.12c-1.213 0-2.2-.992-2.2-2.21v-15.117c0-1.219.987-2.21 2.2-2.21h30.225c1.214 0 2.2.991 2.2 2.21v15.115c0 1.219-.986 2.21-2.2 2.21h-20.894l-7.38 8.848c-.202.244-.49.375-.79.375z" fill="#454bd8"/><path d="m304.255 115.314h18.4v-1.404h-18.4zm0 3.99h18.4v-1.404h-18.4zm0 3.99h9.952v-1.404h-9.952z" fill="#454bd8"/><path d="m236.996 162.118c0-1.517-1.284-2.753-2.862-2.753h-11.556v26.12c0 .823.693 1.49 1.549 1.49h12.869zm-29.798 35.343v-35.821c0-.823.693-1.49 1.549-1.49h3.13v38.801h-3.13c-.856 0-1.55-.667-1.55-1.49" fill="#4178da" fill-opacity=".298039"/><path d="m233.282 198.951h-22.415c-.85 0-1.54-.663-1.54-1.48v-36.066c0-.818.69-1.481 1.54-1.481h22.415c.85 0 1.54.663 1.54 1.48v36.067c0 .817-.69 1.48-1.54 1.48" fill="#fff"/><path d="m232.54 199.648h-20.932c-1.657 0-3.004-1.297-3.004-2.89v-34.64c0-1.594 1.347-2.89 3.004-2.89h1.398v1.392h-1.398c-.858 0-1.556.672-1.556 1.498v34.64c0 .825.698 1.497 1.556 1.497h20.933c.858 0 1.556-.672 1.556-1.498v-34.64c0-.825-.698-1.497-1.556-1.497h-14.416v-1.393h14.416c1.656 0 3.005 1.297 3.005 2.89v34.64c0 1.594-1.349 2.89-3.005 2.89" fill="#454bd8"/><path d="m214.335 160.62h2.83v-1.393h-2.83zm3.965 2.94h7.547v-1.393h-7.546zm3.775 31.719c-.276 0-.5.216-.5.481s.224.48.5.48c.275 0 .5-.215.5-.48-.006-.269-.231-.485-.5-.481m0 2.354c-1.074 0-1.948-.84-1.948-1.873s.874-1.874 1.948-1.874c1.073 0 1.948.84 1.948 1.874 0 1.033-.875 1.873-1.948 1.873" fill="#454bd8"/><path d="m211.877 165.556h20.395v27.645h-20.395z" fill="#f2f2f2"/><path d="m222.916 189.582h-.768c-.706 0-1.282-.553-1.282-1.232h1.45c0-.09-.074-.16-.168-.16h.768c-.002 0-.003 0-.005 0-.088 0-.161.072-.162.16h1.448c0 .679-.575 1.232-1.281 1.232" fill="#454bd8"/><path d="m225.055 188.377h-5.158l-1.178-2.15v-5.747c-1.955-1.244-3.153-3.363-3.153-5.626 0-1.59.586-3.132 1.648-4.345l1.107.898c-.839.952-1.304 2.178-1.307 3.447 0 1.902 1.07 3.68 2.791 4.635l.362.202v6.191l.604 1.102h3.482l.735-1.128v-6.165l.361-.202c1.722-.957 2.792-2.733 2.792-4.635 0-2.952-2.495-5.352-5.564-5.352-.722 0-1.425.13-2.088.39l-.545-1.291c.839-.327 1.732-.495 2.633-.493 3.867 0 7.012 3.026 7.012 6.746 0 2.263-1.198 4.382-3.154 5.626v5.774z" fill="#454bd8"/><path d="m218.908 170.83-1.03-.98c.431-.42.663-.547 1.087-.78l.117-.065.723 1.209-.121.065c-.382.211-.485.267-.776.55m-.41 11.381h8.159v-1.395h-8.159zm0 1.818h8.159v-1.393h-8.159zm0 1.82h8.159v-1.394h-8.159z" fill="#454bd8"/><path d="m284.535 183.957c1.01 0 1.828-.835 1.828-1.865v-32.037h-13.01c-1.84 0-3.34 1.53-3.34 3.408v30.494zm28.205 12.281v-21.168h-.662v.7h-5.7c-.352.003-.64.294-.64.646v.006 21.652h-.685c0 .867.69 1.572 1.54 1.572h2.806c1.841 0 3.34-1.53 3.34-3.41" fill="#4178da" fill-opacity=".298039"/><path d="m308.409 198.947h-34.066c-1.003 0-1.816-.83-1.816-1.853v-44.486c0-1.024.813-1.853 1.816-1.853h34.066c1.003 0 1.816.83 1.816 1.853v44.486c0 1.023-.813 1.853-1.816 1.853" fill="#fff"/><path d="m307.57 199.646h-32.387c-1.843 0-3.342-1.529-3.342-3.408v-42.775c0-1.878 1.5-3.408 3.342-3.408h22.639v1.4h-22.64c-1.086 0-1.97.9-1.97 2.008v42.775c0 1.108.884 2.01 1.97 2.01h32.388c1.086 0 1.97-.902 1.97-2.01v-42.775c0-1.107-.884-2.009-1.97-2.009h-3.485v-1.4h3.485c1.842 0 3.341 1.53 3.341 3.41v42.774c0 1.88-1.499 3.408-3.34 3.408" fill="#454bd8"/><path d="m299.708 151.454h3.284v-1.399h-3.284zm-12.725 3.631h8.785v-1.399h-8.785zm4.393 39.167c-.409.004-.742.344-.739.753 0 .416.332.755.74.755.407 0 .739-.339.739-.755.003-.409-.331-.749-.74-.753m0 2.907c-1.164 0-2.11-.966-2.11-2.154 0-1.186.946-2.151 2.11-2.151 1.165 0 2.11.965 2.11 2.151 0 1.188-.945 2.154-2.11 2.154" fill="#454bd8"/><path d="m275.495 157.71h31.762v34.137h-31.762z" fill="#f2f2f2"/><path d="m285.494 166.387c-.108.044-.295.111-.531.211-.3.126-.682.283-1.065.515-.679.411-1.211.872-1.666 1.334-1.218 1.238-1.532 2.584-1.389 2.857-.217-.413-.078-1.262.047-1.616.66-1.874 2.163-2.93 2.939-3.535.979-.764 1.445-1.532 1.505-1.686.301-.777.789-1.251 1.504-1.428.498-.124 1.095-.095 1.556.105.947.335 2.088 1.312 1.337 3.407-.252.659-.809 1.236-1.182 1.57-.087.097-.221.191-.484.49-.344.391-.701.946-.51.89.832-.549 1.846-.778 3.079-.703.841.052 1.709.267 2.129.398.797.249 2.433.888 4.004 2.014 1.501 1.075 3.31 3.035 3.634 3.371.263.273.706.66.694.726-.006.038-.104.058-.164.066.005.002 0 .003-.021.004-.051.003-.026.003.021-.004-.027-.007-.298-.011-.322.049-.028.072.23.202.556.447.338.253.6.499.602.562s.038.205-.324.094c-.058-.018-.459-.196-.506-.129-.048.067.31.206.251.269s-.455.024-.787-.094c-.565-.199-1.151-.602-1.458-.725-.256-.103-.785-.218-1.343-.258-.595-.043-3.329.22-3.818.281-1.73.214-2.885-.152-3.195-.281-.23-.096-.521-.267-.648-.304.344.483 1.454.89 2.662.936.315.012 1.055-.009 1.782-.047.905-.046 1.824-.191 2.639-.21.601-.015 1.494.014 1.504.351.011.342-1.164.573-1.805.679-3.25.535-2.798 2.134-2.777 2.669.018.476.245.942.231 1.288-.022.536-.173.742-.231 1.358-.024.25-.054.885-.047 1.404.007.461.05.827.047.796.087.873.445.783 1.365.75.573-.021 1.114.065 1.065.398-.01.063-.108-.042-.255-.047-.6-.021-1.507.151-1.597.164-.283.039-.372-.108-.532 0-.185.124-.259.26-.394.421-.117.14-.148.402-.254.398-.164-.006-.139-.578-.093-.679s.119-.079.139-.164c.019-.079-.222.012-.417-.023-.354-.068-1.483-.313-1.666.164-.041.106-.084.034-.162-.047s-.028-.423.532-.515c.247-.041.73-.085.949-.07.652.044.845-.092.88-.422.028-.268.082-.677.092-1.124.013-.515-.021-1.073-.046-1.404-.039-.531-.281-.915-.278-1.358.002-.323.139-.848.162-1.288.012-.232-.036-.891-.208-1.288-.191-.441-.611-1.245-2.592-1.873-.981-.311-1.738-.644-2.292-1.077-.367-.287-.783-.715-1.157-1.311-.176-.28-.322-.575-.463-.983-.137-.397-.438-1.502-.023-2.576.073-.188.282-.565.255-.562-.09.012-.641.738-.718 1.592-.098 1.099.394 2.131.394 2.131.021.053-1.263-.552-1.713-1.896-.63-1.88.553-3.584.602-3.653.384-.54.842-.962 1.027-1.123l-.009-.001s.102-.118.069-.07c.133-.194.199-.376.116-.538-.059-.116-.282-.199-.555-.188-.127.005-.499.097-.673.141zm.511-1.686c-.037-.076-.012-.181.023-.234.042-.064.074-.108.208-.141.234-.056.338.118.347.188.014.105-.013.148-.046.187-.042.05-.134.106-.278.107-.04 0-.2.005-.254-.107z" fill="#454bd8"/><path d="m292.629 52.3c-9.186 0-16.634-7.525-16.634-16.806s7.448-16.806 16.634-16.806c9.187 0 16.634 7.525 16.634 16.806 0 9.28-7.447 16.805-16.634 16.805z" fill="#fff"/><path d="m306.985 27.033c.29 1.244.46 2.536.46 3.87 0 9.28-7.447 16.805-16.634 16.805-6.13 0-11.47-3.359-14.355-8.345 1.732 7.413 8.307 12.936 16.173 12.936 9.187 0 16.634-7.524 16.634-16.806 0-3.088-.84-5.973-2.278-8.46" fill="#38d2de"/><g fill="#454bd8"><path d="m292.628 52.988c-9.547 0-17.315-7.848-17.315-17.494s7.768-17.494 17.315-17.494c1.82 0 3.61.283 5.322.84l-.42 1.312c-1.583-.515-3.237-.777-4.902-.775-8.795 0-15.952 7.23-15.952 16.117 0 8.886 7.157 16.117 15.952 16.117 8.797 0 15.953-7.23 15.953-16.117 0-3.05-.846-6.017-2.447-8.583l1.153-.735c1.741 2.795 2.662 6.025 2.658 9.318 0 9.646-7.768 17.494-17.317 17.494"/><path d="m303.422 23.626c-.923-.858-1.945-1.605-3.044-2.223l.664-1.203c1.192.671 2.3 1.48 3.303 2.41zm-16.016-.978c-.85 0-1.543.7-1.543 1.559s.693 1.559 1.543 1.559 1.542-.7 1.542-1.56c0-.858-.692-1.558-1.542-1.558m0 4.495c-1.602 0-2.906-1.317-2.906-2.936s1.304-2.935 2.906-2.935 2.906 1.316 2.906 2.935-1.304 2.936-2.906 2.936m-7.678 2.298c-.506.003-.919.421-.917.927 0 .512.412.928.917.928.506-.003.92-.422.918-.928.002-.506-.412-.924-.918-.927m0 3.232c-1.257 0-2.28-1.034-2.28-2.305 0-1.27 1.023-2.304 2.28-2.304 1.258 0 2.282 1.033 2.282 2.304s-1.024 2.305-2.282 2.305m.757 2.144c-.43.003-.783.359-.782.79 0 .438.351.793.782.793.433-.003.786-.36.784-.792.002-.432-.352-.789-.784-.791m0 2.96c-1.182 0-2.145-.973-2.145-2.17 0-1.194.963-2.167 2.145-2.167 1.184.007 2.152.985 2.147 2.168 0 1.196-.963 2.169-2.147 2.169"/><g fill-rule="nonzero"><path d="m282.842 28.49c-.385-.984.811-2.013 1.784-1.539.752.274.824 1.109.735 1.769.355.341.705.685 1.058 1.03.294-.064.676-.232 1.04-.32.216.002.404.147.462.354.059.208-.027.429-.21.544.028.044.028.044.028.044.096.078.287.234.381.314 1.232-1.203 2.978-1.84 4.729-1.745 1.76-.099 3.511.539 4.754 1.741.125-.106.252-.209.379-.312-.287-.207-.9-.276-.71-.746.513-.567 1.401-.007 2.021.133.355-.346.71-.692 1.065-1.037-.088-.66-.015-1.495.736-1.769.965-.468 2.15.536 1.791 1.516-.173.718-.975.891-1.628.957-.307.427-.612.859-.914 1.289.208.578.633 1.483.392 1.796-.436.567-.885-.029-.999-.495-.377.402-.772.79-1.162 1.18.537 2.38 1.409 4.97.313 7.326 1.153.858 2.345 1.665 3.612 2.357-1.492-.026-2.958-.325-4.361-.806-.022.694-.011 1.389-.035 2.085-.638-.561-1.173-1.225-1.576-1.96-.576.685-1.146 1.45-2.001 1.829-.607.167-1.254.091-1.878.112-.574-.032-1.214.074-1.725-.245-.936-.579-1.567-1.494-2.152-2.383-1.71.866-3.616 1.346-5.552 1.372 1.89-1.027 3.595-2.321 5.262-3.644-.004-.344-.008-.687-.015-1.031-.67-.854-1.008-1.924-.765-2.989-.276-.659-.469-1.346-.583-2.048-.377-.384-.758-.761-1.12-1.155-.122.453-.5 1.069-.933.5-.214-.28.109-1.223.313-1.801-.302-.43-.605-.859-.912-1.287-.646-.07-1.44-.23-1.624-.936m5.646 3.06c2.742-1.22 6.007-1.214 8.751-.002-1.082-1.206-2.724-1.865-4.376-1.764-1.653-.099-3.301.55-4.375 1.766m-.344 2.464c.186.405.386.801.592 1.197-.752 1.364.434 2.972 1.933 3.132.103.765-.265 1.73.245 2.361 1.293.088 2.604.086 3.897.002.5-.645.142-1.596.241-2.363.59-.183 1.258-.341 1.637-.86.544-.632.691-1.53.296-2.272.206-.394.406-.792.592-1.197-3.143-.011-6.288-.011-9.433 0m1.271 4.649c-.059.683-.127 1.381-.002 2.062.221.737.76 1.336 1.286 1.894.299.266.597.635 1.041.643.855.028 1.738.11 2.576-.071.699-.439 1.22-1.098 1.672-1.762.574-.816.37-1.849.315-2.768-.716.654-.085 1.733-.657 2.449-.333.456-.964.441-1.471.553v.775c-.291 0-.585 0-.876 0 0-.28 0-.563 0-.843-.292 0-.585 0-.877 0v.843c-.291 0-.585 0-.877 0 0-.259 0-.516 0-.775-.506-.112-1.133-.095-1.468-.548-.581-.715.064-1.802-.662-2.452z"/><path d="m290.281 34.903c.519-.065 1.093-.137 1.582.087.778.472.759 1.774-.037 2.225-.929.483-2.284.005-2.446-1.1-.093-.637.227-1.127.901-1.212z"/><path d="m294.007 34.838c.594-.17 1.442.081 2.004.316.145.062.261.177.323.322.214.718-.236 1.585-1.055 1.741-.58.109-1.334.218-1.719-.288-.469-.605-.365-1.858.447-2.091z"/><path d="m292.512 37.458c.697-.316 1.251.417 1.457.967.038.11.081.232.119.359.06.247.002.507-.156.706-.158.198-.398.313-.652.311-.272.034-.544.048-.814.045-.296-.017-.57-.164-.748-.402s-.241-.543-.173-.832c.245-.453.565-.897.967-1.154z"/></g></g><path d="m204.028 192.652-16.912-5.46c-.523-.176-.813-.747-.647-1.273l5.33-17.323c.123-.418.51-.708.946-.708.101 0 .201.016.297.046l16.912 5.46c.522.168.812.738.647 1.273l-5.33 17.322c-.123.419-.51.709-.946.709-.101 0-.201-.016-.297-.046" fill="#fff"/><path d="m203.474 188.678-14.048-4.535 4.17-13.55 14.048 4.536z" fill="#38d2de"/><path d="m207.668 186.574-1.33-.43 3.534-11.484c.084-.269-.064-.56-.331-.651l-16.505-5.329c-.048-.015-.098-.022-.148-.022-.224 0-.423.148-.487.362l-1.659 5.388-1.33-.43 1.658-5.389c.315-1.025 1.383-1.597 2.386-1.272l16.505 5.329c1 .323 1.557 1.42 1.242 2.444z" fill="#454bd8"/><path d="m184.474 183.91-17.963 4.14c-.78.18-1.556-.323-1.732-1.122l-2.652-12.08c-.176-.8.314-1.594 1.095-1.773l17.963-4.14c.78-.18 1.556.323 1.731 1.122l2.653 12.08c.176.8-.315 1.594-1.095 1.774" fill="#fff"/><path d="m182.599 168.61-8.386 9.47c-.215.246-.566.327-.867.2l-11.537-4.88z" fill="#4178da"/><path d="m173.639 179.055c-.19 0-.38-.037-.56-.114l-11.316-4.786.533-1.323 11.316 4.787 8.202-9.19 1.035.962-8.12 9.17c-.276.313-.673.493-1.09.494" fill="#454bd8"/><path d="m164.01 186.685-2.68-12.204c-.095-.433-.02-.879.212-1.254.226-.37.593-.635 1.016-.732l1.947-.449.307 1.395-1.948.45c-.122.03-.199.154-.172.277l2.68 12.202-1.361.315zm19.133-12.335-1.022-4.66c-.021-.105-.114-.181-.221-.181-.017 0-.034.002-.051.006l-11.969 2.758-.307-1.395 11.97-2.758c.873-.206 1.743.362 1.94 1.256l1.022 4.661zm-16.692-1.287-.306-1.395 2.237-.515.305 1.395z" fill="#454bd8"/><g fill-rule="nonzero"><path d="m199.642 173.517c.655.23 1.227.643 1.888.856.33.113.673.173 1.013.239-.351.125-.717.232-1.094.208-.61-.013-1.154-.33-1.743-.441-.035.025-.104.076-.137.101.979.38 1.966.739 2.951 1.103.175 1.027-.132 2.06-.478 3.017-.359.919-.797 1.865-1.577 2.505-.969-.367-1.942-.725-2.913-1.087-.025.071-.074.212-.098.284.128.143.242.298.335.467.296.175.605-.105.911.01.265.06.419.295.538.519.088.032.177.066.265.099.412-.229.913-.064 1.156.328.342-.036.694-.135.932-.398.326-.306.386-.764.544-1.161.17-.417.741-.577 1.11-.324.262.151.357.459.378.742l-.098.265c-.222.355-.821.241-.864-.183-.062-.315.185-.57.484-.579.047-.001-.11-.084-.298-.073-.143.009-.312.092-.379.19-.35.514-.061 1.125-.045 1.685.083.898-.143 1.878-.876 2.463.07.039.211.115.282.154-.026.074-.08.223-.107.296-.347-.168-.642-.423-.978-.61-.525-.225-1.124-.101-1.655-.303-.499-.187-.86-.61-1.347-.819-.504-.162-1.057-.076-1.557-.262-.498-.186-.86-.61-1.346-.818-.506-.163-1.058-.076-1.559-.263-.531-.195-.905-.675-1.446-.85-.377-.081-.768-.079-1.143-.179.029-.075.089-.225.119-.3.075.019.225.057.3.077-.034-.39-.053-.796.1-1.165.327-.842 1.002-1.495 1.731-2.003.07.028.213.083.283.11-.1.347-.205.722-.08 1.076.081.303.323.514.548.711.461-.186 1.031-.013 1.194.487.295.169.604-.105.908.007.38.063.432.545.796.627.182-.069.372-.11.564-.136.028-.069.083-.208.111-.278-1.159-.43-2.315-.864-3.475-1.291.854-.713 1.308-1.773 1.68-2.794.292-.87.532-1.802.375-2.726 1.156.435 2.314.862 3.471 1.294.107-.293.217-.585.326-.877m-3.43.053c.005.879-.218 1.74-.519 2.559-.313.852-.716 1.687-1.318 2.375.274.103.548.205.821.309.294.108.589.216.884.323.286.11.571.217.857.325.295.107.589.217.884.323.286.11.572.217.858.325.295.109.592.218.89.324.269.1.53.222.808.294.132-.012.196-.161.287-.242.574-.693.937-1.533 1.227-2.377.232-.724.43-1.485.357-2.25-.239-.189-.569-.232-.847-.353-.295-.114-.589-.225-.885-.336-.286-.105-.572-.211-.858-.314-.295-.113-.588-.223-.882-.334-.287-.105-.573-.211-.859-.313-.295-.114-.589-.224-.884-.335-.274-.1-.547-.203-.821-.303m-4.312 5.132c-.404.501-.605 1.157-.464 1.795.637.01 1.128.426 1.622.773.555.395 1.273.225 1.89.429.488.205.85.624 1.342.822.503.173 1.052.092 1.556.256.609.253 1.048.865 1.742.916.59.054 1.217.07 1.699.466.878-.647.952-1.855.744-2.839-.331.397-.785.669-1.303.725-.029.459-.444.87-.918.778-.425-.052-.666-.469-.664-.867-.242.269-.631.444-.98.27-.327-.127-.451-.479-.479-.801-.243.267-.634.433-.979.258-.324-.13-.446-.48-.471-.801-.22.234-.545.411-.871.301-.377-.09-.568-.473-.575-.835-.297.337-.848.46-1.192.117-.312-.266-.267-.706-.139-1.053-.493-.344-.734-.938-.684-1.53-.379.154-.619.517-.876.82m2.166.737c-.333.03-.524.46-.32.726.179.288.657.25.795-.057.176-.31-.122-.733-.475-.669m1.451.54c-.329.03-.518.451-.325.718.174.291.649.265.796-.037.187-.312-.112-.747-.471-.681m1.445.541c-.327.035-.513.459-.314.723.179.291.66.254.797-.055.177-.313-.128-.74-.483-.668m1.454.54c-.327.033-.513.451-.32.717.173.293.649.265.796-.039.186-.313-.116-.748-.476-.678m1.454.54c-.333.032-.521.463-.316.728.181.286.657.247.794-.059.177-.312-.124-.737-.478-.669z" fill="#4788c7"/><g fill="#b6dcfe"><path d="m196.212 173.57c.274.1.547.203.821.303.036.708-.086 1.412-.302 2.084-.329 1.034-.776 2.062-1.535 2.856-.273-.104-.547-.206-.821-.309.602-.688 1.005-1.523 1.318-2.375.301-.819.524-1.68.519-2.559z"/><path d="m197.917 174.208c.286.102.572.208.859.313.035.711-.088 1.419-.305 2.094-.33 1.028-.775 2.056-1.534 2.846-.286-.108-.571-.215-.857-.325.822-.899 1.301-2.05 1.625-3.209.157-.559.214-1.14.212-1.719z"/><path d="m199.658 174.855c.286.103.572.209.858.314.039.71-.087 1.417-.302 2.091-.331 1.031-.775 2.059-1.535 2.849-.286-.108-.572-.215-.858-.325.328-.376.631-.777.857-1.222.577-1.147 1.011-2.408.98-3.707z"/><path d="m201.401 175.505c.278.121.608.164.847.353.073.765-.125 1.526-.357 2.25-.29.844-.653 1.684-1.227 2.377-.091.081-.155.23-.287.242-.278-.072-.539-.194-.808-.294 1.151-1.357 1.821-3.147 1.832-4.928z"/><path d="m195.517 179.979c.359-.066.658.369.471.681-.147.302-.622.328-.796.037-.193-.267-.004-.688.325-.718z"/><path d="m198.416 181.06c.36-.07.662.365.476.678-.147.304-.623.332-.796.039-.193-.266-.007-.684.32-.717z"/><path d="m190.691 180.698c.375.1.766.098 1.143.179.541.175.915.655 1.446.85.501.187 1.053.1 1.559.263.486.208.848.632 1.346.818.5.186 1.053.1 1.557.262.487.209.848.632 1.347.819.531.202 1.13.078 1.655.303.336.187.631.442.978.61-.221.603-.448 1.204-.671 1.806-3.678-1.368-7.355-2.736-11.033-4.105.226-.601.445-1.205.673-1.805z"/></g><g fill="#fff"><path d="m197.033 173.873c.295.111.589.221.884.335.002.579-.055 1.16-.212 1.719-.324 1.159-.803 2.31-1.625 3.209-.295-.107-.59-.215-.884-.323.759-.794 1.206-1.822 1.535-2.856.216-.672.338-1.376.302-2.084z"/><path d="m198.776 174.521c.294.111.587.221.882.334.031 1.299-.403 2.56-.98 3.707-.226.445-.529.846-.857 1.222-.295-.106-.589-.216-.884-.323.759-.79 1.204-1.818 1.534-2.846.217-.675.34-1.383.305-2.094z"/><path d="m200.516 175.169c.296.111.59.222.885.336-.011 1.781-.681 3.571-1.832 4.928-.298-.106-.595-.215-.89-.324.76-.79 1.204-1.818 1.535-2.849.215-.674.341-1.381.302-2.091z"/></g><path d="m191.9 178.702c.257-.303.497-.666.876-.82-.05.592.191 1.186.684 1.53-.128.347-.173.787.139 1.053.344.343.895.22 1.192-.117.007.362.198.745.575.835.326.11.651-.067.871-.301.025.321.147.671.471.801.345.175.736.009.979-.258.028.322.152.674.479.801.349.174.738-.001.98-.27-.002.398.239.815.664.867.474.092.889-.319.918-.778.518-.056.972-.328 1.303-.725.208.984.134 2.192-.744 2.839-.482-.396-1.109-.412-1.699-.466-.694-.051-1.133-.663-1.742-.916-.504-.164-1.053-.083-1.556-.256-.492-.198-.854-.617-1.342-.822-.617-.204-1.335-.034-1.89-.429-.494-.347-.985-.763-1.622-.773-.141-.638.06-1.294.464-1.795z" fill="#98ccfd"/><g fill="#dff0fe"><path d="m194.066 179.439c.353-.064.651.359.475.669-.138.307-.616.345-.795.057-.204-.266-.013-.696.32-.726z"/><path d="m196.962 180.52c.355-.072.66.355.483.668-.137.309-.618.346-.797.055-.199-.264-.013-.688.314-.723z"/><path d="m199.87 181.6c.354-.068.655.357.478.669-.137.306-.613.345-.794.059-.205-.265-.017-.696.316-.728z"/></g><path d="m197.511 174.638c.035.267.088.538.212.779.129.253.367.428.508.673.085.139.12.301.158.457-.247.148-.275.46-.235.717-.356.072-.743-.038-1.012-.279.102-.027.204-.062.285-.133-.171-.082-.327-.191-.428-.354.087-.013.241.071.283-.033-.114-.176-.235-.362-.225-.583.148.116.301.231.487.279-.062-.115-.139-.223-.184-.347-.059-.183-.047-.381-.021-.569.035-.208.096-.411.172-.607z" fill="#ffa726"/><path d="m200.907 175.903c-.067.199-.155.391-.264.571-.098.151-.209.3-.36.401-.122.076-.263.109-.396.16.174.083.366.097.555.105-.113.127-.261.218-.427.254-.051.023-.14.015-.141.09.062.061.135.11.204.162-.182.057-.371.036-.552-.013.021.11.073.209.132.303-.361-.028-.729-.169-.951-.466.196-.168.388-.426.276-.696.142-.085.273-.193.434-.243.269-.092.564-.069.829-.179.249-.102.463-.27.661-.449z" fill="#ffa726"/><path d="m198.206 177.61c.029.058.059.116.084.176.011.125.024.25.037.374.018.169-.066.323-.127.475.105-.09.214-.176.316-.269-.14.289-.396.504-.684.637.05-.182.087-.372.063-.562-.008-.141-.038-.288.017-.424.059-.16.18-.285.294-.407z" fill="#ffa726"/><g fill="#f4511e"><path d="m197.172 175.802c-.11-.293-.058-.614.055-.897.027.117.063.231.112.34-.026.188-.038.386.021.569.045.124.122.232.184.347-.186-.048-.339-.163-.487-.279-.01.221.111.407.225.583-.042.104-.196.02-.283.033.101.163.257.272.428.354-.081.071-.183.106-.285.133.269.241.656.351 1.012.279.003.019.008.057.011.076-.513.129-1.009-.158-1.386-.48.097-.008.194-.019.29-.033-.171-.151-.249-.372-.257-.595.072.059.144.118.218.175-.136-.247-.167-.533-.14-.81l-.026.028.038-.103c.081.101.175.191.27.28z"/><path d="m200.643 176.474c.11-.051.214-.114.314-.184-.112.283-.274.566-.552.714.13-.005.26-.011.388-.033l-.036.097.017-.071c-.158.245-.379.456-.656.558.093.006.185.009.278.013-.153.162-.355.277-.582.28.063.073.129.145.197.215-.494-.004-1.056-.109-1.359-.541.014-.013.041-.039.055-.052.222.297.59.438.951.466-.059-.094-.111-.193-.132-.303.181.049.37.07.552.013-.069-.052-.142-.101-.204-.162.001-.075.09-.067.141-.09.166-.036.314-.127.427-.254-.189-.008-.381-.022-.555-.105.133-.051.274-.084.396-.16.151-.101.262-.25.36-.401z"/><path d="m198.871 175.942c.118.011.225-.037.323-.097-.048.076-.1.149-.164.213.049.217-.128.4-.119.614-.077-.186-.051-.493-.319-.513-.044 0-.132-.001-.176-.001.027-.13.154-.136.26-.133.054-.053.117-.094.195-.083z"/><path d="m198.29 177.786c.102-.074.206-.144.308-.217.052.267.044.551-.082.797-.102.093-.211.179-.316.269.061-.152.145-.306.127-.475-.013-.124-.026-.249-.037-.374z"/></g><path d="m198.592 176.159c.268.02.242.327.319.513.018.025.054.077.072.102.112.27-.08.528-.276.696-.014.013-.041.039-.055.052-.018.016-.036.031-.054.047-.102.073-.206.143-.308.217-.025-.06-.055-.118-.084-.176-.114.122-.235.247-.294.407-.055.136-.025.283-.017.424-.08.063-.124.154-.157.248-.065-.253-.094-.534.034-.774.082-.192.265-.304.413-.44-.005-.034-.015-.102-.02-.135-.003-.019-.008-.057-.011-.076-.04-.257-.012-.569.235-.717.202.018.289-.232.203-.388z" fill="#f57c00"/></g><path d="m205.58 188.542h-.19c-.832-2.939-3.476-5.09-6.614-5.09-1.37 0-2.643.415-3.717 1.12-.696-4.631-4.593-8.182-9.31-8.182-4.234 0-7.816 2.858-9.01 6.793-.548-.153-1.113-.232-1.682-.234-3.23 0-5.902 2.425-6.391 5.593h-1.055c-2.66 0-4.837 2.23-4.837 4.955v.365c0 2.725 2.177 4.954 4.837 4.954h37.97c2.66 0 4.836-2.229 4.836-4.954v-.365c0-2.725-2.176-4.955-4.837-4.955" fill="#fff"/><path d="m167.611 189.258c-2.283 0-4.14 1.902-4.14 4.24v.364c0 2.338 1.857 4.24 4.14 4.24h37.97c2.281 0 4.138-1.902 4.138-4.24v-.365c0-2.337-1.857-4.24-4.139-4.24h-.713l-.147-.515c-.763-2.693-3.206-4.574-5.944-4.574-1.188.001-2.349.351-3.34 1.006l-.903.596-.164-1.088c-.66-4.39-4.285-7.577-8.62-7.577-3.85 0-7.202 2.528-8.343 6.29l-.199.658-.649-.179c-3.451-.954-6.68 1.393-7.202 4.78l-.094.604h-1.65zm37.97 10.274h-37.97c-3.052 0-5.536-2.543-5.536-5.67v-.365c0-3.126 2.484-5.67 5.536-5.67h.483c.872-3.672 4.372-6.172 8.19-5.481 1.49-4.016 5.217-6.67 9.465-6.67 4.698 0 8.678 3.224 9.805 7.8 1.004-.486 2.106-.739 3.222-.74 3.18 0 6.038 2.073 7.123 5.1 2.904.17 5.216 2.645 5.216 5.661v.365c0 3.127-2.483 5.67-5.535 5.67z" fill="#454bd8"/><path d="m191.306 184.179c-1.326-2.094-3.57-3.344-6.002-3.344-1.287 0-2.549.353-3.649 1.022l-.713-1.231c1.315-.798 2.824-1.22 4.362-1.22 2.906 0 5.589 1.493 7.173 3.995l-1.17.778zm-12.072 2.18h-1.397c0-1.502-1.192-2.724-2.659-2.724v-1.43c2.237 0 4.056 1.863 4.056 4.154" fill="#454bd8"/><path d="m58.975 190.547h1.074v8.156h-1.074z" fill="#454bd8"/><path d="m65.243 186.306c0 3.02-2.557 5.467-5.713 5.467s-5.714-2.448-5.714-5.467c0-3.02 2.559-5.468 5.714-5.468 3.156 0 5.713 2.448 5.713 5.468" fill="#fff"/><path d="m59.53 192.289c-3.447 0-6.251-2.684-6.251-5.983s2.804-5.982 6.251-5.982c.655 0 1.301.097 1.921.288l-.331.978c-.515-.159-1.051-.239-1.59-.238-2.854 0-5.177 2.222-5.177 4.954s2.323 4.954 5.177 4.954 5.177-2.222 5.177-4.954c-.001-.938-.277-1.856-.795-2.638l.91-.548c.625.945.958 2.053.959 3.186 0 3.299-2.805 5.982-6.252 5.982" fill="#454bd8"/><path d="m63.032 182.658c-.302-.265-.633-.495-.988-.683l.523-.899c.429.228.831.506 1.193.825z" fill="#454bd8"/><path d="m66.249 192.515s.214 2.759-1.434 4.335c-1.646 1.576-4.53 1.372-4.53 1.372s-.213-2.759 1.434-4.336c1.647-1.575 4.53-1.371 4.53-1.371" fill="#38d2de"/><path d="m65.718 193.024c-.837.023-2.551.204-3.62 1.226-1.067 1.022-1.256 2.661-1.28 3.463.837-.025 2.55-.205 3.617-1.227 1.073-1.027 1.26-2.662 1.283-3.462m-5.092 5.721c-.217 0-.356-.008-.381-.011l-.461-.033-.035-.441c-.009-.123-.21-3.014 1.59-4.738 1.798-1.721 4.821-1.531 4.949-1.52l.462.033.035.442c.009.122.21 3.014-1.59 4.737-1.445 1.383-3.679 1.531-4.569 1.531" fill="#454bd8"/><path d="m58.943 198.222s.213-2.759-1.434-4.336c-1.647-1.575-4.53-1.372-4.53-1.372s-.214 2.759 1.433 4.336c1.647 1.576 4.531 1.372 4.531 1.372" fill="#38d2de"/><path d="m53.511 193.022c.024.802.212 2.442 1.281 3.465 1.068 1.021 2.78 1.201 3.618 1.225-.025-.801-.214-2.44-1.281-3.462-1.073-1.026-2.782-1.205-3.618-1.227m5.091 5.722c-.89 0-3.124-.148-4.569-1.532-1.801-1.722-1.599-4.614-1.59-4.737l.034-.441.462-.033c.127-.011 3.15-.201 4.95 1.521 1.8 1.723 1.598 4.614 1.589 4.737l-.035.441-.461.033c-.127.008-.253.012-.38.011" fill="#454bd8"/><g fill-rule="nonzero"><path d="m59.217 182.19c.351-.039.71-.01 1.058.05.614.111 1.201.366 1.702.736.641.47 1.14 1.128 1.419 1.872.319.842.348 1.787.088 2.648-.199.662-.569 1.27-1.062 1.754-.665.655-1.558 1.072-2.488 1.161-.012-.003-.038-.009-.051-.012.01.001.029.001.038.001.719-.132 1.339-.682 1.563-1.377.209-.62.099-1.337-.29-1.864-.374-.521-1.002-.848-1.643-.852-.44.005-.88-.135-1.235-.395-.374-.27-.652-.669-.775-1.114-.097-.342-.102-.709-.017-1.054.113-.465.396-.886.782-1.169.235-.174.509-.297.796-.357.038-.012.08-.009.115-.028m.23 1.569c-.196.036-.36.202-.39.4-.027.153.025.318.137.427.122.125.315.175.482.124.183-.05.328-.217.35-.407.02-.148-.032-.304-.139-.409-.112-.115-.283-.166-.44-.135z" fill="#efcc8d"/><path d="m59.408 187.901c.147-.042.312-.009.432.085.134.102.208.277.187.445-.018.165-.127.316-.278.385-.162.08-.368.057-.51-.056-.14-.106-.212-.292-.183-.464.028-.186.172-.346.352-.395z" fill="#efcc8d"/><path d="m58.988 182.206c.076-.005.153-.028.229-.016-.035.019-.077.016-.115.028-.287.06-.561.183-.796.357-.386.283-.669.704-.782 1.169-.085.345-.08.712.017 1.054.123.445.401.844.775 1.114.355.26.795.4 1.235.395.641.004 1.269.331 1.643.852.389.527.499 1.244.29 1.864-.224.695-.844 1.245-1.563 1.377-.009 0-.028 0-.038-.001.013.003.039.009.051.012-.171.016-.343.037-.516.026-.244-.016-.489-.038-.728-.09-.78-.159-1.508-.554-2.071-1.115-.679-.671-1.115-1.585-1.201-2.537-.06-.645.028-1.304.268-1.906.36-.923 1.066-1.703 1.947-2.157.422-.219.883-.364 1.355-.426m.42 5.695c-.18.049-.324.209-.352.395-.029.172.043.358.183.464.142.113.348.136.51.056.151-.069.26-.22.278-.385.021-.168-.053-.343-.187-.445-.12-.094-.285-.127-.432-.085z" fill="#454bd8"/><path d="m59.447 183.759c.157-.031.328.02.44.135.107.105.159.261.139.409-.022.19-.167.357-.35.407-.167.051-.36.001-.482-.124-.112-.109-.164-.274-.137-.427.03-.198.194-.364.39-.4z" fill="#454bd8"/></g><path d="m232.228 78.401c0 .825-.654 1.495-1.461 1.495h-.797v8.806c0 .314-.384.457-.58.216l-7.383-9.022h-20.645c-.807 0-1.46-.67-1.46-1.495v-14.987c0-.826.653-1.496 1.46-1.496h29.405c.807 0 1.461.67 1.461 1.496z" fill="#4178da"/><path d="m201.362 62.63c-.425.005-.77.359-.765.784v14.986c0 .431.343.783.765.783h20.97l6.942 8.483v-8.483h1.493c.425-.005.77-.358.766-.783v-14.986c.004-.425-.341-.778-.766-.783h-29.405zm28.274 27.123c-.296 0-.581-.134-.781-.379l-7.174-8.765h-20.319c-1.19 0-2.157-.99-2.157-2.208v-14.987c0-1.217.968-2.208 2.157-2.208h29.405c1.19 0 2.157.99 2.157 2.208v14.986c0 1.217-.967 2.208-2.157 2.208h-.1v8.093.012c0 .567-.464 1.035-1.031 1.039z" fill="#454bd8"/><path d="m222.121 71.477c-.529-.079-.892-.303-1.249-.689 1.09.077 1.082-.234 1.082-.234s.049-.137-.247-.275c-.131-.061-.259-.149-.371-.221.106.014 1.648.144 1.824-.458-.892-.122-1.903-.241-2.633-.566-.27-.12-.627-.258-.814-.513.239.018.646.032.996-.056.387-.098.764-.238.976-.578.121-.194.123-.401.123-.401s-.257.139-.529.208c-.614.154-1.258.093-1.507.067-.268-.029-1.179-.135-1.151-.342.026-.188.824-.123.983-.109.217.02.433.047.65.061-.48-.305-1.047-.483-1.589-.632-.826-.228-1.714-.279-2.54-.041-.355.102-.865.346-1.125.796-.584 1.005.16 2.221.869 2.94.84.852 1.587 1.242 2.293 1.54.707.299 2.17.723 3.249.21.72-.343.71-.707.71-.707z" fill="#fff"/><path d="m220.1 75.388c-.069-.088-.151-.007-.276.006-.018.002.063-.085.046-.165-.022-.106-.099-.128-.19-.125-.173.004-.458.165-.642.15-.252-.021-.745-.235-.827-.304-.086-.072.147.008.589-.318.135-.099.407-.333.407-.333s.075.312.582.438.88-.581.435-.993c-.202-.187-.53-.181-.5-.21.093-.088.174-.523.161-.528-.05-.022-.385-.009-1.151-.218-1-.274-1.948-.811-2.726-1.487-.676-.588-1.218-1.49-1.417-2.045-.071-.198-.099-.525-.098-.743.002-.373.234-1.006.768-1.359.06-.039-.619-.227-1.126-.271-1.064-.09-1.596.211-1.634.172-.66-.678-.939-1.887-1.165-1.817-.239.074-.195 2.717-.235 2.766-.041.05-.221.232-.312.364-.217.312-.521.759-.603 1.678-.084.931.085 2.84 3.438 4.349 1.325.597 2.453.72 2.453.72s.513.211.801.299c.3.092.901.369.901.369s.661.437 1.018.322c.135-.043.044-.166-.084-.205-.062-.019.139-.044.146-.161.009-.145-.287-.039-.287-.039s.043-.194.104-.17c.421.172.662.357 1.177.43.082.012.235.002.253-.15.01-.091-.131-.145-.131-.145-.006.008.244-.122.125-.277z" fill="#fff"/><path d="m217.216 75.155c-.088-.03.126-.014.228-.03.043-.007.359.164.886.29.1.023-.293.036-.304.033-.445-.123-.638-.235-.81-.293z" fill="#2554c1"/><path d="m0 198h320v2h-320z" fill="#454bd8"/><path d="m160.905 70.928c-.006.512-.428.929-.94.929-.004 0-.009 0-.013 0s-.008 0-.012 0c-.512 0-.934-.417-.94-.929.006-.511.429-.928.94-.928h.012.013c.511 0 .934.417.94.928m-96.528 87.718c0 .909-.756 1.646-1.689 1.646s-1.688-.737-1.688-1.646c0-.91.755-1.646 1.688-1.646s1.689.737 1.689 1.646m202.527-124.718c-.006.511-.429.928-.94.928-.004 0-.008 0-.012 0s-.008 0-.012 0c-.511 0-.934-.417-.94-.928.006-.511.429-.928.94-.928h.012.012c.511 0 .934.417.94.928m-139.716 101.555c0 .675-.562 1.222-1.254 1.222-.693 0-1.254-.547-1.254-1.222s.561-1.222 1.254-1.222c.692 0 1.254.547 1.254 1.222m120.154-61.854c0 .9-.748 1.629-1.671 1.629s-1.671-.73-1.671-1.63c0-.899.748-1.628 1.671-1.628s1.671.73 1.671 1.629m-196.182 58.011c-.006.511-.429.928-.94.928-.004 0-.008 0-.012 0s-.008 0-.012 0c-.511 0-.934-.417-.94-.928.006-.512.428-.929.94-.929h.012.012c.512 0 .934.417.94.929m162.096-24.54c0 .607-.505 1.1-1.128 1.1s-1.128-.493-1.128-1.1c0-.608.505-1.1 1.128-1.1s1.128.492 1.128 1.1m-180.892 76.052c0 .636-.53 1.151-1.182 1.151s-1.182-.515-1.182-1.151.53-1.152 1.182-1.152c.653 0 1.182.516 1.182 1.152" fill="#efcc8d"/><path d="m307.878 56.337c-1.648.419-2.002.758-2.44 2.338-.436-1.58-.79-1.919-2.438-2.338 1.648-.418 2.002-.758 2.439-2.337.437 1.579.791 1.919 2.439 2.337m-260.436 114.312c-1.162.295-1.412.535-1.72 1.649-.31-1.114-.56-1.354-1.722-1.649 1.163-.295 1.413-.535 1.722-1.649.308 1.114.558 1.354 1.72 1.649m89-28.999c-1.162.295-1.413.535-1.72 1.648-.31-1.113-.56-1.353-1.722-1.649 1.163-.295 1.412-.535 1.721-1.649.308 1.114.559 1.354 1.721 1.65m-3.937-53.752c-2.02.513-2.454.93-2.99 2.864-.535-1.935-.97-2.351-2.988-2.864 2.019-.514 2.453-.93 2.989-2.865.535 1.935.97 2.351 2.989 2.865m71.819-34.305c-1.123.285-1.364.517-1.662 1.593-.298-1.076-.54-1.308-1.662-1.593 1.123-.286 1.364-.517 1.662-1.593.298 1.076.539 1.307 1.662 1.593m-54.284 67.342c-1.365.347-1.658.628-2.02 1.935-.362-1.307-.656-1.588-2.02-1.935 1.364-.347 1.658-.628 2.02-1.935.362 1.307.655 1.588 2.02 1.935m95.836-34.598c-1.646.418-2 .758-2.438 2.336-.437-1.578-.79-1.918-2.438-2.336 1.647-.419 2.001-.759 2.438-2.337.437 1.578.792 1.918 2.438 2.337m-84.908 72.043c-1.678.427-2.039.773-2.484 2.381-.445-1.608-.806-1.954-2.484-2.38 1.678-.427 2.04-.773 2.484-2.381.445 1.608.806 1.954 2.484 2.38m117.38-141.776c-1.13.288-1.374.52-1.674 1.605-.3-1.084-.543-1.317-1.674-1.605 1.13-.288 1.374-.52 1.674-1.604.3 1.084.543 1.316 1.674 1.604m-92.208 78.526c-1.822.464-2.214.839-2.698 2.586-.484-1.747-.876-2.122-2.698-2.586 1.822-.463 2.214-.84 2.698-2.586.484 1.747.876 2.123 2.699 2.586m-96.677 73.53c-1.17.298-1.422.539-1.732 1.66-.31-1.121-.562-1.362-1.732-1.66 1.17-.297 1.421-.538 1.732-1.66.31 1.122.562 1.363 1.732 1.66" fill="#38d2de"/><g fill-rule="nonzero"><path d="m170.089 116.45c.609-.623 1.218-1.247 1.829-1.869 2.435-.004 4.869-.004 7.304 0 .616.615 1.219 1.245 1.83 1.866-1.827 2.118-3.651 4.238-5.482 6.351-1.828-2.115-3.649-4.235-5.481-6.348zm1.519.27c.285.338.575.673.864 1.006.08.096.162.189.242.284.401.455.792.918 1.192 1.374.108.129.204.268.311.398l.034.005c.464.544.937 1.082 1.402 1.626.442-.53.909-1.042 1.345-1.577l.01-.003c.492-.581.993-1.154 1.49-1.729.387-.467.795-.916 1.192-1.374-.259-.276-.525-.548-.796-.813-.146-.151-.293-.302-.443-.449-.24-.02-.482-.009-.722-.005-.181-.009-.363-.004-.545-.004-.379.012-.764-.031-1.14.027-.361-.037-.726-.037-1.088-.005-.421-.046-.846-.013-1.268-.022-.284 0-.568-.003-.852.002-.414.414-.813.844-1.228 1.259zm2.277 3.345c.024.03.047.06.071.09l.007.001z" fill="#454bd8"/><g fill="#efcc8d"><path d="m171.608 116.72c.415-.415.814-.845 1.228-1.259.284-.005.568-.002.852-.002-.496.327-.992.729-1.203 1.305-.122.309-.073.646-.013.962-.289-.333-.579-.668-.864-1.006z"/><path d="m174.956 115.481c.362-.032.727-.032 1.088.005.617.171 1.272.573 1.352 1.268.499.005.998.005 1.496 0 .011-.279.001-.558.002-.837.271.265.537.537.796.813-.397.458-.805.907-1.192 1.374-.182-.585-.773-.884-1.334-.998-.913-.233-1.883-.018-2.785-.303-.234-.071-.52-.261-.447-.544.135-.453.608-.655 1.024-.778z"/><path d="m177.184 115.459c.182 0 .364-.005.545.004-.041.139-.077.28-.126.416-.134-.146-.265-.295-.419-.42z"/><path d="m172.714 118.01c.74.23 1.522.246 2.287.318.671.069 1.352.081 2.012.234.176.033.36.167.37.359-.024.177-.224.24-.369.292-.468.126-.957.134-1.439.137-.145-.142-.245-.327-.41-.451-.303-.27-.81-.252-1.107.017-.139.115-.137.305-.152.468-.4-.456-.791-.919-1.192-1.374z"/><path d="m174.251 119.787c.211.012.397.13.606.156.711.129 1.44.037 2.141-.107-.436.535-.903 1.047-1.345 1.577-.465-.544-.938-1.082-1.402-1.626z"/></g><g fill="#454bd8"><path d="m173.688 115.459c.422.009.847-.024 1.268.022-.416.123-.889.325-1.024.778-.073.283.213.473.447.544.902.285 1.872.07 2.785.303.561.114 1.152.413 1.334.998-.497.575-.998 1.148-1.49 1.729l-.01.003c-.701.144-1.43.236-2.141.107-.209-.026-.395-.144-.606-.156l-.034-.005c-.107-.13-.203-.269-.311-.398.015-.163.013-.353.152-.468.297-.269.804-.287 1.107-.017.165.124.265.309.41.451.482-.003.971-.011 1.439-.137.145-.052.345-.115.369-.292-.01-.192-.194-.326-.37-.359-.66-.153-1.341-.165-2.012-.234-.765-.072-1.547-.088-2.287-.318-.08-.095-.162-.188-.242-.284-.06-.316-.109-.653.013-.962.211-.576.707-.978 1.203-1.305z"/><path d="m176.044 115.486c.376-.058.761-.015 1.14-.027.154.125.285.274.419.42.049-.136.085-.277.126-.416.24-.004.482-.015.722.005.15.147.297.298.443.449-.001.279.009.558-.002.837-.498.005-.997.005-1.496 0-.08-.695-.735-1.097-1.352-1.268z"/></g></g></svg>