<?xml version="1.0" encoding="UTF-8" standalone="no"?><!DOCTYPE svg PUBLIC "-//W3C//DTD SVG 1.1//EN" "http://www.w3.org/Graphics/SVG/1.1/DTD/svg11.dtd"><svg width="100%" height="100%" viewBox="0 0 280 690" version="1.1" xmlns="http://www.w3.org/2000/svg" xmlns:xlink="http://www.w3.org/1999/xlink" xml:space="preserve" xmlns:serif="http://www.serif.com/" style="fill-rule:evenodd;clip-rule:evenodd;stroke-linejoin:round;stroke-miterlimit:1.41421;"><g><path d="M57.65,603.561c-29.255,0 -53.056,-23.801 -53.056,-53.057c0,-29.255 23.801,-53.055 53.056,-53.055l121.08,0c28.152,0 51.056,-22.905 51.056,-51.057c0,-28.152 -22.904,-51.056 -51.056,-51.056l-119.793,0c-29.255,0 -53.056,-23.8 -53.056,-53.056c0,-29.255 23.801,-53.056 53.056,-53.056l120.887,0c28.152,0 51.056,-22.904 51.056,-51.057c0,-28.152 -22.904,-51.055 -51.056,-51.055l-121.048,0c-29.255,0 -53.056,-23.801 -53.056,-53.057c0,-29.255 23.801,-53.056 53.056,-53.056l40.674,0c0.553,0 1,0.448 1,1c0,0.553 -0.447,1 -1,1l-40.674,0c-28.152,0 -51.056,22.904 -51.056,51.056c0,28.152 22.904,51.057 51.056,51.057l121.048,0c29.256,0 53.056,23.801 53.056,53.055c0,29.256 -23.8,53.057 -53.056,53.057l-120.887,0c-28.152,0 -51.056,22.903 -51.056,51.056c0,28.152 22.904,51.056 51.056,51.056l119.793,0c29.255,0 53.056,23.801 53.056,53.056c0,29.256 -23.801,53.057 -53.056,53.057l-121.08,0c-28.152,0 -51.056,22.903 -51.056,51.055c0,28.153 22.904,51.057 51.056,51.057l221.168,0c0.553,0 1,0.447 1,1c0,0.553 -0.447,1 -1,1l-221.168,0Z" style="fill:#454bdb;"/><path d="M6.595,137.127c-0.256,0 -0.512,-0.098 -0.707,-0.293l-4.594,-4.594c-0.39,-0.39 -0.39,-1.023 0,-1.414c0.391,-0.39 1.024,-0.39 1.414,0l3.887,3.887l3.887,-3.887c0.39,-0.39 1.023,-0.39 1.414,0c0.39,0.391 0.39,1.024 0,1.414l-4.594,4.594c-0.195,0.195 -0.451,0.293 -0.707,0.293" style="fill:#454bdb;"/><path d="M6.89,346.316c-0.256,0 -0.512,-0.098 -0.707,-0.293l-4.594,-4.594c-0.39,-0.39 -0.39,-1.023 0,-1.414c0.391,-0.39 1.024,-0.39 1.414,0l3.887,3.887l3.887,-3.887c0.39,-0.39 1.023,-0.39 1.414,0c0.39,0.391 0.39,1.024 0,1.414l-4.594,4.594c-0.195,0.195 -0.451,0.293 -0.707,0.293" style="fill:#454bdb;"/><path d="M5.595,555.506c-0.256,0 -0.512,-0.098 -0.707,-0.293l-4.595,-4.594c-0.39,-0.39 -0.39,-1.023 0,-1.414c0.391,-0.39 1.024,-0.39 1.414,0l3.888,3.887l3.887,-3.887c0.39,-0.39 1.023,-0.39 1.414,0c0.39,0.391 0.39,1.024 0,1.414l-4.594,4.594c-0.195,0.195 -0.451,0.293 -0.707,0.293" style="fill:#454bdb;"/><path d="M231.735,243.379c-0.256,0 -0.512,-0.098 -0.707,-0.293l-4.594,-4.594c-0.39,-0.39 -0.39,-1.023 0,-1.414c0.391,-0.39 1.024,-0.39 1.414,0l3.887,3.887l3.888,-3.887c0.39,-0.39 1.023,-0.39 1.414,0c0.39,0.391 0.39,1.024 0,1.414l-4.595,4.594c-0.195,0.195 -0.451,0.293 -0.707,0.293" style="fill:#454bdb;"/><path d="M230.864,450.586c-0.256,0 -0.512,-0.098 -0.707,-0.293l-4.594,-4.594c-0.39,-0.39 -0.39,-1.023 0,-1.414c0.391,-0.39 1.024,-0.39 1.414,0l3.887,3.887l3.888,-3.887c0.39,-0.39 1.023,-0.39 1.414,0c0.39,0.391 0.39,1.024 0,1.414l-4.595,4.594c-0.195,0.195 -0.451,0.293 -0.707,0.293" style="fill:#454bdb;"/><path d="M84.545,191.982c-0.256,0 -0.512,-0.098 -0.707,-0.293c-0.391,-0.391 -0.391,-1.023 0,-1.414l3.888,-3.887l-3.888,-3.887c-0.391,-0.391 -0.391,-1.024 0,-1.415c0.391,-0.39 1.023,-0.39 1.414,0l4.595,4.595c0.187,0.188 0.293,0.442 0.293,0.707c0,0.266 -0.106,0.52 -0.293,0.707l-4.595,4.594c-0.195,0.195 -0.451,0.293 -0.707,0.293" style="fill:#454bdb;"/><path d="M84.545,400.021c-0.256,0 -0.512,-0.098 -0.707,-0.293c-0.391,-0.391 -0.391,-1.023 0,-1.414l3.888,-3.887l-3.888,-3.886c-0.391,-0.391 -0.391,-1.024 0,-1.415c0.391,-0.39 1.023,-0.39 1.414,0l4.595,4.594c0.187,0.188 0.293,0.442 0.293,0.707c0,0.266 -0.106,0.52 -0.293,0.707l-4.595,4.594c-0.195,0.195 -0.451,0.293 -0.707,0.293" style="fill:#454bdb;"/><path d="M84.545,608.155c-0.256,0 -0.512,-0.098 -0.707,-0.293c-0.391,-0.391 -0.391,-1.023 0,-1.414l3.888,-3.887l-3.888,-3.887c-0.391,-0.391 -0.391,-1.024 0,-1.415c0.391,-0.39 1.023,-0.39 1.414,0l4.595,4.595c0.187,0.188 0.293,0.442 0.293,0.707c0,0.266 -0.106,0.52 -0.293,0.707l-4.595,4.594c-0.195,0.195 -0.451,0.293 -0.707,0.293" style="fill:#454bdb;"/><path d="M158.621,295.981c-0.256,0 -0.512,-0.098 -0.707,-0.293l-4.594,-4.594c-0.39,-0.39 -0.39,-1.023 0,-1.414l4.594,-4.594c0.391,-0.39 1.023,-0.39 1.414,0c0.391,0.391 0.391,1.024 0,1.415l-3.887,3.886l3.887,3.887c0.391,0.391 0.391,1.023 0,1.414c-0.195,0.195 -0.451,0.293 -0.707,0.293" style="fill:#454bdb;"/><path d="M158.621,504.035c-0.256,0 -0.512,-0.098 -0.707,-0.293l-4.594,-4.594c-0.39,-0.39 -0.39,-1.023 0,-1.414l4.594,-4.594c0.391,-0.39 1.023,-0.39 1.414,0c0.391,0.391 0.391,1.024 0,1.415l-3.887,3.886l3.887,3.887c0.391,0.391 0.391,1.023 0,1.414c-0.195,0.195 -0.451,0.293 -0.707,0.293" style="fill:#454bdb;"/><path d="M163.189,152.527c0,0.456 -0.375,0.83 -0.83,0.83c-0.455,0 -0.83,-0.375 -0.83,-0.83c0,0 0,0 0,0c0,-0.456 0.375,-0.83 0.83,-0.83c0.456,0 0.83,0.374 0.83,0.83m-3.385,-11.069c0,0.766 -0.63,1.397 -1.397,1.397c-0.767,0 -1.397,-0.631 -1.397,-1.397c0,-0.767 0.63,-1.397 1.397,-1.397c0.766,0 1.397,0.63 1.397,1.397" style="fill:#e2e2e2;"/><path d="M168.731,142.819c0,0.653 -0.537,1.19 -1.19,1.19c-0.653,0 -1.191,-0.537 -1.191,-1.19c0,-0.653 0.538,-1.191 1.191,-1.191c0.653,0 1.19,0.538 1.19,1.191" style="fill:#38d2de;"/><path d="M147.127,184.171l-12.475,0l1.616,-7.979c0.073,-0.361 0.393,-0.623 0.762,-0.623l7.722,0c0.37,0 0.688,0.261 0.762,0.623l1.614,7.979l-0.001,0Z" style="fill:#fff;"/><path d="M145.513,176.192c-0.073,-0.361 -0.393,-0.623 -0.762,-0.624l-2.218,0l1.296,6.403l-8.731,0l-0.446,2.199l12.475,0l-1.614,-7.979l0,0.001Z" style="fill:#e2e2e2;"/><path d="M163.239,184.171l-12.475,0l1.616,-7.979c0.073,-0.361 0.393,-0.623 0.761,-0.623l7.723,0c0.369,0 0.687,0.261 0.76,0.623l1.615,7.979l0,0Zm16.112,0l-12.475,0l1.615,-7.979c0.073,-0.361 0.393,-0.623 0.761,-0.623l7.722,0c0.371,0 0.689,0.261 0.762,0.623l1.615,7.979Z" style="fill:#fff;"/><path d="M177.737,176.192c-0.073,-0.361 -0.394,-0.623 -0.763,-0.624l-2.218,0l1.297,6.403l-8.732,0l-0.445,2.199l12.475,0l-1.614,-7.979l0,0.001Z" style="fill:#e2e2e2;"/><path d="M155.184,175.568l-12.475,0l1.614,-7.978c0.074,-0.361 0.394,-0.622 0.762,-0.622l7.723,0c0.368,-0.001 0.689,0.261 0.761,0.622l1.614,7.979l0.001,-0.001Zm16.111,0l-12.474,0l1.613,-7.978c0.074,-0.361 0.394,-0.622 0.763,-0.622l7.722,0c0.37,0 0.689,0.26 0.761,0.622l1.615,7.979l0,-0.001Zm-8.056,-8.601l-12.475,0l1.616,-7.979c0.073,-0.361 0.393,-0.622 0.761,-0.623l7.723,0c0.369,0 0.687,0.261 0.76,0.623l1.615,7.979Z" style="fill:#fff;"/><path d="M161.625,176.192c-0.073,-0.361 -0.393,-0.623 -0.762,-0.624l-2.219,0l1.297,6.403l-8.731,0l-0.446,2.199l12.475,0l-1.614,-7.979l0,0.001Zm-8.056,-8.603c-0.073,-0.36 -0.394,-0.622 -0.762,-0.622l-2.218,0l1.296,6.403l-8.732,0l-0.444,2.199l12.475,0l-1.615,-7.98Z" style="fill:#e2e2e2;"/><path d="M169.68,167.589c-0.073,-0.36 -0.393,-0.622 -0.761,-0.622l-2.218,0l1.296,6.403l-8.732,0l-0.444,2.199l12.474,0l-1.615,-7.98l0,0Zm-8.055,-8.601c-0.073,-0.361 -0.393,-0.622 -0.762,-0.623l-2.219,0l1.297,6.403l-8.731,0l-0.446,2.199l12.475,0l-1.614,-7.979Z" style="fill:#e2e2e2;"/><path d="M136.088,182.997l9.604,0l-1.265,-6.254l-7.074,0l-1.265,6.253l0,0.001Zm12.475,2.348l-15.345,0l1.899,-9.386c0.185,-0.905 0.988,-1.562 1.912,-1.565l7.722,0c0.925,0 1.729,0.658 1.913,1.564l1.899,9.386l0,0.001Zm3.637,-2.348l9.604,0l-1.266,-6.254l-7.073,0l-1.265,6.253l0,0.001Zm12.475,2.348l-15.345,0l1.899,-9.386c0.186,-0.905 0.988,-1.561 1.911,-1.564l7.723,0c0.925,0 1.728,0.658 1.912,1.564l1.9,9.386Zm3.636,-2.348l9.604,0l-1.265,-6.254l-7.073,0l-1.265,6.253l-0.001,0.001Zm12.475,2.348l-15.345,0l1.9,-9.386c0.186,-0.905 0.988,-1.561 1.911,-1.564l7.723,0c0.924,0 1.728,0.658 1.912,1.564l1.899,9.386Z" style="fill:#454bdb;"/><path d="M144.144,174.394l9.604,0l-1.265,-6.253l-7.074,0l-1.265,6.253Zm12.474,2.348l-15.345,0l1.9,-9.385c0.186,-0.905 0.988,-1.561 1.912,-1.563l7.723,0c0.923,0.002 1.726,0.658 1.912,1.563l1.898,9.385Zm3.638,-2.348l9.603,0l-1.264,-6.253l-7.074,0l-1.265,6.253Zm12.474,2.348l-15.345,0l1.9,-9.385c0.186,-0.905 0.988,-1.561 1.912,-1.563l7.722,0c0.925,0 1.729,0.658 1.913,1.563l1.898,9.386l0,-0.001Z" style="fill:#454bdb;"/><path d="M152.2,165.793l9.604,0l-1.266,-6.253l-7.073,0l-1.265,6.253Zm12.475,2.348l-15.345,0l1.899,-9.386c0.186,-0.905 0.988,-1.561 1.911,-1.564l7.723,0c0.925,0 1.728,0.659 1.912,1.564l1.9,9.386Z" style="fill:#454bdb;"/><path d="M158.249,154.379l-2.348,0l0,-6.57l2.348,0l0,6.57Zm-6.341,1.684l2.02,-1.195l-1.682,-2.844l-2.02,1.195l1.682,2.844Zm-2.631,3.441l1.17,-2.036l-5.696,-3.273l-1.169,2.035l5.695,3.274Zm-0.56,4.301l0.027,-2.347l-3.284,-0.038l-0.028,2.348l3.285,0.037Zm16.608,0.022l3.284,-0.058l-0.04,-2.348l-3.285,0.058l0.041,2.348Zm-0.546,-4.312l5.658,-3.341l-1.194,-2.022l-5.658,3.341l1.194,2.022Z" style="fill:#454bdb;"/><g><path d="M162.62,152.597l1.436,-2.551l-2.045,-1.152l-1.436,2.55l2.045,1.153Z" style="fill:#454bdb;"/><path d="M184.356,168.596c13.338,0 24.189,-10.852 24.189,-24.191l0,-20.617l-11.761,0l0,20.617c0,6.855 -5.575,12.431 -12.428,12.431l0,11.76Z" style="fill:#fff;"/><path d="M184.356,168.596l0,-11.76c-6.855,0 -12.431,-5.576 -12.431,-12.431l0,-20.617l-11.76,0l0,20.617c0,13.339 10.852,24.191 24.191,24.191" style="fill:#38d2de;"/><path d="M200.045,164.322c1.562,-1.233 2.975,-2.644 4.21,-4.205l-1.843,-1.456c-1.121,1.417 -2.404,2.699 -3.822,3.819l1.455,1.842Z" style="fill:#454bdb;"/><path d="M184.355,169.77c4.375,0 8.677,-1.134 12.484,-3.291l-1.16,-2.042c-3.453,1.956 -7.355,2.985 -11.324,2.985c-12.691,0 -23.017,-10.326 -23.017,-23.018l0,-19.442l9.413,0l0,19.443c0,7.502 6.103,13.605 13.604,13.605c7.5,0 13.603,-6.103 13.603,-13.605l0,-19.443l9.413,0l0,19.443c0,3.863 -0.98,7.686 -2.833,11.056l2.057,1.131c2.048,-3.735 3.123,-7.927 3.124,-12.187l0,-21.791l-14.109,0l0,21.791c0,6.206 -5.049,11.257 -11.255,11.257c-6.207,0 -11.256,-5.05 -11.256,-11.257l0,-21.791l-14.108,0l0,21.791c0,13.986 11.38,25.365 25.365,25.365" style="fill:#454bdb;"/><path d="M179.985,120.638c0,0.643 0.529,1.173 1.173,1.173c0.643,0 1.172,-0.53 1.172,-1.173c0,-0.643 -0.529,-1.172 -1.172,-1.172c-0.644,0 -1.173,0.529 -1.173,1.172" style="fill:#38d2de;"/><path d="M177.603,128.324c0,0.643 0.529,1.172 1.173,1.172c0.643,0 1.172,-0.529 1.172,-1.173c0,0 0,0 0,0c0,-0.643 -0.529,-1.173 -1.172,-1.173c-0.644,0 -1.173,0.53 -1.173,1.173" style="fill:#e2e2e2;"/><path d="M186.278,112.677c0,0.853 0.702,1.555 1.555,1.555c0.854,0 1.556,-0.702 1.556,-1.555c0,-0.854 -0.702,-1.556 -1.556,-1.556c-0.853,0 -1.555,0.702 -1.555,1.556" style="fill:#38d2de;"/><path d="M189.531,122.195c0,0.854 0.703,1.556 1.557,1.556c0.854,0 1.556,-0.703 1.556,-1.557c0,0 0,0 0,-0.001c0,-0.853 -0.703,-1.555 -1.556,-1.555c-0.854,0 -1.557,0.702 -1.557,1.556c0,0 0,0.001 0,0.001m-16.403,-9.518c0,0.014 -0.001,0.029 -0.001,0.043c0,1.3 1.07,2.369 2.369,2.369c1.3,0 2.369,-1.069 2.369,-2.369c0,-0.014 0,-0.028 0,-0.043c-0.023,-1.283 -1.085,-2.326 -2.369,-2.326c-1.283,0 -2.345,1.043 -2.368,2.326" style="fill:#e2e2e2;"/><path d="M207.67,120.95l-2.348,0l0,-6.614l2.348,0l0,6.614Zm-4.165,0l-2.348,0l0,-10.056l2.348,0l0,10.056Zm-4.165,0l-2.348,0l0,-6.614l2.348,0l0,6.614Zm-28.342,0l-2.348,0l0,-6.614l2.348,0l0,6.614Zm-4.166,0l-2.348,0l0,-10.056l2.348,0l0,10.056Zm-4.165,0l-2.348,0l0,-6.614l2.348,0l0,6.614Z" style="fill:#454bdb;"/></g><g id="_6个圆" serif:id="6个圆"><path d="M180.041,135.301c0.873,-1.302 2.51,-2.214 4.314,-2.214c1.805,0 3.442,0.912 4.314,2.214c1.563,0.104 3.172,1.066 4.075,2.629c0.902,1.563 0.93,3.437 0.24,4.843c0.69,1.406 0.662,3.28 -0.24,4.843c-0.903,1.563 -2.512,2.524 -4.075,2.629c-0.872,1.301 -2.509,2.214 -4.314,2.214c-1.804,0 -3.441,-0.913 -4.314,-2.214c-1.563,-0.105 -3.171,-1.066 -4.074,-2.629c-0.902,-1.563 -0.93,-3.437 -0.24,-4.843c-0.69,-1.406 -0.662,-3.28 0.24,-4.843c0.903,-1.563 2.511,-2.525 4.074,-2.629Z" style="fill:#1d53d3;"/><g><g><path d="M190.076,143.517c-0.494,-0.074 -0.832,-0.283 -1.166,-0.643c1.017,0.071 1.01,-0.218 1.01,-0.218c0,0 0.046,-0.129 -0.23,-0.257c-0.122,-0.057 -0.242,-0.14 -0.347,-0.207c0.099,0.013 1.539,0.135 1.704,-0.428c-0.833,-0.113 -1.777,-0.224 -2.459,-0.528c-0.252,-0.112 -0.585,-0.24 -0.76,-0.479c0.223,0.017 0.603,0.03 0.93,-0.052c0.362,-0.091 0.713,-0.222 0.911,-0.54c0.113,-0.181 0.115,-0.374 0.115,-0.374c0,0 -0.24,0.13 -0.494,0.194c-0.573,0.144 -1.174,0.087 -1.407,0.062c-0.25,-0.026 -1.101,-0.125 -1.074,-0.319c0.024,-0.176 0.769,-0.115 0.917,-0.101c0.203,0.018 0.405,0.043 0.607,0.057c-0.448,-0.285 -0.977,-0.451 -1.484,-0.591c-0.77,-0.213 -1.599,-0.26 -2.371,-0.038c-0.331,0.095 -0.807,0.323 -1.05,0.743c-0.545,0.939 0.149,2.074 0.811,2.745c0.785,0.795 1.482,1.16 2.141,1.438c0.66,0.279 2.026,0.675 3.033,0.196c0.672,-0.32 0.663,-0.66 0.663,-0.66Z" style="fill:#fff;"/><path d="M188.189,147.168c-0.064,-0.082 -0.141,-0.006 -0.257,0.006c-0.017,0.002 0.059,-0.079 0.043,-0.154c-0.021,-0.099 -0.093,-0.119 -0.178,-0.117c-0.161,0.004 -0.427,0.154 -0.599,0.14c-0.236,-0.019 -0.695,-0.219 -0.773,-0.283c-0.08,-0.068 0.138,0.007 0.551,-0.297c0.126,-0.093 0.38,-0.311 0.38,-0.311c0,0 0.069,0.291 0.543,0.409c0.473,0.117 0.822,-0.543 0.406,-0.928c-0.188,-0.174 -0.494,-0.168 -0.466,-0.195c0.086,-0.083 0.162,-0.489 0.15,-0.494c-0.047,-0.02 -0.36,-0.008 -1.074,-0.203c-0.934,-0.256 -1.819,-0.757 -2.546,-1.389c-0.631,-0.548 -1.137,-1.39 -1.323,-1.909c-0.066,-0.185 -0.092,-0.489 -0.091,-0.693c0.001,-0.348 0.218,-0.939 0.717,-1.269c0.055,-0.036 -0.578,-0.212 -1.052,-0.253c-0.993,-0.084 -1.49,0.197 -1.526,0.16c-0.615,-0.633 -0.876,-1.761 -1.086,-1.696c-0.224,0.07 -0.183,2.536 -0.22,2.583c-0.038,0.046 -0.207,0.216 -0.292,0.339c-0.202,0.291 -0.486,0.709 -0.563,1.567c-0.077,0.869 0.08,2.652 3.21,4.061c1.237,0.556 2.291,0.671 2.291,0.671c0,0 0.478,0.198 0.747,0.28c0.281,0.086 0.841,0.345 0.841,0.345c0,0 0.617,0.407 0.951,0.3c0.126,-0.041 0.041,-0.155 -0.078,-0.192c-0.058,-0.017 0.129,-0.041 0.136,-0.15c0.008,-0.135 -0.268,-0.036 -0.268,-0.036c0,0 0.04,-0.182 0.097,-0.159c0.393,0.161 0.618,0.333 1.099,0.402c0.077,0.011 0.22,0.001 0.236,-0.141c0.009,-0.085 -0.123,-0.135 -0.123,-0.135c-0.005,0.008 0.229,-0.114 0.117,-0.259Z" style="fill:#fff;"/><path d="M185.497,146.951c-0.082,-0.028 0.117,-0.013 0.213,-0.029c0.04,-0.006 0.335,0.154 0.827,0.271c0.093,0.022 -0.274,0.034 -0.284,0.032c-0.416,-0.116 -0.595,-0.22 -0.756,-0.274Z" style="fill:#2554c1;"/></g></g></g><g><text x="133.97px" y="241.583px" style="font-family:'PingFangSC-Semibold', 'PingFang SC', sans-serif;font-weight:600;font-size:16.043px;fill:#070707;">添加技能</text><text x="133.186px" y="222.005px" style="font-family:'Helvetica-Bold', 'Helvetica';font-weight:700;font-size:42.028px;fill:#dcdcdc;">02</text><g transform="matrix(0.668922,0,0,0.668922,9.16348,100.246)"><text x="186.586px" y="186.951px" style="font-family:'PingFangSC-Light', 'PingFang SC', sans-serif;font-weight:300;font-size:14px;fill:#797979;">谁说</text><text x="214.586px" y="186.951px" style="font-family:'PingFangSC-Light', 'PingFang SC', sans-serif;font-weight:300;font-size:14px;fill:#535353;">‘没钱’？</text></g></g><g><path d="M125.347,185.345c0,1.943 -1.599,3.543 -3.543,3.543c-1.943,0 -3.543,-1.6 -3.543,-3.543c0,-1.943 1.6,-3.543 3.543,-3.543c1.944,0 3.543,1.6 3.543,3.543" style="fill:#efcc8d;"/><path d="M121.804,190.069c-2.604,0 -4.723,-2.119 -4.723,-4.724c0,-2.604 2.119,-4.724 4.723,-4.724c2.604,0 4.724,2.12 4.724,4.724c0,2.605 -2.12,4.724 -4.724,4.724Zm0,-7.389c-1.462,0.001 -2.664,1.203 -2.666,2.665c0.002,1.462 1.204,2.664 2.666,2.665c1.462,-0.001 2.664,-1.203 2.665,-2.665c-0.001,-1.462 -1.204,-2.664 -2.665,-2.665l0,0Z" style="fill:#454bdb;"/></g><g><text x="54.6px" y="344.239px" style="font-family:'PingFangSC-Semibold', 'PingFang SC', sans-serif;font-weight:600;font-size:15.861px;fill:#070707;">发行鸟币</text><text x="54.247px" y="322.643px" style="font-family:'Helvetica-Bold', 'Helvetica';font-weight:700;font-size:38.332px;fill:#dcdcdc;">03</text><g transform="matrix(0.727846,0,0,0.727846,-80.7783,190.852)"><text x="186.586px" y="186.951px" style="font-family:'PingFangSC-Light', 'PingFang SC', sans-serif;font-weight:300;font-size:14px;fill:#535353;">只工作</text><text x="228.586px" y="186.951px" style="font-family:'STHeitiSC-Medium', 'Heiti SC';font-size:14px;fill:#535353;">，</text><text x="242.586px" y="186.951px" style="font-family:'PingFangSC-Light', 'PingFang SC', sans-serif;font-weight:300;font-size:14px;fill:#797979;">不上班</text></g></g><g><path d="M109.678,288.923c0,2.012 -1.656,3.668 -3.669,3.668c-2.012,0 -3.668,-1.656 -3.668,-3.668c0,-2.013 1.656,-3.668 3.668,-3.668c2.013,0 3.669,1.655 3.669,3.668" style="fill:#efcc8d;"/><path d="M106.009,293.814c-2.696,0 -4.89,-2.194 -4.89,-4.891c0,-2.696 2.194,-4.891 4.89,-4.891c2.696,0 4.891,2.195 4.891,4.891c0,2.697 -2.195,4.891 -4.891,4.891Zm0,-7.651c-1.513,0.001 -2.758,1.246 -2.76,2.76c0.002,1.513 1.247,2.758 2.76,2.759c1.514,-0.001 2.758,-1.246 2.76,-2.759c-0.002,-1.514 -1.247,-2.759 -2.76,-2.76l0,0Z" style="fill:#454bdb;"/></g><path d="M88.401,274.915l-50.409,0l0,-27.402c0,-1.416 1.165,-2.582 2.582,-2.582l45.245,0c1.417,0 2.582,1.166 2.582,2.582l0,27.402Z" style="fill:#38d2de;"/><path d="M89.318,257.5l-1.834,0l0,-9.988c-0.001,-0.912 -0.752,-1.663 -1.665,-1.664l-30.697,0l0,-1.834l30.697,0c1.919,0.002 3.497,1.58 3.499,3.498l0,9.988Zm-40.441,-11.652l3.773,0l0,-1.834l-3.773,0l0,1.834Z" style="fill:#454bdb;"/><path d="M88.401,275.832l-51.326,0l0,-28.319c0.002,-1.918 1.58,-3.496 3.499,-3.499l6.431,0l0,1.834l-6.431,0c-0.913,0.002 -1.664,0.752 -1.665,1.665l0,26.484l49.492,0l0,1.835Z" style="fill:#454bdb;"/><path d="M40.699,271.63l44.995,0l0,-23.682l-44.995,0l0,23.682Zm14.876,16.904l15.187,0l0,-8.99l-15.187,0l0,8.99Z" style="fill:#fff;"/><clipPath id="_clip1"><path d="M40.699,271.63l44.995,0l0,-23.682l-44.995,0l0,23.682Zm14.876,16.904l15.187,0l0,-8.99l-15.187,0l0,8.99Z"/></clipPath><g clip-path="url(#_clip1)"><g id="_-000000ff" serif:id="#000000ff"><path d="M47.03,255.541c0.091,-0.33 0.056,-1.002 0.559,-0.942c0.501,-0.063 0.468,0.614 0.559,0.939c0.39,0.112 0.568,0.042 0.851,0.274c0.283,0.234 0.022,0.636 -0.241,0.722c-0.196,0.064 -0.406,0.076 -0.605,0.129c-0.106,0.365 -0.063,0.921 -0.561,0.972c-0.501,-0.048 -0.469,-0.604 -0.564,-0.972c-0.32,-0.103 -0.989,-0.06 -0.936,-0.554c-0.061,-0.503 0.609,-0.473 0.938,-0.568" style="fill:#454bdb;fill-rule:nonzero;"/><path d="M58.177,256.094c-0.063,-0.659 0.76,-0.48 1.168,-0.42c1.266,0.342 2.451,1.037 3.805,0.997c0.021,0.657 0.078,1.316 0.023,1.973c0.028,0.397 -0.445,0.496 -0.747,0.433c-1.161,-0.036 -2.054,-0.964 -3.219,-1.01c-0.134,2.087 0.08,4.186 -0.119,6.265c-0.266,1.407 -2.058,1.543 -3.161,1.125c-1.137,-0.405 -1.024,-2.333 0.131,-2.645c0.639,-0.262 1.5,0.005 2.009,-0.514c0.236,-2.053 -0.003,-4.14 0.11,-6.204" style="fill:#454bdb;fill-rule:nonzero;"/><path d="M43.488,260.702c0.216,-0.006 0.476,0.223 0.602,0.344c0.246,0.237 0.494,0.546 0.281,0.882c-0.071,0.114 -0.146,0.227 -0.235,0.326c-0.116,0.129 -0.359,0.375 -0.574,0.381c-0.219,0.007 -0.49,-0.228 -0.617,-0.347c-0.251,-0.235 -0.519,-0.548 -0.293,-0.886c0.075,-0.112 0.153,-0.224 0.246,-0.323c0.121,-0.127 0.373,-0.371 0.59,-0.377" style="fill:#454bdb;fill-rule:nonzero;"/></g></g><rect x="55.603" y="279.458" width="15.187" height="4.495" style="fill:#e2e2e2;"/><path d="M56.52,287.532l13.353,0l0,-7.157l-13.353,0l0,7.157Zm-1.834,1.834l17.021,0l0,-10.825l-17.021,0l0,10.825Z" style="fill:#454bdb;"/><path d="M88.401,273.814l-50.409,0l0,4.191c0,1.435 1.181,2.616 2.616,2.616l45.177,0c1.435,-0.001 2.615,-1.181 2.615,-2.616l0,-4.191l0.001,0Z" style="fill:#fff;"/><path d="M74.793,281.538l-34.186,0c-1.937,-0.002 -3.531,-1.595 -3.533,-3.532l0,-5.109l37.719,0l0,1.834l-35.884,0l0,3.275c0.001,0.931 0.767,1.697 1.698,1.698l34.186,0l0,1.834Z" style="fill:#454bdb;"/><g><path d="M44.011,234.995c0.001,0.021 0.002,0.042 0.002,0.063c0,0.901 -0.742,1.643 -1.643,1.643c-0.901,0 -1.643,-0.742 -1.643,-1.643c0,-0.021 0.001,-0.042 0.001,-0.064c0.035,-0.876 0.765,-1.579 1.642,-1.579c0.877,0 1.608,0.704 1.641,1.58" style="fill:#38d2de;"/><path d="M55.296,240.375c0,0.451 -0.37,0.821 -0.821,0.821c-0.45,0 -0.821,-0.37 -0.821,-0.821c0,-0.45 0.371,-0.821 0.821,-0.821c0.451,0 0.821,0.371 0.821,0.821" style="fill:#e2e2e2;"/></g><g><path d="M92.383,288.617l-13.473,0c-0.998,0 -1.819,-0.821 -1.819,-1.819l0,-25.72c0,-0.998 0.821,-1.819 1.819,-1.819l13.473,0c0.997,0 1.818,0.821 1.819,1.819l0,25.72c0,0 0,0 0,0c0,0.998 -0.821,1.819 -1.819,1.819" style="fill:#fff;"/><rect x="78.621" y="264.099" width="14.05" height="19.045" style="fill:#e2e2e2;"/><path d="M78.91,260.176c-0.497,0 -0.902,0.404 -0.902,0.902l0,25.72c0,0.497 0.405,0.902 0.902,0.902l13.473,0c0.497,0 0.901,-0.405 0.901,-0.902l0,-25.72c0,-0.498 -0.404,-0.902 -0.901,-0.902l-13.474,0l0.001,0Zm13.473,29.358l-13.474,0c-1.5,-0.002 -2.734,-1.236 -2.735,-2.736l0,-25.72c0.001,-1.5 1.235,-2.734 2.736,-2.736l13.473,0c1.5,0.002 2.733,1.236 2.735,2.736l0,25.72c-0.002,1.5 -1.235,2.734 -2.735,2.736Z" style="fill:#454bdb;"/><path d="M82.328,262.964l6.637,0l0,-1.834l-6.637,0l0,1.834Zm3.318,22.193c-0.004,0 -0.008,0 -0.012,0c-0.111,0 -0.203,0.091 -0.203,0.203c0,0.112 0.092,0.204 0.203,0.204c0.004,0 0.008,0 0.012,-0.001c0.107,-0.006 0.192,-0.095 0.192,-0.203c0,-0.107 -0.085,-0.197 -0.192,-0.203m0,1.834c-0.894,-0.001 -1.629,-0.737 -1.63,-1.631c0.001,-0.893 0.736,-1.628 1.63,-1.629c0.893,0.001 1.629,0.736 1.63,1.629c-0.001,0.894 -0.736,1.63 -1.63,1.631" style="fill:#454bdb;"/></g><g><path d="M91.367,222.344l-33.694,0l-5.615,9.727l22.461,25.547l22.462,-25.547l-5.614,-9.727Z" style="fill:#fff;"/><path d="M63.289,232.071l-5.617,-9.727l-5.133,9.796l10.75,-0.069Zm11.057,-0.302l-5.442,-9.425l-5.432,9.41l10.874,0.015Z" style="fill:#38d2de;"/><path d="M85.838,232.071l-5.832,-9.396l-4.961,9.464l10.793,-0.068Z" style="fill:#e2e2e2;"/><path d="M74.519,232.071l0,23.845l10.974,-23.845l-10.974,0Z" style="fill:#38d2de;"/><path d="M52.539,232.071l0,0.237l21.468,24.147l-11.215,-24.384l-10.253,0Z" style="fill:#e2e2e2;"/><path d="M96.091,232.071l0,0.237l-21.468,24.147l11.215,-24.384l10.253,0Z" style="fill:#fff;"/><path d="M67.316,223.26l-8.055,0l4.028,6.976l4.027,-6.976Zm-2.44,7.894l8.056,0l-4.028,-6.975l-4.028,6.975Zm13.672,-7.892l-8.056,0l4.027,6.974l4.029,-6.975l0,0.001Zm-2.441,7.892l8.057,0l-4.029,-6.975l-4.028,6.975Zm13.67,-7.892l-1.66,0l0,-1.834l3.78,0l6.207,10.753l-23.586,26.826l-23.583,-26.825l6.208,-10.756l25.316,0l0,1.834l-0.736,0l4.027,6.974l4.028,-6.974l-0.001,0.002Zm1.59,0.915l-4.03,6.977l8.055,0l-4.025,-6.977l0,0Zm-33.695,0.002l-4.026,6.975l8.056,0l-4.029,-6.975l-0.001,0Zm17.764,8.809l0,19.684l8.652,-19.684l-8.652,0Zm-1.834,0l-8.908,0l8.908,20.266l0,-20.266l0,0Zm3.629,20.157l17.723,-20.157l-8.863,0l-8.86,20.157Zm-5.936,-0.582l-8.604,-19.575l-8.606,0l17.21,19.575l0,0Zm12.055,-29.301l0,-1.834l3.66,0l0,1.834l-3.66,0Z" style="fill:#454bdb;"/></g><g><text x="116.409px" y="448.835px" style="font-family:'PingFangSC-Semibold', 'PingFang SC', sans-serif;font-weight:600;font-size:15.924px;fill:#070707;">发行超级鸟币</text><text x="144.016px" y="427.079px" style="font-family:'Helvetica-Bold', 'Helvetica';font-weight:700;font-size:41.07px;fill:#dcdcdc;">04</text><text x="140.003px" y="431.499px" style="font-family:'PingFangSC-Light', 'PingFang SC', sans-serif;font-weight:300;font-size:10.215px;fill:#797979;">为朋友挺身而出</text></g><g><path d="M138.819,394.078c0,1.943 -1.599,3.542 -3.542,3.542c-1.943,0 -3.541,-1.599 -3.541,-3.542c0,-1.943 1.598,-3.541 3.541,-3.541c1.943,0 3.542,1.598 3.542,3.541" style="fill:#efcc8d;"/><path d="M135.277,398.801c-2.603,0 -4.722,-2.118 -4.722,-4.723c0,-2.603 2.119,-4.722 4.722,-4.722c2.604,0 4.723,2.119 4.723,4.722c0,2.605 -2.119,4.723 -4.723,4.723Zm0,-7.387c-1.461,0.001 -2.663,1.203 -2.665,2.664c0.002,1.462 1.204,2.664 2.665,2.665c1.462,-0.002 2.664,-1.203 2.665,-2.665c-0.001,-1.461 -1.204,-2.663 -2.665,-2.664l0,0Z" style="fill:#454bdb;"/></g><g><path d="M183.03,368.195l-29.169,0l14.411,-8.309l14.758,8.309Z" style="fill:#f2f2f2;"/><path d="M153.132,369.907l3.945,-2.343l-0.905,-1.523l-3.943,2.343l0.903,1.523Zm5.702,-3.386l3.24,-1.925l-0.903,-1.523l-3.241,1.925l0.904,1.523Zm25.449,3.396l0.87,-1.543l-15.713,-8.849c-0.688,-0.383 -1.671,-0.37 -2.342,0.029l-3.653,2.169l0.904,1.523l3.653,-2.169c0.127,-0.076 0.443,-0.078 0.573,-0.006l15.708,8.846Z" style="fill:#454bdb;"/><path d="M166.381,364.638c0,0.011 0,0.022 0,0.034c0,1.038 0.854,1.893 1.893,1.893c1.038,0 1.893,-0.855 1.893,-1.893c0,-0.012 0,-0.023 0,-0.034c0,-1.038 -0.855,-1.893 -1.894,-1.893c-1.038,0 -1.893,0.855 -1.893,1.893" style="fill:#fff;"/><path d="M168.272,363.632c0.555,0 1.008,0.451 1.008,1.006c-0.001,0.553 -0.456,1.007 -1.008,1.008c-0.54,-0.019 -0.974,-0.468 -0.974,-1.007c0,-0.54 0.434,-0.989 0.974,-1.007m0,3.785c1.524,-0.002 2.777,-1.255 2.779,-2.779c-0.002,-1.523 -1.256,-2.776 -2.779,-2.777c-1.523,0.002 -2.776,1.254 -2.777,2.777c0.001,1.523 1.253,2.777 2.777,2.779" style="fill:#454bdb;"/><path d="M155.304,362.19c0,0.363 0.299,0.661 0.662,0.661c0.363,0 0.662,-0.299 0.662,-0.662c0,0 0,0 0,0c-0.001,-0.363 -0.299,-0.661 -0.662,-0.661c-0.363,0 -0.662,0.298 -0.662,0.661c0,0.001 0,0.001 0,0.001" style="fill:#e2e2e2;"/><path d="M161.386,356.96c0,0.506 0.416,0.922 0.922,0.922c0.506,0 0.922,-0.416 0.922,-0.922c0,-0.506 -0.416,-0.923 -0.922,-0.923c-0.506,0 -0.922,0.417 -0.922,0.923" style="fill:#38d2de;"/><path d="M148.546,358.452c0,0.818 0.673,1.491 1.491,1.491c0.818,0 1.491,-0.673 1.491,-1.491c0,-0.819 -0.673,-1.492 -1.491,-1.492c-0.818,0 -1.491,0.673 -1.491,1.492" style="fill:#e2e2e2;"/><path d="M180.377,370.677l0,17.8l-3.522,0l0,-9.833c0,-1.463 -1.158,-2.661 -2.573,-2.661c-1.416,0 -2.574,1.198 -2.574,2.661l0,9.833l-6.782,0l0,-9.833c0,-1.463 -1.159,-2.661 -2.574,-2.661c-1.416,0 -2.574,1.198 -2.574,2.661l0,9.833l-3.813,0l0,-17.8l24.412,0Z" style="fill:#fff;"/><path d="M158.893,387.591l-2.042,0l0,-16.028l22.641,0l0,16.028l-1.75,0l0,-8.946c0,-1.956 -1.553,-3.546 -3.46,-3.546c-1.907,0 -3.459,1.59 -3.459,3.546l0,8.947l-5.012,0l0,-8.947c0,-1.956 -1.552,-3.546 -3.46,-3.546c-1.906,0 -3.459,1.59 -3.459,3.546l0,8.947l0.001,-0.001Zm-3.813,1.771l5.584,0l0,-10.717c0,-0.979 0.756,-1.776 1.687,-1.776c0.932,0 1.689,0.797 1.689,1.776l0,10.718l8.553,0l0,-10.718c0,-0.979 0.758,-1.776 1.689,-1.776c0.931,0 1.688,0.797 1.688,1.776l0,10.718l5.293,0l0,-19.571l-26.183,0l0,19.57Z" style="fill:#454bdb;"/><path d="M179.667,389.286l1.42,0c0.301,0 0.543,-0.415 0.543,-0.928l0,-17.157l-2.507,0l0,17.157c0,0.514 0.244,0.928 0.544,0.928m-12.08,0l1.42,0c0.301,0 0.543,-0.415 0.543,-0.928l0,-17.157l-2.507,0l0,17.157c0,0.514 0.243,0.928 0.544,0.928m-12.08,0l1.419,0c0.301,0 0.544,-0.415 0.544,-0.928l0,-17.157l-2.507,0l0,17.157c0,0.514 0.244,0.928 0.544,0.928" style="fill:#f2f2f2;"/><path d="M180.743,388.4l-0.733,0l-0.002,-0.042l0,-16.272l0.736,0l0,16.272c0,0.015 0,0.03 -0.001,0.043m-1.076,1.771l1.42,0c0.814,0 1.428,-0.78 1.428,-1.814l0,-18.043l-4.278,0l0,18.043c0,1.034 0.615,1.814 1.43,1.814m-11.003,-1.772l-0.735,0l-0.001,-0.042l0,-16.272l0.737,0l0,16.272c0,0.015 0,0.03 -0.001,0.043m-1.077,1.771l1.42,0c0.815,0 1.429,-0.78 1.429,-1.814l0,-18.043l-4.278,0l0,18.043c0,1.034 0.614,1.814 1.429,1.814m-11.004,-1.772l-0.733,0c-0.001,-0.013 -0.002,-0.028 -0.002,-0.042l0,-16.272l0.737,0l0,16.272c0,0.015 0,0.03 -0.002,0.043m-1.076,1.771l1.42,0c0.815,0 1.428,-0.78 1.428,-1.814l0,-18.043l-4.277,0l0,18.043c0,1.034 0.614,1.814 1.429,1.814" style="fill:#454bdb;"/><rect x="153.642" y="388.477" width="29.014" height="2.344" style="fill:#e2e2e2;"/><path d="M181.77,389.345l-27.242,0l0,-0.573l27.242,0l0,0.573Zm1.771,1.771l-30.785,0l0,-4.115l30.785,0l0,4.115Z" style="fill:#454bdb;"/><rect x="151.529" y="390.509" width="33.242" height="2.684" style="fill:#fff;"/><path d="M183.886,392.307l-31.471,0l0,-0.913l31.471,0l0,0.913Zm1.77,1.771l-35.012,0l0,-4.455l35.012,0l0,4.455Z" style="fill:#454bdb;"/><rect x="152.178" y="368.898" width="32.413" height="2.081" style="fill:#fff;"/><path d="M183.705,370.094l-30.642,0l0,-0.31l30.642,0l0,0.31Zm1.771,1.771l-34.184,0l0,-3.852l34.184,0l0,3.852Z" style="fill:#454bdb;"/><g><path d="M187.44,353.442l6.757,0l0,21.106l-6.757,-2.745l-6.758,2.745l0,-21.106l6.758,0Z" style="fill:#38d2de;"/><path d="M179.797,375.864l7.643,-3.104l7.643,3.104l0,-5.46l-1.771,0l0,2.829l-5.872,-2.385l-5.872,2.385l0,-18.905l12.63,0l0,-1.771l-14.401,0l0,23.307Z" style="fill:#454bdb;"/><rect x="193.312" y="363.062" width="1.771" height="5.408" style="fill:#454bdb;"/><path d="M170.435,347.013c0,2.194 2.023,3.97 2.814,5.877c0.821,1.978 0.676,4.657 2.167,6.147c1.49,1.491 4.168,1.346 6.146,2.167c1.908,0.791 3.684,2.814 5.878,2.814c2.193,0 3.97,-2.023 5.878,-2.814c1.977,-0.821 4.655,-0.676 6.147,-2.167c1.49,-1.49 1.346,-4.169 2.166,-6.147c0.791,-1.907 2.814,-3.683 2.814,-5.877c0,-2.194 -2.023,-3.97 -2.815,-5.878c-0.819,-1.978 -0.676,-4.657 -2.166,-6.147c-1.491,-1.49 -4.169,-1.346 -6.146,-2.166c-1.908,-0.791 -3.684,-2.815 -5.878,-2.815c-2.194,0 -3.97,2.024 -5.878,2.815c-1.978,0.82 -4.656,0.676 -6.146,2.166c-1.491,1.491 -1.346,4.17 -2.167,6.147c-0.791,1.907 -2.814,3.684 -2.814,5.878" style="fill:#fff;"/><path d="M187.44,330.893c1.126,0 2.195,0.712 3.326,1.467c0.706,0.471 1.437,0.958 2.213,1.279c0.811,0.337 1.698,0.52 2.554,0.698c1.314,0.271 2.555,0.528 3.305,1.277c0.75,0.75 1.007,1.992 1.278,3.306c0.177,0.857 0.36,1.743 0.696,2.554c0.322,0.775 0.809,1.506 1.28,2.212c0.755,1.132 1.468,2.2 1.468,3.327c0,1.126 -0.713,2.194 -1.468,3.325c-0.471,0.707 -0.958,1.438 -1.28,2.213c-0.336,0.811 -0.519,1.697 -0.696,2.554c-0.271,1.314 -0.527,2.556 -1.277,3.306c-0.75,0.75 -1.991,1.006 -3.306,1.277c-0.856,0.177 -1.743,0.361 -2.555,0.697c-0.775,0.322 -1.506,0.809 -2.212,1.28c-1.131,0.755 -2.2,1.467 -3.326,1.467c-1.126,0 -2.195,-0.712 -3.326,-1.467c-0.707,-0.471 -1.437,-0.958 -2.213,-1.28c-0.811,-0.336 -1.698,-0.519 -2.554,-0.696c-1.314,-0.272 -2.555,-0.528 -3.306,-1.278c-0.749,-0.75 -1.006,-1.992 -1.278,-3.306c-0.176,-0.857 -0.36,-1.743 -0.696,-2.554c-0.321,-0.775 -0.808,-1.506 -1.279,-2.213c-0.755,-1.131 -1.468,-2.199 -1.468,-3.325c0,-1.127 0.713,-2.195 1.468,-3.327c0.471,-0.706 0.958,-1.437 1.279,-2.212c0.336,-0.811 0.52,-1.697 0.696,-2.554c0.272,-1.314 0.528,-2.556 1.278,-3.305c0.75,-0.75 1.991,-1.007 3.306,-1.278c0.856,-0.178 1.743,-0.361 2.554,-0.697c0.776,-0.322 1.506,-0.809 2.213,-1.28c1.131,-0.755 2.2,-1.467 3.326,-1.467m0,34.01c1.662,0 3.068,-0.937 4.309,-1.764c0.664,-0.443 1.292,-0.862 1.907,-1.118c0.657,-0.271 1.424,-0.43 2.235,-0.598c1.512,-0.313 3.075,-0.635 4.2,-1.76c1.124,-1.125 1.447,-2.688 1.76,-4.2c0.167,-0.811 0.326,-1.578 0.598,-2.234c0.254,-0.615 0.673,-1.243 1.117,-1.908c0.827,-1.24 1.765,-2.646 1.765,-4.308c0,-1.663 -0.938,-3.069 -1.765,-4.309c-0.444,-0.665 -0.863,-1.293 -1.117,-1.908c-0.272,-0.655 -0.431,-1.423 -0.598,-2.234c-0.313,-1.511 -0.636,-3.076 -1.761,-4.2c-1.125,-1.125 -2.687,-1.448 -4.199,-1.759c-0.811,-0.169 -1.578,-0.327 -2.234,-0.599c-0.616,-0.256 -1.244,-0.675 -1.908,-1.118c-1.241,-0.826 -2.647,-1.764 -4.309,-1.764c-1.662,0 -3.068,0.937 -4.309,1.765c-0.665,0.442 -1.292,0.862 -1.908,1.117c-0.657,0.272 -1.423,0.431 -2.235,0.598c-1.512,0.313 -3.074,0.635 -4.199,1.76c-1.125,1.125 -1.448,2.688 -1.76,4.199c-0.168,0.812 -0.326,1.579 -0.598,2.235c-0.254,0.615 -0.674,1.243 -1.117,1.908c-0.827,1.24 -1.765,2.646 -1.765,4.309c0,1.662 0.938,3.068 1.765,4.308c0.443,0.665 0.863,1.293 1.117,1.908c0.272,0.656 0.43,1.423 0.598,2.234c0.312,1.512 0.636,3.075 1.76,4.2c1.125,1.125 2.687,1.447 4.199,1.76c0.812,0.168 1.578,0.326 2.235,0.598c0.616,0.256 1.243,0.674 1.908,1.118c1.241,0.827 2.647,1.765 4.309,1.765" style="fill:#454bdb;"/><path d="M187.44,330.893c1.126,0 2.195,0.712 3.326,1.467c0.706,0.471 1.437,0.958 2.213,1.279c0.811,0.337 1.698,0.52 2.554,0.698c1.314,0.271 2.555,0.528 3.305,1.277c0.75,0.75 1.007,1.992 1.278,3.306c0.177,0.857 0.36,1.743 0.696,2.554c0.322,0.775 0.809,1.506 1.28,2.212c0.755,1.132 1.468,2.2 1.468,3.327c0,1.126 -0.713,2.194 -1.468,3.325c-0.471,0.707 -0.958,1.438 -1.28,2.213c-0.336,0.811 -0.519,1.697 -0.696,2.554c-0.271,1.314 -0.527,2.556 -1.277,3.306c-0.75,0.75 -1.991,1.006 -3.306,1.277c-0.856,0.177 -1.743,0.361 -2.555,0.697c-0.775,0.322 -1.506,0.809 -2.212,1.28c-1.131,0.755 -2.2,1.467 -3.326,1.467c-1.126,0 -2.195,-0.712 -3.326,-1.467c-0.707,-0.471 -1.437,-0.958 -2.213,-1.28c-0.811,-0.336 -1.698,-0.519 -2.554,-0.696c-1.314,-0.272 -2.555,-0.528 -3.306,-1.278c-0.749,-0.75 -1.006,-1.992 -1.278,-3.306c-0.176,-0.857 -0.36,-1.743 -0.696,-2.554c-0.321,-0.775 -0.808,-1.506 -1.279,-2.213c-0.755,-1.131 -1.468,-2.199 -1.468,-3.325c0,-1.127 0.713,-2.195 1.468,-3.327c0.471,-0.706 0.958,-1.437 1.279,-2.212c0.336,-0.811 0.52,-1.697 0.696,-2.554c0.272,-1.314 0.528,-2.556 1.278,-3.305c0.75,-0.75 1.991,-1.007 3.306,-1.278c0.856,-0.178 1.743,-0.361 2.554,-0.697c0.776,-0.322 1.506,-0.809 2.213,-1.28c1.131,-0.755 2.2,-1.467 3.326,-1.467m0,34.01c1.662,0 3.068,-0.937 4.309,-1.764c0.664,-0.443 1.292,-0.862 1.907,-1.118c0.657,-0.271 1.424,-0.43 2.235,-0.598c1.512,-0.313 3.075,-0.635 4.2,-1.76c1.124,-1.125 1.447,-2.688 1.76,-4.2c0.167,-0.811 0.326,-1.578 0.598,-2.234c0.254,-0.615 0.673,-1.243 1.117,-1.908c0.827,-1.24 1.765,-2.646 1.765,-4.308c0,-1.663 -0.938,-3.069 -1.765,-4.309c-0.444,-0.665 -0.863,-1.293 -1.117,-1.908c-0.272,-0.655 -0.431,-1.423 -0.598,-2.234c-0.313,-1.511 -0.636,-3.076 -1.761,-4.2c-1.125,-1.125 -2.687,-1.448 -4.199,-1.759c-0.811,-0.169 -1.578,-0.327 -2.234,-0.599c-0.616,-0.256 -1.244,-0.675 -1.908,-1.118c-1.241,-0.826 -2.647,-1.764 -4.309,-1.764c-1.662,0 -3.068,0.937 -4.309,1.765c-0.665,0.442 -1.292,0.862 -1.908,1.117c-0.657,0.272 -1.423,0.431 -2.235,0.598c-1.512,0.313 -3.074,0.635 -4.199,1.76c-1.125,1.125 -1.448,2.688 -1.76,4.199c-0.168,0.812 -0.326,1.579 -0.598,2.235c-0.254,0.615 -0.674,1.243 -1.117,1.908c-0.827,1.24 -1.765,2.646 -1.765,4.309c0,1.662 0.938,3.068 1.765,4.308c0.443,0.665 0.863,1.293 1.117,1.908c0.272,0.656 0.43,1.423 0.598,2.234c0.312,1.512 0.636,3.075 1.76,4.2c1.125,1.125 2.687,1.447 4.199,1.76c0.812,0.168 1.578,0.326 2.235,0.598c0.616,0.256 1.243,0.674 1.908,1.118c1.241,0.827 2.647,1.765 4.309,1.765" style="fill:#454bdb;"/><path d="M176.232,347.013c0,6.189 5.018,11.208 11.208,11.208c6.19,0 11.208,-5.019 11.208,-11.208c0,-6.19 -5.018,-11.208 -11.208,-11.208c-6.19,0 -11.208,5.017 -11.208,11.208" style="fill:#4178da;"/><path d="M187.44,336.69c5.692,0 10.322,4.631 10.322,10.323c0,5.692 -4.63,10.323 -10.322,10.323c-5.692,0 -10.322,-4.631 -10.322,-10.323c0,-5.692 4.63,-10.323 10.322,-10.323m0,22.417c6.668,0 12.093,-5.426 12.093,-12.094c0,-6.669 -5.425,-12.094 -12.093,-12.094c-6.668,0 -12.093,5.425 -12.093,12.094c0,6.668 5.425,12.094 12.093,12.094" style="fill:#454bdb;"/><path d="M188.011,328.385l0,-3.719l-1.771,0l0,3.719l1.771,0Zm-8.134,1.39l1.664,-0.606l-1.273,-3.495l-1.663,0.607l1.273,3.494l-0.001,0Zm-5.503,3.484l1.356,-1.139l-2.392,-2.847l-1.356,1.139l2.392,2.847Zm-3.977,5.158l0.885,-1.535l-3.223,-1.856l-0.884,1.535l3.222,1.856Zm-1.971,6.207l0.305,-1.744l-3.663,-0.641l-0.306,1.744l3.664,0.641Zm-3.389,7.159l3.661,-0.651l-0.31,-1.744l-3.661,0.652l0.31,1.743Zm2.928,7.236l3.217,-1.866l-0.889,-1.533l-3.217,1.866l0.889,1.533l0,0Zm5.228,5.794l2.384,-2.854l-1.36,-1.135l-2.383,2.855l1.359,1.134Zm27.516,0.086l1.352,-1.143l-2.4,-2.841l-1.353,1.143l2.401,2.841Zm5.262,-5.769l0.88,-1.537l-3.228,-1.847l-0.88,1.537l3.228,1.847l0,0Zm2.969,-7.221l0.3,-1.745l-3.664,-0.63l-0.3,1.745l3.664,0.63l0,0Zm-3.341,-7.14l3.66,-0.662l-0.316,-1.742l-3.66,0.662l0.316,1.742l0,0Zm-1.924,-6.227l3.212,-1.875l-0.893,-1.529l-3.212,1.875l0.893,1.529Zm-3.939,-5.192l2.375,-2.861l-1.362,-1.131l-2.376,2.861l1.363,1.131l0,0Zm-5.479,-3.53l1.252,-3.501l-1.667,-0.596l-1.252,3.501l1.667,0.597l0,-0.001Z" style="fill:#454bdb;"/><path d="M198.675,367.048c0,0.008 0,0.016 0,0.023c0,0.52 -0.427,0.947 -0.947,0.947c-0.519,0 -0.947,-0.427 -0.947,-0.947c0,-0.007 0,-0.015 0.001,-0.023c0.012,-0.511 0.436,-0.923 0.946,-0.923c0.511,0 0.934,0.412 0.947,0.923m4.948,4.541c0,0 0,0 0,0.001c0,0.658 -0.542,1.2 -1.201,1.2c-0.658,0 -1.2,-0.541 -1.201,-1.2c0,0 0,0 0,0c0,-0.659 0.542,-1.201 1.201,-1.201c0.659,0 1.2,0.542 1.201,1.2" style="fill:#38d2de;"/><path d="M208.288,365.619c0,0.011 0,0.022 0,0.033c0,1.003 -0.824,1.827 -1.827,1.827c-1.002,0 -1.827,-0.824 -1.827,-1.827c0,-0.01 0,-0.021 0.001,-0.032c0,-1.002 0.824,-1.827 1.827,-1.827c1.002,0 1.827,0.825 1.827,1.827" style="fill:#e2e2e2;"/></g><path d="M180.622,345.93c0,-0.001 0,-0.001 0,-0.001c0,-2.182 1.795,-3.978 3.978,-3.978c0,0 0.001,0 0.001,0c1.113,0 2.116,0.457 2.839,1.196c0.745,-0.765 1.77,-1.197 2.838,-1.196c0.001,0 0.001,0 0.002,0c2.182,0 3.978,1.796 3.978,3.978c0,0 0,0.001 0,0.001c0,1.07 -0.425,2.041 -1.114,2.756l-5.688,5.658l-5.832,-5.781c-0.063,-0.074 -0.228,-0.282 -0.228,-0.282c-0.503,-0.681 -0.774,-1.505 -0.774,-2.351" style="fill:#fff;"/></g><g><text x="53.364px" y="555.627px" style="font-family:'PingFangSC-Semibold', 'PingFang SC', sans-serif;font-weight:600;font-size:15.924px;fill:#070707;">鸟币收款</text><text x="53.133px" y="534.223px" style="font-family:'Helvetica-Bold', 'Helvetica';font-weight:700;font-size:41.015px;fill:#dcdcdc;">05</text><text x="53.947px" y="538.574px" style="font-family:'PingFangSC-Light', 'PingFang SC', sans-serif;font-weight:300;font-size:10.171px;fill:#797979;">选择喜欢的贴纸</text></g><g><path d="M78.408,497.784c0,1.916 -1.576,3.492 -3.491,3.492c-1.916,0 -3.492,-1.576 -3.492,-3.492c0,-1.915 1.576,-3.492 3.492,-3.492c1.915,0 3.491,1.577 3.491,3.492" style="fill:#efcc8d;"/><path d="M74.917,502.44c-2.567,0 -4.656,-2.088 -4.656,-4.656c0,-2.566 2.089,-4.656 4.656,-4.656c2.566,0 4.655,2.09 4.655,4.656c0,2.568 -2.089,4.656 -4.655,4.656Zm0,-7.283c-1.441,0.001 -2.626,1.186 -2.628,2.627c0.002,1.441 1.187,2.626 2.628,2.627c1.44,-0.002 2.625,-1.186 2.626,-2.627c-0.001,-1.441 -1.186,-2.626 -2.627,-2.627l0.001,0Z" style="fill:#454bdb;"/></g><path d="M69.388,485.286c0,6.42 -5.205,11.625 -11.626,11.625c-6.42,0 -11.624,-5.205 -11.624,-11.625c0,-6.421 5.204,-11.626 11.624,-11.626c6.421,0 11.626,5.205 11.626,11.626" style="fill:#fff;"/><path d="M57.763,497.784c-5.335,0.002 -10.11,-3.413 -11.832,-8.463l1.652,-0.564c1.482,4.345 5.59,7.283 10.18,7.281c5.929,0 10.752,-4.823 10.752,-10.752c0,-5.929 -4.823,-10.753 -10.752,-10.753l0,-1.745c6.891,0 12.498,5.607 12.498,12.498c0,6.891 -5.607,12.498 -12.498,12.498" style="fill:#454bdb;"/><path d="M63.832,485.286c0,3.352 -2.718,6.069 -6.07,6.069c-3.351,0 -6.068,-2.717 -6.068,-6.069c0,-3.352 2.717,-6.069 6.068,-6.069c3.352,0 6.07,2.718 6.07,6.07" style="fill:#e2e2e2;"/><path d="M57.763,484.984c-0.166,0 -0.303,0.136 -0.303,0.302c0,0.166 0.136,0.303 0.302,0.303c0.166,0 0.303,-0.137 0.303,-0.303c0,-0.166 -0.137,-0.302 -0.303,-0.302m0,1.745c-0.791,0 -1.442,-0.651 -1.443,-1.443c0,-0.792 0.652,-1.443 1.443,-1.444c0.792,0.001 1.443,0.652 1.444,1.444c-0.001,0.791 -0.652,1.442 -1.444,1.443m-0.872,-10.05l0,-2.02l1.746,0l0,2.02l-1.746,0Zm5.939,1.595l-1.511,-0.874l1.013,-1.749l1.51,0.874l-1.012,1.749Zm2.83,3.481l-0.869,-1.514l1.752,-1.007l0.869,1.515l-1.752,1.006Zm2.727,4.437l-2.02,-0.007l0.006,-1.746l2.02,0.006l-0.006,1.746l0,0.001Zm-1.882,5.199l-1.745,-1.017l0.878,-1.509l1.746,1.017l-0.879,1.509l0,0Zm-4.234,3.557l-1.001,-1.754l1.517,-0.865l1,1.754l-1.516,0.865Zm-3.687,0.974l-1.746,-0.011l0.013,-2.02l1.746,0.011l-0.013,2.02Zm-5.424,-1.017l-1.505,-0.884l1.023,-1.742l1.505,0.885l-1.024,1.741l0.001,0Zm-4.185,-3.598l-0.86,-1.519l1.759,-0.994l0.859,1.518l-1.758,0.995l0,0Zm0.175,-5.228l-2.021,-0.019l0.017,-1.746l2.019,0.019l-0.016,1.746l0.001,0Zm0.761,-4.422l-1.739,-1.028l0.888,-1.503l1.739,1.028l-0.888,1.503Zm2.873,-3.445l-0.989,-1.76l1.521,-0.857l0.99,1.761l-1.522,0.856Z" style="fill:#454bdb;"/><path d="M57.062,485.319l0.289,-7.149l0.823,0l0.288,7.149l-1.4,0Z" style="fill:#454bdb;"/><path d="M57.745,484.619l6.3,0.126l0.021,0.822l-6.285,0.451l-0.036,-1.399Z" style="fill:#454bdb;"/><g><path d="M43.899,464.653c-6.234,0.125 -11.188,5.28 -11.063,11.514c0.124,6.234 5.279,11.188 11.513,11.063c6.234,-0.124 11.188,-5.279 11.063,-11.513c-0.124,-6.235 -5.278,-11.188 -11.513,-11.064" style="fill:#38d2de;"/><path d="M44.183,467.562c-4.427,0.088 -7.944,3.748 -7.856,8.176c0.087,4.427 3.748,7.944 8.176,7.856c4.427,-0.088 7.943,-3.749 7.856,-8.176c-0.089,-4.426 -3.75,-7.944 -8.176,-7.856" style="fill:#fff;"/><path d="M44.354,487.83c-6.595,0 -12.025,-5.298 -12.158,-11.921c-0.044,-1.912 0.369,-3.808 1.204,-5.528l1.571,0.758c-0.714,1.474 -1.067,3.097 -1.03,4.735c0.116,5.744 4.884,10.344 10.624,10.208c5.743,-0.114 10.323,-4.881 10.208,-10.623c-0.047,-2.764 -1.199,-5.396 -3.197,-7.306c-2.007,-1.927 -4.652,-2.977 -7.426,-2.903c-1.366,0.025 -2.713,0.32 -3.965,0.867l-0.7,-1.6c1.462,-0.639 3.035,-0.983 4.63,-1.013c3.225,-0.072 6.349,1.15 8.671,3.39c2.332,2.23 3.677,5.303 3.733,8.53c0.133,6.705 -5.215,12.27 -11.919,12.403c-0.082,0.002 -0.164,0.003 -0.246,0.003" style="fill:#454bdb;"/><path d="M35.566,470.075l-1.472,-0.94c0.402,-0.628 0.862,-1.222 1.368,-1.765l1.276,1.191c-0.436,0.468 -0.828,0.975 -1.172,1.514m1.925,-2.243l-1.152,-1.312c0.666,-0.585 1.395,-1.096 2.172,-1.522l0.84,1.53c-0.665,0.366 -1.289,0.803 -1.86,1.304" style="fill:#454bdb;"/></g><clipPath id="_clip2"><rect x="37.409" y="470.268" width="13.868" height="10.619"/></clipPath><g clip-path="url(#_clip2)"><path d="M37.409,464.31c0.61,0 1.223,0.003 1.833,0.003c1.693,3.126 3.397,6.245 5.101,9.367c1.727,-3.115 3.457,-6.229 5.165,-9.355c0.591,0 1.178,-0.015 1.769,-0.019c-1.788,3.133 -3.61,6.248 -5.406,9.381c0.938,0 1.876,0 2.818,0.004c0,0.286 0.003,0.854 0.003,1.136c-1.17,-0.008 -2.336,0 -3.503,0.038c0,0.698 -0.007,1.399 -0.007,2.101c1.166,-0.004 2.336,0.003 3.507,0.003c0,0.283 0,0.854 -0.004,1.136c-1.167,0 -2.333,0.008 -3.503,0.004c-0.004,1.498 0.003,2.997 0,4.495c-0.534,0 -1.068,0.004 -1.602,0.004c-0.003,-1.499 0.004,-3.001 -0.003,-4.499c-1.14,0.004 -2.284,0 -3.427,0c0,-0.286 0,-0.857 0,-1.143c1.143,0.003 2.287,-0.004 3.43,0c-0.003,-0.702 -0.007,-1.403 -0.007,-2.105c-1.14,-0.03 -2.28,-0.045 -3.423,-0.026c0,-0.286 0,-0.858 0,-1.144c0.888,-0.004 1.772,-0.004 2.66,-0.004c-1.787,-3.133 -3.61,-6.248 -5.401,-9.377Z" style="fill:#454bdb;fill-rule:nonzero;"/></g><g><path d="M91.498,439.433c0,0.429 -0.353,0.782 -0.782,0.782c-0.429,0 -0.782,-0.353 -0.782,-0.783c0,0 0,0 0,0c0,-0.429 0.353,-0.782 0.782,-0.782c0.429,0 0.782,0.353 0.782,0.782c0,0.001 0,0.001 0,0.001" style="fill:#38d2de;"/><path d="M51.306,439.621c0,0.429 -0.353,0.782 -0.782,0.782c-0.429,0 -0.782,-0.353 -0.782,-0.783c0,0 0,0 0,0c0,-0.429 0.353,-0.781 0.782,-0.781c0.429,0 0.782,0.353 0.782,0.782c0,0 0,0 0,0.001m34.777,-8.899c0,0.563 -0.463,1.026 -1.026,1.026c-0.563,0 -1.027,-0.463 -1.027,-1.026c0,-0.563 0.464,-1.026 1.027,-1.026c0.563,0 1.026,0.463 1.026,1.026" style="fill:#e2e2e2;"/><path d="M44.566,432.429c0,0.563 -0.463,1.026 -1.026,1.026c-0.563,0 -1.026,-0.463 -1.026,-1.026c0,-0.563 0.463,-1.026 1.026,-1.026c0.563,0 1.026,0.463 1.026,1.026" style="fill:#38d2de;"/><path d="M96.704,431.361c0,1.034 -0.852,1.885 -1.886,1.885c-1.034,0 -1.885,-0.851 -1.885,-1.885c0,-1.035 0.851,-1.886 1.885,-1.886c1.034,0 1.886,0.851 1.886,1.886m-38.814,-1.457c0,0.732 -0.602,1.334 -1.334,1.334c-0.732,0 -1.334,-0.603 -1.334,-1.335c0,0 0,0 0,0c0,-0.732 0.602,-1.334 1.334,-1.334c0.732,0 1.334,0.602 1.334,1.334c0,0 0,0.001 0,0.001" style="fill:#e2e2e2;"/><path d="M69.779,439.595c-9.879,0.197 -17.728,8.365 -17.531,18.244c0.197,9.878 8.365,17.727 18.245,17.531c9.878,-0.197 17.726,-8.365 17.53,-18.244c-0.197,-9.88 -8.366,-17.728 -18.244,-17.531" style="fill:#f2f2f2;"/><path d="M86.9,454.54c-1.408,-8.079 -8.583,-14.075 -16.768,-14.075c-1.525,-0.001 -3.043,0.203 -4.514,0.606l-0.463,-1.683c1.503,-0.412 3.05,-0.635 4.607,-0.666c9.169,-0.174 17.285,6.489 18.858,15.518l-1.72,0.3l0,0Zm-33.622,0.595l-1.73,-0.238c0.396,-2.836 1.434,-5.543 3.036,-7.916l1.446,0.979c-1.452,2.15 -2.394,4.605 -2.752,7.175m4.728,-9.589l-1.246,-1.224c1.608,-1.637 3.502,-2.964 5.589,-3.917l0.725,1.589c-1.893,0.864 -3.611,2.068 -5.068,3.552m13.003,14.705l0,2.756l-1.746,0l0,-2.755l-3.768,0l0,-1.746l3.768,0l0,-2.643l-0.224,0c-1.681,-0.002 -3.065,-1.385 -3.066,-3.067c0.002,-1.681 1.385,-3.063 3.066,-3.065l0.224,0l0,-2.756l1.746,0l0,2.756l3.768,0l0,1.746l-3.768,0l0,2.641l0.393,0c1.681,0.002 3.064,1.385 3.066,3.066c-0.001,1.682 -1.385,3.065 -3.066,3.067l-0.393,0l0,0Zm0,-1.746l0.392,0c0.724,-0.001 1.32,-0.596 1.321,-1.321c-0.002,-0.724 -0.597,-1.319 -1.321,-1.32l-0.392,0l0,2.642l0,-0.001Zm-1.746,-7.028l-0.224,0c-0.724,0.001 -1.32,0.596 -1.321,1.321c0.001,0.724 0.596,1.32 1.321,1.321l0.224,0l0,-2.642l0,0Z" style="fill:#454bdb;"/><path d="M78.15,457.651c0,4.43 -3.579,8.01 -7.998,8.01c-4.425,0 -8.009,-3.58 -8.009,-8.01l-15.976,0.186l0,1.183c-0.008,1.388 1.118,2.523 2.512,2.535l3.892,0.011c0.445,1.993 1.23,3.894 2.32,5.62l-2.774,2.765c-0.984,0.975 -0.989,2.57 -0.006,3.561l2.048,2.067c0.473,0.48 1.12,0.75 1.793,0.75c0.667,0 1.307,-0.265 1.778,-0.735l2.769,-2.746c1.727,1.098 3.628,1.893 5.622,2.352l-0.016,3.893c0,0.004 0,0.008 0,0.012c0,1.38 1.134,2.516 2.514,2.518l2.919,0.012c1.393,0 2.527,-1.119 2.527,-2.508l0.012,-3.903c1.994,-0.451 3.897,-1.237 5.629,-2.324l2.753,2.772c0.98,0.983 2.582,0.983 3.577,0l2.057,-2.06c0.99,-0.978 0.996,-2.581 0.002,-3.559l-2.738,-2.769c1.094,-1.728 1.884,-3.63 2.338,-5.625l3.897,0.012c1.383,0 2.522,-1.136 2.526,-2.519l0,-1.65l-15.968,0.149Z" style="fill:#fff;"/><path d="M60.378,471.739l0.588,0.372c1.643,1.045 3.452,1.802 5.349,2.239l0.682,0.155l-0.019,4.591c-0.003,0.439 0.171,0.862 0.482,1.171c0.31,0.312 0.722,0.483 1.159,0.483l2.923,0.012c0.908,0 1.651,-0.733 1.651,-1.635l0.013,-4.602l0.679,-0.153c1.898,-0.428 3.71,-1.176 5.357,-2.212l0.592,-0.37l3.244,3.267c0.639,0.64 1.691,0.639 2.344,-0.006l2.054,-2.056c0.314,-0.307 0.49,-0.728 0.489,-1.168c0.001,-0.433 -0.173,-0.849 -0.482,-1.152l-3.234,-3.27l0.37,-0.587c1.041,-1.644 1.793,-3.454 2.225,-5.351l0.154,-0.683l4.597,0.014c0.904,-0.004 1.646,-0.746 1.651,-1.649l0,-0.766l-14.265,0.133c-0.435,4.494 -4.229,8.018 -8.829,8.018c-4.6,0 -8.395,-3.515 -8.839,-8l-14.273,0.166l0,0.32c-0.002,0.907 0.74,1.655 1.646,1.662l4.583,0.014l0.153,0.678c0.423,1.895 1.17,3.703 2.207,5.345l0.374,0.592l-3.27,3.258c-0.639,0.638 -0.64,1.688 -0.003,2.327l2.05,2.068c0.309,0.314 0.731,0.492 1.172,0.492l0.003,0c0.437,0 0.849,-0.17 1.158,-0.48l3.265,-3.237Zm11.16,10.769l-2.922,-0.012c-0.899,0.002 -1.761,-0.358 -2.393,-0.996c-0.639,-0.638 -0.997,-1.507 -0.991,-2.41l0.013,-3.208c-1.618,-0.436 -3.17,-1.086 -4.615,-1.933l-2.285,2.265c-0.632,0.634 -1.493,0.99 -2.39,0.988l-0.007,0c-0.905,0 -1.774,-0.364 -2.408,-1.009l-2.049,-2.067c-0.636,-0.637 -0.992,-1.502 -0.988,-2.402c0,-0.899 0.36,-1.761 0.999,-2.393l2.287,-2.279c-0.839,-1.446 -1.479,-2.998 -1.904,-4.615l-3.209,-0.009c-1.877,-0.016 -3.392,-1.547 -3.381,-3.413l0,-2.04l17.721,-0.207l0,0.883c0,3.936 3.201,7.137 7.136,7.137c3.928,0 7.125,-3.201 7.125,-7.137l0,-0.865l17.714,-0.165l0,2.531c-0.007,1.873 -1.532,3.392 -3.399,3.392l-3.214,-0.009c-0.432,1.618 -1.078,3.171 -1.921,4.619l2.259,2.285c0.639,0.629 0.998,1.489 0.995,2.386c0.004,0.905 -0.358,1.774 -1.004,2.409l-2.054,2.055c-1.338,1.321 -3.495,1.32 -4.812,0l-2.272,-2.288c-1.449,0.838 -3.003,1.48 -4.622,1.908l-0.008,3.221c0,1.861 -1.526,3.378 -3.401,3.378Zm-2.741,-45.755l0,-2.544l1.746,0l0,2.544l-1.746,0Zm8.819,1.392l-1.64,-0.598l2.065,-5.667l1.641,0.599l-2.066,5.666Zm6.169,3.73l-1.336,-1.123l1.94,-2.308l1.337,1.122l-1.941,2.309l0,0Zm4.519,5.617l-0.871,-1.513l5.227,-3.009l0.87,1.513l-5.226,3.009l0,0Zm2.323,6.824l-0.3,-1.719l2.983,-0.521l0.301,1.72l-2.984,0.52Zm-41.131,0.766l-2.966,-0.561l0.324,-1.715l2.966,0.561l-0.324,1.715Zm2.074,-6.919l-5.204,-3.047l0.882,-1.507l5.205,3.047l-0.883,1.507Zm4.313,-5.793l-1.814,-2.192l1.344,-1.114l1.816,2.192l-1.346,1.114Zm6.037,-3.967l-2.024,-5.682l1.646,-0.585l2.022,5.682l-1.644,0.585Z" style="fill:#454bdb;"/></g><g><text x="152.875px" y="656.847px" style="font-family:'PingFangSC-Semibold', 'PingFang SC', sans-serif;font-weight:600;font-size:15.907px;fill:#070707;">兑现鸟币</text><text x="169.999px" y="635.306px" style="font-family:'Helvetica-Bold', 'Helvetica';font-weight:700;font-size:40.905px;fill:#dcdcdc;">06</text><text x="153.877px" y="639.631px" style="font-family:'PingFangSC-Light', 'PingFang SC', sans-serif;font-weight:300;font-size:10.204px;fill:#797979;">维护自助信用</text></g><g><path d="M179.155,602.353c0,1.804 -1.485,3.289 -3.289,3.289c-1.804,0 -3.288,-1.485 -3.288,-3.289c0,-1.804 1.484,-3.288 3.288,-3.288c1.804,0 3.289,1.484 3.289,3.288" style="fill:#efcc8d;"/><path d="M175.866,606.738c-2.417,0 -4.385,-1.967 -4.385,-4.385c0,-2.417 1.968,-4.385 4.385,-4.385c2.417,0 4.385,1.968 4.385,4.385c0,2.418 -1.968,4.385 -4.385,4.385Zm0,-6.859c-1.357,0.001 -2.473,1.117 -2.474,2.474c0.001,1.357 1.117,2.473 2.474,2.474c1.357,-0.001 2.473,-1.117 2.474,-2.474c-0.001,-1.357 -1.118,-2.473 -2.474,-2.474l0,0Z" style="fill:#454bdb;"/></g><path d="M189.156,571.124c0,0.391 -0.322,0.713 -0.714,0.713c-0.391,0 -0.713,-0.322 -0.713,-0.713c0,-0.391 0.322,-0.713 0.713,-0.713c0.392,0 0.714,0.322 0.714,0.713m-3.796,2.567c0,0.008 0,0.016 0,0.024c0,0.571 -0.47,1.042 -1.041,1.042c-0.572,0 -1.042,-0.471 -1.042,-1.042c0,-0.008 0,-0.016 0.001,-0.024c0.012,-0.562 0.478,-1.017 1.041,-1.017c0.562,0 1.028,0.455 1.041,1.017" style="fill:#38d2de;"/><path d="M197.846,599.942l0,-25.227c0,-0.871 0.717,-1.589 1.588,-1.589l11.771,0c0.871,0 1.588,0.717 1.588,1.589c0,0 0,0 0,0.001l0,25.227c0,0 0,0 0,0c0,0.871 -0.716,1.588 -1.587,1.588c-0.001,0 -0.001,0 -0.001,0l-11.771,0c-0.871,0 -1.588,-0.717 -1.588,-1.588" style="fill:#f2f2f2;"/><path d="M211.205,602.353l-11.771,0c-1.321,-0.001 -2.409,-1.089 -2.41,-2.41l1.644,0c0.001,0.42 0.346,0.765 0.766,0.766l11.771,0c0.42,-0.001 0.766,-0.346 0.766,-0.766l0,-25.228c0,-0.421 -0.346,-0.766 -0.766,-0.767l-11.771,0c-0.42,0.001 -0.765,0.346 -0.766,0.767l0,0.833l-1.644,0l0,-0.833c0.001,-1.322 1.089,-2.41 2.41,-2.411l11.771,0c1.322,0.001 2.409,1.089 2.41,2.411l0,25.228c-0.001,1.322 -1.088,2.409 -2.41,2.41" style="fill:#454bdb;"/><path d="M200.357,587.28c0.055,-2.778 2.353,-4.987 5.132,-4.931c2.745,0.022 4.993,2.287 4.993,5.033c0,2.76 -2.272,5.032 -5.033,5.032c-0.054,0 -0.107,-0.001 -0.161,-0.003c-2.722,-0.053 -4.932,-2.307 -4.932,-5.03c0,-0.034 0,-0.067 0.001,-0.101" style="fill:#fff;"/><path d="M205.392,593.235c-0.04,0 -0.08,0 -0.121,-0.001l0.033,-1.645c1.146,0.009 2.19,-0.394 3.001,-1.173c0.808,-0.771 1.274,-1.834 1.292,-2.951c0.04,-1.992 -1.338,-3.754 -3.278,-4.192l0.362,-1.603c2.698,0.608 4.615,3.058 4.56,5.827c-0.026,1.553 -0.674,3.032 -1.796,4.106c-1.087,1.049 -2.542,1.635 -4.053,1.632" style="fill:#454bdb;"/><path d="M204.174,595.204c0.015,-0.733 0.622,-1.328 1.356,-1.328c0.744,0 1.356,0.612 1.356,1.356c0,0.009 0,0.018 0,0.027c-0.015,0.734 -0.623,1.329 -1.356,1.329c-0.744,0 -1.356,-0.612 -1.356,-1.356c0,-0.009 0,-0.018 0,-0.028m0,-16.006c0.013,-0.734 0.621,-1.331 1.356,-1.331c0.744,0 1.356,0.612 1.356,1.356c0,0.01 0,0.02 0,0.03c-0.015,0.733 -0.623,1.328 -1.356,1.328c-0.744,0 -1.356,-0.612 -1.356,-1.356c0,-0.009 0,-0.018 0,-0.027" style="fill:#fff;"/><path d="M204.436,589.705c-0.974,-0.001 -1.774,-0.801 -1.776,-1.775l0,-2.565l1.645,0l0,2.565c0,0.145 0.261,0.145 0.261,0l0,-1.026c0.001,-0.973 0.802,-1.774 1.775,-1.775c0.974,0.001 1.774,0.802 1.774,1.775l0,2.492l-1.644,0l0,-2.492c0,-0.144 -0.261,-0.144 -0.261,0l0,1.026c-0.001,0.973 -0.801,1.774 -1.774,1.775" style="fill:#454bdb;"/><path d="M201.907,588.203l6.962,0l0,-1.644l-6.962,0l0,1.644Zm1.852,-12.826l0,0.002l0,-0.002Zm7.591,4.79l-1.644,0l0,-1.654c-1.29,-0.304 -2.301,-1.315 -2.604,-2.605l-3.428,0c-0.036,0.147 -0.08,0.292 -0.134,0.434l-1.536,-0.588c0.062,-0.163 0.101,-0.335 0.116,-0.512c0.039,-0.549 0.501,-0.979 1.051,-0.979l4.435,0c0.553,0 1.005,0.421 1.05,0.98c0.082,0.911 0.813,1.639 1.724,1.716c0.544,0.035 0.972,0.493 0.97,1.038l0,2.17Zm-7.592,18.872l0.001,0.002l0,-0.002m3.847,1.116l-4.435,0c-0.551,0.001 -1.013,-0.431 -1.051,-0.98c-0.063,-0.731 -0.548,-1.362 -1.239,-1.611l0.555,-1.548c1.117,0.401 1.96,1.341 2.238,2.495l3.428,0c0.303,-1.29 1.314,-2.302 2.604,-2.605l0,-1.654l1.644,0l0,2.17c0.002,0.545 -0.426,1.002 -0.97,1.038c-0.911,0.077 -1.643,0.805 -1.724,1.716c-0.038,0.549 -0.5,0.98 -1.05,0.979" style="fill:#454bdb;"/><path d="M181.493,569.735c0,0 0,0 0,0c0,0.346 -0.285,0.631 -0.631,0.631c-0.346,0 -0.631,-0.285 -0.631,-0.631c0,-0.346 0.285,-0.631 0.631,-0.631c0.346,0 0.631,0.285 0.631,0.631m14.175,3.443c0,0.282 -0.232,0.514 -0.514,0.514c-0.282,0 -0.514,-0.232 -0.514,-0.514c0,-0.281 0.232,-0.513 0.514,-0.513c0.282,0 0.513,0.232 0.513,0.513" style="fill:#e2e2e2;"/><path d="M194.133,601.461c-0.133,0.091 -0.309,0.093 -0.445,0.005l-7.631,-6.853c-2.343,-2.106 -3.686,-5.111 -3.69,-8.261l-0.012,-8.921c0,-0.005 0,-0.01 0,-0.015c0,-0.221 0.181,-0.402 0.402,-0.402c0.004,0 0.008,0 0.013,0c1.073,0.03 2.424,0.058 3.683,0.058c1.505,0 2.612,-0.041 3.288,-0.123c1.869,-0.229 3.224,-1.31 4.085,-2.011c0.143,-0.117 0.349,-0.118 0.493,-0.003c0.88,0.704 2.234,1.765 4.131,2.041c0.623,0.091 1.613,0.136 2.944,0.136c1.268,0 2.645,-0.04 3.691,-0.079c0.005,0 0.011,0 0.016,0c0.219,0 0.4,0.18 0.4,0.4c0,0.005 0,0.01 0,0.016l-0.011,9.002c-0.004,3.19 -1.38,6.229 -3.774,8.336l-7.583,6.675l0,-0.001Z" style="fill:#fff;"/><path d="M194.109,599.888c-0.118,0.08 -0.273,0.081 -0.393,0.004l-6.725,-6.041c-2.066,-1.856 -3.25,-4.505 -3.253,-7.282l-0.011,-7.862c0,-0.004 0,-0.009 0,-0.013c0,-0.195 0.16,-0.355 0.354,-0.355c0.004,0 0.008,0 0.012,0.001c0.946,0.025 2.137,0.051 3.246,0.051c1.327,0 2.303,-0.036 2.899,-0.108c1.647,-0.202 2.841,-1.155 3.601,-1.774c0.125,-0.103 0.306,-0.103 0.433,-0.002c0.777,0.621 1.97,1.556 3.642,1.799c0.548,0.08 1.421,0.121 2.595,0.121c1.117,0 2.331,-0.036 3.253,-0.07c0.005,-0.001 0.01,-0.001 0.015,-0.001c0.193,0 0.351,0.159 0.351,0.351c0,0.005 0,0.01 0,0.016l-0.009,7.935c-0.003,2.811 -1.216,5.49 -3.327,7.348l-6.683,5.882Z" style="fill:#38d2de;"/><path d="M183.176,577.401l0,0.029c0.001,-0.009 0.001,-0.019 0,-0.029Zm21.502,0.046c-0.001,0.007 -0.001,0.015 0,0.022l0,-0.022Zm-21.933,0.388l0.002,0l-0.002,0Zm11.161,24.518c-0.23,0 -0.462,-0.066 -0.664,-0.196l-0.104,-0.08l-7.63,-6.853c-2.516,-2.262 -3.957,-5.488 -3.964,-8.872l-0.011,-8.92c-0.013,-0.308 0.117,-0.639 0.354,-0.879c0.239,-0.238 0.566,-0.369 0.904,-0.361l0.956,0.024l-0.04,1.644l-0.53,-0.014l0.011,8.504c0.006,2.917 1.249,5.7 3.418,7.65l7.305,6.562l7.262,-6.391c2.217,-1.952 3.491,-4.767 3.494,-7.721l0.01,-8.58c-0.933,0.033 -2.148,0.064 -3.284,0.064c-1.392,0 -2.394,-0.047 -3.062,-0.145c-1.944,-0.283 -3.348,-1.282 -4.255,-1.997c-0.872,0.697 -2.311,1.737 -4.236,1.973l-0.2,-1.632c1.667,-0.204 2.919,-1.224 3.667,-1.833c0.44,-0.363 1.08,-0.366 1.524,-0.008c0.807,0.647 2.029,1.621 3.737,1.87c0.581,0.086 1.531,0.128 2.825,0.128c1.221,-0.004 2.442,-0.031 3.661,-0.079c0.341,-0.015 0.672,0.115 0.912,0.358c0.239,0.24 0.369,0.572 0.356,0.912l-0.01,8.972c-0.005,3.425 -1.482,6.688 -4.053,8.952l-7.668,6.739c-0.207,0.139 -0.446,0.209 -0.685,0.209Z" style="fill:#454bdb;"/><path d="M186.453,577.894l0,-1.644c0.457,0 0.877,-0.004 1.259,-0.011l0.034,1.644c-0.392,0.008 -0.824,0.011 -1.294,0.011" style="fill:#454bdb;"/><path d="M200.343,587.566c0,3.483 -2.824,6.308 -6.307,6.308c-3.483,0 -6.307,-2.825 -6.307,-6.308c0,-3.483 2.824,-6.306 6.307,-6.306c3.483,0 6.307,2.823 6.307,6.306" style="fill:#fefeff;"/><path d="M192.948,591.14l-3.228,-3.228l1.162,-1.163l2.066,2.067l4.241,-4.242l1.163,1.162l-5.404,5.404Z" style="fill:#454bdb;"/><g><path d="M233.374,532.921c0,1.099 -0.905,2.004 -2.005,2.004c-1.099,0 -2.004,-0.905 -2.004,-2.004c0,-1.1 0.905,-2.005 2.004,-2.005c1.1,0 2.005,0.905 2.005,2.005m-4.047,11.688c0,0.318 -0.262,0.58 -0.58,0.58c-0.319,0 -0.581,-0.262 -0.581,-0.58c0,-0.318 0.262,-0.58 0.581,-0.58c0.318,0 0.58,0.262 0.58,0.58" style="fill:#e2e2e2;"/><path d="M237.74,541.556c0,0.008 0,0.016 0,0.024c0,0.567 -0.467,1.034 -1.034,1.034c-0.568,0 -1.034,-0.467 -1.034,-1.034c0,-0.008 0,-0.016 0,-0.024c0.013,-0.558 0.475,-1.01 1.034,-1.01c0.558,0 1.021,0.452 1.034,1.01" style="fill:#38d2de;"/><path d="M191.05,534.023c0,0.807 -0.664,1.47 -1.47,1.47c-0.806,0 -1.469,-0.663 -1.469,-1.47c0,-0.806 0.663,-1.469 1.469,-1.469c0.806,0 1.47,0.663 1.47,1.469m10.363,3.231c0,0.476 -0.392,0.868 -0.868,0.868c-0.477,0 -0.869,-0.392 -0.869,-0.868c0,-0.477 0.392,-0.869 0.869,-0.869c0.476,0 0.868,0.392 0.868,0.869" style="fill:#e2e2e2;"/><path d="M193.602,545.605c0,0.016 0,0.032 0,0.047c0,1.104 -0.908,2.012 -2.011,2.012c-1.104,0 -2.012,-0.908 -2.012,-2.012c0,-0.016 0.001,-0.031 0.001,-0.047c0.018,-1.091 0.92,-1.978 2.011,-1.978c1.091,0 1.993,0.887 2.011,1.978" style="fill:#38d2de;"/><path d="M229.59,575.721l-5.369,-5.362l1.161,-1.163l5.369,5.362l-1.161,1.163Z" style="fill:#454bdb;"/><path d="M212.671,571.421c-7.685,0 -13.915,-6.229 -13.915,-13.914c0,-7.684 6.23,-13.913 13.915,-13.913c7.684,0 13.913,6.229 13.913,13.913c0,7.685 -6.229,13.914 -13.913,13.914m0,-32.228c-10.115,0 -18.315,8.2 -18.315,18.314c0,10.115 8.2,18.315 18.315,18.315c10.114,0 18.314,-8.2 18.314,-18.315c0,-10.114 -8.2,-18.314 -18.314,-18.314" style="fill:#4178da;"/><path d="M202.938,542.97l-0.916,-1.364c1.461,-0.982 3.051,-1.756 4.725,-2.301l0.509,1.565c-1.53,0.497 -2.983,1.204 -4.318,2.1m-3.209,2.769l-1.216,-1.107c0.559,-0.615 1.158,-1.192 1.791,-1.73l1.065,1.254c-0.58,0.491 -1.128,1.02 -1.64,1.583m12.942,30.905c-5.112,0 -9.918,-1.989 -13.533,-5.604c-3.614,-3.615 -5.604,-8.42 -5.604,-13.532c0,-4.12 1.289,-8.045 3.728,-11.351l1.323,0.977c-2.229,3.02 -3.406,6.607 -3.406,10.374c0,4.672 1.819,9.065 5.122,12.37c3.304,3.302 7.697,5.122 12.37,5.122c9.644,0 17.492,-7.847 17.492,-17.492c0,-9.645 -7.848,-17.492 -17.492,-17.492c-1.179,0 -2.357,0.117 -3.502,0.35l-0.327,-1.611c1.253,-0.254 2.541,-0.384 3.829,-0.384c10.551,0 19.136,8.585 19.136,19.137c0,10.552 -8.585,19.136 -19.136,19.136" style="fill:#454bdb;"/><path d="M226.033,576.12l5.629,5.621l5.112,-5.12l-5.629,-5.621l-5.112,5.12Z" style="fill:#e2e2e2;"/><path d="M231.013,582.256l-6.143,-6.136l6.274,-6.282l6.142,6.134l-1.161,1.164l-4.98,-4.973l-3.95,3.956l4.979,4.973l-1.161,1.164Z" style="fill:#454bdb;"/><path d="M230.174,580.505l-1.164,-1.162l5.362,-5.368l1.164,1.161l-5.362,5.369Z" style="fill:#454bdb;"/></g><path d="M217.429,564.617l-4.275,-2.178c-0.084,-0.042 -0.183,-0.041 -0.265,0.004l-4.218,2.287c-0.042,0.023 -0.088,0.034 -0.136,0.034c-0.156,0 -0.284,-0.128 -0.284,-0.284c0,-0.015 0.001,-0.03 0.003,-0.044l0.75,-4.739c0.014,-0.093 -0.018,-0.187 -0.086,-0.251l-3.478,-3.305c-0.057,-0.054 -0.089,-0.128 -0.089,-0.206c0,-0.14 0.103,-0.26 0.24,-0.281l4.739,-0.752c0.092,-0.015 0.172,-0.074 0.212,-0.158l2.068,-4.331c0.047,-0.099 0.147,-0.162 0.256,-0.162c0.108,0 0.206,0.061 0.254,0.156l2.18,4.275c0.042,0.083 0.123,0.141 0.216,0.153l4.756,0.628c0.141,0.019 0.247,0.14 0.247,0.282c0,0.075 -0.029,0.148 -0.082,0.201l-3.393,3.394c-0.066,0.066 -0.095,0.161 -0.078,0.253l0.872,4.718c0.003,0.017 0.004,0.034 0.004,0.051c0,0.157 -0.128,0.285 -0.284,0.285c-0.045,0 -0.089,-0.01 -0.129,-0.03" style="fill:#fff;"/><path d="M212.093,550.795l0.001,0.001l0,-0.001l-0.001,0Zm3.7,3.496l0.002,0.002c-0.001,-0.001 -0.001,-0.001 -0.002,-0.002Zm-6.287,0.083c-0.001,0.001 -0.001,0.002 -0.002,0.003l0.002,-0.003Zm-1.442,5.689l0.003,0.003l-0.003,-0.003Zm-1.464,-3.748l2.642,2.51c0.271,0.255 0.399,0.631 0.341,1.002l-0.569,3.601l3.203,-1.737c0.328,-0.178 0.724,-0.184 1.057,-0.015l3.249,1.655l-0.662,-3.584c-0.069,-0.368 0.049,-0.747 0.314,-1.012l2.576,-2.577l-3.612,-0.477c-0.372,-0.049 -0.697,-0.279 -0.867,-0.614l-1.654,-3.244l-1.57,3.288c-0.161,0.337 -0.477,0.574 -0.846,0.633l-3.602,0.572l0,-0.001Zm10.951,7.539l0,0l0,0Zm-0.818,0.611l0,0.003l0,-0.003l0,0Zm-8.464,1.154c-0.231,0 -0.46,-0.071 -0.658,-0.211c-0.354,-0.249 -0.536,-0.681 -0.465,-1.109l0.702,-4.441l-3.262,-3.098c-0.315,-0.297 -0.433,-0.751 -0.303,-1.164c0.127,-0.415 0.481,-0.721 0.91,-0.787l4.443,-0.704l1.937,-4.06c0.186,-0.392 0.581,-0.645 1.014,-0.649c0.445,0.012 0.832,0.234 1.03,0.624l2.043,4.007l4.459,0.588c0.433,0.057 0.789,0.349 0.93,0.763c0.141,0.41 0.035,0.866 -0.273,1.172l-3.181,3.181l0.818,4.424c0.08,0.428 -0.088,0.857 -0.437,1.119c-0.349,0.262 -0.809,0.302 -1.199,0.104l-4.009,-2.042l-3.955,2.144c-0.167,0.091 -0.354,0.139 -0.544,0.139l0,0Z" style="fill:#454bdb;"/></g><g><path d="M105.18,51.177c0,7.523 -6.099,13.622 -13.621,13.622c-7.522,0 -13.62,-6.099 -13.62,-13.622c0,-7.522 6.098,-13.621 13.62,-13.621c7.522,0 13.621,6.099 13.621,13.622" style="fill:#fff;"/><path d="M91.559,65.786l0,-1.977c6.965,0 12.632,-5.667 12.632,-12.632c0,-6.965 -5.667,-12.632 -12.632,-12.632l0,-1.977c8.056,0 14.609,6.554 14.609,14.61c0,8.055 -6.553,14.608 -14.609,14.608" style="fill:#454bdb;"/><path d="M101.836,26.369c0.001,0.014 0.001,0.028 0.001,0.042c0,0.728 -0.6,1.328 -1.329,1.328c-0.728,0 -1.328,-0.6 -1.328,-1.328c0,-0.014 0,-0.028 0.001,-0.042c0.022,-0.713 0.614,-1.287 1.327,-1.287c0.713,0 1.306,0.574 1.328,1.287" style="fill:#38d2de;"/><path d="M116.73,33.617c0,0.881 -0.725,1.606 -1.606,1.606c-0.881,0 -1.606,-0.725 -1.606,-1.606c0,-0.881 0.725,-1.606 1.606,-1.606c0.881,0 1.606,0.725 1.606,1.606m-22.375,-18.092c0,0.959 -0.789,1.748 -1.749,1.748c-0.959,0 -1.748,-0.789 -1.748,-1.748c0,-0.959 0.789,-1.748 1.748,-1.748c0.96,0 1.749,0.789 1.749,1.748" style="fill:#e2e2e2;"/><path d="M115.587,18.165c-0.039,1.432 -1.228,2.589 -2.661,2.589c-1.433,0 -2.622,-1.157 -2.661,-2.589c0,-1.46 1.201,-2.661 2.661,-2.661c1.46,0 2.661,1.201 2.661,2.661" style="fill:#38d2de;"/><path id="_-ffff00ff" serif:id="#ffff00ff" d="M86.969,45.299c0.016,-0.031 0.045,-0.071 0.084,-0.05c0.113,0.043 0.166,0.163 0.224,0.26c0.115,0.227 0.215,0.46 0.332,0.685c0.184,0.365 0.399,0.716 0.653,1.037c0.432,-0.166 0.899,-0.227 1.36,-0.216c0.512,0.016 1.026,0.092 1.51,0.265c0.036,0.012 0.072,0.024 0.109,0.033c0.006,0.005 0.018,0.016 0.024,0.021l-0.006,0.008c-0.028,0.015 -0.063,0.03 -0.067,0.066c-0.192,0.15 -0.364,0.326 -0.498,0.529c-0.106,0.161 -0.186,0.338 -0.232,0.525c-0.091,0.386 -0.033,0.791 0.086,1.164c0.183,0.562 0.505,1.071 0.88,1.524c0.445,0.531 0.974,0.989 1.554,1.366c0.972,0.636 2.097,1.039 3.255,1.149l-0.005,0.019c-0.045,0.194 -0.111,0.383 -0.194,0.563c0.234,0.001 0.47,0.105 0.615,0.291c0.09,0.114 0.128,0.258 0.142,0.4c0.014,0.212 -0.105,0.422 -0.293,0.52c-0.076,0.039 -0.158,0.065 -0.242,0.076c-0.326,0.037 -0.672,-0.161 -0.781,-0.475c-0.303,0.315 -0.688,0.542 -1.097,0.694c0.26,0.106 0.522,0.211 0.793,0.285c0.186,0.055 0.381,0.005 0.562,-0.046c0.118,-0.031 0.241,-0.083 0.364,-0.046c0.037,0.02 0.077,0.046 0.084,0.091c0.015,0.079 -0.028,0.152 -0.063,0.219c0.084,-0.034 0.175,-0.062 0.267,-0.042c0.085,0.036 0.096,0.155 0.043,0.223c-0.042,0.057 -0.112,0.082 -0.176,0.105c0.081,0.017 0.184,0.045 0.209,0.135c0.016,0.093 -0.085,0.142 -0.158,0.166c-0.05,0.015 -0.102,0.023 -0.154,0.015c-0.223,-0.026 -0.435,-0.106 -0.64,-0.196c-0.21,-0.091 -0.417,-0.194 -0.633,-0.272c-0.018,0.053 -0.04,0.105 -0.067,0.154c0.072,-0.023 0.151,-0.047 0.227,-0.025c0.06,0.02 0.074,0.097 0.052,0.15c-0.03,0.064 -0.098,0.094 -0.158,0.122c0.052,0.016 0.114,0.027 0.146,0.077c0.02,0.03 0.01,0.068 0.003,0.101c-0.153,0.116 -0.362,0.064 -0.531,0.015c-0.235,-0.09 -0.444,-0.235 -0.67,-0.343c-0.238,-0.115 -0.482,-0.216 -0.729,-0.31c-0.267,-0.106 -0.546,-0.176 -0.811,-0.288c-0.105,-0.036 -0.197,-0.11 -0.31,-0.122c-1.02,-0.138 -2.003,-0.486 -2.925,-0.938c-0.556,-0.276 -1.093,-0.595 -1.585,-0.975c-0.561,-0.437 -1.078,-0.955 -1.412,-1.59c-0.238,-0.445 -0.373,-0.947 -0.378,-1.453c-0.015,-0.465 0.04,-0.935 0.19,-1.376c0.173,-0.518 0.467,-0.994 0.85,-1.383c0.019,-0.302 0.032,-0.605 0.042,-0.908c0.009,-0.252 0.016,-0.504 0.026,-0.757c0.009,-0.215 0.017,-0.43 0.033,-0.645c0.01,-0.139 0.023,-0.278 0.046,-0.416c0.011,-0.062 0.024,-0.124 0.05,-0.181m6.327,10.67c0.211,0.097 0.425,0.189 0.645,0.266c0.089,0.029 0.18,0.06 0.275,0.063c0.112,0.006 0.222,-0.017 0.332,-0.032c-0.322,-0.109 -0.644,-0.222 -0.97,-0.32c-0.094,-0.003 -0.187,0.023 -0.282,0.023Z" style="fill:#454bdb;fill-rule:nonzero;"/><path id="_-fa0050ff" serif:id="#fa0050ff" d="M93.391,46.687c0.466,0.008 0.929,0.077 1.383,0.182c0.668,0.162 1.324,0.396 1.917,0.748c-0.071,-0.007 -0.141,-0.016 -0.212,-0.022c-0.321,-0.035 -0.642,-0.066 -0.964,-0.076c-0.156,-0.004 -0.313,-0.004 -0.467,0.023c-0.057,0.013 -0.122,0.027 -0.159,0.077c-0.031,0.049 0.018,0.097 0.056,0.121c0.124,0.075 0.267,0.112 0.406,0.147c0.362,0.085 0.734,0.122 1.105,0.139c0.44,0.017 0.885,0.006 1.316,-0.09c0.2,-0.044 0.397,-0.113 0.569,-0.226c-0.021,0.218 -0.1,0.433 -0.245,0.598c-0.191,0.223 -0.468,0.351 -0.745,0.43c-0.416,0.113 -0.853,0.123 -1.281,0.092c0.015,0.068 0.056,0.127 0.11,0.171c0.122,0.101 0.265,0.174 0.408,0.241c0.44,0.201 0.907,0.339 1.376,0.456c0.573,0.141 1.156,0.24 1.744,0.297c0.022,0.003 0.045,0.005 0.068,0.009c-0.008,0.028 -0.014,0.056 -0.022,0.084c-0.05,0.133 -0.172,0.218 -0.295,0.276c-0.236,0.106 -0.496,0.141 -0.752,0.165c-0.285,0.023 -0.57,0.006 -0.854,-0.008c0.061,0.097 0.173,0.14 0.266,0.201c0.109,0.069 0.23,0.124 0.319,0.22c0.058,0.056 0.022,0.146 -0.025,0.196c-0.096,0.095 -0.235,0.123 -0.363,0.143c-0.245,0.034 -0.492,0.014 -0.737,0c0.034,0.106 0.121,0.182 0.203,0.253c0.159,0.133 0.338,0.242 0.525,0.332c0.172,0.082 0.353,0.147 0.542,0.175c0.02,0.003 0.04,0.006 0.061,0.009c-0.024,0.106 -0.081,0.2 -0.15,0.283c-0.101,0.122 -0.226,0.221 -0.357,0.309c-0.15,0.096 -0.309,0.177 -0.476,0.238c-0.254,0.091 -0.52,0.143 -0.789,0.165c-0.325,0.019 -0.65,-0.007 -0.972,-0.057c-0.843,-0.128 -1.658,-0.418 -2.397,-0.841c-0.605,-0.351 -1.161,-0.787 -1.634,-1.301c-0.374,-0.407 -0.702,-0.864 -0.926,-1.372c-0.131,-0.308 -0.232,-0.639 -0.219,-0.978c0.009,-0.185 0.048,-0.369 0.115,-0.543c0.059,-0.146 0.138,-0.285 0.237,-0.408c0.057,-0.072 0.133,-0.126 0.183,-0.203l0.006,-0.008c0.041,-0.022 0.077,-0.054 0.114,-0.083c0.202,-0.157 0.435,-0.27 0.676,-0.356c0.429,-0.145 0.884,-0.206 1.336,-0.208Z" style="fill:#454bdb;fill-rule:nonzero;"/><path d="M102.573,37.232l-1.707,-0.997l3.305,-5.657l1.707,0.998l-3.305,5.656Zm6.003,6.37l-0.971,-1.722l2.853,-1.608l0.971,1.723l-2.853,1.607Zm-13.963,-10.728l-1.957,-0.278l0.464,-3.268l1.957,0.278l-0.464,3.268Zm-0.841,40.08l-0.591,-3.221l1.945,-0.356l0.59,3.221l-1.944,0.356Zm23.006,-20.636l-6.549,-0.104l0.03,-1.977l6.551,0.104l-0.032,1.977Zm-7.101,9.826l-2.421,-1.697l1.135,-1.619l2.421,1.697l-1.135,1.619Zm-5.933,9.763l-3.124,-5.757l1.738,-0.944l3.123,5.757l-1.737,0.944Z" style="fill:#454bdb;"/><g><path d="M62.195,42.25l-0.491,0c-0.813,0 -1.471,-0.681 -1.471,-4.671l-1.468,-12.589c-0.228,-1.951 0.704,-3.838 2.343,-4.828c0.683,-0.414 1.221,-0.79 1.221,-0.79c-4.731,-3.048 -3.695,-6.374 -3.616,-6.771l0.019,0.005c2.297,3.484 14.544,1.867 21.693,2.996c1.709,0.27 3.044,1.657 3.267,3.431l0.173,1.386c1.394,0 2.541,1.187 2.541,2.629l-1.95,17.68c0,0.835 -0.664,1.522 -1.471,1.522c0,0 -0.001,0 -0.001,0l-20.789,0l0,0Z" style="fill:#4178da;"/><path d="M59.601,14.568c0.298,1.422 1.401,2.793 3.229,3.97l1.241,0.799l-1.211,0.848c-0.022,0.015 -0.571,0.399 -1.273,0.825c-1.323,0.8 -2.061,2.315 -1.88,3.862l1.475,12.707c0,3.247 0.471,3.68 0.491,3.696l0.522,-0.007l20.789,0c0.288,0 0.522,-0.243 0.522,-0.54l0.006,-0.112l1.943,-17.617c-0.026,-0.884 -0.736,-1.597 -1.59,-1.598l-0.835,0l-0.28,-2.241c-0.168,-1.341 -1.16,-2.38 -2.469,-2.587c-2.435,-0.384 -5.566,-0.444 -8.594,-0.501c-5.032,-0.095 -9.525,-0.181 -12.086,-1.504m23.383,28.664l-21.28,0c-2.217,0 -2.417,-2.876 -2.42,-5.593l-1.462,-12.532c-0.27,-2.316 0.824,-4.583 2.788,-5.781c-3.211,-2.616 -3.185,-5.377 -2.837,-6.879l0.189,-0.95l1.001,0.156l0.345,0.092l0.208,0.308c1.218,1.847 7.055,1.958 12.205,2.055c3.091,0.059 6.286,0.119 8.847,0.524c2.119,0.334 3.792,2.092 4.064,4.276l0.081,0.637c1.546,0.403 2.639,1.853 2.641,3.503l-0.006,0.111l-1.944,17.631c-0.035,1.349 -1.116,2.44 -2.42,2.442" style="fill:#454bdb;"/><path d="M88.593,38.72c-0.025,0.909 -0.78,1.643 -1.69,1.643c-0.91,0 -1.665,-0.734 -1.69,-1.643l0,-1.638c0,-0.927 0.763,-1.69 1.69,-1.69c0.927,0 1.69,0.763 1.69,1.69l0,1.638Z" style="fill:#fff;"/><path d="M86.903,36.382c-0.387,0 -0.701,0.314 -0.701,0.699l0,1.639c0,0.384 0.316,0.701 0.701,0.701c0.385,0 0.701,-0.317 0.701,-0.701l0,-1.639c0,-0.385 -0.314,-0.699 -0.702,-0.699m0,5.014c-1.468,-0.001 -2.675,-1.208 -2.677,-2.676l0,-1.639c0.002,-1.468 1.209,-2.675 2.677,-2.676c1.469,0.001 2.677,1.208 2.679,2.676l0,1.639c-0.002,1.468 -1.21,2.675 -2.679,2.676" style="fill:#454bdb;"/><path d="M59.969,38.72c-0.026,0.909 -0.781,1.643 -1.691,1.643c-0.91,0 -1.665,-0.734 -1.69,-1.643l0,-1.638c0,-0.927 0.763,-1.69 1.69,-1.69c0.928,0 1.691,0.763 1.691,1.69l0,1.638Z" style="fill:#fff;"/><path d="M58.278,36.382c-0.387,0 -0.701,0.314 -0.701,0.699l0,1.639c0,0.384 0.317,0.701 0.702,0.701c0.384,0 0.701,-0.317 0.701,-0.701l0,-1.639c0,-0.385 -0.314,-0.699 -0.702,-0.699m0,5.014c-1.468,-0.001 -2.676,-1.208 -2.678,-2.676l0,-1.639c0.002,-1.468 1.21,-2.675 2.678,-2.676c1.469,0.001 2.677,1.208 2.679,2.676l0,1.639c-0.002,1.468 -1.21,2.675 -2.679,2.676" style="fill:#454bdb;"/><path d="M90.858,80.908l0,-11.139c0,-8.517 -8.121,-15.486 -18.048,-15.486c-9.925,0 -18.047,6.969 -18.047,15.486l0,11.139l36.095,0Z" style="fill:#38d2de;"/><path d="M91.847,80.908l-1.977,0l0,-11.139c0,-7.994 -7.653,-14.498 -17.06,-14.498c-9.406,0 -17.058,6.505 -17.058,14.498l0,11.139l-1.977,0l0,-11.139c0,-9.085 8.54,-16.474 19.035,-16.474c10.497,0 19.037,7.389 19.037,16.474l0,11.139Z" style="fill:#454bdb;"/><path d="M63.99,80.908l1.977,0l0,-12.215l-1.977,0l0,12.215Zm15.802,0l1.977,0l0,-12.215l-1.977,0l0,12.215Z" style="fill:#454bdb;"/><path d="M72.161,60.544c0,0 0,0 0,0c-1.852,0 -3.376,-1.524 -3.376,-3.376c0,0 0,-7.61 0,-7.61c0,-1.589 1.307,-2.896 2.896,-2.896l0.959,0c1.589,0 2.896,1.307 2.896,2.896l0,7.61c0,1.852 -1.524,3.376 -3.375,3.376" style="fill:#fff;"/><clipPath id="_clip3"><rect x="68.121" y="54.283" width="8.729" height="6.591"/></clipPath><g clip-path="url(#_clip3)"><path d="M72.007,46.991c-1.047,0.001 -1.908,0.862 -1.909,1.909l0,7.609c0.002,1.31 1.079,2.387 2.389,2.388c1.309,-0.002 2.385,-1.079 2.386,-2.388l0,-7.609c-0.001,-1.047 -0.861,-1.907 -1.907,-1.909l-0.959,0l0,0Zm0.48,13.883c-2.394,-0.003 -4.363,-1.971 -4.366,-4.365l0,-7.609c0.003,-2.131 1.755,-3.883 3.886,-3.886l0.959,0c2.13,0.003 3.882,1.755 3.884,3.886l0,7.609c-0.002,2.393 -1.97,4.362 -4.363,4.365Z" style="fill:#454bdb;"/></g><path d="M72.439,53.884c-7.061,0 -12.837,-5.777 -12.837,-12.837l0,-8.702c0,-7.06 5.776,-6.9 12.837,-6.9c7.061,0 12.837,-0.16 12.837,6.9l0,8.703c0,7.06 -5.776,12.837 -12.837,12.837" style="fill:#fff;"/></g><path d="M69.303,23.616c4.386,-0.295 8.908,-0.11 13.092,1.348c1.421,0.564 3.376,1.402 3.299,3.212c0.025,3.41 -0.015,6.819 0.011,10.225c0.286,4.67 -1.892,9.154 -4.853,12.662c-2.068,2.382 -4.794,4.254 -7.876,5.059c-0.852,0.234 -1.682,-0.218 -2.472,-0.477c-4.078,-1.562 -7.237,-4.899 -9.213,-8.698c-1.175,-2.299 -2.108,-4.816 -2.046,-7.431c0.015,-3.785 -0.011,-7.57 0.007,-11.354c-0.114,-1.384 1.187,-2.237 2.281,-2.769c2.432,-1.118 5.125,-1.519 7.77,-1.777m-3.784,2.021c-1.649,0.408 -3.423,0.82 -4.72,1.982c-0.199,2.619 -0.022,5.256 -0.081,7.879c0.084,2.572 -0.316,5.238 0.577,7.715c1.572,4.761 4.944,9.143 9.701,11.095c0.011,-1.537 0.008,-3.07 0.008,-4.604c0.98,0 1.957,0 2.938,0c0,1.537 -0.003,3.071 0.011,4.608c4.75,-1.956 8.115,-6.331 9.687,-11.084c0.9,-2.481 0.507,-5.151 0.588,-7.723c-0.059,-2.626 0.121,-5.263 -0.081,-7.882c-1.293,-1.166 -3.067,-1.578 -4.717,-1.986c-4.566,-0.932 -9.345,-0.932 -13.911,0Z" style="fill:#1d53d3;fill-rule:nonzero;"/><path d="M62.132,32.973c0.933,-1.26 2.068,-2.605 3.721,-2.821c2.153,-0.404 4.129,1.12 5.095,2.927c0.338,0.915 -0.837,1.819 -1.623,1.235c-0.889,-0.911 -1.448,-2.292 -2.785,-2.645c-1.598,-0.401 -3.056,0.613 -4.408,1.304Z" style="fill:#1d53d3;fill-rule:nonzero;"/><path d="M73.99,33.098c0.955,-1.826 2.953,-3.354 5.11,-2.946c1.649,0.224 2.781,1.565 3.71,2.817c-1.337,-0.679 -2.774,-1.678 -4.357,-1.315c-1.374,0.334 -1.939,1.745 -2.847,2.671c-0.786,0.554 -1.928,-0.324 -1.616,-1.227Z" style="fill:#1d53d3;fill-rule:nonzero;"/><path d="M62.845,35.599c1.719,-1.454 4.324,-1.414 6.057,-0.007c-1.719,1.433 -4.338,1.458 -6.057,0.007Z" style="fill:#1d53d3;fill-rule:nonzero;"/><path d="M76.069,35.599c1.719,-1.454 4.324,-1.414 6.061,-0.007c-1.723,1.433 -4.342,1.458 -6.061,0.007Z" style="fill:#1d53d3;fill-rule:nonzero;"/><path d="M62.198,41.124c1.473,1.212 2.935,2.439 4.401,3.659c0.977,0 1.954,0 2.932,0c0.734,-0.735 1.476,-1.469 2.211,-2.208c0.492,0.004 0.984,0.008 1.477,0.004c0.727,0.738 1.465,1.469 2.196,2.204c0.977,0 1.955,0 2.932,0c1.469,-1.216 2.931,-2.443 4.4,-3.659c-1.215,1.954 -2.439,3.909 -3.662,5.863c-1.708,0 -3.416,-0.004 -5.124,0.004c-0.496,-0.493 -0.989,-0.985 -1.484,-1.473c-0.493,0.488 -0.985,0.98 -1.481,1.469c-1.712,0 -3.423,0 -5.135,0c-1.223,-1.954 -2.443,-3.909 -3.663,-5.863Z" style="fill:#1d53d3;fill-rule:nonzero;"/><g><text x="54.032px" y="133.891px" style="font-family:'PingFangSC-Semibold', 'PingFang SC', sans-serif;font-weight:600;font-size:15.845px;fill:#070707;">新建角色</text><text x="53.346px" y="115.831px" style="font-family:'Helvetica-Bold', 'Helvetica';font-weight:700;font-size:40.889px;fill:#ddd;">01</text><text x="54.287px" y="117.794px" style="font-family:'PingFangSC-Light', 'PingFang SC', sans-serif;font-weight:300;font-size:9.243px;fill:#7a7a7a;">借助隐秘的身份</text></g><g><path d="M107.357,81.659c0,1.955 -1.608,3.563 -3.563,3.563c-1.954,0 -3.563,-1.608 -3.563,-3.563c0,-1.954 1.609,-3.563 3.563,-3.563c1.955,0 3.563,1.609 3.563,3.563" style="fill:#efcc8d;"/><path d="M103.794,86.409c-2.618,0 -4.75,-2.13 -4.75,-4.75c0,-2.618 2.132,-4.75 4.75,-4.75c2.619,0 4.75,2.132 4.75,4.75c0,2.62 -2.131,4.75 -4.75,4.75Zm0,-7.43c-1.47,0.001 -2.679,1.21 -2.681,2.68c0.002,1.47 1.211,2.679 2.681,2.68c1.47,-0.001 2.679,-1.21 2.68,-2.68c-0.001,-1.47 -1.21,-2.679 -2.68,-2.68l0,0Z" style="fill:#454bdb;"/></g></g></svg>