<?xml version="1.0" encoding="UTF-8" standalone="no"?><!DOCTYPE svg PUBLIC "-//W3C//DTD SVG 1.1//EN" "http://www.w3.org/Graphics/SVG/1.1/DTD/svg11.dtd"><svg width="100%" height="100%" viewBox="0 0 1170 698" version="1.1" xmlns="http://www.w3.org/2000/svg" xmlns:xlink="http://www.w3.org/1999/xlink" xml:space="preserve" xmlns:serif="http://www.serif.com/" style="fill-rule:evenodd;clip-rule:evenodd;stroke-linejoin:round;stroke-miterlimit:1.41421;"><g><path d="M1170,538.669l-845.974,2.486c-52.902,0 -95.94,-43.039 -95.94,-95.941c0,-52.902 43.038,-95.941 95.94,-95.941l522.782,-1.37c51.799,0 93.941,-42.141 93.941,-93.941c0,-51.799 -42.142,-93.94 -93.941,-93.94l-846.808,-1.115l0,-1.999l846.808,1.114c52.902,0 95.941,43.038 95.941,95.94c0,52.901 -43.039,95.94 -95.941,95.94l-522.782,1.371c-51.8,0 -93.941,42.143 -93.941,93.941c0,51.8 42.141,93.942 93.941,93.942l845.974,-2.487l0,2Z" style="fill:#454bdb;"/><path d="M413.376,166.811c-0.001,0 -0.001,0 -0.002,0c-0.548,0 -0.999,-0.451 -0.999,-0.999c0,-0.266 0.106,-0.521 0.294,-0.708l7.199,-7.197l-7.199,-7.197c-0.188,-0.188 -0.293,-0.442 -0.293,-0.707c0,-0.549 0.451,-1 1,-1c0.265,0 0.519,0.105 0.707,0.292l7.905,7.905c0.39,0.39 0.39,1.024 0,1.414l-7.905,7.905c-0.195,0.195 -0.451,0.292 -0.707,0.292m321.647,381.436c0,0 -0.001,0 -0.001,0c-0.548,0 -0.999,-0.452 -0.999,-1c0,-0.265 0.105,-0.52 0.293,-0.708l7.199,-7.197l-7.199,-7.197c-0.187,-0.187 -0.293,-0.442 -0.293,-0.707c0,-0.549 0.452,-1 1,-1c0.265,0 0.52,0.105 0.707,0.293l7.906,7.904c0.39,0.39 0.39,1.024 0,1.414l-7.906,7.905c-0.195,0.195 -0.452,0.293 -0.707,0.293m206.589,-294.091c-0.255,0 -0.512,-0.098 -0.707,-0.293l-7.905,-7.905c-0.178,-0.187 -0.278,-0.435 -0.278,-0.692c0,-0.549 0.452,-1 1.001,-1c0.258,0 0.506,0.099 0.692,0.278l7.197,7.199l7.197,-7.199c0.188,-0.188 0.442,-0.293 0.707,-0.293c0.549,0 1,0.451 1,1c0,0.265 -0.105,0.519 -0.292,0.707l-7.905,7.905c-0.195,0.195 -0.452,0.293 -0.707,0.293m-712.334,196.313c-0.256,0 -0.512,-0.097 -0.707,-0.292l-7.906,-7.905c-0.178,-0.186 -0.278,-0.434 -0.278,-0.692c0,-0.548 0.452,-1 1.001,-1c0.258,0 0.506,0.1 0.692,0.278l7.197,7.199l7.197,-7.199c0.188,-0.187 0.442,-0.293 0.707,-0.293c0.549,0 1,0.452 1,1c0,0.265 -0.105,0.52 -0.292,0.707l-7.904,7.906c-0.195,0.195 -0.452,0.292 -0.707,0.292m360.813,-109.409c0.001,0 0.001,0 0.001,0c0.549,0 1,0.451 1,0.999c0,0.266 -0.106,0.52 -0.294,0.708l-7.199,7.197l7.199,7.197c0.187,0.187 0.293,0.442 0.293,0.707c0,0.548 -0.451,1 -1,1c-0.265,0 -0.519,-0.106 -0.707,-0.293l-7.905,-7.904c-0.39,-0.39 -0.39,-1.024 0,-1.414l7.905,-7.906c0.195,-0.195 0.452,-0.292 0.707,-0.292" style="fill:#454bdb;"/></g><g><path d="M337.057,107.001c0,12.669 -10.272,22.94 -22.94,22.94c-12.668,0 -22.938,-10.271 -22.938,-22.94c0,-12.667 10.27,-22.939 22.939,-22.939c12.667,0 22.939,10.272 22.939,22.94" style="fill:#fff;"/><path d="M314.118,131.605l0,-3.33c11.73,0 21.274,-9.544 21.274,-21.274c0,-11.729 -9.544,-21.274 -21.275,-21.274l0,-3.329c13.567,0 24.605,11.037 24.605,24.604c0,13.566 -11.038,24.603 -24.605,24.603" style="fill:#454bdb;"/><path d="M331.426,65.221c0,0.023 0.001,0.047 0.001,0.07c0,1.228 -1.01,2.238 -2.238,2.238c-1.227,0 -2.237,-1.01 -2.237,-2.238c0,-0.023 0,-0.047 0.001,-0.07c0.038,-1.2 1.035,-2.167 2.236,-2.167c1.201,0 2.199,0.967 2.237,2.167" style="fill:#38d2de;"/><path d="M356.509,77.428c0,1.484 -1.221,2.704 -2.705,2.704c-1.484,0 -2.705,-1.22 -2.705,-2.704c0,-1.484 1.221,-2.705 2.705,-2.705c1.484,0 2.705,1.221 2.705,2.705m-37.683,-30.469c0,1.615 -1.329,2.944 -2.945,2.944c-1.615,0 -2.944,-1.329 -2.944,-2.944c0,-1.616 1.329,-2.945 2.944,-2.945c1.616,0 2.945,1.329 2.945,2.945" style="fill:#e2e2e2;"/><path d="M354.583,51.405c-0.066,2.412 -2.068,4.36 -4.481,4.36c-2.413,0 -4.415,-1.948 -4.481,-4.36c0,-2.458 2.023,-4.481 4.481,-4.481c2.458,0 4.481,2.023 4.481,4.481" style="fill:#38d2de;"/><path id="_-ffff00ff" serif:id="#ffff00ff" d="M306.388,97.102c0.026,-0.052 0.074,-0.119 0.141,-0.085c0.19,0.073 0.279,0.275 0.376,0.439c0.194,0.381 0.364,0.774 0.56,1.154c0.311,0.614 0.673,1.204 1.099,1.745c0.728,-0.279 1.515,-0.382 2.291,-0.364c0.863,0.027 1.728,0.156 2.543,0.446c0.061,0.02 0.121,0.041 0.184,0.056c0.01,0.009 0.03,0.027 0.04,0.036l-0.009,0.014c-0.048,0.024 -0.107,0.049 -0.114,0.11c-0.323,0.252 -0.613,0.55 -0.839,0.892c-0.177,0.27 -0.312,0.569 -0.39,0.884c-0.154,0.649 -0.055,1.331 0.145,1.959c0.309,0.948 0.85,1.804 1.483,2.567c0.748,0.895 1.639,1.666 2.616,2.302c1.637,1.071 3.532,1.749 5.481,1.934l-0.007,0.032c-0.077,0.326 -0.187,0.645 -0.328,0.949c0.394,0.002 0.793,0.176 1.037,0.49c0.152,0.191 0.215,0.433 0.238,0.673c0.023,0.356 -0.176,0.711 -0.493,0.875c-0.127,0.067 -0.266,0.11 -0.408,0.129c-0.549,0.062 -1.132,-0.272 -1.315,-0.801c-0.51,0.532 -1.159,0.914 -1.847,1.169c0.438,0.179 0.878,0.356 1.335,0.481c0.314,0.092 0.641,0.008 0.946,-0.078c0.2,-0.052 0.406,-0.14 0.615,-0.077c0.062,0.032 0.129,0.077 0.141,0.153c0.024,0.132 -0.047,0.255 -0.106,0.368c0.141,-0.056 0.294,-0.103 0.448,-0.071c0.144,0.062 0.163,0.262 0.073,0.376c-0.071,0.097 -0.188,0.139 -0.296,0.178c0.135,0.028 0.309,0.074 0.352,0.226c0.026,0.157 -0.143,0.24 -0.267,0.28c-0.083,0.025 -0.171,0.038 -0.258,0.026c-0.376,-0.044 -0.734,-0.179 -1.078,-0.33c-0.355,-0.154 -0.703,-0.327 -1.067,-0.459c-0.03,0.089 -0.067,0.177 -0.112,0.26c0.122,-0.04 0.254,-0.08 0.382,-0.043c0.102,0.034 0.125,0.165 0.088,0.254c-0.051,0.107 -0.165,0.157 -0.266,0.205c0.088,0.026 0.191,0.046 0.245,0.129c0.034,0.051 0.017,0.115 0.006,0.17c-0.259,0.196 -0.61,0.109 -0.896,0.025c-0.395,-0.151 -0.746,-0.395 -1.127,-0.577c-0.401,-0.193 -0.812,-0.364 -1.228,-0.522c-0.449,-0.178 -0.92,-0.296 -1.365,-0.485c-0.177,-0.061 -0.332,-0.185 -0.522,-0.206c-1.72,-0.232 -3.374,-0.819 -4.927,-1.579c-0.936,-0.466 -1.841,-1.003 -2.67,-1.642c-0.945,-0.736 -1.815,-1.608 -2.378,-2.677c-0.4,-0.751 -0.628,-1.596 -0.635,-2.448c-0.027,-0.783 0.067,-1.574 0.319,-2.318c0.292,-0.871 0.786,-1.674 1.431,-2.328c0.032,-0.51 0.054,-1.02 0.07,-1.53c0.017,-0.425 0.029,-0.849 0.045,-1.274c0.014,-0.363 0.029,-0.725 0.055,-1.087c0.018,-0.234 0.039,-0.469 0.078,-0.7c0.019,-0.104 0.04,-0.209 0.085,-0.305m10.654,17.969c0.356,0.164 0.717,0.319 1.087,0.448c0.151,0.05 0.304,0.102 0.464,0.107c0.188,0.009 0.373,-0.03 0.559,-0.054c-0.543,-0.184 -1.085,-0.375 -1.634,-0.54c-0.159,-0.004 -0.316,0.039 -0.476,0.039Z" style="fill:#454bdb;fill-rule:nonzero;"/><path id="_-fa0050ff" serif:id="#fa0050ff" d="M317.203,99.439c0.785,0.015 1.565,0.13 2.328,0.307c1.126,0.272 2.231,0.666 3.23,1.259c-0.119,-0.012 -0.239,-0.026 -0.358,-0.036c-0.54,-0.059 -1.081,-0.112 -1.623,-0.128c-0.263,-0.007 -0.527,-0.007 -0.786,0.039c-0.096,0.022 -0.207,0.045 -0.268,0.129c-0.053,0.082 0.029,0.163 0.094,0.204c0.21,0.126 0.449,0.188 0.684,0.247c0.61,0.143 1.236,0.206 1.861,0.235c0.74,0.028 1.49,0.01 2.216,-0.152c0.337,-0.074 0.669,-0.19 0.959,-0.38c-0.037,0.366 -0.169,0.728 -0.414,1.007c-0.322,0.376 -0.787,0.59 -1.255,0.723c-0.7,0.19 -1.436,0.208 -2.156,0.156c0.025,0.114 0.094,0.214 0.185,0.287c0.206,0.17 0.447,0.293 0.687,0.407c0.742,0.338 1.527,0.569 2.317,0.767c0.965,0.238 1.948,0.405 2.937,0.5c0.038,0.005 0.076,0.01 0.114,0.015c-0.012,0.047 -0.023,0.095 -0.037,0.142c-0.083,0.224 -0.29,0.366 -0.497,0.465c-0.397,0.179 -0.835,0.238 -1.266,0.277c-0.479,0.039 -0.959,0.01 -1.438,-0.014c0.104,0.165 0.292,0.236 0.449,0.339c0.182,0.118 0.387,0.21 0.536,0.371c0.098,0.094 0.037,0.246 -0.042,0.331c-0.162,0.159 -0.396,0.207 -0.612,0.24c-0.412,0.057 -0.828,0.023 -1.241,0c0.058,0.179 0.204,0.307 0.342,0.426c0.269,0.224 0.571,0.408 0.886,0.56c0.289,0.138 0.594,0.247 0.911,0.294c0.034,0.004 0.069,0.01 0.103,0.016c-0.039,0.178 -0.137,0.336 -0.251,0.475c-0.171,0.206 -0.382,0.373 -0.603,0.522c-0.251,0.161 -0.52,0.297 -0.801,0.399c-0.428,0.154 -0.876,0.242 -1.328,0.278c-0.548,0.033 -1.096,-0.01 -1.637,-0.095c-1.42,-0.215 -2.794,-0.704 -4.038,-1.417c-1.018,-0.59 -1.954,-1.324 -2.752,-2.19c-0.63,-0.687 -1.181,-1.456 -1.559,-2.311c-0.221,-0.519 -0.39,-1.077 -0.369,-1.647c0.015,-0.312 0.081,-0.622 0.193,-0.914c0.1,-0.247 0.233,-0.481 0.401,-0.689c0.095,-0.12 0.224,-0.21 0.308,-0.34l0.009,-0.014c0.07,-0.038 0.13,-0.091 0.193,-0.14c0.34,-0.265 0.732,-0.455 1.137,-0.599c0.724,-0.244 1.489,-0.348 2.251,-0.351Z" style="fill:#454bdb;fill-rule:nonzero;"/><path d="M332.666,83.516l-2.874,-1.68l5.566,-9.526l2.874,1.681l-5.566,9.525Zm10.11,10.728l-1.635,-2.9l4.806,-2.708l1.634,2.901l-4.805,2.707Zm-23.515,-18.068l-3.296,-0.468l0.781,-5.503l3.296,0.468l-0.781,5.503Zm-1.417,67.5l-0.995,-5.424l3.275,-0.601l0.995,5.425l-3.275,0.6Zm38.746,-34.754l-11.03,-0.174l0.051,-3.329l11.032,0.174l-0.053,3.329Zm-11.96,16.549l-4.077,-2.858l1.912,-2.727l4.077,2.858l-1.912,2.727Zm-9.991,16.442l-5.262,-9.695l2.926,-1.59l5.261,9.696l-2.925,1.589Z" style="fill:#454bdb;"/><g><path d="M264.664,91.966l-0.825,0c-1.37,0 -2.479,-1.146 -2.479,-7.865l-2.472,-21.202c-0.384,-3.286 1.186,-6.463 3.946,-8.131c1.151,-0.697 2.056,-1.331 2.056,-1.331c-7.967,-5.132 -6.223,-10.734 -6.09,-11.403l0.032,0.008c3.868,5.869 24.494,3.146 36.535,5.046c2.877,0.455 5.125,2.791 5.502,5.779l0.292,2.334c2.347,0 4.278,1.998 4.278,4.427l-3.284,29.776c0,1.406 -1.119,2.563 -2.478,2.563c0,0 0,0 -0.001,0l-35.012,0l0,-0.001Z" style="fill:#4178da;"/><path d="M260.295,45.346c0.503,2.396 2.361,4.704 5.439,6.686l2.09,1.346l-2.039,1.428c-0.038,0.027 -0.962,0.673 -2.144,1.389c-2.228,1.348 -3.47,3.9 -3.167,6.504l2.484,21.402c0,5.467 0.794,6.196 0.828,6.224l0.878,-0.013l35.012,0c0.485,0 0.879,-0.407 0.879,-0.909l0.011,-0.188l3.271,-29.67c-0.044,-1.489 -1.238,-2.689 -2.677,-2.69l-1.406,0l-0.472,-3.775c-0.284,-2.258 -1.953,-4.008 -4.158,-4.357c-4.102,-0.647 -9.374,-0.747 -14.473,-0.843c-8.475,-0.161 -16.042,-0.304 -20.356,-2.534m39.381,48.274l-35.839,0c-3.733,0 -4.07,-4.842 -4.075,-9.419l-2.462,-21.105c-0.454,-3.901 1.387,-7.719 4.695,-9.736c-5.407,-4.405 -5.363,-9.055 -4.777,-11.586l0.319,-1.599l1.684,0.263l0.581,0.155l0.352,0.517c2.05,3.112 11.881,3.298 20.554,3.462c5.205,0.1 10.586,0.2 14.899,0.882c3.569,0.563 6.386,3.524 6.845,7.201l0.135,1.074c2.605,0.679 4.445,3.12 4.448,5.899l-0.009,0.187l-3.275,29.694c-0.058,2.271 -1.878,4.108 -4.075,4.111" style="fill:#454bdb;"/><path d="M309.123,86.021c-0.043,1.532 -1.315,2.768 -2.847,2.768c-1.532,0 -2.804,-1.236 -2.847,-2.768l0,-2.758c0,-1.561 1.285,-2.846 2.847,-2.846c1.562,0 2.847,1.285 2.847,2.846l0,2.758Z" style="fill:#fff;"/><path d="M306.276,82.083c-0.652,0 -1.181,0.53 -1.181,1.179l0,2.759c0,0.648 0.533,1.181 1.181,1.181c0.648,0 1.181,-0.533 1.181,-1.181l0,-2.759c0,-0.649 -0.53,-1.179 -1.182,-1.179m0,8.446c-2.473,-0.002 -4.506,-2.036 -4.509,-4.508l0,-2.759c0.003,-2.472 2.036,-4.506 4.509,-4.508c2.473,0.002 4.508,2.035 4.511,4.508l0,2.759c-0.003,2.473 -2.038,4.506 -4.511,4.508" style="fill:#454bdb;"/><path d="M260.915,86.021c-0.043,1.532 -1.314,2.768 -2.846,2.768c-1.533,0 -2.804,-1.236 -2.847,-2.768l0,-2.758c0,-1.561 1.285,-2.846 2.847,-2.846c1.561,0 2.846,1.285 2.846,2.846l0,2.758Z" style="fill:#fff;"/><path d="M258.069,82.083c-0.652,0 -1.181,0.53 -1.181,1.179l0,2.759c0,0.648 0.533,1.182 1.181,1.182c0.648,0 1.182,-0.534 1.182,-1.182l0,-2.759c0,-0.649 -0.53,-1.179 -1.182,-1.179m0,8.446c-2.473,-0.002 -4.508,-2.035 -4.511,-4.508l0,-2.759c0.003,-2.473 2.038,-4.506 4.511,-4.508c2.472,0.002 4.507,2.035 4.511,4.508l0,2.759c-0.004,2.473 -2.039,4.506 -4.511,4.508" style="fill:#454bdb;"/><path d="M312.937,157.071l0,-18.759c0,-14.344 -13.676,-26.08 -30.395,-26.08c-16.716,0 -30.393,11.736 -30.393,26.081l0,18.758l60.788,0Z" style="fill:#38d2de;"/><path d="M314.602,157.071l-3.33,0l0,-18.759c0,-13.463 -12.887,-24.415 -28.73,-24.415c-15.841,0 -28.729,10.954 -28.729,24.416l0,18.758l-3.329,0l0,-18.759c0,-15.299 14.383,-27.745 32.058,-27.745c17.678,0 32.06,12.446 32.06,27.746l0,18.758Z" style="fill:#454bdb;"/><path d="M267.688,157.071l3.33,0l0,-20.571l-3.33,0l0,20.571Zm26.613,0l3.329,0l0,-20.571l-3.329,0l0,20.571Z" style="fill:#454bdb;"/><path d="M281.449,122.776c0,0 -0.001,0 -0.001,0c-3.119,0 -5.686,-2.566 -5.686,-5.685c0,0 0,-12.817 0,-12.817c0,-2.675 2.202,-4.877 4.878,-4.877l1.616,0c2.675,0 4.877,2.202 4.877,4.877l0,12.817c0,3.118 -2.566,5.685 -5.685,5.685" style="fill:#fff;"/><clipPath id="_clip1"><rect x="274.646" y="112.232" width="14.701" height="11.099"/></clipPath><g clip-path="url(#_clip1)"><path d="M281.189,99.951c-1.763,0.002 -3.212,1.452 -3.214,3.215l0,12.815c0.003,2.205 1.817,4.019 4.022,4.021c2.205,-0.003 4.017,-1.817 4.02,-4.021l0,-12.815c-0.002,-1.762 -1.451,-3.212 -3.213,-3.214l-1.615,0l0,-0.001Zm0.808,23.38c-4.031,-0.003 -7.347,-3.319 -7.351,-7.35l0,-12.815c0.004,-3.588 2.955,-6.54 6.543,-6.544l1.615,0c3.588,0.005 6.538,2.956 6.542,6.544l0,12.815c-0.004,4.03 -3.319,7.345 -7.349,7.35Z" style="fill:#454bdb;"/></g><path d="M281.916,111.559c-11.89,0 -21.619,-9.728 -21.619,-21.619l0,-14.654c0,-11.891 9.729,-11.621 21.619,-11.621c11.892,0 21.62,-0.27 21.62,11.62l0,14.657c0,11.89 -9.728,21.619 -21.62,21.619" style="fill:#fff;"/></g><g id="_-000000ff" serif:id="#000000ff"><path d="M276.635,60.584c7.387,-0.497 15.002,-0.184 22.049,2.27c2.394,0.951 5.685,2.362 5.555,5.411c0.044,5.742 -0.025,11.484 0.019,17.22c0.482,7.864 -3.186,15.416 -8.173,21.324c-3.483,4.012 -8.073,7.165 -13.263,8.521c-1.436,0.392 -2.834,-0.368 -4.164,-0.804c-6.867,-2.632 -12.187,-8.251 -15.516,-14.649c-1.979,-3.871 -3.551,-8.11 -3.445,-12.515c0.024,-6.374 -0.019,-12.748 0.012,-19.122c-0.192,-2.331 1.998,-3.766 3.842,-4.662c4.095,-1.883 8.63,-2.558 13.084,-2.994m-6.372,3.405c-2.778,0.687 -5.766,1.38 -7.95,3.337c-0.334,4.411 -0.037,8.853 -0.136,13.269c0.143,4.332 -0.532,8.822 0.972,12.994c2.647,8.017 8.327,15.397 16.338,18.686c0.019,-2.589 0.012,-5.172 0.012,-7.755c1.652,0 3.298,0 4.95,0c0,2.589 -0.007,5.172 0.018,7.761c7.999,-3.295 13.666,-10.662 16.314,-18.668c1.516,-4.178 0.854,-8.674 0.99,-13.005c-0.099,-4.423 0.204,-8.865 -0.136,-13.276c-2.178,-1.963 -5.166,-2.656 -7.944,-3.343c-7.69,-1.57 -15.738,-1.57 -23.428,0Z" style="fill:#1d53d3;fill-rule:nonzero;"/><path d="M264.559,76.343c1.572,-2.122 3.483,-4.386 6.267,-4.751c3.625,-0.681 6.954,1.887 8.581,4.93c0.569,1.541 -1.411,3.063 -2.735,2.079c-1.497,-1.534 -2.437,-3.86 -4.689,-4.454c-2.691,-0.674 -5.147,1.033 -7.424,2.196Z" style="fill:#1d53d3;fill-rule:nonzero;"/><path d="M284.529,76.553c1.609,-3.074 4.974,-5.648 8.605,-4.961c2.778,0.377 4.684,2.635 6.249,4.745c-2.252,-1.145 -4.671,-2.827 -7.337,-2.215c-2.314,0.563 -3.267,2.939 -4.795,4.498c-1.324,0.934 -3.248,-0.545 -2.722,-2.067Z" style="fill:#1d53d3;fill-rule:nonzero;"/><path d="M265.759,80.766c2.896,-2.449 7.282,-2.381 10.202,-0.012c-2.895,2.413 -7.306,2.456 -10.202,0.012Z" style="fill:#1d53d3;fill-rule:nonzero;"/><path d="M288.031,80.766c2.895,-2.449 7.281,-2.381 10.207,-0.012c-2.901,2.413 -7.312,2.456 -10.207,0.012Z" style="fill:#1d53d3;fill-rule:nonzero;"/><path d="M264.671,90.071c2.48,2.041 4.943,4.108 7.411,6.162c1.646,0 3.291,0 4.937,0c1.237,-1.238 2.487,-2.475 3.724,-3.718c0.829,0.006 1.658,0.012 2.487,0.006c1.225,1.243 2.468,2.474 3.699,3.712c1.646,0 3.292,0 4.937,0c2.475,-2.048 4.937,-4.114 7.412,-6.162c-2.048,3.291 -4.108,6.582 -6.168,9.873c-2.877,0 -5.754,-0.006 -8.63,0.007c-0.836,-0.829 -1.665,-1.658 -2.5,-2.481c-0.829,0.823 -1.658,1.652 -2.493,2.474c-2.883,0 -5.766,0 -8.649,0c-2.06,-3.291 -4.114,-6.582 -6.167,-9.873Z" style="fill:#1d53d3;fill-rule:nonzero;"/></g></g><g><path d="M661.932,106.166c0,0.771 -0.635,1.405 -1.406,1.405c-0.771,0 -1.405,-0.635 -1.405,-1.406c0,0 0,0 0,-0.001c0,-0.771 0.634,-1.405 1.405,-1.405c0.771,0 1.406,0.634 1.406,1.405m-5.733,-18.746c0,1.298 -1.068,2.367 -2.366,2.367c-1.299,0 -2.367,-1.069 -2.367,-2.367c0,-1.298 1.068,-2.366 2.366,-2.366c1.298,0 2.366,1.068 2.366,2.366" style="fill:#e2e2e2;"/><path d="M671.318,89.723c0,1.106 -0.91,2.016 -2.016,2.016c-1.106,0 -2.016,-0.91 -2.016,-2.016c0,-1.106 0.91,-2.016 2.016,-2.016c1.106,0 2.016,0.91 2.016,2.016" style="fill:#38d2de;"/><path d="M615.344,158.074l-21.128,0l2.735,-13.513c0.125,-0.612 0.667,-1.055 1.291,-1.055l13.079,0c0.627,0 1.165,0.441 1.29,1.055l2.734,13.513l-0.001,0Z" style="fill:#fff;"/><path d="M612.609,144.561c-0.123,-0.612 -0.665,-1.056 -1.289,-1.056l-3.757,0l2.195,10.843l-14.788,0l-0.754,3.725l21.128,0l-2.735,-13.513l0,0.001Z" style="fill:#e2e2e2;"/><path d="M642.632,158.074l-21.129,0l2.736,-13.513c0.124,-0.611 0.666,-1.055 1.29,-1.055l13.08,0c0.624,0 1.164,0.441 1.287,1.055l2.734,13.513l0.002,0Zm27.286,0l-21.127,0l2.735,-13.513c0.123,-0.612 0.665,-1.055 1.289,-1.055l13.079,0c0.627,0 1.166,0.441 1.29,1.055l2.734,13.513Z" style="fill:#fff;"/><path d="M667.185,144.561c-0.124,-0.612 -0.667,-1.056 -1.291,-1.056l-3.757,0l2.195,10.843l-14.788,0l-0.753,3.725l21.128,0l-2.734,-13.513l0,0.001Z" style="fill:#e2e2e2;"/><path d="M628.988,143.505l-21.128,0l2.735,-13.512c0.124,-0.612 0.667,-1.055 1.291,-1.054l13.078,0c0.624,-0.002 1.167,0.442 1.29,1.054l2.733,13.513l0.001,-0.001Zm27.287,0l-21.127,0l2.733,-13.512c0.124,-0.612 0.667,-1.055 1.291,-1.054l13.079,0c0.627,0 1.166,0.44 1.289,1.054l2.735,13.513l0,-0.001Zm-13.643,-14.567l-21.129,0l2.736,-13.514c0.124,-0.611 0.666,-1.055 1.29,-1.055l13.08,0c0.624,0 1.164,0.442 1.287,1.055l2.736,13.514Z" style="fill:#fff;"/><path d="M639.897,144.561c-0.123,-0.612 -0.665,-1.056 -1.29,-1.056l-3.757,0l2.196,10.843l-14.788,0l-0.755,3.725l21.129,0l-2.735,-13.513l0,0.001Zm-13.643,-14.57c-0.124,-0.611 -0.667,-1.054 -1.291,-1.053l-3.757,0l2.195,10.843l-14.788,0l-0.753,3.725l21.128,0l-2.734,-13.515Z" style="fill:#e2e2e2;"/><path d="M653.54,129.991c-0.124,-0.611 -0.666,-1.054 -1.289,-1.053l-3.757,0l2.195,10.843l-14.788,0l-0.753,3.725l21.127,0l-2.735,-13.516l0,0.001Zm-13.643,-14.567c-0.124,-0.611 -0.666,-1.055 -1.29,-1.055l-3.757,0l2.196,10.844l-14.788,0l-0.755,3.725l21.129,0l-2.735,-13.514Z" style="fill:#e2e2e2;"/><path d="M596.648,156.086l16.265,0l-2.142,-10.592l-11.981,0l-2.142,10.591l0,0.001Zm21.127,3.977l-25.989,0l3.217,-15.897c0.314,-1.533 1.673,-2.646 3.238,-2.65l13.079,0c1.566,0 2.928,1.114 3.239,2.649l3.216,15.896l0,0.002Zm6.161,-3.977l16.265,0l-2.144,-10.592l-11.979,0l-2.142,10.591l0,0.001Zm21.127,3.977l-25.989,0l3.217,-15.897c0.314,-1.532 1.672,-2.644 3.237,-2.648l13.079,0c1.566,0 2.927,1.113 3.239,2.648l3.217,15.897Zm6.158,-3.977l16.266,0l-2.142,-10.592l-11.98,0l-2.143,10.591l-0.001,0.001Zm21.128,3.977l-25.989,0l3.218,-15.897c0.315,-1.532 1.673,-2.644 3.237,-2.648l13.08,0c1.564,0 2.927,1.113 3.238,2.648l3.216,15.897Z" style="fill:#454bdb;"/><path d="M610.291,141.516l16.265,0l-2.142,-10.59l-11.98,0l-2.143,10.59Zm21.127,3.977l-25.989,0l3.219,-15.895c0.314,-1.532 1.672,-2.644 3.236,-2.647l13.08,0c1.565,0.003 2.924,1.114 3.238,2.647l3.216,15.895Zm6.161,-3.977l16.264,0l-2.141,-10.59l-11.98,0l-2.143,10.59Zm21.127,3.977l-25.989,0l3.218,-15.895c0.314,-1.532 1.673,-2.644 3.237,-2.647l13.079,0c1.566,0 2.928,1.113 3.239,2.647l3.216,15.896l0,-0.001Z" style="fill:#454bdb;"/><path d="M623.936,126.949l16.265,0l-2.144,-10.59l-11.979,0l-2.142,10.59Zm21.127,3.977l-25.989,0l3.217,-15.897c0.314,-1.532 1.672,-2.644 3.237,-2.648l13.079,0c1.566,0 2.927,1.115 3.239,2.648l3.217,15.897Z" style="fill:#454bdb;"/><path d="M629.981,107.619l3.977,0l0,-11.128l-3.977,0l0,11.128Zm10.741,2.851l-3.423,-2.024l2.849,-4.817l3.422,2.024l-2.848,4.817Zm4.455,5.828l-1.982,-3.449l9.647,-5.543l1.98,3.447l-9.645,5.545Zm0.949,7.285l-0.047,-3.977l5.563,-0.063l0.047,3.976l-5.563,0.064Zm-28.129,0.035l-5.561,-0.098l0.067,-3.976l5.565,0.098l-0.071,3.976Zm0.926,-7.302l-9.584,-5.658l2.023,-3.425l9.582,5.658l-2.021,3.425Z" style="fill:#454bdb;"/><g><path d="M623.363,110.45l-2.432,-4.32l3.463,-1.951l2.433,4.318l-3.464,1.953Z" style="fill:#454bdb;"/><path d="M586.55,137.547c-22.589,0 -40.966,-18.38 -40.966,-40.971l0,-34.917l19.918,0l0,34.917c0,11.61 9.442,21.053 21.048,21.053l0,19.918Z" style="fill:#fff;"/><path d="M586.55,137.547l0,-19.918c11.61,0 21.054,-9.443 21.054,-21.053l0,-34.917l19.917,0l0,34.917c0,22.591 -18.379,40.971 -40.971,40.971" style="fill:#38d2de;"/><path d="M559.98,130.308c-2.646,-2.089 -5.038,-4.479 -7.13,-7.122l3.12,-2.466c1.9,2.4 4.072,4.57 6.474,6.468l-2.464,3.12Z" style="fill:#454bdb;"/><path d="M586.553,139.535c-7.411,0 -14.696,-1.921 -21.144,-5.574l1.964,-3.459c5.849,3.314 12.458,5.056 19.18,5.055c21.494,0 38.981,-17.487 38.981,-38.982l0,-32.928l-15.941,0l0,32.929c0,12.705 -10.337,23.041 -23.04,23.041c-12.703,0 -23.04,-10.336 -23.04,-23.041l0,-32.929l-15.941,0l0,32.929c0,6.542 1.659,13.016 4.798,18.725l-3.483,1.915c-3.47,-6.326 -5.29,-13.425 -5.292,-20.64l0,-36.906l23.895,0l0,36.906c0,10.511 8.552,19.064 19.063,19.064c10.511,0 19.063,-8.552 19.063,-19.064l0,-36.906l23.893,0l0,36.906c0,23.686 -19.272,42.959 -42.959,42.959" style="fill:#454bdb;"/><path d="M593.953,56.324c0,1.089 -0.896,1.985 -1.985,1.985c-1.09,0 -1.986,-0.896 -1.986,-1.985c0,-1.09 0.896,-1.986 1.986,-1.986c1.089,0 1.985,0.896 1.985,1.986" style="fill:#38d2de;"/><path d="M597.988,69.34c0,1.089 -0.897,1.985 -1.986,1.985c-1.09,0 -1.986,-0.896 -1.986,-1.986c0,0 0,0 0,0c0,-1.09 0.896,-1.987 1.986,-1.987c1.089,0 1.986,0.897 1.986,1.987" style="fill:#e2e2e2;"/><path d="M583.296,42.839c0,1.446 -1.189,2.636 -2.635,2.636c-1.445,0 -2.635,-1.19 -2.635,-2.636c0,-1.445 1.19,-2.635 2.635,-2.635c1.446,0 2.635,1.19 2.635,2.635" style="fill:#38d2de;"/><path d="M577.786,58.96c0,1.446 -1.19,2.635 -2.636,2.635c-1.446,0 -2.636,-1.19 -2.636,-2.636c0,-0.001 0,-0.001 0,-0.002c0,-1.445 1.19,-2.635 2.636,-2.635c1.446,0 2.636,1.19 2.636,2.637c0,0 0,0.001 0,0.001m27.781,-16.121c0.001,0.025 0.001,0.05 0.001,0.074c0,2.201 -1.811,4.012 -4.012,4.012c-2.202,0 -4.013,-1.811 -4.013,-4.012c0,-0.024 0.001,-0.048 0.001,-0.072c0.039,-2.173 1.838,-3.94 4.012,-3.94c2.173,0 3.972,1.767 4.011,3.94" style="fill:#e2e2e2;"/><path d="M547.066,56.851l3.976,0l0,-11.201l-3.976,0l0,11.201Zm7.054,0l3.976,0l0,-17.031l-3.976,0l0,17.031Zm7.054,0l3.976,0l0,-11.201l-3.976,0l0,11.201Zm48,0l3.976,0l0,-11.201l-3.976,0l0,11.201Zm7.055,0l3.977,0l0,-17.031l-3.977,0l0,17.031Zm7.055,0l3.976,0l0,-11.201l-3.976,0l0,11.201Z" style="fill:#454bdb;"/></g><g id="_6个圆" serif:id="6个圆"><path d="M579.247,81.156c1.477,-2.204 4.249,-3.749 7.306,-3.749c3.057,0 5.829,1.545 7.306,3.749c2.647,0.178 5.372,1.806 6.901,4.453c1.528,2.647 1.576,5.821 0.406,8.202c1.17,2.381 1.122,5.555 -0.406,8.202c-1.529,2.647 -4.254,4.276 -6.901,4.453c-1.477,2.204 -4.249,3.749 -7.306,3.749c-3.057,0 -5.829,-1.545 -7.306,-3.749c-2.647,-0.177 -5.372,-1.806 -6.901,-4.453c-1.528,-2.647 -1.575,-5.821 -0.406,-8.202c-1.169,-2.381 -1.122,-5.555 0.406,-8.202c1.529,-2.647 4.254,-4.275 6.901,-4.453Z" style="fill:#1d53d3;"/><g><g><path d="M596.241,95.071c-0.835,-0.124 -1.409,-0.478 -1.974,-1.089c1.723,0.122 1.71,-0.369 1.71,-0.369c0,0 0.079,-0.218 -0.389,-0.435c-0.207,-0.097 -0.411,-0.237 -0.588,-0.35c0.169,0.022 2.606,0.227 2.885,-0.725c-1.41,-0.192 -3.009,-0.38 -4.164,-0.895c-0.426,-0.19 -0.991,-0.407 -1.287,-0.811c0.378,0.029 1.022,0.05 1.575,-0.089c0.613,-0.154 1.208,-0.375 1.543,-0.913c0.192,-0.307 0.196,-0.634 0.196,-0.634c0,0 -0.408,0.22 -0.838,0.329c-0.971,0.244 -1.989,0.147 -2.382,0.105c-0.424,-0.045 -1.865,-0.212 -1.82,-0.541c0.041,-0.297 1.302,-0.194 1.554,-0.171c0.343,0.031 0.685,0.074 1.028,0.097c-0.759,-0.483 -1.656,-0.764 -2.513,-1.001c-1.305,-0.36 -2.709,-0.441 -4.016,-0.065c-0.562,0.162 -1.367,0.548 -1.78,1.259c-0.922,1.59 0.254,3.513 1.375,4.649c1.329,1.347 2.51,1.964 3.627,2.436c1.116,0.472 3.43,1.143 5.136,0.331c1.138,-0.542 1.122,-1.118 1.122,-1.118Z" style="fill:#fff;"/><path d="M593.046,101.256c-0.108,-0.14 -0.238,-0.011 -0.436,0.01c-0.029,0.003 0.1,-0.134 0.073,-0.262c-0.036,-0.168 -0.157,-0.201 -0.301,-0.198c-0.274,0.007 -0.723,0.261 -1.015,0.237c-0.399,-0.033 -1.178,-0.37 -1.308,-0.48c-0.136,-0.113 0.233,0.012 0.932,-0.502c0.213,-0.157 0.644,-0.527 0.644,-0.527c0,0 0.117,0.493 0.919,0.692c0.802,0.199 1.392,-0.918 0.688,-1.57c-0.318,-0.296 -0.837,-0.286 -0.789,-0.332c0.145,-0.139 0.275,-0.826 0.254,-0.835c-0.08,-0.035 -0.61,-0.014 -1.82,-0.345c-1.581,-0.433 -3.08,-1.281 -4.311,-2.351c-1.069,-0.929 -1.925,-2.356 -2.24,-3.234c-0.113,-0.313 -0.157,-0.829 -0.155,-1.174c0.003,-0.59 0.37,-1.59 1.214,-2.149c0.094,-0.062 -0.979,-0.36 -1.781,-0.428c-1.682,-0.143 -2.523,0.333 -2.584,0.271c-1.042,-1.072 -1.483,-2.983 -1.841,-2.872c-0.378,0.117 -0.309,4.295 -0.372,4.373c-0.064,0.079 -0.35,0.367 -0.494,0.575c-0.342,0.494 -0.824,1.201 -0.953,2.653c-0.132,1.473 0.135,4.492 5.437,6.878c2.094,0.943 3.879,1.138 3.879,1.138c0,0 0.81,0.334 1.266,0.473c0.475,0.145 1.424,0.584 1.424,0.584c0,0 1.045,0.69 1.61,0.509c0.214,-0.069 0.07,-0.263 -0.132,-0.325c-0.098,-0.03 0.219,-0.07 0.23,-0.255c0.014,-0.229 -0.454,-0.06 -0.454,-0.06c0,0 0.068,-0.308 0.164,-0.269c0.667,0.271 1.048,0.563 1.862,0.68c0.13,0.018 0.372,0.002 0.399,-0.238c0.017,-0.144 -0.207,-0.229 -0.207,-0.229c-0.009,0.013 0.387,-0.194 0.198,-0.438Z" style="fill:#fff;"/><path d="M588.486,100.887c-0.138,-0.048 0.199,-0.022 0.36,-0.048c0.069,-0.011 0.568,0.26 1.402,0.459c0.157,0.037 -0.464,0.058 -0.48,0.053c-0.705,-0.195 -1.009,-0.372 -1.282,-0.464Z" style="fill:#2554c1;"/></g></g></g></g><g><text x="216.469px" y="210.554px" style="font-family:'Helvetica-Bold', 'Helvetica';font-weight:700;font-size:48px;fill:#ddd;">01</text><text x="217.273px" y="236.934px" style="font-family:'PingFangSC-Semibold', 'PingFang SC', sans-serif;font-weight:600;font-size:24px;fill:#070707;">新建角色</text><text x="217.659px" y="210.554px" style="font-family:'PingFangSC-Light', 'PingFang SC', sans-serif;font-weight:300;font-size:14px;fill:#7a7a7a;">借助隐秘的身份</text></g><g><text x="437.488px" y="592.275px" style="font-family:'Helvetica-Bold', 'Helvetica';font-weight:700;font-size:48px;fill:#dcdcdc;">05</text><text x="415.233px" y="620.276px" style="font-family:'PingFangSC-Semibold', 'PingFang SC', sans-serif;font-weight:600;font-size:24px;fill:#070707;">鸟币收款</text><text x="438.087px" y="592.275px" style="font-family:'PingFangSC-Light', 'PingFang SC', sans-serif;font-weight:300;font-size:14px;fill:#797979;">选择喜欢的贴纸</text></g><g><text x="785.645px" y="591.251px" style="font-family:'Helvetica-Bold', 'Helvetica';font-weight:700;font-size:48px;fill:#dcdcdc;">06</text><text x="773.879px" y="619.276px" style="font-family:'PingFangSC-Semibold', 'PingFang SC', sans-serif;font-weight:600;font-size:24px;fill:#070707;">鸟币兑现</text><text x="786.891px" y="591.261px" style="font-family:'PingFangSC-Light', 'PingFang SC', sans-serif;font-weight:300;font-size:14px;fill:#797979;">维护自助信用</text></g><g><text x="555.401px" y="210.554px" style="font-family:'Helvetica-Bold', 'Helvetica';font-weight:700;font-size:48px;fill:#dcdcdc;">02</text><text x="556.205px" y="237.934px" style="font-family:'PingFangSC-Semibold', 'PingFang SC', sans-serif;font-weight:600;font-size:24px;fill:#070707;">添加技能</text><g transform="matrix(1,0,0,1,370.005,23.6024)"><text x="186.586px" y="186.951px" style="font-family:'PingFangSC-Light', 'PingFang SC', sans-serif;font-weight:300;font-size:14px;fill:#797979;">谁说</text><text x="214.586px" y="186.951px" style="font-family:'PingFangSC-Light', 'PingFang SC', sans-serif;font-weight:300;font-size:14px;fill:#535353;">‘没钱’？</text></g></g><g><text x="429.685px" y="401.495px" style="font-family:'Helvetica-Bold', 'Helvetica';font-weight:700;font-size:48px;fill:#dcdcdc;">04</text><text x="312.704px" y="428.639px" style="font-family:'PingFangSC-Semibold', 'PingFang SC', sans-serif;font-weight:600;font-size:24px;fill:#070707;">发行超级鸟币</text><text x="358.532px" y="400.712px" style="font-family:'PingFangSC-Light', 'PingFang SC', sans-serif;font-weight:300;font-size:14px;fill:#797979;">为朋友挺身而出</text></g><g><text x="728.138px" y="400.495px" style="font-family:'Helvetica-Bold', 'Helvetica';font-weight:700;font-size:48px;fill:#dcdcdc;">03</text><text x="658.213px" y="428.639px" style="font-family:'PingFangSC-Semibold', 'PingFang SC', sans-serif;font-weight:600;font-size:24px;fill:#070707;">发行鸟币</text><g transform="matrix(1,0,0,1,495.457,213.131)"><text x="186.586px" y="186.951px" style="font-family:'PingFangSC-Light', 'PingFang SC', sans-serif;font-weight:300;font-size:14px;fill:#535353;">只工作，</text><text x="242.586px" y="186.951px" style="font-family:'PingFangSC-Light', 'PingFang SC', sans-serif;font-weight:300;font-size:14px;fill:#797979;">不上班</text></g></g><g><path d="M235.746,158.071c0,3.291 -2.709,6 -6,6c-3.292,0 -6,-2.709 -6,-6c0,-3.292 2.708,-6 6,-6c3.291,0 6,2.708 6,6" style="fill:#efcc8d;"/><path d="M229.746,166.071c-4.41,0 -8,-3.588 -8,-8c0,-4.41 3.59,-8 8,-8c4.41,0 8,3.59 8,8c0,4.412 -3.59,8 -8,8Zm0,-12.514c-2.476,0.002 -4.513,2.038 -4.515,4.514c0.002,2.476 2.039,4.512 4.515,4.514c2.475,-0.003 4.511,-2.039 4.514,-4.514c-0.003,-2.476 -2.04,-4.512 -4.515,-4.514l0.001,0Z" style="fill:#454bdb;"/></g><g><path d="M575.061,158.113c0,3.292 -2.709,6 -6,6c-3.292,0 -6,-2.708 -6,-6c0,-3.291 2.708,-6 6,-6c3.291,0 6,2.709 6,6" style="fill:#efcc8d;"/><path d="M569.061,166.113c-4.41,0 -8,-3.588 -8,-8c0,-4.41 3.59,-8 8,-8c4.41,0 8,3.59 8,8c0,4.412 -3.59,8 -8,8Zm0,-12.514c-2.476,0.003 -4.513,2.039 -4.515,4.514c0.002,2.476 2.039,4.512 4.515,4.514c2.475,-0.002 4.511,-2.038 4.514,-4.514c-0.003,-2.475 -2.04,-4.511 -4.515,-4.514l0.001,0Z" style="fill:#454bdb;"/></g><g><path d="M774.805,348.375c0,3.292 -2.708,6 -6,6c-3.291,0 -6,-2.708 -6,-6c0,-3.292 2.709,-6 6,-6c3.292,0 6,2.708 6,6" style="fill:#efcc8d;"/><path d="M768.805,356.375c-4.41,0 -8,-3.588 -8,-8c0,-4.41 3.59,-8 8,-8c4.41,0 8,3.59 8,8c0,4.412 -3.59,8 -8,8Zm0,-12.514c-2.475,0.002 -4.512,2.038 -4.515,4.514c0.003,2.476 2.04,4.512 4.515,4.514c2.476,-0.003 4.512,-2.039 4.514,-4.514c-0.002,-2.476 -2.039,-4.512 -4.515,-4.514l0.001,0Z" style="fill:#454bdb;"/></g><g><path d="M449.111,349.375c0,3.292 -2.709,6 -6,6c-3.292,0 -6,-2.708 -6,-6c0,-3.292 2.708,-6 6,-6c3.291,0 6,2.708 6,6" style="fill:#efcc8d;"/><path d="M443.111,357.375c-4.41,0 -8,-3.588 -8,-8c0,-4.41 3.59,-8 8,-8c4.41,0 8,3.59 8,8c0,4.412 -3.59,8 -8,8Zm0,-12.514c-2.476,0.002 -4.512,2.038 -4.515,4.514c0.003,2.476 2.039,4.512 4.515,4.514c2.475,-0.003 4.511,-2.039 4.514,-4.514c-0.003,-2.476 -2.04,-4.512 -4.515,-4.514l0.001,0Z" style="fill:#454bdb;"/></g><g><path d="M804.107,538.448c0,3.292 -2.709,6 -6,6c-3.292,0 -6,-2.708 -6,-6c0,-3.291 2.708,-6 6,-6c3.291,0 6,2.709 6,6" style="fill:#efcc8d;"/><path d="M798.107,546.448c-4.41,0 -8,-3.588 -8,-8c0,-4.41 3.59,-8 8,-8c4.41,0 8,3.59 8,8c0,4.412 -3.59,8 -8,8Zm0,-12.514c-2.476,0.003 -4.512,2.039 -4.515,4.514c0.003,2.476 2.039,4.512 4.515,4.514c2.475,-0.002 4.511,-2.038 4.514,-4.514c-0.003,-2.475 -2.039,-4.511 -4.515,-4.514l0.001,0Z" style="fill:#454bdb;"/></g><g><path d="M484.107,539.448c0,3.292 -2.709,6 -6,6c-3.292,0 -6,-2.708 -6,-6c0,-3.291 2.708,-6 6,-6c3.291,0 6,2.709 6,6" style="fill:#efcc8d;"/><path d="M478.107,547.448c-4.41,0 -8,-3.588 -8,-8c0,-4.41 3.59,-8 8,-8c4.41,0 8,3.59 8,8c0,4.412 -3.59,8 -8,8Zm0,-12.514c-2.476,0.003 -4.512,2.039 -4.515,4.514c0.003,2.476 2.039,4.512 4.515,4.514c2.475,-0.002 4.511,-2.038 4.514,-4.514c-0.003,-2.475 -2.039,-4.511 -4.515,-4.514l0.001,0Z" style="fill:#454bdb;"/></g><g><path d="M822.391,480.469c0,0.714 -0.588,1.302 -1.302,1.302c-0.714,0 -1.301,-0.588 -1.301,-1.302c0,-0.714 0.587,-1.301 1.301,-1.301c0.714,0 1.302,0.587 1.302,1.301m-6.926,4.684c0,0.015 0,0.029 0,0.044c0,1.042 -0.857,1.9 -1.9,1.9c-1.042,0 -1.9,-0.858 -1.9,-1.9c0,-0.015 0.001,-0.029 0.001,-0.044c0.024,-1.025 0.874,-1.856 1.899,-1.856c1.026,0 1.876,0.831 1.9,1.856" style="fill:#38d2de;"/><path d="M838.247,533.049l0,-46.028c0,-1.59 1.308,-2.898 2.898,-2.899l21.476,0c1.59,0 2.898,1.309 2.898,2.898c0,0.001 0,0.002 0,0.002l0,46.028c0,0.001 0,0.001 0,0.001c0,1.59 -1.308,2.897 -2.897,2.897c0,0 -0.001,0 -0.001,0l-21.476,0c-1.59,0 -2.898,-1.308 -2.898,-2.898" style="fill:#f2f2f2;"/><path d="M862.621,537.448l-21.476,0c-2.412,-0.002 -4.395,-1.986 -4.398,-4.398l3,0c0.001,0.767 0.631,1.397 1.398,1.398l21.476,0c0.766,-0.001 1.397,-0.631 1.398,-1.398l0,-46.03c-0.001,-0.766 -0.632,-1.397 -1.398,-1.398l-21.476,0c-0.767,0.001 -1.397,0.632 -1.398,1.398l0,1.52l-3,0l0,-1.52c0.002,-2.411 1.986,-4.395 4.398,-4.398l21.476,0c2.412,0.003 4.396,1.987 4.398,4.398l0,46.03c-0.002,2.412 -1.986,4.396 -4.398,4.398" style="fill:#454bdb;"/><path d="M842.828,509.947c0.101,-5.07 4.293,-9.1 9.363,-8.997c5.01,0.039 9.11,4.172 9.11,9.182c0,5.037 -4.145,9.182 -9.182,9.182c-0.098,0 -0.196,-0.001 -0.294,-0.005c-4.967,-0.098 -8.999,-4.21 -8.999,-9.178c0,-0.061 0.001,-0.122 0.002,-0.184" style="fill:#fff;"/><path d="M852.015,520.811c-0.073,0 -0.146,0 -0.22,-0.002l0.06,-3c2.09,0.016 3.996,-0.72 5.475,-2.14c1.474,-1.407 2.324,-3.347 2.358,-5.385c0.073,-3.635 -2.443,-6.85 -5.981,-7.648l0.66,-2.926c4.922,1.11 8.42,5.58 8.32,10.633c-0.048,2.833 -1.229,5.532 -3.277,7.49c-1.984,1.915 -4.638,2.984 -7.395,2.978" style="fill:#454bdb;"/><path d="M849.793,524.405c0.027,-1.338 1.135,-2.424 2.473,-2.424c1.358,0 2.474,1.117 2.474,2.474c0,0.017 0,0.034 0,0.05c-0.027,1.338 -1.135,2.424 -2.474,2.424c-1.357,0 -2.474,-1.116 -2.474,-2.474c0,-0.016 0.001,-0.033 0.001,-0.05m0,-29.204c0.024,-1.34 1.133,-2.429 2.474,-2.429c1.357,0 2.474,1.117 2.474,2.474c0,0.018 -0.001,0.036 -0.001,0.054c-0.027,1.338 -1.135,2.424 -2.474,2.424c-1.357,0 -2.474,-1.116 -2.474,-2.474c0,-0.016 0.001,-0.033 0.001,-0.05" style="fill:#fff;"/><path d="M850.27,514.371c-1.776,-0.001 -3.237,-1.462 -3.239,-3.238l0,-4.681l3,0l0,4.68c0,0.264 0.477,0.264 0.477,0l0,-1.871c0.002,-1.776 1.463,-3.237 3.239,-3.24c1.776,0.003 3.236,1.465 3.237,3.24l0,4.547l-3,0l0,-4.547c0,-0.264 -0.476,-0.264 -0.476,0l0,1.872c-0.002,1.776 -1.463,3.236 -3.238,3.238" style="fill:#454bdb;"/><path d="M845.656,511.63l12.703,0l0,-3l-12.703,0l0,3Zm3.379,-23.402l0,0.004l0,-0.004Zm13.851,8.74l-3,0l0,-3.018c-2.354,-0.553 -4.199,-2.399 -4.752,-4.753l-6.254,0c-0.065,0.269 -0.146,0.534 -0.244,0.792l-2.803,-1.073c0.114,-0.296 0.185,-0.61 0.212,-0.934c0.071,-1 0.914,-1.786 1.917,-1.785l8.092,0c1.01,0 1.834,0.768 1.917,1.787c0.148,1.662 1.482,2.99 3.145,3.131c0.992,0.065 1.773,0.9 1.77,1.894l0,3.959Zm-13.852,34.434l0.001,0.003l0,-0.003m7.02,2.036l-8.093,0c-1.004,0.001 -1.848,-0.786 -1.917,-1.788c-0.115,-1.334 -1,-2.486 -2.26,-2.94l1.012,-2.825c2.038,0.734 3.575,2.447 4.083,4.553l6.254,0c0.553,-2.354 2.398,-4.199 4.752,-4.753l0,-3.017l3,0l0,3.958c0.003,0.994 -0.778,1.83 -1.77,1.894c-1.663,0.141 -2.997,1.47 -3.145,3.132c-0.07,1.001 -0.914,1.787 -1.917,1.786" style="fill:#454bdb;"/><path d="M808.41,477.934c0,0.001 0,0.001 0,0.001c0,0.632 -0.52,1.151 -1.152,1.151c-0.631,0 -1.151,-0.519 -1.151,-1.151c0,-0.631 0.52,-1.151 1.151,-1.151c0.632,0 1.152,0.52 1.152,1.151m25.863,6.282c0,0.515 -0.423,0.938 -0.938,0.938c-0.514,0 -0.937,-0.423 -0.937,-0.938c0,-0.514 0.423,-0.937 0.937,-0.937c0.514,0 0.937,0.423 0.937,0.937" style="fill:#e2e2e2;"/><path d="M831.473,535.821c-0.244,0.165 -0.564,0.169 -0.812,0.009l-13.923,-12.505c-4.277,-3.841 -6.726,-9.323 -6.734,-15.072l-0.021,-16.276c0,-0.009 -0.001,-0.019 -0.001,-0.028c0,-0.403 0.332,-0.734 0.734,-0.734c0.008,0 0.015,0 0.023,0c1.959,0.055 4.423,0.107 6.72,0.107c2.747,0 4.766,-0.075 6,-0.225c3.41,-0.418 5.882,-2.39 7.454,-3.67c0.26,-0.213 0.636,-0.214 0.898,-0.004c1.607,1.284 4.076,3.219 7.538,3.723c1.136,0.166 2.942,0.249 5.372,0.249c2.312,0 4.825,-0.073 6.734,-0.145c0.01,0 0.019,0 0.029,0c0.4,0 0.73,0.329 0.73,0.73c0,0.01 -0.001,0.02 -0.001,0.029l-0.02,16.425c-0.007,5.82 -2.517,11.365 -6.885,15.21l-13.835,12.179l0,-0.002Z" style="fill:#fff;"/><path d="M831.429,532.95c-0.216,0.146 -0.499,0.149 -0.717,0.007l-12.271,-11.022c-3.77,-3.385 -5.929,-8.218 -5.935,-13.285l-0.02,-14.345c0,-0.008 0,-0.016 0,-0.024c0,-0.355 0.292,-0.647 0.647,-0.647c0.007,0 0.014,0 0.021,0c1.726,0.047 3.898,0.094 5.922,0.094c2.422,0 4.202,-0.066 5.289,-0.198c3.005,-0.368 5.184,-2.107 6.57,-3.235c0.228,-0.188 0.56,-0.189 0.79,-0.004c1.418,1.132 3.595,2.838 6.645,3.282c1,0.146 2.594,0.22 4.735,0.22c2.038,0 4.253,-0.065 5.936,-0.128c0.009,0 0.018,0 0.028,0c0.351,0 0.64,0.289 0.64,0.64c0,0.009 -0.001,0.019 -0.001,0.028l-0.016,14.478c-0.006,5.131 -2.219,10.018 -6.07,13.407l-12.193,10.732Z" style="fill:#38d2de;"/><path d="M811.481,491.922l0,0.053c0.001,-0.017 0.001,-0.035 0,-0.053Zm39.231,0.084c-0.001,0.013 -0.001,0.026 0,0.039l0,-0.039Zm-40.017,0.708l0.003,0l-0.003,0Zm20.364,44.733c-0.42,0 -0.843,-0.119 -1.213,-0.357l-0.189,-0.145l-13.922,-12.504c-4.589,-4.128 -7.219,-10.014 -7.232,-16.187l-0.02,-16.275c-0.023,-0.563 0.213,-1.166 0.645,-1.604c0.438,-0.434 1.034,-0.673 1.651,-0.66l1.743,0.044l-0.072,3l-0.968,-0.025l0.021,15.516c0.011,5.323 2.278,10.399 6.236,13.958l13.328,11.972l13.25,-11.66c4.045,-3.562 6.369,-8.697 6.376,-14.088l0.018,-15.655c-1.703,0.06 -3.92,0.118 -5.992,0.118c-2.54,0 -4.369,-0.087 -5.588,-0.265c-3.546,-0.517 -6.107,-2.34 -7.763,-3.644c-1.59,1.272 -4.217,3.17 -7.728,3.6l-0.365,-2.978c3.041,-0.373 5.325,-2.233 6.69,-3.345c0.803,-0.661 1.97,-0.667 2.78,-0.014c1.474,1.18 3.703,2.958 6.82,3.412c1.06,0.156 2.793,0.234 5.154,0.234c2.227,-0.007 4.454,-0.056 6.68,-0.145c0.621,-0.027 1.226,0.211 1.663,0.653c0.437,0.438 0.673,1.044 0.65,1.664l-0.019,16.37c-0.009,6.25 -2.704,12.204 -7.395,16.334l-13.99,12.296c-0.378,0.253 -0.813,0.38 -1.249,0.38Z" style="fill:#454bdb;"/><path d="M817.459,492.821l0,-3c0.834,0 1.6,-0.006 2.297,-0.02l0.062,3c-0.715,0.014 -1.502,0.02 -2.36,0.02" style="fill:#454bdb;"/><path d="M842.803,510.469c0,6.355 -5.152,11.508 -11.508,11.508c-6.355,0 -11.507,-5.153 -11.507,-11.508c0,-6.355 5.152,-11.507 11.507,-11.507c6.356,0 11.508,5.152 11.508,11.507" style="fill:#fefeff;"/><path d="M829.311,516.99l-5.891,-5.891l2.12,-2.121l3.77,3.77l7.738,-7.738l2.122,2.12l-9.859,9.86Z" style="fill:#454bdb;"/><g><path d="M903.069,410.765c0,2.007 -1.651,3.657 -3.657,3.657c-2.006,0 -3.657,-1.65 -3.657,-3.657c0,-2.006 1.651,-3.657 3.657,-3.657c2.006,0 3.657,1.651 3.657,3.657m-7.383,21.326c0,0.581 -0.478,1.059 -1.059,1.059c-0.581,0 -1.059,-0.478 -1.059,-1.059c0,-0.581 0.478,-1.059 1.059,-1.059c0.581,0 1.059,0.478 1.059,1.059" style="fill:#e2e2e2;"/><path d="M911.035,426.521c0,0.015 0,0.029 0,0.043c0,1.035 -0.851,1.887 -1.887,1.887c-1.035,0 -1.887,-0.852 -1.887,-1.887c0,-0.014 0.001,-0.029 0.001,-0.044c0.024,-1.018 0.868,-1.843 1.886,-1.843c1.019,0 1.864,0.826 1.887,1.844" style="fill:#38d2de;"/><path d="M825.847,412.777c0,1.471 -1.21,2.682 -2.682,2.682c-1.471,0 -2.681,-1.211 -2.681,-2.682c0,-1.471 1.21,-2.681 2.681,-2.681c1.472,0 2.682,1.21 2.682,2.681m18.908,5.894c0,0.87 -0.715,1.585 -1.585,1.585c-0.869,0 -1.584,-0.715 -1.584,-1.585c0,-0.869 0.715,-1.584 1.584,-1.584c0.87,0 1.585,0.715 1.585,1.584" style="fill:#e2e2e2;"/><path d="M830.503,433.909c0.001,0.029 0.001,0.057 0.001,0.086c0,2.013 -1.657,3.67 -3.67,3.67c-2.013,0 -3.67,-1.657 -3.67,-3.67c0,-0.029 0,-0.058 0.001,-0.087c0.033,-1.99 1.679,-3.609 3.669,-3.609c1.991,0 3.637,1.619 3.67,3.609" style="fill:#38d2de;"/><path d="M896.165,488.857l-9.796,-9.783l2.119,-2.123l9.796,9.783l-2.119,2.123Z" style="fill:#454bdb;"/><path d="M865.295,481.011c-14.021,0 -25.387,-11.366 -25.387,-25.387c0,-14.02 11.366,-25.385 25.387,-25.385c14.02,0 25.386,11.365 25.386,25.385c0,14.022 -11.365,25.387 -25.386,25.387m0,-58.802c-18.454,0 -33.415,14.961 -33.415,33.415c0,18.455 14.96,33.416 33.415,33.416c18.455,0 33.415,-14.96 33.415,-33.416c0,-18.454 -14.96,-33.415 -33.415,-33.415" style="fill:#4178da;"/><path d="M847.538,429.101l-1.672,-2.49c2.666,-1.79 5.567,-3.202 8.621,-4.197l0.928,2.854c-2.79,0.908 -5.441,2.198 -7.877,3.833m-5.855,5.051l-2.219,-2.02c1.02,-1.121 2.112,-2.174 3.268,-3.155l1.942,2.287c-1.058,0.897 -2.057,1.862 -2.991,2.888m23.612,56.389c-9.326,0 -18.095,-3.63 -24.69,-10.226c-6.594,-6.595 -10.226,-15.363 -10.225,-24.69c0,-7.517 2.351,-14.678 6.802,-20.709l2.414,1.782c-4.067,5.51 -6.216,12.055 -6.216,18.927c0,8.526 3.319,16.54 9.347,22.57c6.028,6.026 14.042,9.346 22.568,9.346c17.597,0 31.915,-14.317 31.915,-31.916c0,-17.597 -14.318,-31.915 -31.915,-31.915c-2.151,0 -4.3,0.215 -6.388,0.64l-0.598,-2.94c2.286,-0.464 4.636,-0.7 6.986,-0.7c19.252,0 34.915,15.663 34.915,34.915c0,19.253 -15.663,34.916 -34.915,34.916" style="fill:#454bdb;"/><path d="M889.675,489.584l10.27,10.256l9.328,-9.341l-10.27,-10.256l-9.328,9.341Z" style="fill:#e2e2e2;"/><path d="M898.762,500.779l-11.209,-11.194l11.448,-11.463l11.207,11.193l-2.12,2.123l-9.085,-9.074l-7.208,7.219l9.085,9.073l-2.118,2.123Z" style="fill:#454bdb;"/><path d="M897.231,497.585l-2.123,-2.12l9.783,-9.795l2.123,2.119l-9.783,9.796Z" style="fill:#454bdb;"/></g><path d="M873.978,468.596l-7.802,-3.973c-0.152,-0.077 -0.333,-0.075 -0.483,0.007l-7.696,4.173c-0.075,0.041 -0.161,0.063 -0.247,0.063c-0.285,0 -0.519,-0.235 -0.519,-0.52c0,-0.027 0.002,-0.054 0.006,-0.08l1.367,-8.646c0.027,-0.169 -0.031,-0.341 -0.156,-0.458l-6.346,-6.03c-0.103,-0.098 -0.162,-0.234 -0.162,-0.377c0,-0.254 0.187,-0.472 0.438,-0.512l8.647,-1.372c0.168,-0.027 0.313,-0.135 0.386,-0.289l3.773,-7.901c0.086,-0.18 0.269,-0.295 0.468,-0.295c0.196,0 0.376,0.11 0.464,0.285l3.976,7.799c0.078,0.152 0.226,0.256 0.395,0.279l8.677,1.146c0.257,0.034 0.452,0.256 0.452,0.515c0,0.137 -0.055,0.269 -0.151,0.366l-6.19,6.192c-0.121,0.121 -0.174,0.294 -0.142,0.462l1.59,8.609c0.005,0.031 0.008,0.062 0.008,0.093c0,0.285 -0.234,0.52 -0.519,0.52c-0.082,0 -0.162,-0.019 -0.234,-0.056" style="fill:#fff;"/><path d="M864.242,443.378l0.001,0.002l0,-0.002l-0.001,0Zm6.751,6.378l0.002,0.004c0,-0.001 -0.001,-0.003 -0.002,-0.004Zm-11.472,0.152c-0.001,0.002 -0.002,0.004 -0.003,0.005l0.003,-0.005Zm-2.63,10.38l0.005,0.005l-0.005,-0.005Zm-2.671,-6.838l4.819,4.58c0.494,0.465 0.728,1.15 0.623,1.827l-1.039,6.571l5.844,-3.17c0.599,-0.325 1.321,-0.335 1.929,-0.027l5.927,3.019l-1.207,-6.538c-0.126,-0.672 0.089,-1.365 0.573,-1.848l4.701,-4.701l-6.591,-0.87c-0.679,-0.09 -1.271,-0.51 -1.582,-1.12l-3.018,-5.92l-2.865,6c-0.293,0.614 -0.87,1.047 -1.542,1.155l-6.573,1.043l0.001,-0.001Zm19.979,13.755l0.001,0l-0.001,0Zm-1.492,1.115l0.001,0.004l0,-0.004l-0.001,0Zm-15.442,2.105c-0.422,0 -0.84,-0.129 -1.201,-0.384c-0.647,-0.454 -0.978,-1.243 -0.85,-2.023l1.283,-8.103l-5.953,-5.654c-0.575,-0.542 -0.79,-1.37 -0.553,-2.124c0.232,-0.756 0.879,-1.315 1.661,-1.435l8.106,-1.285l3.535,-7.408c0.338,-0.715 1.059,-1.176 1.85,-1.183c0.812,0.021 1.517,0.426 1.878,1.137l3.728,7.311l8.137,1.074c0.79,0.104 1.439,0.636 1.696,1.391c0.257,0.749 0.063,1.582 -0.499,2.139l-5.803,5.804l1.492,8.073c0.146,0.779 -0.16,1.563 -0.797,2.041c-0.637,0.478 -1.476,0.55 -2.187,0.189l-7.315,-3.726l-7.217,3.913c-0.304,0.166 -0.646,0.253 -0.992,0.253l0.001,0Z" style="fill:#454bdb;"/></g><g><path d="M367.369,305.529l49.412,0l-24.413,-14.076l-24.999,14.076Z" style="fill:#f2f2f2;"/><path d="M418.015,308.428l-6.682,-3.968l1.532,-2.58l6.681,3.968l-1.531,2.58Zm-9.658,-5.735l-5.49,-3.261l1.531,-2.58l5.49,3.26l-1.531,2.581Zm-43.112,5.752l-1.473,-2.613l26.618,-14.99c1.165,-0.65 2.83,-0.627 3.968,0.049l6.187,3.673l-1.531,2.58l-6.188,-3.674c-0.215,-0.128 -0.75,-0.132 -0.971,-0.01l-26.61,14.985Z" style="fill:#454bdb;"/><path d="M395.572,299.503c0.001,0.019 0.001,0.038 0.001,0.057c0,1.759 -1.448,3.207 -3.207,3.207c-1.76,0 -3.207,-1.448 -3.207,-3.207c0,-0.019 0,-0.038 0,-0.057c0,-1.759 1.448,-3.207 3.207,-3.207c1.76,0 3.207,1.448 3.207,3.207" style="fill:#fff;"/><path d="M392.369,297.798c-0.941,0 -1.708,0.765 -1.708,1.705c0.002,0.936 0.772,1.706 1.708,1.707c0.914,-0.031 1.649,-0.792 1.649,-1.706c0,-0.914 -0.735,-1.675 -1.649,-1.706m0,6.412c-2.581,-0.002 -4.705,-2.125 -4.708,-4.707c0.004,-2.581 2.127,-4.703 4.708,-4.705c2.58,0.003 4.702,2.125 4.704,4.705c-0.001,2.58 -2.123,4.704 -4.704,4.707" style="fill:#454bdb;"/><path d="M414.336,295.356c0,0.615 -0.506,1.12 -1.121,1.12c-0.615,0 -1.121,-0.506 -1.121,-1.121c0,0 0,-0.001 0,-0.001c0.001,-0.615 0.507,-1.12 1.121,-1.12c0.615,0 1.121,0.506 1.121,1.121c0,0 0,0.001 0,0.001" style="fill:#e2e2e2;"/><path d="M404.034,286.496c0,0.857 -0.705,1.563 -1.562,1.563c-0.857,0 -1.563,-0.706 -1.563,-1.563c0,-0.857 0.706,-1.562 1.563,-1.562c0.857,0 1.562,0.705 1.562,1.562" style="fill:#38d2de;"/><path d="M425.785,289.023c0,1.386 -1.14,2.527 -2.526,2.527c-1.386,0 -2.527,-1.141 -2.527,-2.527c0,-1.386 1.141,-2.526 2.527,-2.526c1.386,0 2.526,1.14 2.526,2.526" style="fill:#e2e2e2;"/><path d="M371.862,309.733l0,30.153l5.966,0l0,-16.657c0,-2.478 1.962,-4.507 4.359,-4.507c2.399,0 4.36,2.029 4.36,4.507l0,16.657l11.49,0l0,-16.657c0,-2.478 1.963,-4.507 4.36,-4.507c2.399,0 4.36,2.029 4.36,4.507l0,16.657l6.459,0l0,-30.153l-41.354,0Z" style="fill:#fff;"/><path d="M408.257,338.386l3.458,0l0,-27.153l-38.353,0l0,27.153l2.965,0l0,-15.156c0,-3.313 2.63,-6.007 5.86,-6.007c3.231,0 5.86,2.694 5.86,6.007l0,15.157l8.49,0l0,-15.157c0,-3.313 2.63,-6.007 5.861,-6.007c3.23,0 5.86,2.694 5.86,6.007l0,15.157l-0.001,-0.001Zm6.458,3l-9.458,0l0,-18.156c0,-1.658 -1.282,-3.007 -2.859,-3.007c-1.578,0 -2.86,1.35 -2.86,3.007l0,18.157l-14.49,0l0,-18.157c0,-1.658 -1.284,-3.007 -2.86,-3.007c-1.578,0 -2.86,1.35 -2.86,3.007l0,18.157l-8.966,0l0,-33.154l44.353,0l0,33.153Z" style="fill:#454bdb;"/><path d="M373.066,341.256l-2.406,0c-0.51,0 -0.92,-0.702 -0.92,-1.572l0,-29.064l4.246,0l0,29.065c0,0.87 -0.412,1.572 -0.92,1.572m20.463,-0.001l-2.405,0c-0.51,0 -0.921,-0.702 -0.921,-1.572l0,-29.064l4.247,0l0,29.065c0,0.87 -0.412,1.572 -0.921,1.572m20.463,-0.001l-2.404,0c-0.51,0 -0.921,-0.702 -0.921,-1.572l0,-29.064l4.247,0l0,29.065c0,0.87 -0.413,1.572 -0.921,1.572" style="fill:#f2f2f2;"/><path d="M371.242,339.756l1.243,0l0.002,-0.072l0,-27.564l-1.247,0l0,27.565c0,0.025 0,0.05 0.002,0.072m1.824,3l-2.406,0c-1.38,0 -2.42,-1.32 -2.42,-3.072l0,-30.565l7.247,0l0,30.565c0,1.752 -1.041,3.072 -2.421,3.072m18.639,-3.001l1.244,0l0.002,-0.072l0,-27.564l-1.249,0l0,27.565c0,0.025 0,0.05 0.002,0.072m1.825,3l-2.406,0c-1.38,0 -2.421,-1.32 -2.421,-3.072l0,-30.565l7.248,0l0,30.565c0,1.752 -1.041,3.072 -2.421,3.072m18.64,-3.001l1.242,0c0.002,-0.022 0.003,-0.047 0.003,-0.072l0,-27.564l-1.247,0l0,27.565c0,0.025 0,0.05 0.002,0.072m1.824,3l-2.406,0c-1.38,0 -2.42,-1.32 -2.42,-3.072l0,-30.565l7.246,0l0,30.565c0,1.752 -1.04,3.072 -2.42,3.072" style="fill:#454bdb;"/><rect x="368.003" y="339.886" width="49.149" height="3.971" style="fill:#e2e2e2;"/><path d="M369.502,341.357l46.149,0l0,-0.971l-46.149,0l0,0.971Zm-2.999,3l52.149,0l0,-6.971l-52.149,0l0,6.971Z" style="fill:#454bdb;"/><rect x="364.419" y="343.329" width="56.312" height="4.547" style="fill:#fff;"/><path d="M365.919,346.375l53.312,0l0,-1.547l-53.312,0l0,1.547Zm-3,3l59.312,0l0,-7.547l-59.312,0l0,7.547Z" style="fill:#454bdb;"/><rect x="364.724" y="306.719" width="54.908" height="3.526" style="fill:#fff;"/><path d="M366.224,308.746l51.908,0l0,-0.526l-51.908,0l0,0.526Zm-3,3l57.908,0l0,-6.526l-57.908,0l0,6.526Z" style="fill:#454bdb;"/><g><path d="M359.898,280.537l-11.447,0l0,35.753l11.447,-4.65l11.447,4.65l0,-35.753l-11.447,0Z" style="fill:#38d2de;"/><path d="M372.845,318.519l-12.947,-5.258l-12.948,5.258l0,-9.248l3,0l0,4.791l9.948,-4.039l9.947,4.039l0,-32.025l-21.395,0l0,-3l24.395,0l0,39.482Z" style="fill:#454bdb;"/><rect x="346.951" y="296.833" width="3" height="9.161" style="fill:#454bdb;"/><path d="M388.705,269.646c0,3.716 -3.428,6.725 -4.768,9.956c-1.39,3.35 -1.145,7.889 -3.67,10.413c-2.524,2.525 -7.062,2.28 -10.412,3.67c-3.232,1.34 -6.24,4.768 -9.957,4.768c-3.716,0 -6.725,-3.428 -9.957,-4.768c-3.35,-1.39 -7.887,-1.145 -10.413,-3.67c-2.524,-2.525 -2.28,-7.062 -3.67,-10.413c-1.34,-3.231 -4.766,-6.24 -4.766,-9.956c0,-3.717 3.427,-6.726 4.767,-9.957c1.389,-3.351 1.146,-7.89 3.67,-10.413c2.525,-2.525 7.063,-2.28 10.412,-3.67c3.232,-1.34 6.24,-4.768 9.957,-4.768c3.717,0 6.725,3.428 9.957,4.768c3.35,1.39 7.888,1.145 10.412,3.67c2.526,2.525 2.28,7.063 3.67,10.413c1.34,3.23 4.768,6.24 4.768,9.957" style="fill:#fff;"/><path d="M359.898,242.338c-1.907,0 -3.718,1.207 -5.634,2.485c-1.197,0.798 -2.434,1.623 -3.749,2.168c-1.374,0.571 -2.876,0.88 -4.327,1.181c-2.226,0.46 -4.328,0.895 -5.599,2.164c-1.27,1.271 -1.705,3.374 -2.165,5.601c-0.299,1.451 -0.61,2.952 -1.179,4.326c-0.545,1.313 -1.37,2.551 -2.168,3.747c-1.279,1.917 -2.486,3.727 -2.486,5.636c0,1.907 1.207,3.717 2.486,5.633c0.798,1.198 1.623,2.435 2.168,3.748c0.569,1.374 0.88,2.875 1.179,4.327c0.46,2.226 0.894,4.33 2.164,5.6c1.271,1.27 3.373,1.704 5.6,2.164c1.451,0.3 2.953,0.611 4.328,1.181c1.314,0.545 2.551,1.37 3.748,2.168c1.916,1.278 3.727,2.485 5.634,2.485c1.907,0 3.718,-1.207 5.634,-2.485c1.197,-0.798 2.434,-1.623 3.749,-2.168c1.374,-0.57 2.876,-0.88 4.327,-1.18c2.226,-0.46 4.328,-0.895 5.599,-2.165c1.27,-1.27 1.705,-3.374 2.165,-5.6c0.299,-1.452 0.61,-2.953 1.179,-4.327c0.545,-1.313 1.37,-2.55 2.168,-3.748c1.279,-1.916 2.486,-3.726 2.486,-5.633c0,-1.909 -1.207,-3.719 -2.486,-5.636c-0.798,-1.196 -1.623,-2.434 -2.168,-3.747c-0.569,-1.374 -0.88,-2.875 -1.179,-4.326c-0.46,-2.227 -0.894,-4.33 -2.164,-5.6c-1.271,-1.27 -3.373,-1.705 -5.6,-2.165c-1.451,-0.3 -2.953,-0.61 -4.328,-1.18c-1.314,-0.546 -2.551,-1.37 -3.748,-2.169c-1.916,-1.278 -3.727,-2.485 -5.634,-2.485m0,57.614c-2.816,0 -5.197,-1.588 -7.299,-2.989c-1.126,-0.75 -2.189,-1.46 -3.232,-1.893c-1.113,-0.46 -2.411,-0.729 -3.786,-1.013c-2.561,-0.53 -5.208,-1.076 -7.114,-2.982c-1.905,-1.906 -2.452,-4.553 -2.981,-7.114c-0.284,-1.375 -0.552,-2.674 -1.013,-3.785c-0.431,-1.042 -1.141,-2.106 -1.892,-3.232c-1.402,-2.1 -2.99,-4.483 -2.99,-7.298c0,-2.817 1.588,-5.199 2.99,-7.3c0.751,-1.126 1.461,-2.19 1.892,-3.232c0.461,-1.11 0.729,-2.41 1.013,-3.784c0.529,-2.56 1.077,-5.21 2.982,-7.115c1.906,-1.905 4.552,-2.452 7.113,-2.98c1.375,-0.286 2.673,-0.554 3.785,-1.015c1.044,-0.433 2.107,-1.142 3.233,-1.893c2.102,-1.4 4.483,-2.989 7.299,-2.989c2.816,0 5.197,1.588 7.299,2.99c1.126,0.75 2.189,1.46 3.232,1.892c1.113,0.461 2.411,0.73 3.786,1.014c2.561,0.53 5.208,1.076 7.114,2.981c1.905,1.906 2.452,4.554 2.981,7.114c0.284,1.375 0.552,2.674 1.013,3.785c0.431,1.042 1.141,2.106 1.892,3.232c1.402,2.101 2.99,4.483 2.99,7.3c0,2.815 -1.588,5.197 -2.99,7.298c-0.751,1.126 -1.461,2.19 -1.892,3.232c-0.461,1.111 -0.729,2.41 -1.013,3.784c-0.529,2.562 -1.077,5.21 -2.982,7.115c-1.906,1.906 -4.552,2.452 -7.113,2.982c-1.375,0.284 -2.673,0.552 -3.785,1.013c-1.044,0.433 -2.107,1.142 -3.233,1.893c-2.102,1.401 -4.483,2.99 -7.299,2.99" style="fill:#454bdb;"/><path d="M359.898,242.338c-1.907,0 -3.718,1.207 -5.634,2.485c-1.197,0.798 -2.434,1.623 -3.749,2.168c-1.374,0.571 -2.876,0.88 -4.327,1.181c-2.226,0.46 -4.328,0.895 -5.599,2.164c-1.27,1.271 -1.705,3.374 -2.165,5.601c-0.299,1.451 -0.61,2.952 -1.179,4.326c-0.545,1.313 -1.37,2.551 -2.168,3.747c-1.279,1.917 -2.486,3.727 -2.486,5.636c0,1.907 1.207,3.717 2.486,5.633c0.798,1.198 1.623,2.435 2.168,3.748c0.569,1.374 0.88,2.875 1.179,4.327c0.46,2.226 0.894,4.33 2.164,5.6c1.271,1.27 3.373,1.704 5.6,2.164c1.451,0.3 2.953,0.611 4.328,1.181c1.314,0.545 2.551,1.37 3.748,2.168c1.916,1.278 3.727,2.485 5.634,2.485c1.907,0 3.718,-1.207 5.634,-2.485c1.197,-0.798 2.434,-1.623 3.749,-2.168c1.374,-0.57 2.876,-0.88 4.327,-1.18c2.226,-0.46 4.328,-0.895 5.599,-2.165c1.27,-1.27 1.705,-3.374 2.165,-5.6c0.299,-1.452 0.61,-2.953 1.179,-4.327c0.545,-1.313 1.37,-2.55 2.168,-3.748c1.279,-1.916 2.486,-3.726 2.486,-5.633c0,-1.909 -1.207,-3.719 -2.486,-5.636c-0.798,-1.196 -1.623,-2.434 -2.168,-3.747c-0.569,-1.374 -0.88,-2.875 -1.179,-4.326c-0.46,-2.227 -0.894,-4.33 -2.164,-5.6c-1.271,-1.27 -3.373,-1.705 -5.6,-2.165c-1.451,-0.3 -2.953,-0.61 -4.328,-1.18c-1.314,-0.546 -2.551,-1.37 -3.748,-2.169c-1.916,-1.278 -3.727,-2.485 -5.634,-2.485m0,57.614c-2.816,0 -5.197,-1.588 -7.299,-2.989c-1.126,-0.75 -2.189,-1.46 -3.232,-1.893c-1.113,-0.46 -2.411,-0.729 -3.786,-1.013c-2.561,-0.53 -5.208,-1.076 -7.114,-2.982c-1.905,-1.906 -2.452,-4.553 -2.981,-7.114c-0.284,-1.375 -0.552,-2.674 -1.013,-3.785c-0.431,-1.042 -1.141,-2.106 -1.892,-3.232c-1.402,-2.1 -2.99,-4.483 -2.99,-7.298c0,-2.817 1.588,-5.199 2.99,-7.3c0.751,-1.126 1.461,-2.19 1.892,-3.232c0.461,-1.11 0.729,-2.41 1.013,-3.784c0.529,-2.56 1.077,-5.21 2.982,-7.115c1.906,-1.905 4.552,-2.452 7.113,-2.98c1.375,-0.286 2.673,-0.554 3.785,-1.015c1.044,-0.433 2.107,-1.142 3.233,-1.893c2.102,-1.4 4.483,-2.989 7.299,-2.989c2.816,0 5.197,1.588 7.299,2.99c1.126,0.75 2.189,1.46 3.232,1.892c1.113,0.461 2.411,0.73 3.786,1.014c2.561,0.53 5.208,1.076 7.114,2.981c1.905,1.906 2.452,4.554 2.981,7.114c0.284,1.375 0.552,2.674 1.013,3.785c0.431,1.042 1.141,2.106 1.892,3.232c1.402,2.101 2.99,4.483 2.99,7.3c0,2.815 -1.588,5.197 -2.99,7.298c-0.751,1.126 -1.461,2.19 -1.892,3.232c-0.461,1.111 -0.729,2.41 -1.013,3.784c-0.529,2.562 -1.077,5.21 -2.982,7.115c-1.906,1.906 -4.552,2.452 -7.113,2.982c-1.375,0.284 -2.673,0.552 -3.785,1.013c-1.044,0.433 -2.107,1.142 -3.233,1.893c-2.102,1.401 -4.483,2.99 -7.299,2.99" style="fill:#454bdb;"/><path d="M378.884,269.646c0,10.485 -8.5,18.986 -18.986,18.986c-10.487,0 -18.987,-8.501 -18.987,-18.986c0,-10.486 8.5,-18.987 18.987,-18.987c10.485,0 18.986,8.5 18.986,18.987" style="fill:#4178da;"/><path d="M359.898,252.159c-9.642,0 -17.486,7.845 -17.486,17.487c0,9.642 7.844,17.487 17.486,17.487c9.642,0 17.486,-7.845 17.486,-17.487c0,-9.642 -7.844,-17.487 -17.486,-17.487m0,37.974c-11.296,0 -20.486,-9.191 -20.486,-20.487c0,-11.297 9.19,-20.487 20.486,-20.487c11.296,0 20.486,9.19 20.486,20.487c0,11.296 -9.19,20.487 -20.486,20.487" style="fill:#454bdb;"/><path d="M358.93,238.09l0,-6.3l3,0l0,6.3l-3,0Zm13.779,2.355l-2.819,-1.027l2.157,-5.92l2.818,1.028l-2.157,5.919l0.001,0Zm9.322,5.902l-2.297,-1.93l4.052,-4.823l2.297,1.93l-4.052,4.823Zm6.737,8.737l-1.498,-2.6l5.46,-3.144l1.497,2.6l-5.459,3.144Zm3.34,10.515l-0.518,-2.955l6.206,-1.086l0.518,2.955l-6.206,1.086Zm5.741,12.128l-6.202,-1.104l0.525,-2.954l6.202,1.105l-0.525,2.953Zm-4.96,12.257l-5.45,-3.161l1.506,-2.596l5.45,3.16l-1.507,2.597l0.001,0Zm-8.857,9.816l-4.038,-4.836l2.303,-1.922l4.038,4.836l-2.303,1.922Zm-46.612,0.145l-2.29,-1.937l4.066,-4.812l2.291,1.937l-4.067,4.812Zm-8.914,-9.773l-1.49,-2.604l5.468,-3.128l1.49,2.603l-5.468,3.13l0,-0.001Zm-5.029,-12.232l-0.509,-2.957l6.208,-1.067l0.508,2.957l-6.208,1.067l0.001,0Zm5.66,-12.095l-6.2,-1.122l0.535,-2.95l6.2,1.121l-0.536,2.951l0.001,0Zm3.258,-10.549l-5.44,-3.177l1.513,-2.59l5.441,3.177l-1.514,2.59Zm6.674,-8.795l-4.024,-4.847l2.308,-1.916l4.025,4.847l-2.31,1.916l0.001,0Zm9.281,-5.98l-2.122,-5.931l2.824,-1.01l2.122,5.932l-2.824,1.01l0,-0.001Z" style="fill:#454bdb;"/><path d="M340.866,303.585c0,0.013 0,0.027 0,0.04c0,0.88 0.724,1.604 1.604,1.604c0.88,0 1.604,-0.724 1.604,-1.604c0,-0.013 0,-0.027 -0.001,-0.04c-0.021,-0.865 -0.738,-1.564 -1.603,-1.564c-0.865,0 -1.582,0.699 -1.604,1.564m-8.382,7.693c0,0 0,0.001 0,0.001c0,1.116 0.918,2.034 2.034,2.034c1.116,0 2.034,-0.918 2.034,-2.033c0,0 0,-0.001 0,-0.001c0,-1.116 -0.918,-2.034 -2.034,-2.034c-1.115,0 -2.033,0.918 -2.034,2.033" style="fill:#38d2de;"/><path d="M324.581,301.165c0,0.019 0,0.037 0,0.056c0,1.698 1.397,3.095 3.095,3.095c1.698,0 3.095,-1.397 3.095,-3.095c0,-0.018 0,-0.037 -0.001,-0.055c0,-1.698 -1.397,-3.095 -3.095,-3.095c-1.698,0 -3.095,1.397 -3.095,3.095" style="fill:#e2e2e2;"/></g><path d="M371.448,267.811c0,-0.001 0,-0.001 0,-0.001c0,-3.697 -3.042,-6.739 -6.739,-6.739c-0.001,0 -0.002,0 -0.003,0c-1.885,0 -3.583,0.774 -4.808,2.026c-1.262,-1.297 -2.998,-2.028 -4.808,-2.026c-0.001,0 -0.002,0 -0.003,0c-3.697,0 -6.739,3.042 -6.739,6.739c0,0 0,0.001 0,0.002c0,1.813 0.72,3.457 1.888,4.667l9.635,9.586l9.88,-9.793c0.106,-0.125 0.386,-0.478 0.386,-0.478c0.851,-1.153 1.311,-2.549 1.311,-3.982" style="fill:#fff;"/></g><g><path d="M740.003,325.462l-82.454,0l0,-44.821c0,-2.317 1.907,-4.223 4.223,-4.223l74.008,0c2.317,0 4.223,1.906 4.223,4.223l0,44.821Z" style="fill:#38d2de;"/><path d="M741.503,296.976l-3,0l0,-16.336c-0.002,-1.493 -1.23,-2.721 -2.723,-2.723l-50.212,0l0,-3l50.212,0c3.138,0.004 5.719,2.585 5.723,5.723l0,16.336Zm-66.149,-19.058l6.171,0l0,-3l-6.171,0l0,3Z" style="fill:#454bdb;"/><path d="M740.003,326.962l-83.954,0l0,-46.321c0.004,-3.138 2.585,-5.719 5.723,-5.723l10.52,0l0,3l-10.52,0c-1.493,0.002 -2.72,1.23 -2.723,2.723l0,43.32l80.954,0l0,3.001Z" style="fill:#454bdb;"/><path d="M661.978,321.725l73.597,0l0,-38.736l-73.597,0l0,38.736Zm24.332,27.65l24.842,0l0,-14.706l-24.842,0l0,14.706Z" style="fill:#fff;"/><clipPath id="_clip2"><path d="M661.978,321.725l73.597,0l0,-38.736l-73.597,0l0,38.736Zm24.332,27.65l24.842,0l0,-14.706l-24.842,0l0,14.706Z"/></clipPath><g clip-path="url(#_clip2)"><g id="_-000000ff1" serif:id="#000000ff"><path d="M672.333,295.407c0.149,-0.539 0.091,-1.638 0.914,-1.539c0.819,-0.103 0.766,1.004 0.914,1.535c0.639,0.184 0.93,0.069 1.392,0.449c0.464,0.382 0.036,1.039 -0.394,1.18c-0.32,0.105 -0.664,0.125 -0.99,0.211c-0.173,0.597 -0.103,1.507 -0.918,1.59c-0.819,-0.079 -0.765,-0.988 -0.922,-1.59c-0.523,-0.168 -1.618,-0.098 -1.531,-0.905c-0.099,-0.824 0.996,-0.774 1.535,-0.931" style="fill:#454bdb;fill-rule:nonzero;"/><path d="M690.566,296.313c-0.103,-1.078 1.244,-0.786 1.911,-0.687c2.07,0.559 4.009,1.696 6.224,1.63c0.033,1.074 0.128,2.153 0.037,3.227c0.045,0.651 -0.729,0.811 -1.223,0.708c-1.897,-0.057 -3.359,-1.576 -5.265,-1.65c-0.218,3.412 0.132,6.846 -0.193,10.246c-0.437,2.301 -3.368,2.524 -5.171,1.84c-1.861,-0.662 -1.675,-3.816 0.214,-4.326c1.046,-0.428 2.454,0.008 3.285,-0.84c0.387,-3.359 -0.004,-6.772 0.181,-10.148" style="fill:#454bdb;fill-rule:nonzero;"/><path d="M666.54,303.85c0.353,-0.009 0.778,0.365 0.984,0.563c0.403,0.388 0.807,0.893 0.46,1.443c-0.117,0.185 -0.239,0.37 -0.385,0.533c-0.189,0.21 -0.587,0.614 -0.939,0.624c-0.358,0.01 -0.801,-0.374 -1.01,-0.57c-0.409,-0.383 -0.848,-0.895 -0.479,-1.448c0.124,-0.184 0.252,-0.367 0.404,-0.528c0.197,-0.208 0.61,-0.607 0.965,-0.617" style="fill:#454bdb;fill-rule:nonzero;"/></g></g><rect x="686.355" y="332.894" width="24.842" height="7.353" style="fill:#e2e2e2;"/><path d="M687.855,346.1l21.841,0l0,-11.706l-21.841,0l0,11.706Zm-3,3l27.841,0l0,-17.706l-27.841,0l0,17.706Z" style="fill:#454bdb;"/><path d="M740.003,323.661l-82.454,0l0,6.856c0.001,2.347 1.932,4.278 4.279,4.279l73.896,0c2.347,-0.001 4.278,-1.932 4.278,-4.279l0,-6.856l0.001,0Z" style="fill:#fff;"/><path d="M717.744,336.296l-55.918,0c-3.168,-0.003 -5.774,-2.61 -5.778,-5.778l0,-8.357l61.696,0l0,3l-58.695,0l0,5.357c0.001,1.524 1.255,2.777 2.778,2.778l55.917,0l0,3Z" style="fill:#454bdb;"/><g><path d="M667.395,260.166c0.002,0.034 0.002,0.068 0.002,0.103c0,1.474 -1.213,2.687 -2.687,2.687c-1.474,0 -2.687,-1.213 -2.687,-2.687c0,-0.035 0.001,-0.07 0.002,-0.105c0.056,-1.433 1.251,-2.582 2.685,-2.582c1.436,0 2.63,1.15 2.685,2.584" style="fill:#38d2de;"/><path d="M685.854,268.966c0,0.737 -0.606,1.343 -1.343,1.343c-0.736,0 -1.343,-0.606 -1.343,-1.343c0,-0.737 0.607,-1.343 1.343,-1.343c0.737,0 1.343,0.606 1.343,1.343" style="fill:#e2e2e2;"/></g><g><path d="M746.516,347.875l-22.038,0c-1.632,0 -2.975,-1.343 -2.975,-2.975l0,-42.071c0.001,-1.632 1.343,-2.974 2.975,-2.975l22.038,0c1.632,0.001 2.975,1.343 2.975,2.975l0,42.07c0,0 0,0.001 0,0.001c0,1.632 -1.343,2.975 -2.975,2.975" style="fill:#fff;"/><rect x="724.006" y="307.771" width="22.981" height="31.152" style="fill:#e2e2e2;"/><path d="M724.478,301.354c-0.813,0 -1.475,0.661 -1.475,1.475l0,42.071c0,0.813 0.662,1.475 1.475,1.475l22.038,0c0.813,0 1.474,-0.662 1.474,-1.475l0,-42.07c0,-0.815 -0.66,-1.476 -1.474,-1.476l-22.039,0l0.001,0Zm22.038,48.021l-22.039,0c-2.453,-0.003 -4.471,-2.022 -4.474,-4.475l0,-42.07c0.003,-2.454 2.021,-4.473 4.475,-4.476l22.038,0c2.454,0.003 4.472,2.022 4.474,4.475l0,42.071c-0.002,2.453 -2.02,4.472 -4.474,4.475Z" style="fill:#454bdb;"/><path d="M730.069,305.914l10.856,0l0,-3l-10.856,0l0,3Zm5.427,36.301c-0.006,0 -0.012,0 -0.018,0c-0.183,0 -0.333,0.15 -0.333,0.333c0,0.182 0.15,0.332 0.333,0.332c0.006,0 0.012,0 0.018,0c0.176,-0.01 0.315,-0.157 0.315,-0.332c0,-0.176 -0.139,-0.323 -0.315,-0.333m0,3c-1.462,-0.002 -2.664,-1.205 -2.666,-2.667c0.003,-1.462 1.205,-2.664 2.666,-2.666c1.462,0.002 2.665,1.204 2.667,2.666c-0.001,1.462 -1.204,2.665 -2.667,2.667" style="fill:#454bdb;"/></g><g><path d="M744.854,239.472l-55.113,0l-9.185,15.91l36.74,41.788l36.742,-41.788l-9.184,-15.91Z" style="fill:#fff;"/><path d="M698.928,255.382l-9.188,-15.91l-8.396,16.023l17.584,-0.113Zm18.086,-0.493l-8.902,-15.417l-8.886,15.392l17.788,0.025Z" style="fill:#38d2de;"/><path d="M735.811,255.382l-9.54,-15.368l-8.114,15.48l17.654,-0.112Z" style="fill:#e2e2e2;"/><path d="M717.296,255.382l0,39.004l17.95,-39.004l-17.95,0Z" style="fill:#38d2de;"/><path d="M681.344,255.382l0,0.388l35.115,39.497l-18.345,-39.885l-16.77,0Z" style="fill:#e2e2e2;"/><path d="M752.581,255.382l0,0.388l-35.115,39.497l18.344,-39.885l16.771,0Z" style="fill:#fff;"/><path d="M705.515,240.971l-13.177,0l6.589,11.41l6.588,-11.41Zm-3.991,12.912l13.177,0l-6.589,-11.41l-6.588,11.41Zm22.362,-12.91l-13.177,0l6.588,11.408l6.589,-11.409l0,0.001Zm-3.992,12.91l13.178,0l-6.59,-11.41l-6.588,11.41Zm22.36,-12.91l-2.715,0l0,-3l6.182,0l10.153,17.59l-38.58,43.878l-38.574,-43.877l10.154,-17.593l41.41,0l0,3l-1.204,0l6.587,11.407l6.588,-11.407l-0.001,0.002Zm2.6,1.498l-6.592,11.412l13.177,0l-6.585,-11.413l0,0.001Zm-55.114,0.002l-6.586,11.41l13.177,0l-6.59,-11.41l-0.001,0Zm29.056,14.41l0,32.196l14.152,-32.196l-14.152,0Zm-3,0l-14.57,0l14.57,33.149l0,-33.15l0,0.001Zm5.936,32.97l28.99,-32.97l-14.498,0l-14.492,32.97Zm-9.71,-0.951l-14.072,-32.02l-14.078,0l28.15,32.019l0,0.001Zm19.719,-47.929l0,-3l5.986,0l0,3l-5.986,0Z" style="fill:#454bdb;"/></g><g><path d="M735.904,234.22c0,1.142 -0.94,2.082 -2.082,2.082c-1.143,0 -2.083,-0.94 -2.083,-2.082c0,-1.142 0.94,-2.082 2.082,-2.082c1.142,0 2.082,0.94 2.082,2.082" style="fill:#38d2de;"/><path d="M698.497,282.423c0,1.142 -0.939,2.082 -2.081,2.082c-1.142,0 -2.082,-0.94 -2.082,-2.082c0,-1.142 0.94,-2.082 2.082,-2.082c1.142,0 2.081,0.94 2.081,2.082m-14.313,2.524c0,0 0,0.001 0,0.001c0,1.559 -1.282,2.841 -2.841,2.841c-1.558,0 -2.84,-1.282 -2.841,-2.84c0,0 0,-0.001 0,-0.001c0,-1.559 1.283,-2.841 2.841,-2.841c1.558,0 2.841,1.282 2.841,2.84m61.357,-57.948c0,1.572 -1.293,2.866 -2.866,2.866c-1.572,0 -2.866,-1.294 -2.866,-2.866c0,-1.572 1.294,-2.866 2.866,-2.866c1.573,0 2.866,1.294 2.866,2.866m-17.395,-5.914c0,1.859 -1.529,3.388 -3.388,3.388c-1.858,0 -3.388,-1.529 -3.388,-3.388c0,-1.859 1.53,-3.388 3.388,-3.388c1.859,0 3.388,1.529 3.388,3.388" style="fill:#e2e2e2;"/></g></g><g><path d="M538.062,517.169c0,11.032 -8.944,19.977 -19.977,19.977c-11.032,0 -19.975,-8.945 -19.975,-19.977c0,-11.033 8.943,-19.977 19.975,-19.977c11.033,0 19.977,8.944 19.977,19.977" style="fill:#fff;"/><path d="M518.086,538.646c-9.168,0.003 -17.372,-5.865 -20.332,-14.542l2.84,-0.97c2.546,7.466 9.604,12.515 17.492,12.512c10.188,0 18.476,-8.288 18.476,-18.477c0,-10.188 -8.288,-18.476 -18.476,-18.476l0,-3c11.842,0 21.476,9.635 21.476,21.476c0,11.842 -9.634,21.477 -21.476,21.477" style="fill:#454bdb;"/><path d="M528.514,517.169c0,5.76 -4.67,10.43 -10.43,10.43c-5.757,0 -10.426,-4.67 -10.426,-10.43c0,-5.76 4.669,-10.428 10.427,-10.428c5.76,0 10.429,4.67 10.429,10.43" style="fill:#e2e2e2;"/><path d="M518.086,516.65c-0.285,0 -0.52,0.235 -0.521,0.52c0,0.285 0.235,0.52 0.52,0.52c0.285,0 0.52,-0.235 0.52,-0.52c0,-0.285 -0.235,-0.52 -0.52,-0.52m0,3c-1.36,-0.001 -2.479,-1.12 -2.48,-2.48c0.001,-1.36 1.12,-2.48 2.48,-2.481c1.36,0.001 2.479,1.12 2.48,2.48c-0.001,1.36 -1.12,2.479 -2.48,2.48m-1.499,-17.269l0,-3.472l3,0l0,3.472l-3,0Zm10.205,2.74l-2.596,-1.502l1.74,-3.005l2.595,1.502l-1.739,3.005Zm4.864,5.982l-1.494,-2.602l3.01,-1.73l1.494,2.603l-3.01,1.729Zm4.686,7.624l-3.472,-0.011l0.01,-3l3.472,0.01l-0.01,3l0,0.001Zm-3.235,8.934l-2.999,-1.748l1.51,-2.592l3,1.748l-1.51,2.592l-0.001,0Zm-7.275,6.113l-1.72,-3.015l2.606,-1.486l1.719,3.015l-2.605,1.486Zm-6.336,1.674l-3,-0.02l0.022,-3.471l3,0.019l-0.022,3.472Zm-9.321,-1.748l-2.586,-1.52l1.759,-2.992l2.586,1.52l-1.76,2.992l0.001,0Zm-7.19,-6.183l-1.478,-2.611l3.023,-1.708l1.476,2.61l-3.022,1.709l0.001,0Zm0.3,-8.984l-3.472,-0.032l0.028,-3l3.47,0.032l-0.027,3l0.001,0Zm1.307,-7.598l-2.988,-1.767l1.527,-2.582l2.988,1.767l-1.527,2.582Zm4.938,-5.92l-1.7,-3.025l2.614,-1.471l1.701,3.025l-2.615,1.471Z" style="fill:#454bdb;"/><path d="M516.882,517.226l0.497,-12.284l1.413,0l0.496,12.284l-2.406,0Z" style="fill:#454bdb;"/><path d="M518.055,516.023l10.826,0.218l0.036,1.412l-10.8,0.775l-0.062,-2.405Z" style="fill:#454bdb;"/><g><path d="M494.263,481.715c-10.713,0.214 -19.225,9.072 -19.011,19.785c0.213,10.712 9.072,19.225 19.784,19.01c10.713,-0.213 19.225,-9.071 19.01,-19.783c-0.212,-10.714 -9.07,-19.226 -19.783,-19.012" style="fill:#38d2de;"/><path d="M494.751,486.714c-7.607,0.15 -13.651,6.44 -13.5,14.049c0.15,7.607 6.44,13.65 14.049,13.5c7.607,-0.152 13.65,-6.443 13.5,-14.05c-0.152,-7.606 -6.443,-13.651 -14.05,-13.5" style="fill:#fff;"/><path d="M495.045,521.541c-11.333,0 -20.664,-9.104 -20.892,-20.484c-0.075,-3.286 0.634,-6.543 2.069,-9.5l2.7,1.303c-1.228,2.533 -1.835,5.322 -1.77,8.136c0.198,9.87 8.392,17.775 18.256,17.541c9.868,-0.196 17.738,-8.386 17.54,-18.254c-0.081,-4.748 -2.061,-9.272 -5.494,-12.553c-3.448,-3.312 -7.993,-5.116 -12.76,-4.989c-2.347,0.043 -4.663,0.549 -6.813,1.49l-1.203,-2.75c2.511,-1.098 5.215,-1.69 7.956,-1.74c5.542,-0.124 10.91,1.975 14.899,5.825c4.008,3.831 6.32,9.113 6.415,14.657c0.229,11.522 -8.96,21.084 -20.48,21.314c-0.142,0.003 -0.283,0.004 -0.424,0.004" style="fill:#454bdb;"/><path d="M479.944,491.031l-2.529,-1.614c0.69,-1.08 1.48,-2.1 2.35,-3.033l2.193,2.047c-0.749,0.804 -1.423,1.674 -2.014,2.6m3.308,-3.854l-1.98,-2.254c1.145,-1.006 2.397,-1.883 3.733,-2.616l1.443,2.629c-1.143,0.629 -2.215,1.381 -3.196,2.241" style="fill:#454bdb;"/></g><clipPath id="_clip3"><rect x="483.11" y="491.364" width="23.831" height="18.247"/></clipPath><g clip-path="url(#_clip3)"><path d="M483.11,481.125c1.048,0 2.103,0.007 3.151,0.007c2.908,5.371 5.836,10.729 8.764,16.094c2.968,-5.352 5.942,-10.703 8.876,-16.075c1.016,0 2.024,-0.026 3.04,-0.033c-3.072,5.385 -6.204,10.737 -9.289,16.121c1.612,0 3.223,0 4.841,0.007c0,0.491 0.007,1.467 0.007,1.952c-2.011,-0.013 -4.016,0 -6.02,0.065c0,1.199 -0.013,2.404 -0.013,3.61c2.004,-0.007 4.015,0.006 6.026,0.006c0,0.485 0,1.467 -0.007,1.952c-2.004,0 -4.008,0.013 -6.019,0.007c-0.007,2.574 0.006,5.148 0,7.723c-0.917,0 -1.835,0.006 -2.752,0.006c-0.006,-2.574 0.007,-5.155 -0.006,-7.729c-1.959,0.006 -3.924,0 -5.889,0c0,-0.492 0,-1.474 0,-1.965c1.965,0.006 3.93,-0.007 5.895,0c-0.006,-1.206 -0.013,-2.411 -0.013,-3.616c-1.958,-0.053 -3.917,-0.079 -5.882,-0.046c0,-0.491 0,-1.474 0,-1.965c1.526,-0.007 3.046,-0.007 4.572,-0.007c-3.072,-5.384 -6.203,-10.736 -9.282,-16.114Z" style="fill:#454bdb;fill-rule:nonzero;"/></g><g><path d="M576.055,438.378c-0.001,0.737 -0.607,1.343 -1.344,1.343c-0.737,0 -1.344,-0.607 -1.344,-1.344c0,0 0,-0.001 0,-0.001c0.001,-0.737 0.607,-1.343 1.344,-1.343c0.737,0 1.344,0.607 1.344,1.344c0,0 0,0.001 0,0.001" style="fill:#38d2de;"/><path d="M506.991,438.701c-0.001,0.737 -0.607,1.343 -1.344,1.343c-0.737,0 -1.344,-0.607 -1.344,-1.344c0,0 0,-0.001 0,-0.001c0.001,-0.737 0.607,-1.342 1.344,-1.342c0.737,0 1.344,0.606 1.344,1.344c0,0 0,0.001 0,0.001m59.759,-15.291c0,0.968 -0.796,1.764 -1.764,1.764c-0.967,0 -1.763,-0.796 -1.763,-1.764c0,-0.967 0.796,-1.763 1.764,-1.763c0.967,0 1.763,0.796 1.763,1.763" style="fill:#e2e2e2;"/><path d="M495.409,426.342c0,0.967 -0.796,1.763 -1.763,1.763c-0.967,0 -1.763,-0.796 -1.763,-1.763c0,-0.967 0.796,-1.763 1.763,-1.763c0.967,0 1.763,0.796 1.763,1.763" style="fill:#38d2de;"/><path d="M585,424.507c0,1.778 -1.463,3.24 -3.24,3.24c-1.777,0 -3.24,-1.462 -3.24,-3.24c0,-1.777 1.463,-3.24 3.24,-3.24c1.777,0 3.24,1.463 3.24,3.24m-66.695,-2.504c0,1.258 -1.035,2.293 -2.293,2.293c-1.258,0 -2.293,-1.036 -2.293,-2.293c0,-0.001 0,-0.001 0,-0.001c0,-1.258 1.035,-2.292 2.293,-2.292c1.258,0 2.293,1.035 2.293,2.293c0,0 0,0 0,0" style="fill:#e2e2e2;"/><path d="M538.734,438.656c-16.976,0.338 -30.463,14.374 -30.124,31.35c0.338,16.974 14.374,30.462 31.35,30.124c16.974,-0.338 30.461,-14.374 30.123,-31.35c-0.338,-16.976 -14.375,-30.463 -31.349,-30.124" style="fill:#f2f2f2;"/><path d="M568.154,464.337c-2.419,-13.882 -14.749,-24.186 -28.813,-24.186c-2.621,-0.001 -5.229,0.35 -7.757,1.041l-0.795,-2.892c2.581,-0.707 5.24,-1.091 7.916,-1.143c15.755,-0.299 29.701,11.15 32.404,26.665l-2.955,0.516l0,-0.001Zm-57.774,1.023l-2.973,-0.41c0.679,-4.872 2.464,-9.525 5.217,-13.602l2.485,1.682c-2.496,3.695 -4.114,7.913 -4.73,12.33m8.124,-16.477l-2.14,-2.104c2.762,-2.813 6.017,-5.094 9.604,-6.73l1.246,2.73c-3.253,1.484 -6.205,3.553 -8.71,6.104m22.344,25.268l0,4.735l-3,0l0,-4.734l-6.474,0l0,-3l6.475,0l0,-4.541l-0.385,0c-2.89,-0.003 -5.267,-2.38 -5.27,-5.27c0.004,-2.889 2.381,-5.265 5.27,-5.268l0.385,0l0,-4.735l3,0l0,4.735l6.474,0l0,3l-6.474,0l0,4.539l0.674,0c2.889,0.003 5.266,2.38 5.27,5.269c-0.003,2.89 -2.38,5.267 -5.27,5.27l-0.674,0l-0.001,0Zm0,-3l0.674,0c1.245,-0.002 2.268,-1.025 2.27,-2.27c-0.003,-1.244 -1.026,-2.266 -2.27,-2.268l-0.673,0l0,4.539l-0.001,-0.001Zm-3,-12.077l-0.385,0c-1.244,0.001 -2.268,1.025 -2.27,2.269c0.002,1.245 1.025,2.268 2.27,2.27l0.385,0l0,-4.54l0,0.001Z" style="fill:#454bdb;"/><path d="M553.118,469.683c0,7.612 -6.15,13.764 -13.744,13.764c-7.603,0 -13.762,-6.152 -13.762,-13.764l-27.452,0.32l0,2.033c-0.013,2.384 1.921,4.334 4.316,4.355l6.688,0.02c0.765,3.424 2.114,6.691 3.987,9.657l-4.767,4.75c-1.69,1.677 -1.7,4.417 -0.01,6.119l3.52,3.552c0.813,0.825 1.923,1.29 3.081,1.29c1.145,0 2.244,-0.455 3.055,-1.264l4.758,-4.718c2.967,1.887 6.234,3.254 9.66,4.042l-0.027,6.689c0,0.007 0,0.013 0,0.02c0,2.371 1.949,4.324 4.32,4.328l5.016,0.02c2.394,0 4.341,-1.923 4.341,-4.31l0.021,-6.707c3.427,-0.774 6.698,-2.125 9.673,-3.993l4.73,4.764c1.684,1.688 4.438,1.688 6.147,0l3.535,-3.54c1.701,-1.681 1.711,-4.436 0.004,-6.116l-4.705,-4.758c1.879,-2.97 3.237,-6.238 4.017,-9.665l6.696,0.02c2.376,0 4.333,-1.952 4.341,-4.328l0,-2.836l-27.439,0.256Z" style="fill:#fff;"/><path d="M522.58,493.891l1.01,0.639c2.823,1.795 5.932,3.096 9.192,3.847l1.171,0.268l-0.032,7.889c-0.005,0.754 0.294,1.48 0.828,2.012c0.533,0.535 1.24,0.83 1.992,0.83l5.022,0.02c1.561,0 2.837,-1.26 2.837,-2.81l0.023,-7.908l1.167,-0.263c3.262,-0.735 6.375,-2.02 9.205,-3.8l1.017,-0.637l5.574,5.615c1.098,1.1 2.906,1.097 4.028,-0.011l3.529,-3.532c0.54,-0.528 0.843,-1.252 0.841,-2.007c0.002,-0.744 -0.297,-1.459 -0.829,-1.98l-5.556,-5.62l0.635,-1.007c1.788,-2.825 3.082,-5.935 3.824,-9.196l0.265,-1.173l7.899,0.024c1.552,-0.007 2.828,-1.282 2.836,-2.834l0,-1.316l-24.511,0.228c-0.749,7.722 -7.268,13.778 -15.173,13.778c-7.903,0 -14.424,-6.04 -15.187,-13.747l-24.526,0.286l0,0.55c-0.004,1.558 1.271,2.844 2.828,2.855l7.875,0.024l0.263,1.166c0.727,3.256 2.01,6.363 3.792,9.184l0.643,1.017l-5.62,5.599c-1.097,1.096 -1.099,2.9 -0.005,3.999l3.523,3.553c0.531,0.54 1.257,0.845 2.014,0.845l0.005,0c0.752,0 1.459,-0.292 1.991,-0.824l5.61,-5.563Zm19.177,18.505l-5.022,-0.02c-1.544,0.002 -3.025,-0.615 -4.111,-1.712c-1.099,-1.096 -1.713,-2.589 -1.703,-4.142l0.022,-5.512c-2.78,-0.749 -5.447,-1.866 -7.931,-3.322l-3.925,3.892c-1.087,1.091 -2.567,1.703 -4.107,1.698l-0.013,0c-1.555,0.001 -3.048,-0.625 -4.138,-1.734l-3.521,-3.551c-1.092,-1.095 -1.703,-2.581 -1.697,-4.128c-0.001,-1.544 0.618,-3.026 1.716,-4.112l3.931,-3.916c-1.442,-2.484 -2.543,-5.152 -3.272,-7.93l-5.514,-0.016c-3.226,-0.027 -5.829,-2.658 -5.811,-5.864l0,-3.506l30.451,-0.356l0,1.518c0,6.763 5.501,12.264 12.262,12.264c6.751,0 12.244,-5.501 12.244,-12.264l0,-1.486l30.44,-0.284l0,4.35c-0.013,3.217 -2.634,5.828 -5.841,5.828l-5.523,-0.016c-0.742,2.781 -1.853,5.45 -3.302,7.937l3.882,3.927c1.098,1.08 1.715,2.56 1.71,4.1c0.007,1.555 -0.615,3.049 -1.725,4.139l-3.529,3.532c-2.299,2.27 -6.007,2.268 -8.27,-0.001l-3.903,-3.931c-2.49,1.44 -5.161,2.543 -7.942,3.279l-0.015,5.534c0,3.199 -2.622,5.805 -5.843,5.805Zm-4.71,-78.624l0,-4.371l3,0l0,4.371l-3,0Zm15.154,2.392l-2.818,-1.027l3.548,-9.737l2.82,1.028l-3.55,9.736Zm10.6,6.41l-2.296,-1.93l3.334,-3.965l2.297,1.928l-3.334,3.967l-0.001,0Zm7.765,9.653l-1.496,-2.6l8.981,-5.171l1.496,2.6l-8.98,5.17l-0.001,0.001Zm3.992,11.726l-0.516,-2.955l5.127,-0.895l0.516,2.955l-5.127,0.895Zm-70.677,1.315l-5.098,-0.963l0.557,-2.947l5.098,0.963l-0.557,2.947Zm3.564,-11.889l-8.943,-5.236l1.515,-2.59l8.944,5.236l-1.516,2.59Zm7.411,-9.955l-3.118,-3.766l2.31,-1.914l3.12,3.766l-2.312,1.914Zm10.373,-6.816l-3.477,-9.763l2.827,-1.006l3.476,9.763l-2.826,1.006Z" style="fill:#454bdb;"/></g></g></svg>