<svg clip-rule="evenodd" fill-rule="evenodd" stroke-linejoin="round" stroke-miterlimit="1.41421" viewBox="0 0 16 16" xmlns="http://www.w3.org/2000/svg"><path d="m10.998 16h-5.988c-.191 0-.382 0-.573-.001-.161-.001-.322-.003-.483-.007-.352-.005-.703-.036-1.05-.093-.348-.059-.684-.17-.999-.329-.632-.322-1.146-.836-1.468-1.468-.159-.315-.27-.652-.329-.999-.057-.347-.088-.698-.093-1.05-.004-.161-.006-.322-.007-.483-.001-.191-.001-.382-.001-.573v-5.987c0-.192 0-.383.001-.574.001-.161.003-.322.007-.483.005-.351.036-.702.093-1.049.059-.348.17-.685.329-1 .322-.632.836-1.146 1.468-1.468.315-.158.651-.27.999-.329.347-.057.698-.088 1.05-.092.161-.004.322-.007.483-.007.191-.001.382-.001.573-.001h5.988c.191 0 .382 0 .573.001.16 0 .321.003.482.007.352.004.704.035 1.051.092.347.059.684.171.998.329.633.322 1.147.836 1.469 1.468.159.315.269.652.329 1 .057.347.088.698.092 1.05.005.161.007.322.007.482l.001.242v6.557l-.001.335c0 .161-.003.322-.007.483-.004.352-.035.703-.092 1.05-.06.347-.171.684-.33.999-.322.632-.836 1.146-1.468 1.468-.314.159-.651.27-.998.329-.347.057-.699.088-1.051.093-.161.004-.322.006-.482.007z" fill="#ffd114"/><g fill-rule="nonzero"><g fill="#1c1800"><path d="m9.631 1.378c.143-.019.288-.021.431-.039.281 0 .563-.003.844.002.084.017.17.01.255.025.531.051 1.056.178 1.545.394.286.127.558.287.802.481.149.111.273.249.404.378.395.436.661.985.767 1.564.029.146.048.293.06.441-.008.126.027.25.011.376-.009.067-.013.135-.011.204-.034.464-.147.927-.366 1.339-.213.415-.531.776-.915 1.041-.001 1.42 0 2.84 0 4.26.024.442-.217.884-.591 1.118-.179.116-.388.182-.601.199-2.849 0-5.698 0-8.548 0-.258-.019-.508-.116-.711-.277-.274-.216-.453-.551-.48-.899 0-2.016 0-4.032 0-6.048.019-.201.085-.4.205-.564.054-.089.135-.157.208-.23.244-.21.554-.337.872-.382.236-.034.473-.067.71-.101.112-.017.228-.026.332-.073.154-.061.281-.179.366-.32.082-.132.145-.277.236-.404.079-.125.211-.218.358-.24.167-.035.339-.009.508-.02.016-.011.02-.031.028-.048.107-.301.271-.58.468-.831.275-.343.627-.622 1.015-.829.555-.295 1.176-.448 1.798-.517m-.76.525c-.59.156-1.164.432-1.589.879-.407.415-.651.969-.743 1.539-.054.356-.078.722-.018 1.079.042.269.132.53.265.767.279.496.742.863 1.245 1.114.587.294 1.231.449 1.874.565.039.174.013.362-.075.517-.129.233-.342.406-.568.539-.099.049-.196.112-.309.124.299.039.602-.023.88-.13.52-.197.953-.577 1.274-1.025.152-.002.304-.01.455-.023.575-.054 1.149-.219 1.63-.546.436-.29.777-.718.968-1.206.204-.531.253-1.116.175-1.678-.082-.61-.354-1.198-.79-1.635-.448-.452-1.036-.743-1.648-.901-.612-.162-1.252-.196-1.883-.156-.385.024-.77.078-1.143.177m-2.869 4.41c-.083.085-.182.152-.258.245-.054.07-.121.129-.174.201-.445.559-.692 1.276-.671 1.991.01.501.152.999.399 1.435.192.34.45.644.753.89.468.382 1.05.624 1.652.681.11.003.218.023.328.017.223-.012.448-.031.665-.086.687-.162 1.311-.569 1.741-1.127.365-.471.595-1.049.64-1.645.019-.136.001-.275.011-.412-.198.219-.435.4-.686.554-.038.018-.041.063-.05.099-.065.332-.203.648-.4.924-.208.298-.492.54-.81.715-.54.292-1.191.362-1.782.205-.443-.117-.848-.367-1.156-.705-.33-.366-.546-.836-.601-1.327-.084-.667.123-1.369.569-1.875.067-.068.135-.135.202-.203.082-.084.181-.149.274-.22-.137-.178-.245-.378-.335-.584-.111.065-.21.148-.311.227z"/><path d="m12.333 3.192c.128-.004.257-.003.385-.001-.012.075-.021.15-.018.226.303-.007.609.014.911-.023 0 .114.001.228-.001.343-.073-.004-.146-.019-.219-.017-.231-.001-.463-.001-.694 0 .001.038.001.076.001.114.269-.001.538.007.807-.01-.001.1.003.201-.002.301-.068-.008-.137-.015-.206-.015-.2 0-.4 0-.6 0 .001.037.001.073 0 .109.205.002.411 0 .616.001.123.001.246-.001.368-.013.002.114 0 .229.002.344-.088-.002-.173-.021-.261-.019-.567 0-1.135 0-1.703.001-.092-.002-.183.017-.275.017 0-.036 0-.072-.003-.108-.073.097-.138.199-.21.297-.183-.166-.377-.319-.59-.446.07-.094.142-.186.215-.277.207.117.401.255.586.404.003-.073.001-.146.002-.219.153.024.308.019.462.019.148 0 .296 0 .444-.001 0-.036 0-.072 0-.109-.19 0-.379 0-.569 0-.069 0-.138.007-.207.016-.002-.1-.001-.201 0-.301.258.013.517.01.776.009 0-.038 0-.076 0-.114-.211-.001-.421-.001-.632 0-.067-.001-.133.012-.2.017-.001-.029-.002-.059-.004-.088-.075.086-.14.18-.215.266-.163-.17-.352-.311-.547-.441.077-.088.153-.178.231-.265.189.115.366.248.533.393.002-.068.001-.136.001-.204.276.024.553.016.83.019.01-.076-.005-.151-.014-.225z"/><path d="m7.987 3.217c.128-.001.255-.001.383 0-.016.125-.018.253-.017.379.134.001.269.006.402-.015 0 .12.002.24-.001.359-.133-.02-.267-.019-.4-.017 0 .103-.001.207 0 .31.153 0 .306.004.457-.017.003.014.009.041.011.055.239-.095.392-.343.398-.596-.127-.003-.255.002-.381.017 0-.117-.001-.234.001-.351.08.001.158.019.238.017.339.001.677.001 1.016 0 .069.002.138-.01.207-.017-.018.269-.023.539-.055.807-.014.091-.031.185-.086.262-.047.07-.131.104-.212.118-.128.017-.257.013-.386.007-.007-.119-.032-.236-.08-.346.078.012.157.015.236.023.044.003.091.001.13-.019.032-.019.042-.057.051-.09.03-.14.032-.285.037-.428-.12 0-.241 0-.361 0-.034.245-.104.5-.281.682-.091.091-.195.171-.31.231-.047-.084-.092-.173-.165-.238-.003.076 0 .152-.002.228-.142-.027-.288-.022-.432-.021v.364c.139 0 .279.006.417-.018 0 .117.001.234-.001.351-.138-.022-.277-.02-.416-.019 0 .168.001.335-.001.502.231.093.482.089.726.102.25.004.5.004.749-.011.2.004.398-.027.597-.034-.049.121-.092.246-.101.377-.217.003-.435.003-.652.007-.125 0-.25.01-.375.004-.295-.012-.594-.007-.882-.08-.184-.039-.353-.133-.49-.261-.056-.054-.101-.118-.152-.177-.045.194-.109.384-.2.561-.085-.089-.18-.168-.283-.237.137-.23.196-.497.23-.761.022-.169.031-.341.014-.511.111.007.221.031.332.037.003.175-.015.351-.025.526.045.085.104.163.175.228.003-.317.001-.633.001-.95-.208.001-.416-.008-.621.019-.008-.12-.002-.24-.004-.36.194.024.388.016.583.017 0-.103 0-.207 0-.31-.167-.001-.334-.005-.5.017.002-.12-.005-.239.004-.358.164.023.331.014.496.014.002-.126 0-.253-.019-.379z"/><path d="m8.898 4.607c.335.026.672.008 1.008.014.122.005.243-.013.365-.016-.021.246-.008.492-.011.739-.003.106.002.213.011.319-.21-.013-.42-.007-.63-.008-.25.001-.499-.006-.749.008.025-.168.013-.338.016-.507-.003-.183.007-.366-.01-.549m.352.302c-.001.144-.002.287 0 .43.219-.001.438-.001.657 0 .001-.143.001-.286 0-.43-.219 0-.438 0-.657 0z"/><path d="m11.659 4.624c.499.016.998.004 1.497.01.089.002.178-.012.267-.011-.018.167-.011.335-.012.502-.001.255.002.51-.001.766.001.088-.019.183-.085.247-.086.071-.205.066-.31.067-.121-.002-.244.005-.365-.013-.015-.109-.055-.211-.096-.312.153.015.306.035.459.024.028-.005.045-.035.044-.061.002-.042.001-.084.001-.126-.348-.001-.696 0-1.043 0 .001.169-.007.338.018.506-.127.006-.254.001-.38.002.026-.308.015-.619.017-.928-.002-.224.008-.449-.011-.673m.356.299v.121c.348.001.695 0 1.043.001 0-.041 0-.082 0-.122-.348-.001-.696-.001-1.043 0m-.001.39c.001.043.001.086.001.129.348-.001.695 0 1.043-.001 0-.043 0-.086.001-.128-.349 0-.696-.001-1.045 0z"/><path d="m11.124 4.938c.101.071.203.143.304.216-.123.364-.277.718-.456 1.058-.109-.09-.214-.183-.321-.276.229-.293.349-.652.473-.998z"/></g><g fill="#fff"><path d="m8.871 1.903c.373-.099.758-.153 1.143-.177.631-.04 1.271-.006 1.883.156.612.158 1.2.449 1.648.901.436.437.708 1.025.79 1.635.078.562.029 1.147-.175 1.678-.191.488-.532.916-.968 1.206-.481.327-1.055.492-1.63.546-.151.013-.303.021-.455.023-.321.448-.754.828-1.274 1.025-.278.107-.581.169-.88.13.113-.012.21-.075.309-.124.226-.133.439-.306.568-.539.088-.155.114-.343.075-.517-.643-.116-1.287-.271-1.874-.565-.503-.251-.966-.618-1.245-1.114-.133-.237-.223-.498-.265-.767-.06-.357-.036-.723.018-1.079.092-.57.336-1.124.743-1.539.425-.447.999-.723 1.589-.879m3.462 1.289c.009.074.024.149.014.225-.277-.003-.554.006-.83-.019 0 .068.001.136-.001.204-.167-.145-.344-.278-.533-.393-.078.087-.154.177-.231.265.195.13.384.271.547.441.075-.086.14-.18.215-.266.002.029.003.059.004.088.067-.005.133-.018.2-.017.211-.001.421-.001.632 0v.114c-.259.001-.518.004-.776-.009-.001.1-.002.201 0 .301.069-.009.138-.016.207-.016h.569v.109c-.148.001-.296.001-.444.001-.154 0-.309.005-.462-.019-.001.073.001.146-.002.219-.185-.149-.379-.287-.586-.404-.073.091-.145.183-.215.277.213.127.407.28.59.446.072-.098.137-.2.21-.297.003.036.003.072.003.108.092 0 .183-.019.275-.017.568-.001 1.136 0 1.704-.001.087-.002.172.017.26.019-.002-.115 0-.23-.002-.344-.122.012-.245.014-.368.013-.205-.001-.411.001-.616-.001.001-.036.001-.072 0-.109h.6c.069 0 .138.007.206.015.005-.1.001-.201.002-.301-.269.017-.538.009-.807.01 0-.038 0-.076-.001-.114.231-.001.463-.001.694 0 .073-.002.146.013.219.017.002-.115.001-.229.001-.343-.302.037-.608.016-.911.023-.003-.076.006-.151.018-.226-.128-.002-.257-.003-.385.001m-4.346.025c.019.126.021.253.019.379-.165 0-.332.009-.496-.014-.009.119-.002.238-.004.358.166-.022.333-.018.5-.017v.31c-.195-.001-.389.007-.583-.017.002.12-.004.24.004.36.206-.027.413-.018.621-.019 0 .317.002.633-.001.95-.071-.065-.13-.143-.174-.228.01-.175.027-.351.024-.526-.111-.006-.221-.03-.332-.037.017.17.008.342-.014.511-.034.264-.093.531-.23.761.103.069.198.148.283.237.091-.177.155-.367.2-.561.051.059.096.123.152.177.137.128.307.222.49.261.288.073.587.068.882.08.125.006.25-.004.375-.004.217-.004.435-.004.652-.007.009-.131.052-.256.101-.377-.199.007-.397.038-.597.034-.249.015-.499.015-.749.011-.244-.013-.495-.009-.726-.102.002-.167.001-.334.001-.502.139-.001.278-.003.416.019.002-.117.001-.234.001-.351-.138.024-.278.018-.417.018 0-.121 0-.243 0-.364.144-.001.29-.006.432.021.002-.076-.001-.152.002-.228.073.065.118.154.165.238.115-.06.219-.14.31-.231.177-.182.247-.437.281-.682h.361c-.005.143-.007.288-.037.428-.009.033-.019.071-.051.089-.039.021-.086.023-.13.02-.079-.008-.158-.011-.236-.023.048.11.073.227.08.346.129.006.258.01.386-.007.081-.014.165-.048.212-.118.055-.077.072-.171.086-.262.032-.268.037-.538.055-.807-.069.006-.138.019-.207.017-.339.001-.677.001-1.016 0-.08.002-.158-.016-.238-.017-.002.117-.001.234-.001.351.126-.015.254-.02.381-.017-.006.253-.159.501-.397.596-.003-.014-.009-.041-.012-.055-.151.021-.304.017-.457.017-.001-.103 0-.207 0-.31.133-.002.267-.003.4.017.003-.119.001-.239.001-.359-.133.021-.268.016-.402.015-.001-.126.001-.254.017-.379-.128-.001-.255-.001-.383 0m.911 1.39c.017.183.007.366.01.549-.003.169.009.339-.016.507.25-.014.499-.007.749-.008.21.001.42-.005.63.008-.009-.106-.014-.213-.011-.319.003-.247-.01-.493.011-.739-.122.003-.243.021-.365.016-.336-.006-.673.012-1.008-.014m2.761.017c.019.224.009.449.011.673-.002.309.009.62-.017.928.126-.001.253.004.38-.002-.025-.168-.017-.337-.018-.506.347 0 .695-.001 1.043 0 0 .042.001.084-.001.126.001.026-.016.056-.044.061-.153.011-.306-.009-.459-.024.041.101.081.203.096.312.121.018.244.011.365.013.105-.001.224.004.31-.067.066-.064.086-.159.085-.247.003-.256 0-.511.001-.766.002-.168-.006-.335.012-.502-.089-.001-.178.013-.267.011-.499-.006-.998.006-1.497-.01m-.535.313c-.124.347-.244.706-.473.999.107.093.212.186.321.276.179-.34.333-.694.456-1.058-.101-.073-.203-.145-.304-.217z"/><path d="m9.25 4.909h.657c.001.144.001.287 0 .43-.219-.001-.438-.001-.657 0-.002-.143-.001-.286 0-.43z"/><path d="m12.015 4.923c.347-.001.695-.001 1.043 0-.001.04 0 .081 0 .122-.348-.001-.695 0-1.043-.001 0-.04 0-.081 0-.121z"/><path d="m12.014 5.313c.348-.001.696 0 1.045 0-.002.042-.002.085-.001.128-.348.001-.696 0-1.043.001 0-.043 0-.086-.001-.129z"/></g></g></svg>