<svg clip-rule="evenodd" fill-rule="evenodd" stroke-linejoin="round" stroke-miterlimit="1.41421" viewBox="0 0 446 443" xmlns="http://www.w3.org/2000/svg"><g fill-rule="nonzero"><path d="m206.21.65c18.76-2.08 38.03-.53 56.69 2.7 32.87 5.95 64.34 19.57 91.2 39.44 34.32 25.15 61.1 60.45 76.02 100.3 17.08 45.11 18.68 95.75 4.72 141.9-10.64 35.45-30.48 68.05-56.9 93.96-35.63 35.13-83.5 57.49-133.31 62.22-.68-.15-2.05-.45-2.73-.6.51.01 1.52.02 2.02.03 38.53-7.06 71.73-36.54 83.74-73.77 11.23-33.25 5.33-71.67-15.55-99.91-20.03-27.92-53.65-45.46-88.04-45.65-23.56.26-47.14-7.23-66.15-21.16-20.03-14.49-34.98-35.87-41.57-59.7-5.15-18.33-5.45-38-.88-56.48 6.06-24.93 21.21-47.47 41.89-62.63 12.62-9.34 27.28-15.93 42.65-19.14 2.03-.67 4.29-.48 6.2-1.51m12.29 84.06c-10.5 1.94-19.27 10.86-20.9 21.44-1.44 8.22 1.37 17.05 7.34 22.89 6.55 6.71 16.87 9.4 25.85 6.67 9.82-2.72 17.56-11.67 18.74-21.81 1.09-7.94-1.73-16.31-7.46-21.92-5.99-6.16-15.14-8.93-23.57-7.27z" fill="#e4d0b9"/><path d="m216.43 306.69c7.86-2.23 16.7-.51 23.12 4.56 7.22 5.45 11.17 14.85 10.02 23.83-.96 8.83-6.8 16.93-14.86 20.65-8.71 4.26-19.76 3.04-27.32-3.03-7.5-5.66-11.39-15.61-9.82-24.86 1.47-9.94 9.19-18.51 18.86-21.15z" fill="#e4d0b9"/><path d="m193.9 1.52c4.09-.28 8.24-1.49 12.31-.87-1.91 1.03-4.17.84-6.2 1.51-15.37 3.21-30.03 9.8-42.65 19.14-20.68 15.16-35.83 37.7-41.89 62.63-4.57 18.48-4.27 38.15.88 56.48 6.59 23.83 21.54 45.21 41.57 59.7 19.01 13.93 42.59 21.42 66.15 21.16 34.39.19 68.01 17.73 88.04 45.65 20.88 28.24 26.78 66.66 15.55 99.91-12.01 37.23-45.21 66.71-83.74 73.77-.5-.01-1.51-.02-2.02-.03.68.15 2.05.45 2.73.6-9.2.86-18.41 2.01-27.68 1.44-13.08-.87-26.18-2.08-39.03-4.85-41.75-8.53-80.76-29.67-110.94-59.73-36.42-35.99-59.74-84.96-64.36-135.98-3.2-34.53 1.51-69.85 14.35-102.12 19.3-49.45 57.15-91.27 104.31-115.58 22.64-11.75 47.34-19.51 72.62-22.83m22.53 305.17c-9.67 2.64-17.39 11.21-18.86 21.15-1.57 9.25 2.32 19.2 9.82 24.86 7.56 6.07 18.61 7.29 27.32 3.03 8.06-3.72 13.9-11.82 14.86-20.65 1.15-8.98-2.8-18.38-10.02-23.83-6.42-5.07-15.26-6.79-23.12-4.56z"/><path d="m218.5 84.71c8.43-1.66 17.58 1.11 23.57 7.27 5.73 5.61 8.55 13.98 7.46 21.92-1.18 10.14-8.92 19.09-18.74 21.81-8.98 2.73-19.3.04-25.85-6.67-5.97-5.84-8.78-14.67-7.34-22.89 1.63-10.58 10.4-19.5 20.9-21.44z"/></g></svg>