<svg viewBox="0 0 68 68" xmlns="http://www.w3.org/2000/svg"><circle cx="34" cy="34" fill="#2ca3dc" r="34"/><path d="m46.2 19.6a1.64 1.64 0 0 1 2.2 1.87l-5.4 26.01a1.71 1.71 0 0 1 -2.69 1l-8.22-6-4.19 4.28a1.39 1.39 0 0 1 -2.32-.56l-3-9.59-8.1-2.39a1.16 1.16 0 0 1 -.09-2.2zm-4 5.78a.39.39 0 0 0 -.46-.62l-17.47 10.84a.81.81 0 0 0 -.35.91l2.39 10.49a.15.15 0 0 0 .3 0l.53-8a.77.77 0 0 1 .26-.51z" fill="#fff"/><path d="m41.75 24.76a.39.39 0 0 1 .46.62l-14.81 13.09a.77.77 0 0 0 -.26.51l-.53 8a.15.15 0 0 1 -.3 0l-2.38-10.47a.79.79 0 0 1 .34-.91z" fill="#9ec2e5"/><path d="m26.4 47.09a1.34 1.34 0 0 1 -.86-.89l-3-9.59-8.1-2.39a1.16 1.16 0 0 1 -.09-2.2l31.85-12.42a1.64 1.64 0 0 1 2 .65 1.53 1.53 0 0 0 -.26-.31l-21.64 17.66v.77l-.12-.09.12 4.87v3.9h.1z" fill="#fff"/><path d="m32.05 42.48-4.19 4.28-.1.1-.12.09-.24.13h-.13a1.42 1.42 0 0 1 -.54.05h-.14-.13l-.1-3.94v-4.82z" fill="#d1d1d1"/><g fill="#dadde0"><path d="m27.76 46.86-.12.09z"/><path d="m27.4 47.08.24-.13z"/><path d="m26.73 47.17a1.42 1.42 0 0 0 .54-.05 1.32 1.32 0 0 1 -.39.06h-.15z"/><path d="m26.73 47.17h-.14z"/><path d="m26.44 47.1h.13-.05s0 0 0 0h-.06z"/></g><path d="m26.44 47.1h.06a.19.19 0 0 1 -.1 0z" fill="#fff"/><path d="m26.3 43.15.1 3.94h-.1z" fill="#d1d1d1"/><path d="m26.3 38.37v4.78l-.12-4.87z" fill="#dadde0"/><path d="m42.21 25.38-14.81 13.09a.77.77 0 0 0 -.26.51l-.53 8a.15.15 0 0 1 -.3 0l-2.38-10.47a.79.79 0 0 1 .34-.91l17.48-10.84a.39.39 0 0 1 .46.62z" fill="#adbcc9"/></svg>