<svg clip-rule="evenodd" fill-rule="evenodd" stroke-linejoin="round" stroke-miterlimit="1.41421" viewBox="0 0 216 74" xmlns="http://www.w3.org/2000/svg"><path d="m23.836 17.714c2.251-3.358 6.476-5.714 11.134-5.714 4.659 0 8.884 2.356 11.135 5.714 4.034.271 8.187 2.752 10.516 6.786s2.402 8.871.619 12.5c1.783 3.629 1.71 8.466-.619 12.5s-6.482 6.515-10.516 6.786c-2.251 3.358-6.476 5.714-11.135 5.714-4.658 0-8.883-2.356-11.134-5.714-4.035-.271-8.187-2.752-10.516-6.786s-2.402-8.871-.619-12.5c-1.783-3.629-1.71-8.466.619-12.5s6.481-6.515 10.516-6.786z" fill="#1d54d3"/><path d="m49.735 38.92c-1.273-.19-2.148-.729-3.009-1.66 2.626.186 2.607-.562 2.607-.562s.119-.332-.594-.664c-.315-.146-.625-.36-.895-.533.256.034 3.971.347 4.397-1.104-2.15-.292-4.587-.579-6.346-1.364-.649-.289-1.511-.62-1.962-1.236.576.043 1.557.077 2.401-.135.933-.235 1.84-.572 2.351-1.392.292-.468.298-.967.298-.967s-.621.336-1.277.501c-1.479.373-3.03.225-3.63.162-.646-.069-2.842-.325-2.773-.825.062-.453 1.984-.295 2.367-.261.523.047 1.044.113 1.568.148-1.157-.737-2.524-1.165-3.831-1.525-1.989-.55-4.129-.673-6.119-.099-.857.246-2.084.835-2.713 1.918-1.405 2.423.387 5.354 2.095 7.085 2.025 2.053 3.825 2.993 5.527 3.712 1.702.72 5.229 1.743 7.828.505 1.735-.826 1.71-1.704 1.71-1.704z" fill="#fff"/><path d="m44.866 48.346c-.165-.214-.364-.018-.665.015-.044.005.153-.205.111-.4-.054-.255-.238-.306-.459-.3-.416.01-1.102.398-1.547.361-.607-.05-1.794-.565-1.993-.732-.207-.173.355.019 1.42-.765.326-.24.982-.803.982-.803s.179.751 1.401 1.055c1.222.303 2.121-1.4 1.049-2.394-.486-.45-1.277-.435-1.204-.505.222-.213.42-1.26.388-1.273-.122-.053-.929-.021-2.773-.526-2.411-.659-4.695-1.952-6.571-3.583-1.629-1.415-2.934-3.589-3.414-4.928-.171-.476-.239-1.263-.236-1.789.004-.899.565-2.424 1.851-3.275.143-.094-1.492-.548-2.714-.652-2.563-.219-3.846.507-3.939.412-1.588-1.634-2.26-4.546-2.805-4.377-.576.179-.471 6.546-.568 6.665-.097.12-.532.56-.752.876-.522.752-1.255 1.83-1.453 4.044-.2 2.244.207 6.844 8.286 10.482 3.192 1.436 5.912 1.733 5.912 1.733s1.234.51 1.929.722c.724.221 2.171.889 2.171.889s1.592 1.053 2.453.776c.326-.105.107-.401-.201-.495-.15-.045.334-.106.351-.389.021-.349-.692-.092-.692-.092s.104-.469.25-.41c1.016.414 1.596.859 2.837 1.037.198.028.567.004.609-.363.025-.219-.316-.348-.316-.348-.014.019.59-.296.302-.668z" fill="#fff"/><path d="m37.917 47.783c-.212-.072.302-.032.548-.072.105-.017.865.396 2.137.699.239.057-.707.088-.733.081-1.073-.298-1.537-.567-1.952-.708z" fill="#2554c1"/><g fill="#1d54d3" fill-rule="nonzero"><path d="m68.333 23.711c0-.371.147-.727.41-.99.262-.263.618-.41.99-.41h3.345c.484 0 .934.251 1.19.662 2.214 3.574 12.656 20.421 13.21 21.315.014.023.039.037.066.037.022 0 .04-.018.04-.04 0-.876 0-15.87 0-20.574 0-.773.627-1.4 1.4-1.4h2.181c.371 0 .727.148.989.41.263.263.411.619.411.99v27.082c0 .371-.148.727-.411.99-.262.262-.618.41-.989.41-1.061 0-2.478 0-3.345 0-.485 0-.935-.251-1.19-.663-2.197-3.55-12.493-20.181-13.158-21.255-.021-.034-.058-.054-.097-.054-.001 0-.001 0-.001 0-.034 0-.061.027-.061.061v20.511c0 .773-.627 1.4-1.4 1.4-.681 0-1.499 0-2.18 0-.773 0-1.4-.627-1.4-1.4 0-5.018 0-22.065 0-27.082z"/><path d="m175.346 33.424c0 .774.627 1.4 1.4 1.4h7.138c1.255 0 2.301-.355 3.138-1.067.837-.711 1.256-1.737 1.256-3.076 0-1.506-.377-2.567-1.13-3.18-.753-.614-1.842-.921-3.264-.921h-7.138c-.773 0-1.4.627-1.4 1.4zm-5.232-9.713c0-.773.627-1.4 1.4-1.4h13.123c2.678 0 4.827.614 6.445 1.841 1.618 1.228 2.427 3.083 2.427 5.567 0 1.506-.369 2.797-1.109 3.871-.732 1.064-1.773 1.888-3.121 2.473-.023.01-.039.034-.039.059 0 .024.017.045.041.05 1.821.395 3.203 1.264 4.144 2.607.949 1.354 1.423 3.049 1.423 5.085 0 1.172-.209 2.267-.627 3.286-.419 1.018-1.075 1.897-1.967 2.636-.893.74-2.037 1.325-3.432 1.758-1.395.432-3.055.649-4.98.649h-12.328c-.371 0-.727-.148-.989-.41-.263-.263-.411-.619-.411-.99 0-5.018 0-22.065 0-27.082zm5.232 22.813c0 .773.627 1.4 1.4 1.4h7.849c1.59 0 2.825-.412 3.704-1.235s1.318-1.988 1.318-3.494c0-1.479-.439-2.616-1.318-3.411s-2.114-1.193-3.704-1.193h-7.849c-.773 0-1.4.627-1.4 1.4z"/><path d="m151.03 25.868c-1.59 0-2.964.321-4.122.963s-2.099 1.5-2.825 2.574c-.725 1.074-1.262 2.295-1.611 3.662s-.523 2.762-.523 4.185.174 2.818.523 4.185.886 2.588 1.611 3.662c.726 1.074 1.667 1.932 2.825 2.574 1.158.641 2.532.962 4.122.962 1.591 0 2.965-.321 4.123-.962 1.158-.642 2.099-1.5 2.825-2.574.725-1.074 1.262-2.295 1.611-3.662s.523-2.762.523-4.185-.174-2.818-.523-4.185-.886-2.588-1.611-3.662c-.726-1.074-1.667-1.932-2.825-2.574s-2.532-.963-4.123-.963zm0-4.268c2.232 0 4.234.418 6.006 1.255s3.271 1.967 4.499 3.39 2.169 3.083 2.825 4.98c.656 1.898.983 3.906.983 6.027 0 2.148-.327 4.171-.983 6.068s-1.597 3.558-2.825 4.98c-1.228 1.423-2.727 2.546-4.499 3.369-1.772.824-3.774 1.235-6.006 1.235s-4.234-.411-6.005-1.235c-1.772-.823-3.272-1.946-4.499-3.369-1.228-1.422-2.169-3.083-2.825-4.98s-.984-3.92-.984-6.068c0-2.121.328-4.129.984-6.027.656-1.897 1.597-3.557 2.825-4.98 1.227-1.423 2.727-2.553 4.499-3.39 1.771-.837 3.773-1.255 6.005-1.255z"/><path d="m118.042 23.209c.208-.541.727-.898 1.307-.898h3.643c.579 0 1.098.356 1.306.897 1.588 4.123 8.206 21.306 10.431 27.081.166.431.109.916-.152 1.296-.262.38-.693.608-1.155.608-.879 0-1.866 0-2.579 0-.593 0-1.122-.374-1.32-.933-.539-1.522-1.603-4.523-2.143-6.045-.198-.559-.726-.932-1.319-.932-2.245 0-7.705 0-9.95 0-.593 0-1.121.373-1.319.932-.54 1.522-1.604 4.523-2.143 6.045-.198.559-.727.933-1.32.933-.663 0-1.561 0-2.373 0-.461 0-.892-.227-1.154-.607-.261-.38-.318-.865-.153-1.295 2.216-5.773 8.809-22.955 10.393-27.082zm-.841 15.233c-.151.429-.084.904.178 1.274.263.371.689.591 1.143.591h5.176c.454 0 .879-.22 1.141-.589.263-.37.33-.844.181-1.272-1.177-3.377-3.566-10.232-3.809-10.93-.012-.034-.045-.057-.081-.057-.001 0-.001 0-.001 0-.038 0-.072.024-.085.06-.25.711-2.656 7.549-3.843 10.923z"/><path d="m98.758 23.711c0-.371.148-.727.411-.99.262-.263.618-.41.989-.41h2.432c.371 0 .727.147.99.41.262.263.41.619.41.99v27.082c0 .371-.148.727-.41.99-.263.262-.619.41-.99.41-.753 0-1.679 0-2.432 0-.371 0-.727-.148-.989-.41-.263-.263-.411-.619-.411-.99 0-5.018 0-22.065 0-27.082z"/><path d="m199.578 23.711c0-.371.147-.727.41-.99.262-.263.618-.41.99-.41h2.431c.371 0 .727.147.99.41.262.263.41.619.41.99v27.082c0 .371-.148.727-.41.99-.263.262-.619.41-.99.41-.753 0-1.679 0-2.431 0-.372 0-.728-.148-.99-.41-.263-.263-.41-.619-.41-.99 0-5.018 0-22.065 0-27.082z"/></g></svg>